<?xml version="1.0" encoding="utf-8"?>
<!-- Generator: Adobe Illustrator 21.0.2, SVG Export Plug-In . SVG Version: 6.00 Build 0)  -->
<svg version="1.1" id="Layer_1" xmlns="http://www.w3.org/2000/svg" xmlns:xlink="http://www.w3.org/1999/xlink" x="0px" y="0px"
	 viewBox="0 0 256.1 541.2" style="enable-background:new 0 0 256.1 541.2;" xml:space="preserve">
<style type="text/css">
	.st0{fill:#FBCECD;}
	.st1{fill:#F39CA2;}
	.st2{fill:#EC7C88;}
	.st3{fill:#BF1F3E;}
	.st4{fill:#A11C31;}
	.st5{fill:url(#SVGID_1_);}
	.st6{fill:#FFFFFF;}
	.st7{fill:url(#SVGID_2_);}
	.st8{fill:url(#SVGID_3_);}
	.st9{fill:url(#SVGID_4_);}
	.st10{fill:#631E30;}
	.st11{fill:#A42547;}
	.st12{fill:#47121D;}
	.st13{fill:url(#SVGID_5_);}
	.st14{fill:url(#SVGID_6_);}
	.st15{fill:url(#SVGID_7_);}
	.st16{fill:url(#SVGID_8_);}
	.st17{fill:url(#SVGID_9_);}
	.st18{fill:url(#SVGID_10_);}
	.st19{fill:url(#SVGID_11_);}
</style>
<g>
	<g>
		<g>
			<path class="st0" d="M246.4,90.2c0,9.5-0.4,36.2-2.3,44.8c-1.4,7-3.9,10-7.9,12.5c-0.7,0.7-4.4,2.6-8.8,3.3
				c-1.7,0.3-3.3,0.5-5.5,0.5c-7.7,0-24.4-9.8-30.8-13.9c8.1-18.6,6.4-14.7,8.7-19.9l0.1-0.1c0.2-0.5,0-1.3-0.4-2.3
				c-1.1-3.1-3.7-8.3-2.5-11.2c1.1,0.3,22.7,15.1,23.1,15.5c1.3,0,10.6-33.9,10.6-35.2C236.6,79.6,244.9,83,246.4,90.2L246.4,90.2z"
				/>
		</g>
		<path class="st1" d="M246.3,95.6c0,5.2-0.4,32.2-2.5,40.6c-1.5,6.2-3.8,8.9-7.6,11.4c-0.7,0.7-4.4,2.6-8.8,3.3
			c-6.2,1.1-12.2,0.9-31.9-10.7c2.6-19.9,2.2-22.3,6.9-33.2c0.7,0.2,17.1,12,17.5,12.4c0.8,0.6,7.6,6.2,11.1,4.5
			c2.2-1,2.5-4.2,3.1-9.9c0.4-3.6,0.5-5.5-0.7-6.9c-1.6-1.9-5-2.2-8.6-1c0.5-1.7,1-3.5,1.5-5.3c2.2-1.8,5.2-3.5,8-4.7
			C240.9,93.3,244.5,93.9,246.3,95.6z"/>
		<path class="st2" d="M243.8,136.1c-1.5,6.2-3.8,8.9-7.6,11.4c-0.7,0.7-4.4,2.6-8.8,3.3c-6.2,1.1-12.2,0.9-31.9-10.7
			c3.4-25.6,2-19.6,6.6-32.4c0.5,0,1,0,1.6,0c8,13,5.6,17.6,9.3,25.3c1.6,3.2,5.2,10.8,12.2,12.4c4.5,1,8.7-0.7,11.5-2.4
			C239.3,141.3,241.9,138.5,243.8,136.1z"/>
	</g>
	<g>
		<g>
			<g>
				<g>
					<g>
						<g>
							<path class="st0" d="M255.7,77.2c0,1.4-1.4,3.4-1.4,3.4c-2,2.3-3.6,5-5.4,7.4c-1.9,2.5-2.2,3-2.4,3.5c0,0.1-0.2,0.6-0.4,0.6
								c-0.1,0,0.8-5.2-9.5-4.9c-3.8,0.1-6.4,2.2-7.1,2.8c-1-14.7-4.7-22.1-0.7-31.6c0.2-0.4,1.5-3.5,1.8-3.8
								c3.3-3.9,7.9-3.7,5.6,1.8l0,0c-3,7.7-1.4,9-1.4,9c1.2,1,4.5-0.5,6.4-2.4c0.8-0.8,1.4-1.6,1.8-2.2c2-3,6-15.4,9.7-15.7
								c0.7,0,1.8,0.2,3.3,2.2c-0.7,2.2-1.3,4.4-2,6.6c0,0-3.6,8.6-3.4,10c0.4,0.1,0.8,0.1,1.2,0.2c4.5,3.2,0.4,2.8,1.6,5.9
								c0.2,0.5,0.6,0.6,0.9,1.1c0.3,0.5,0.8,1.4,0.8,1.7c0,0.8-0.4,1.7-0.2,2.2c0,0,0,0.1,0,0.1c0.1,0.3,0.2,0.3,0.3,0.8
								C255.6,76.3,255.7,77,255.7,77.2z"/>
						</g>
					</g>
				</g>
			</g>
		</g>
	</g>
	<g>
		<path class="st3" d="M197.8,143.7c0,0-22.2-12.2-22.2-12.2c-10-28.1-5.7-15.7-19.2-55.4c0,0,8.9-0.9,17.3,5.7
			c8.4,6.7,27.8,23,27.8,23s2.1,2.1,3.5,6.2C208.6,121.2,204.2,136.3,197.8,143.7z"/>
		<path class="st4" d="M197.8,143.7c0,0-22.2-12.2-22.2-12.2l-8-22.4c7.3,6.3,17.5-0.9,14.5-9.9c2.9,15.9,8.3,26.2,13.3,26.1
			c5.1-0.1,8.7-11.1,9.7-14.2C208.6,121.1,204.2,136.2,197.8,143.7z"/>
	</g>
	<g>
		<g>
			<g>
				<linearGradient id="SVGID_1_" gradientUnits="userSpaceOnUse" x1="110.9385" y1="485.4414" x2="160.9738" y2="485.4414">
					<stop  offset="0" style="stop-color:#005995"/>
					<stop  offset="1" style="stop-color:#0E173F"/>
				</linearGradient>
				<path class="st5" d="M161,497.1c0.1,2.9-0.3,7.9-1.4,10.2c-2,4.4-7.1,6-7.7,6.2c-6.1,1.8-12.7-1.4-16.4-5.3
					c-4-4.2-1.9-6.4-7.3-13.5c-3-3.9-4.6-5.8-7.2-7.6c-2.4-1.6-4.9-2.6-6.9-5.5c-0.7-1-0.9-1.9-1.4-3.2c-0.9-2.7-3-9-0.7-15.6
					c0.6-1.6,1.1-3,2.5-4.2c2.5-2.1,5.9-1.7,6.9-1.6c5.1,1.4,13.8,4.7,22.3,12.2C155.3,479.5,159.5,491.8,161,497.1z"/>
			</g>
			<g>
				<path class="st6" d="M161,497.1c0.1,2.8-0.1,7-1.2,9.6c0,0.1-0.1,0.2-0.1,0.3c-1.8,1.8-3.6,3.1-6.2,4
					c-6.1,1.9-12.7-1.4-16.4-5.3c-2.5-2.6-2.6-4.5-3.7-7.2c-0.6-1.6-1.6-3.6-3.6-6.3c-3-3.9-4.5-5.8-7.2-7.6c-4-2.7-7-3.7-8.2-8.7
					c-1.5-5.9-5.8-19.2,6.3-19.1c1.9,0,3.3,0.6,4,0.9c12.4,5.1,19,11.2,19,11.2C154.4,478.9,159.3,491.9,161,497.1z"/>
			</g>
			<linearGradient id="SVGID_2_" gradientUnits="userSpaceOnUse" x1="148.0944" y1="469.1306" x2="145.0317" y2="506.5397">
				<stop  offset="0" style="stop-color:#65B3E3"/>
				<stop  offset="1" style="stop-color:#E9F6FC"/>
			</linearGradient>
			<path class="st7" d="M161,497.1c0,1.6,0,5.5-0.5,6.9c0,0.6-0.4,2-0.7,2.7c0,0.1,0,0.1,0,0.2c-2,2-3.6,3.2-6.3,4.1
				c-6.1,1.9-12.7-1.4-16.4-5.3c-2.5-2.6-2.6-4.5-3.7-7.2c0.3-3,0.8-6.5-0.6-13.5c-2-9.9-0.1-12.6,10.9-16
				C152.6,476.3,160.7,486.4,161,497.1L161,497.1z"/>
		</g>
		<g>
			<g>
				<linearGradient id="SVGID_3_" gradientUnits="userSpaceOnUse" x1="15.9271" y1="520.9766" x2="94.9232" y2="520.9766">
					<stop  offset="0" style="stop-color:#005995"/>
					<stop  offset="1" style="stop-color:#0E173F"/>
				</linearGradient>
				<path class="st8" d="M16.3,530.9c1.4,3.6,5.9,4.8,8.8,5.5c16.3,4.1,30.3,4.5,43.9,4.8c0.6,0,9.4,0.4,17.6-3.2
					c6.9-3,9.3-7.8,8-22.4c-0.5-5.6-0.9-15.1-17-14.9c-2.2,0-5.8,1-13,3c-14.2,3.9-15,5-23.1,7.8c-16.4,5.7-22.5,6.8-25,14
					C15.9,527.2,15.6,529.1,16.3,530.9z"/>
			</g>
			<g>
				<path class="st6" d="M92.8,529c-4.3,5.9-15.9,7.6-23.4,7.6c-13.6-0.4-27.6-0.8-43.9-4.8c-3.7-0.9-8.1-2.4-9-6.1
					c0.4-3.5,1.6-8.5,5.5-11.2c3.1-2.2,5.7-1.3,13.1-2.6c3-0.5,7.2-1.8,15.4-4.3c10.6-3.2,15.9-4.9,16.2-5c1.2-0.5,4.8-2.1,9.6-2.1
					c5.5,0,12.3,1.1,15.6,5.5c1.4,1.8,1.9,3.8,2.4,7.2c0,0,0,0,0,0C94.9,518.3,95.7,524.9,92.8,529z"/>
			</g>
			<g>
				<linearGradient id="SVGID_4_" gradientUnits="userSpaceOnUse" x1="92.9825" y1="478.9552" x2="54.4842" y2="562.0016">
					<stop  offset="0" style="stop-color:#65B3E3"/>
					<stop  offset="1" style="stop-color:#E9F6FC"/>
				</linearGradient>
				<path class="st9" d="M94.9,522.6c-7.1,12-11.2-4.7-21-5c-7.4-0.2-12.8,10.6-15.2-12.2c0.1-0.1,0.2-0.2,0.2-0.3
					c2.8-0.9,5.4-1.7,7.8-2.5c5.7,5.1,15.2,6.2,22.5,0.8c1,0.7,2,1.6,2.8,2.6c2,2.7,2.4,7.2,2.4,7.2
					C94.7,516.3,94.9,519.5,94.9,522.6z"/>
			</g>
		</g>
		<g>
			<g>
				<g>
					<path class="st10" d="M170.8,293.5C170.8,293.5,170.8,293.5,170.8,293.5c-2.1,21.5-5,47.7-4.2,80.2c0,0,2.3,18.2,1.3,32
						c-3.8,50.3-5,65.1-5,80.3c3.1,10.4-13.1,14.2-19.7,10.6c-7.1-3.8-7.4-14.4-7.4-14.4c-7.6-100.4-7.2-100.2-7.2-100.1
						c-1.1-4.9-4-19-6-30.6c-1.2-7.3-1-24.4-2.5-35.2c-4.9,13.2-13.3,47.8-19.3,64.9c0.8,3.1,1,9,0.7,11.3
						c-0.5,33.8-11.4,62.5-6,112.9c-0.1,0.1-0.2,0.3-0.5,0.6c-4.6,4.6-11.9,9.2-18.3,8c-0.1,0-0.2,0-0.3,0
						c-5.9-1.1-12.5-5.8-14.6-11c0.4-5.1,0.7-12.4,0.7-15.7c0.1-5,0.1-11.9,0-14.6c0-0.4-0.1-3.8-0.1-4.5c-0.1-3-0.2-6.7-0.5-9.8
						c0-0.7-0.3-5.1-0.5-5.7c0-0.1-0.5-5.3-0.5-5.3c0-0.4-0.4-3.9-0.4-4.3c-0.1-0.5-0.4-4.7-0.4-4.8c-0.2-2.3-0.3-4.6-0.4-6.8
						c0-1-0.1-2-0.1-3.1c-0.1-3.4-0.2-6.8-0.3-10.2c-0.1-4.7-0.1-9.9,0-16c0-2,0-4.5,0.1-7c0-0.8,0-1.6,0-2.5c0-1,0-2.1,0.1-3.2
						c0-0.5,0-1,0-1.5c0.4-9.1,0.2-4.6,0.2-11.4c0-0.1,0-0.1,0-0.2c-0.3-50.6-0.7-60.4,0.3-77.6c0-0.1,0-0.2,0-0.3
						c1.8-25.9,5.9-42.3,10.6-58.4c22.9,28.2,78.1-21.8,95.4-5.5C175.8,244.5,172.1,280.1,170.8,293.5z"/>
					<path class="st11" d="M169.9,242.1c0,0-72.5,3.3-87.5,40.2c-4.2,10.4-2.8,20.6-1,27.1c0.8,2.9-0.5,5.9-3.1,7.5
						c-8.7,5.2-13.1,9.5-15.1,13.2c-2.2-1.7-3.4-1.7-4-1.4c-0.3-30.4,1.3-56.8,11.2-88.5c5.7,7.2,18.2,10.6,23.9,9.6
						C95.2,249.8,169.8,241.4,169.9,242.1z"/>
					<path class="st12" d="M170.8,293.5C170.8,293.5,170.8,293.5,170.8,293.5c-2.6,5.3,1.2-18.9-8.9-24.1c-4.7-2.5-9.4,0.7-19.2,3.6
						c-15.3,4.6-29.6,5.2-36,3.6c-29.2-7.2-38-30.3-38-30.3c21.5,0.1,16.1,0.1,54,0.3l43.1-11.8
						C175.8,244.5,172.1,280.1,170.8,293.5z"/>
					<path class="st12" d="M101.5,391.1c0.2,0.5,0.3,1,0,1.3c0,0,0,0.1-0.1,0c-0.8,0.5-2.2,1.1-4,1.7c-9.6,3-15-2.5-19.7,0.6
						c-3.7,2.5-5.8,10.8-2.1,12.6c3.9,1.9,8.2,1.6,8.3,1.6c2.7-0.2,7.4,0.3,16,3.3c-0.3,4.6-0.3,4.7-2.1,18.4c0,0,0,0.1,0,0.1
						c-5.3,5.4-14-0.9-19.9,4.2c-5.8,4.9-6.8,18.6,1,25.9c5.5,5.1,12.9,4.6,14.4,4.5c0.1,0,0.4,0.2,0.9,0.6c-0.2,4.4-0.2,8.8-0.1,13
						c-5.4-1.7-11.2,0-14.6,4.2c-3.7,4.5-3.9,11.2-1.2,14.8c4,5.4,10.6,7.3,17.3,7.5c-0.1,0.1-0.2,0.3-0.5,0.6
						c-1.6,2.1-6.9,7.9-15.3,8.2c-1,0-2,0-3.1-0.1c-0.1,0-0.2,0-0.3,0c-5.6-0.8-11-3.8-13.4-8.7c-1.2-2.5-1.1-4.2-1.1-4.2
						c2.8-52.7-3.7-43.4-2.6-106c0.1-8.2,0.7-27.1,0.3-43.5c-0.2-8,0-7.4-0.1-9.5c0-0.4,0-0.8-0.1-1.1c-0.5-8.1-1.5-11.5,0-12.3
						c0.6-0.4,1.7-0.3,4,1.4c0,0,0,0,0,0c5.5,3.8,6.3,8.2,8.7,21.2c1.6,9,9.9,14.8,17.9,13c5.6-1.3,8.9-6,12.9-12.7
						c11-18.5,17.2-35.4,17.2-35.4c0.2,0-18,60.9-18.1,61.1c-1.4,4.3-2.5,4.4-2.7,6.1C99.3,383.5,99.7,385.6,101.5,391.1z"/>
					<path class="st12" d="M122.2,351.6c9.3,51.6,2.9-10.3,13.5,130.6c0,0,0.4,10.6,7.4,14.4c6.6,3.6,22.8-0.1,19.7-10.6
						c-6.9,3.8-13,4.2-15,1.6c-2-2.5,0.3-7.4,0.4-7.6c3.3-6.9,10.9-5.5,14.8-12.7c1.7-3.1,3.4-12.6,1.8-21.9
						c-1.5,4.5-5.9,7.1-10,6.3c-5.1-1-7.8-7.1-6.5-9.9c1-2.1,3.9-1.4,8-3.2c4.8-2.1,7.7-6.1,9.5-9.3c-8.9,2.7-25.9,6.9-22.9-1.9
						c3.7-10.8,25.3-14.3,24.9-15.6c-0.3-1.1-15.3,3.7-22.8-2.8c-0.5-0.5-2.5-2.2-2.1-3.6c0.6-2.1,5.5-1.2,10.6-2.9
						c6.9-2.1,12.4-8,14.8-13.9c2.2-5.3,1.6-10.2,1-15.9c-0.6-5.5-2-9.8-3.1-12.7c-6,24.5-24.6,4.9-30.5-9c-1.5-3.5-2.2-6.6-2.6-8.7
						c-5.7-26.2,11.9-28.2,10.8-59.3c-4.8,13.2-13,24.7-24.1,33.4C120,316.4,119.2,334.5,122.2,351.6z"/>
				</g>
			</g>
		</g>
		<g>
			<g>
				<g>
					<linearGradient id="SVGID_5_" gradientUnits="userSpaceOnUse" x1="71.6039" y1="76.801" x2="116.8487" y2="155.8845">
						<stop  offset="0" style="stop-color:#EF4865"/>
						<stop  offset="1" style="stop-color:#BF1F3E"/>
					</linearGradient>
					<path class="st13" d="M172.4,170.4c-0.2,1-0.5,2-0.7,3c0,0-1.8,7.8-2.4,14.9c0,0-0.5,5.7-0.1,14.4c0.1,5.8,2.6,31.8,2.2,33.9
						c-3.8,18.2-25.9,32.3-46.1,34.8c-22,2.6-43.4-9.2-56.6-25.2c-4.3-21.9,3.7-21,3.7-39c0.2-0.2-2.4-83.7-2.4-84
						c-0.1-4.1,1.6-8,4.8-10.7c6.2-5.2,15.8-11.7,19.8-13.8c12-6.7,49-20.9,49.8-20.9c0.3-0.1,0.6-0.2,0.9-0.3
						c7.7-2.6,19.5-6.3,32.8,10.9C189.1,103.5,176.8,152.3,172.4,170.4z"/>
					<path class="st4" d="M178.2,144.7c-1.2,6.7-5.4,24.8-6.5,28.7c0,0,0,0,0,0.1c-1.3,4.8-2.1,9.9-2.4,14.8c0,0-0.4,6.1-0.1,14.4
						c0.3,10.5,3.1,28.9,2.2,33.9c-3.8,18.2-25.9,32.3-46.1,34.8c-11.8,1.4-22.2-1.2-30.7-5.2c0.4,0,1.4,0.2,2.8,0.5
						c0,0,3.1,0.5,5.8,0.7c2.5,0.2,18-1.3,30.9-11.8c15.8-13,20-33.5,24-53.2C159,197.9,170.2,142.2,178.2,144.7z"/>
					<path class="st4" d="M142.9,102.7c-4.8,4-10.4,4-14.3,4c-10.1-0.1-20-5.2-26.5-11.7c1.8-0.7,40.4-17.1,42.3-17.1
						c0.3-0.1,0.6-0.2,0.9-0.3C151,85.4,150.7,96.4,142.9,102.7z"/>
					<linearGradient id="SVGID_6_" gradientUnits="userSpaceOnUse" x1="134.3703" y1="191.9125" x2="-56.686" y2="222.1588">
						<stop  offset="0" style="stop-color:#EF4865"/>
						<stop  offset="1" style="stop-color:#BF1F3E"/>
					</linearGradient>
					<path class="st14" d="M94.6,266.3c-15.3-7.1-24.8-18.8-25.9-20c-1.2-6.3-1.9-13.8,0-20c2.1-4.2,4.1-18.9,3.7-19.2
						c0.8-11.3-1.9-51.3-2.7-54.6c1.8-3.2,10.9-21.6,14.5-20.8c2.9,4.8,6.3,11.9,6.3,20.5c0,15.7-11.8,11.6-3.8,52.8
						c0.3,1.3,0.4,2.1,0.7,3.1c2.5,8.6,8,13.3,6,16.5c-2.1,3.4-9.4-0.1-12.5,2.9C77.5,230.7,79.1,240.6,94.6,266.3z"/>
				</g>
			</g>
		</g>
	</g>
	<g>
		<g>
			
				<linearGradient id="SVGID_7_" gradientUnits="userSpaceOnUse" x1="-8146.958" y1="-1385.0566" x2="-8164.9751" y2="-1330.0577" gradientTransform="matrix(-0.9396 -0.3424 -0.3424 0.9396 -8004.3291 -1414.3333)">
				<stop  offset="0" style="stop-color:#EC7C88"/>
				<stop  offset="1" style="stop-color:#FBCECD"/>
			</linearGradient>
			<path class="st15" d="M104.1,79.4c3.5,1.5,5.5,4.9,4.6,8.7c11.3,17.1,33.1,9.8,35.7,1.6c0.8-2.4,0.3-4.6,0.3-4.6
				c-0.4-1.9-1.3-3-1.9-4c-0.9-1.7-1.6-4.5-0.3-9.2C129.7,74.4,116.9,76.9,104.1,79.4z"/>
			<path class="st6" d="M144.8,78c-6.9,10-7.7,10.2-17,11c-9.9,0.8-19.5-3.7-19.5-3.7c-2.1,3.2-4.2,6.5-6.3,9.7
				c3.2-0.1,6.4,0,9.8,0.2c0,0,1.6,1.4,3.4,2.6c7.5,4.8,14.9,4.2,14.9,4.2c9.7-0.3,17.1-9,14.7-19C144.9,81.3,144.9,79.7,144.8,78z"
				/>
		</g>
	</g>
	<g>
		<g>
			<path class="st10" d="M43.6,172c0,0-0.2,5.7,13.1,15.2c12.1,8.6,17.6,6.1,21.3,0.5c2.3-3.5,2.9-8.1,1.4-11.9
				c-0.3-0.7-1-2.3-5.3-6.1c-7.7-6.8-14.5-12.6-22.8-6.8C45,167.2,43.6,172,43.6,172z"/>
			<g>
				<path class="st0" d="M29.8,274c-7.8-1.9-20.3-5.1-20.3-5.1c25.1-54.3,23.9-77.3,37-100.2c0,0-0.9-3.1,0.7-6l17.3-4.9
					C104.7,168.6,41.7,212.2,29.8,274z"/>
				<linearGradient id="SVGID_8_" gradientUnits="userSpaceOnUse" x1="64.0764" y1="168.7682" x2="26.4676" y2="265.8661">
					<stop  offset="0" style="stop-color:#EC7C88"/>
					<stop  offset="1" style="stop-color:#FBCECD"/>
				</linearGradient>
				<path class="st16" d="M79.4,179.2c-33.9,59.4-18,20.8-36.9,61.1c-3,6-10.6,15-7.8,16.1c-0.7-0.3-6.6-3.7-15.6-9.3
					c6.3,1.9,9.5,0.3,10.6-0.4c1.2-0.7,2.6-2.1,4.4-3.8c0,0,1.8-1.7,3.3-3.3c4.5-4.8,13.5-23.5,14.5-25.4
					c10.1-20.1,21.7-25.5,11.4-34c-7.3-6-16.1-6.1-19.9-5.9l3-5.6c0,0-0.9-3.1,0.7-6l17.3-4.9c2.6,0.7,5.9,2.6,7.7,3.9
					C81.5,167.6,82.1,171.4,79.4,179.2z"/>
			</g>
			<linearGradient id="SVGID_9_" gradientUnits="userSpaceOnUse" x1="105.8143" y1="82.5405" x2="60.7621" y2="181.199">
				<stop  offset="0" style="stop-color:#EF4865"/>
				<stop  offset="1" style="stop-color:#BF1F3E"/>
			</linearGradient>
			<path class="st17" d="M84.9,119.6c-4.4-3.8-9.9-4.2-12.5-4.2c-12.5,16.6-22.6,37.9-28.7,56.5l0,0c0,0,7.6-10.4,22.5-0.4
				C81,181.6,78,187.6,78,187.6l12-21.2C101.5,147.1,89.6,123.6,84.9,119.6z"/>
		</g>
		<path class="st0" d="M29.3,292.8c0,0.3-0.3,1.9-1.8,2.8c-2.1,1.4-5.3,0.6-6.2-1.2c-0.4-0.8-0.3-1.5,0.1-3.7c0.2-1,0.5-2.7,0.9-5
			c-1.4-0.7-2.9-1-3.3-1c-1.9,0.1-4,3.1-2.9,6.3c0.4,0.6,4,5.8,4.1,6.4c0.1,0.4,0,1-0.3,1.9v0c-0.2,0.4-0.3,0.7-0.5,1
			c0,0.1-0.7,1.1-0.6,1c-0.1,0.2-0.6,0.8-0.7,1c0,0.8-0.5,1.1-0.5,2c0,1.2-0.3,2.2-1.5,3c-0.8,0.5-1.6,0.7-1.6,0.7
			c0,0-0.2,0.2-0.2,0.2c-0.2,0.2-1.7,3.1-2.5,3.3c-1.4,0.3-4.3-7.1-6.8-11.2c-0.1-0.2-0.6-1-1.3-2.2c-0.5-0.9-1.7-3.2-2.1-4.2
			c-0.2-0.5-0.4-1-0.6-1.7c-0.5-1.4-0.7-2.6-0.8-3.4c0-1.5-0.1-2.9-0.1-4.4c0-0.6,0-1.3-0.1-1.9c0.8-2.9,1.9-5.1,2.8-6.6
			c2.3-3.8,5.8-6.8,9.5-9.3c2.2,2.2,5.2,3.9,7.6,4.7c3.2,1.2,6.8,0.4,9.8-1.4c0.1,0.7,0.1,1.5,0.1,2.3
			C30.1,285.7,31.5,279.1,29.3,292.8z"/>
	</g>
	<g>
		<path class="st0" d="M144.9,69.4c-2.7,1.8-9.5,7.3-6.7,13.2c0.2,0.4,0.3,0.8,0.2,1.2c-0.4,3.5-16.8,4.8-29.3-1.6
			c-0.9-0.5-5-2.6-9.2-6.8c-14.1-14.2-18.1-41-2.7-63.6C113.1,31,129,50.2,144.9,69.4z"/>
		
			<linearGradient id="SVGID_10_" gradientUnits="userSpaceOnUse" x1="79.6817" y1="44.6789" x2="150.004" y2="44.6789" gradientTransform="matrix(-0.9006 0.4346 0.4346 0.9006 209.5934 -47.9357)">
			<stop  offset="0" style="stop-color:#270E13"/>
			<stop  offset="1" style="stop-color:#4C1825"/>
		</linearGradient>
		<path class="st18" d="M148.2,70.3L148.2,70.3c7.2-12.2,11.5-24.9,9.3-38.9C154.9,14.4,142.2,6,142.2,6
			c-10.3-6.8-26.3-8.2-34.6-1.1c-4.5,3.9-3.9,7.9-14.9,26.6c-1.3,2.3-2.5,4.1-3.2,5.2c-0.2,0.5-0.1,2.7,0,3.2
			c1,9.8,9.2,11.3,9.3,26.2c0.3,1.5,0.8,3.6,2,6c0,0,2.5,4.9,7.5,8.6C120.4,89.6,140.8,88.5,148.2,70.3z"/>
		
			<linearGradient id="SVGID_11_" gradientUnits="userSpaceOnUse" x1="79.6016" y1="34.0124" x2="144.824" y2="34.0124" gradientTransform="matrix(-0.9006 0.4346 0.4346 0.9006 209.5934 -47.9357)">
			<stop  offset="0" style="stop-color:#8C203C"/>
			<stop  offset="1" style="stop-color:#7A263B"/>
		</linearGradient>
		<path class="st19" d="M89.6,36.7c12.8,9.7,9.9,6.7,16.7,16.8c1.6,2.3,5.3,5.8,7.3,6.8c8,4.2,24-11,26-8.7c0.8,0.9-1.6,3.6-0.3,5.3
			c1,1.4,3.6,1.3,5.3,0.8c2.5-0.7,3.5-2.7,6.3-5.7c2.9-3.2,5.2-5.9,6.8-7.9c1.8-14.9-3.6-29.9-15.5-38.2
			C122.6-7.6,93.7,4.6,92.2,16.2c-0.3,2.6,0.7,3.9,0.7,8C92.9,29.6,91.1,33.9,89.6,36.7z"/>
	</g>
</g>
</svg>
