<?xml version="1.0" encoding="utf-8"?>
<!-- Generator: Adobe Illustrator 21.0.2, SVG Export Plug-In . SVG Version: 6.00 Build 0)  -->
<svg version="1.1" id="Layer_1" xmlns="http://www.w3.org/2000/svg" xmlns:xlink="http://www.w3.org/1999/xlink" x="0px" y="0px"
	 viewBox="0 0 256.1 541.2" style="enable-background:new 0 0 256.1 541.2;" xml:space="preserve">
<style type="text/css">
	.st0{fill:#FBCECD;}
	.st1{fill:#F39CA2;}
	.st2{fill:#EC7C88;}
	.st3{fill:#BF1F3E;}
	.st4{fill:#A11C31;}
	.st5{fill:url(#SVGID_1_);}
	.st6{fill:#FFFFFF;}
	.st7{fill:url(#SVGID_2_);}
	.st8{fill:url(#SVGID_3_);}
	.st9{fill:url(#SVGID_4_);}
	.st10{fill:#631E30;}
	.st11{fill:#A42547;}
	.st12{fill:#47121D;}
	.st13{fill:url(#SVGID_5_);}
	.st14{fill:url(#SVGID_6_);}
	.st15{fill:url(#SVGID_7_);}
	.st16{fill:url(#SVGID_8_);}
	.st17{fill:url(#SVGID_9_);}
	.st18{fill:url(#SVGID_10_);}
	.st19{fill:url(#SVGID_11_);}
	.st20{fill:#606161;}
</style>
<g>
	<g>
		<g>
			<path class="st0" d="M246.4,90.2c0,0.5,0,1,0,1.6c0,1.6,0,3.6-0.1,5.8c0,0.3,0,0.6,0,1c0,0.3,0,0.6,0,0.9c0,0.2,0,0.4,0,0.6
				c0,0.8,0,1.7-0.1,2.5c0,0.5,0,0.9,0,1.4c0,0.2,0,0.5,0,0.7c0,0.9-0.1,1.8-0.1,2.7c0,0.2,0,0.4,0,0.6c0,0.9-0.1,1.9-0.1,2.9
				c0,0.9-0.1,1.9-0.1,2.8c-0.1,2-0.2,3.9-0.3,5.9c0,0.8-0.1,1.7-0.1,2.5c-0.3,5.4-0.8,10.1-1.4,12.9c-0.2,0.8-0.4,1.6-0.6,2.3
				c-0.1,0.2-0.1,0.5-0.2,0.7c-0.1,0.2-0.1,0.4-0.2,0.5c-0.1,0.3-0.2,0.5-0.3,0.8c-0.2,0.6-0.5,1.2-0.7,1.8
				c-0.1,0.3-0.3,0.5-0.4,0.8c-0.1,0.3-0.3,0.5-0.4,0.7c0,0,0,0,0,0c-0.2,0.2-0.3,0.5-0.5,0.7c-0.2,0.2-0.3,0.4-0.5,0.6
				c-0.2,0.2-0.3,0.4-0.5,0.6c0,0-0.1,0.1-0.1,0.1c-0.2,0.2-0.3,0.3-0.5,0.5c-0.2,0.2-0.4,0.4-0.7,0.6c-0.4,0.3-0.7,0.6-1.1,0.9
				c-0.4,0.3-0.9,0.6-1.4,0.9c-0.4,0.4-2.1,1.3-4.3,2.1c-0.4,0.2-0.9,0.3-1.4,0.5c-1,0.3-2,0.5-3.1,0.7c-0.3,0.1-0.7,0.1-1.1,0.2
				c-0.3,0-0.6,0.1-0.8,0.1c-0.2,0-0.4,0-0.7,0.1c-0.4,0-0.9,0.1-1.3,0.1c-0.2,0-0.3,0-0.5,0c-0.4,0-0.8,0-1.2,0
				c-1.7,0-3.9-0.5-6.4-1.3c-5.1-1.7-11.3-4.9-16.5-7.8c-0.2-0.1-0.3-0.2-0.5-0.3c-0.3-0.2-0.7-0.4-1-0.6c-0.3-0.2-0.7-0.4-1-0.6
				c-0.3-0.2-0.7-0.4-1-0.6c-1.7-1-3.3-2-4.4-2.7c2.7-6.3,4.3-10,5.4-12.3c0.7-1.6,1.1-2.6,1.5-3.4c0,0,0,0,0-0.1
				c0.6-1.3,0.8-1.9,1.8-4.1l0.1-0.1c0.2-0.5,0-1.3-0.4-2.3c0,0,0,0,0,0c0,0,0-0.1,0-0.1c-1.1-3.2-3.6-8.2-2.4-11.1
				c0.3,0.1,2.4,1.5,5.3,3.3c0.2,0.2,0.5,0.3,0.7,0.5c0.3,0.2,0.5,0.4,0.8,0.6c0.1,0.1,0.2,0.1,0.3,0.2c5.2,3.5,11.7,7.9,14.5,9.9
				c0.1,0.1,0.3,0.2,0.4,0.3c0.1,0.1,0.2,0.2,0.3,0.2c0.4,0.3,0.6,0.4,0.7,0.5c0.6,0,3.1-7.9,5.5-16.3c0,0,0,0,0,0
				c0.2-0.8,0.4-1.5,0.7-2.3c1.2-4.2,2.3-8.3,3.2-11.4c0.8-2.9,1.2-4.9,1.2-5.2C236.6,79.6,244.9,83,246.4,90.2L246.4,90.2z"/>
		</g>
		<path class="st1" d="M246.3,95.6c0,0.5,0,1.1,0,1.9c0,0.3,0,0.6,0,1c0,0.3,0,0.6,0,0.9c0,0.2,0,0.4,0,0.6c0,0.8,0,1.6-0.1,2.5
			c0,0.5,0,0.9,0,1.4c0,0.2,0,0.5,0,0.7c0,0.9,0,1.8-0.1,2.7c0,0.2,0,0.4,0,0.6c0,0.9,0,1.9-0.1,2.9c0,0.9-0.1,1.9-0.1,2.8
			c-0.1,2-0.2,3.9-0.3,5.9c0,0.8-0.1,1.7-0.1,2.5c-0.4,5.8-0.9,11.1-1.7,14.1c-0.1,0.4-0.2,0.8-0.3,1.1c-0.1,0.2-0.1,0.5-0.2,0.7
			c-0.1,0.2-0.1,0.4-0.2,0.5c-0.1,0.3-0.2,0.5-0.3,0.8c-0.2,0.6-0.5,1.2-0.7,1.8c-0.1,0.3-0.3,0.5-0.4,0.8c-0.1,0.3-0.3,0.5-0.4,0.7
			c0,0,0,0,0,0c-0.2,0.2-0.3,0.5-0.5,0.7c-0.2,0.2-0.3,0.4-0.5,0.6c-0.2,0.2-0.3,0.4-0.5,0.6c0,0-0.1,0.1-0.1,0.1
			c-0.2,0.2-0.3,0.3-0.5,0.5c-0.2,0.2-0.4,0.4-0.7,0.6c-0.4,0.3-0.7,0.6-1.1,0.9c-0.4,0.3-0.9,0.6-1.4,0.9c-0.4,0.4-2.1,1.3-4.3,2.1
			c-0.4,0.2-0.9,0.3-1.4,0.5c-1,0.3-2,0.5-3.1,0.7c-0.3,0.1-0.7,0.1-1.1,0.2c-0.3,0-0.6,0.1-0.8,0.1c-0.2,0-0.4,0-0.7,0.1
			c-0.4,0-0.9,0.1-1.3,0.1c-0.2,0-0.3,0-0.5,0c-2.1,0-4.5-0.3-7.5-1.3c-4-1.3-9.2-3.6-16.5-7.8c-0.2-0.1-0.3-0.2-0.5-0.3
			c-0.3-0.2-0.7-0.4-1-0.6c-0.3-0.2-0.7-0.4-1-0.6c-0.3-0.2-0.7-0.4-1-0.6v0c0.1-0.6,0.2-1.2,0.2-1.8c0.1-0.8,0.2-1.6,0.3-2.4
			c0.1-0.6,0.2-1.2,0.2-1.7c0-0.3,0.1-0.5,0.1-0.8c0.5-3.6,0.8-6.5,1.1-8.9c0-0.1,0-0.1,0-0.2c0.1-0.6,0.2-1.1,0.2-1.6
			c0.1-0.4,0.1-0.8,0.2-1.2c0.3-1.9,0.6-3.6,1.1-5.2c0,0,0-0.1,0-0.1c0.1-0.5,0.2-0.9,0.4-1.4c0.7-2.3,1.6-4.7,2.9-7.7
			c0-0.1,0.1-0.2,0.1-0.3c0.1,0,0.4,0.3,1,0.6c0.1,0,0.2,0.1,0.2,0.2h0v0c3.2,2.2,11.8,8.3,15,10.7c0.1,0.1,0.3,0.2,0.4,0.3
			c0.1,0.1,0.2,0.2,0.3,0.2c0.3,0.2,0.5,0.4,0.5,0.4c0.8,0.6,7.6,6.2,11.1,4.5c2.2-1,2.5-4.3,3.1-9.9c0.4-3.6,0.5-5.5-0.7-6.9
			c-1.6-1.9-5-2.2-8.7-1c0.3-1,0.6-2,0.8-3c0,0,0,0,0,0c0.2-0.8,0.4-1.5,0.6-2.3c0,0,0,0,0,0c2.2-1.8,5.2-3.5,8-4.7
			C240.9,93.3,244.5,93.9,246.3,95.6z"/>
		<path class="st2" d="M243.8,136.1c-0.1,0.4-0.2,0.8-0.3,1.1c-0.1,0.2-0.1,0.5-0.2,0.7c-0.1,0.2-0.1,0.4-0.2,0.5
			c-0.1,0.3-0.2,0.5-0.3,0.8c-0.2,0.6-0.5,1.2-0.7,1.8c-0.1,0.3-0.3,0.5-0.4,0.8c-0.1,0.3-0.3,0.5-0.4,0.7c0,0,0,0,0,0
			c-0.2,0.2-0.3,0.5-0.5,0.7c-0.2,0.2-0.3,0.4-0.5,0.6c-0.2,0.2-0.3,0.4-0.5,0.6c0,0-0.1,0.1-0.1,0.1c-0.2,0.2-0.3,0.3-0.5,0.5
			c-0.2,0.2-0.4,0.4-0.7,0.6c-0.4,0.3-0.7,0.6-1.1,0.9c-0.4,0.3-0.9,0.6-1.4,0.9c-0.4,0.4-2.1,1.3-4.3,2.1c-0.4,0.2-0.9,0.3-1.4,0.5
			c-1,0.3-2,0.5-3.1,0.7c-0.3,0.1-0.7,0.1-1.1,0.2c-0.3,0-0.6,0.1-0.8,0.1c-0.2,0-0.4,0-0.7,0.1c-0.4,0-0.9,0.1-1.3,0.1
			c-0.2,0-0.3,0-0.5,0c-2.1,0-4.5-0.3-7.5-1.3c-4-1.3-9.2-3.6-16.5-7.8c-0.2-0.1-0.3-0.2-0.5-0.3c-0.3-0.2-0.7-0.4-1-0.6
			c-0.3-0.2-0.7-0.4-1-0.6c-0.3-0.2-0.7-0.4-1-0.6v0c0.1-0.6,0.2-1.2,0.2-1.8c0.1-0.8,0.2-1.6,0.3-2.4c0.1-0.6,0.2-1.2,0.2-1.7
			c0-0.3,0.1-0.5,0.1-0.8c0.5-3.8,0.9-6.7,1.2-8.9c0-0.1,0-0.1,0-0.2c0.1-0.6,0.2-1.1,0.2-1.6c0-0.4,0.1-0.8,0.2-1.1
			c0.3-2.3,0.6-3.7,1.1-5.3c0,0,0-0.1,0-0.1c0.1-0.4,0.3-0.8,0.4-1.3c0.6-1.7,1.4-3.8,2.7-7.3c0.3,0,0.6,0,0.9,0c0.2,0,0.4,0,0.5,0
			h0.2v0c0.2,0.3,0.3,0.5,0.5,0.8c7.5,12.4,5.2,17,8.8,24.5c1.5,3.2,5.2,10.8,12.2,12.4c4.5,1,8.7-0.7,11.5-2.4
			C239.3,141.3,241.9,138.5,243.8,136.1z"/>
	</g>
	<g>
		<g>
			<g>
				<g>
					<g>
						<g>
							<path class="st0" d="M255.4,75.8c0.2,0.5,0.3,1.2,0.3,1.4c0,1.4-1.4,3.4-1.4,3.4c-2,2.3-3.6,5-5.4,7.4
								c-1.9,2.5-2.2,3-2.4,3.5c0,0.1-0.1,0.2-0.1,0.3c-0.1,0.2-0.2,0.3-0.3,0.3c-0.1,0,0.8-5.1-9.5-4.9c-3.8,0.1-6.4,2.2-7.1,2.8
								c0-0.2,0-0.4,0-0.6c-1-14.3-4.7-21.7-0.6-31c0.2-0.4,1.5-3.5,1.8-3.8c3.3-3.9,7.9-3.7,5.6,1.8v0c-3,7.7-1.4,9-1.4,9
								c1.2,1,4.5-0.5,6.4-2.4c0.8-0.8,1.4-1.5,1.8-2.2c2-3,6-15.4,9.8-15.7c0.7,0,1.8,0.2,3.3,2.2c-0.7,2.2-1.3,4.4-2,6.6
								c0,0-3.6,8.6-3.4,10c0.4,0.1,0.8,0.1,1.2,0.2c4.4,3.2,0.4,2.8,1.6,5.9c0.2,0.5,0.6,0.6,0.9,1.1c0.3,0.5,0.8,1.4,0.8,1.7
								c0,0.8-0.4,1.7-0.2,2.3c0,0,0,0.1,0,0.1C255.2,75.4,255.3,75.4,255.4,75.8z"/>
						</g>
					</g>
				</g>
			</g>
		</g>
	</g>
	<g>
		<path class="st3" d="M206.2,121.7C206.2,121.8,206.2,121.8,206.2,121.7c-0.1,1.3-0.3,2.6-0.5,3.9c-0.3,1.7-0.7,3.4-1.2,5
			c-0.1,0.4-0.3,0.8-0.4,1.2c-0.1,0.3-0.2,0.5-0.3,0.8c-0.3,0.8-0.6,1.6-0.9,2.4c-0.2,0.5-0.4,1-0.7,1.5c-1,2-2.1,3.9-3.2,5.5
			c0,0,0,0,0,0c-0.4,0.5-0.8,1.1-1.2,1.5c0,0-11.2-6.1-17.7-9.7c-2.7-1.5-4.5-2.5-4.6-2.5l-1.4-3.9l-0.7-2l-1.1-2.9l-1.2-3.3
			l-0.5-1.4l-0.7-2l-0.8-2.3l-0.7-2.1c-0.3-0.8-0.6-1.6-0.8-2.4c-1.9-5.6-4-11.9-11.2-33.1c0,0,3.3-0.3,7.7,0.9c0,0,0,0,0,0h0
			c2.9,0.8,6.3,2.2,9.6,4.9c8.4,6.7,27.8,23,27.8,23s0.9,0.9,1.9,2.7c0,0,0.1,0.1,0.1,0.2c0.1,0.2,0.2,0.4,0.3,0.6
			c0.4,0.8,0.8,1.7,1.2,2.8c0.4,1,0.7,2.2,0.9,3.3c0.2,0.8,0.3,1.7,0.3,2.5c0,0.1,0,0.3,0,0.4c0,0.3,0,0.7,0.1,1
			C206.4,119.4,206.3,120.6,206.2,121.7z"/>
		<path class="st4" d="M182.1,99.2c0.3,1,0.5,1.9,0.5,2.8C182.5,101.1,182.3,100.1,182.1,99.2z"/>
		<path class="st4" d="M206.2,121.7C206.2,121.8,206.2,121.8,206.2,121.7c-0.3,3.4-1,6.9-2.1,10.1c-0.1,0.3-0.2,0.5-0.3,0.8
			c-0.3,0.8-0.6,1.6-0.9,2.4c-0.2,0.5-0.4,1-0.7,1.5c-1,2-2.1,3.9-3.2,5.5c0,0,0,0,0,0c-0.4,0.5-0.8,1.1-1.2,1.5
			c0,0-11.2-6.1-17.7-9.7c-2.7-1.5-4.5-2.5-4.6-2.5l-1.4-3.9l-0.7-2l-1.1-2.9l-1.2-3.3l-0.5-1.4l-0.7-2l-0.8-2.3l-0.7-2.1l-0.9-2.4
			c0,0,0,0,0,0c5.8,4.9,13.3,1.5,14.8-4.6c0,0,0,0,0,0c0.2-0.8,0.3-1.7,0.2-2.5c3,14.3,8.1,23.4,12.7,23.3c0.4,0,0.8-0.1,1.1-0.2
			c0.4-0.1,0.7-0.3,1.1-0.5h0c3.9-2.5,6.7-10.9,7.5-13.5c0.4,1,0.7,2.2,0.9,3.3c0.2,0.8,0.3,1.7,0.3,2.5c0,0.1,0,0.3,0,0.4
			C206.3,118.7,206.3,120.2,206.2,121.7z"/>
	</g>
	<g>
		<g>
			<g>
				<linearGradient id="SVGID_1_" gradientUnits="userSpaceOnUse" x1="110.9392" y1="485.4437" x2="160.9704" y2="485.4437">
					<stop  offset="0" style="stop-color:#005995"/>
					<stop  offset="1" style="stop-color:#0E173F"/>
				</linearGradient>
				<path class="st5" d="M161,498.1c0,0.2,0,0.4,0,0.6c0,0.1,0,0.3,0,0.4c0,1.4-0.2,3-0.4,4.5c0,0.1,0,0.1,0,0.2
					c0,0.2-0.1,0.3-0.1,0.5c0,0.1,0,0.2-0.1,0.4c0,0.1,0,0.2,0,0.3c0,0.1,0,0.2-0.1,0.3c0,0.1,0,0.1-0.1,0.2
					c-0.1,0.6-0.3,1.1-0.5,1.5c0,0,0,0,0,0c0,0,0,0,0,0c-0.1,0.2-0.1,0.3-0.2,0.5c-2,4.4-7.1,6-7.7,6.2c-6.1,1.8-12.7-1.4-16.4-5.3
					c-4-4.2-1.9-6.4-7.3-13.5c-3-3.9-4.6-5.8-7.2-7.6c-2.4-1.6-4.9-2.6-6.9-5.5c-0.7-1-0.9-1.9-1.4-3.2c-0.9-2.7-3-9-0.7-15.6
					c0.6-1.6,1.1-3,2.4-4.1c0.1,0,0.1-0.1,0.1-0.1c2.5-2,5.8-1.7,6.8-1.5c3.2,0.9,7.8,2.5,12.8,5.4c0,0,0,0,0,0
					c2.9,1.7,6.1,3.8,9.1,6.5c0.1,0.1,0.2,0.2,0.3,0.3c1.4,1.2,2.7,2.5,3.9,3.8c1.1,1.2,2.2,2.5,3.2,3.7c3.2,4,5.4,8,7,11.6
					c1.1,2.4,1.9,4.5,2.4,6.3c0,0,0,0,0,0c0.3,1,0.6,1.8,0.8,2.5C161,497.3,161,497.7,161,498.1z"/>
			</g>
			<g>
				<path class="st6" d="M161,498.1c0,0.2,0,0.4,0,0.6c0,0.2,0,0.5,0,0.7c0,0.3,0,0.6,0,1c-0.1,1-0.2,2.1-0.3,3.1c0,0,0,0,0,0
					c0,0.3-0.1,0.5-0.1,0.7c0,0.1,0,0.2-0.1,0.4c0,0.1,0,0.2,0,0.3c0,0.1,0,0.2-0.1,0.3c0,0.1,0,0.1-0.1,0.2c0,0.1-0.1,0.3-0.1,0.4
					c0,0.1-0.1,0.3-0.1,0.4c-0.1,0.2-0.2,0.5-0.2,0.6c0,0,0,0.1,0,0.1c0,0,0,0,0,0c0,0,0,0,0,0c0,0,0,0,0,0c-1.9,2-3.7,3.2-6.3,4.1
					c-6.1,1.9-12.7-1.4-16.4-5.3c-2.5-2.6-2.6-4.5-3.7-7.2c-0.6-1.6-1.6-3.6-3.7-6.3c-3-3.9-4.5-5.8-7.2-7.6c-4-2.7-7-3.7-8.2-8.7
					c-1.1-4.5-3.9-13.3,0.2-17.2c0.1,0,0.1-0.1,0.1-0.1c1.3-1.1,3.2-1.8,6-1.8c1.9,0,3.3,0.6,4,0.9c3.8,1.6,7,3.2,9.7,4.8v0
					c6.1,3.5,9.3,6.5,9.3,6.5c1.4,1.3,2.8,2.7,4,4.1c1.1,1.3,2.1,2.5,3.1,3.8c3,4,5.2,8,6.9,11.5c1.1,2.4,2,4.5,2.6,6.2c0,0,0,0,0,0
					c0.3,1,0.6,1.8,0.8,2.5C161,497.3,161,497.7,161,498.1z"/>
			</g>
			<linearGradient id="SVGID_2_" gradientUnits="userSpaceOnUse" x1="148.0968" y1="469.1279" x2="145.0339" y2="506.5386">
				<stop  offset="0" style="stop-color:#65B3E3"/>
				<stop  offset="1" style="stop-color:#E9F6FC"/>
			</linearGradient>
			<path class="st7" d="M161,497.1c0,0.3,0,0.6,0,1.1c0,0.2,0,0.4,0,0.6c0,0.1,0,0.3,0,0.4v0.3c0,0.3,0,0.6,0,1
				c0,1.1-0.1,2.3-0.3,3.1c0,0,0,0,0,0c0,0,0,0.1,0,0.1c0,0.1,0,0.1,0,0.2c0,0.1-0.1,0.2-0.1,0.2c0,0.1,0,0.3-0.1,0.6
				c0,0.1,0,0.2,0,0.3c0,0.1,0,0.2-0.1,0.3c0,0.1,0,0.1-0.1,0.2c0,0.1-0.1,0.3-0.1,0.4c0,0.1-0.1,0.3-0.1,0.4
				c-0.1,0.2-0.2,0.5-0.2,0.6c0,0,0,0.1,0,0.1c0,0,0,0,0,0c0,0,0,0,0,0c-1.9,2-3.7,3.2-6.3,4.1c-6.1,1.9-12.7-1.4-16.4-5.3
				c-2.5-2.6-2.6-4.5-3.7-7.2c0.3-3,0.8-6.5-0.6-13.5c-1.3-6.4-1-9.8,2.3-12.3c1.8-1.4,4.5-2.5,8.4-3.6c0.1,0,0.1,0,0.2-0.1
				c2.7,2.2,5.4,4.7,7.7,7.4c3.2,3.6,5.9,7.5,7.6,11.6c0.9,2,1.5,4.1,1.8,6.2c0,0,0,0,0,0C160.9,495,161,496,161,497.1L161,497.1z"
				/>
		</g>
		<g>
			<g>
				<linearGradient id="SVGID_3_" gradientUnits="userSpaceOnUse" x1="15.9255" y1="520.977" x2="94.9224" y2="520.977">
					<stop  offset="0" style="stop-color:#005995"/>
					<stop  offset="1" style="stop-color:#0E173F"/>
				</linearGradient>
				<path class="st8" d="M86.6,538c-6.6,2.9-13.6,3.2-16.4,3.2c-0.7,0-1.1,0-1.2,0c-13.6-0.3-27.6-0.7-43.9-4.8
					c-2.9-0.7-7.5-2-8.8-5.5c-0.7-1.8-0.4-3.7,0.2-5.2v0c2.5-7.2,8.6-8.3,25-14c6.8-2.4,8.4-3.5,17.1-6.1c1.1-0.3,2.4-0.7,3.7-1.1
					c0.1,0,0.1,0,0.2,0c0.7-0.2,1.4-0.4,2.1-0.6c0.9-0.3,1.8-0.5,2.6-0.7c5.5-1.5,8.5-2.3,10.4-2.3c1.2,0,2.3,0,3.4,0.1
					c0.6,0.1,1.2,0.1,1.7,0.2c0.1,0,0.1,0,0.2,0c4,0.6,6.6,2.1,8.3,4l0.2,0.2c0,0,0,0,0.1,0.1h0c0.1,0.1,0.2,0.2,0.2,0.3
					c0,0,0,0,0,0.1c0.6,0.7,1,1.5,1.4,2.3c0,0.1,0.1,0.2,0.1,0.3c0.2,0.5,0.4,0.9,0.5,1.4c0.1,0.2,0.1,0.3,0.1,0.5
					c0,0.2,0.1,0.3,0.1,0.5c0,0.1,0,0.1,0,0.2c0,0.1,0.1,0.2,0.1,0.3c0,0.2,0.1,0.4,0.1,0.6c0,0,0,0,0,0c0,0.1,0,0.2,0,0.3
					c0.1,0.3,0.1,0.6,0.1,0.9c0.1,0.7,0.2,1.4,0.2,2c0,0.1,0,0.3,0,0.5c0,0.1,0,0.2,0,0.3c0,0.4,0.1,0.7,0.1,1.1
					c0,0.2,0,0.5,0.1,0.7c0,0.3,0,0.6,0.1,0.9c0,0.6,0.1,1.1,0.1,1.7c0,0.1,0,0.1,0,0.2C95.3,531.3,92.7,535.3,86.6,538z"/>
			</g>
			<g>
				<path class="st6" d="M94.9,520.2c0,0.3,0,0.6,0,0.9c0,0.2,0,0.4,0,0.6c0,0.3,0,0.7-0.1,1c-0.2,2.4-0.8,4.6-2,6.3
					c-4.3,5.9-15.9,7.6-23.4,7.6c-13.6-0.4-27.6-0.8-43.9-4.8c-3.7-0.9-8.1-2.3-9-6.1c0,0,0,0,0,0v0c0.4-3.5,1.6-8.4,5.5-11.2
					c3.1-2.2,5.7-1.4,13.1-2.6c3-0.5,7.2-1.8,15.4-4.3c3.8-1.2,6.9-2.1,9.4-2.9c0.3-0.1,0.6-0.2,0.9-0.3c0.5-0.2,0.9-0.3,1.4-0.4
					c0.1,0,0.1,0,0.2-0.1c2.2-0.7,3.6-1.1,4.1-1.3c0,0,0.1,0,0.1,0c0,0,0.1,0,0.1,0c1.2-0.5,4.8-2.1,9.6-2.1c1.5,0,3,0.1,4.5,0.3
					c0.6,0.1,1.2,0.2,1.8,0.3c0.1,0,0.1,0,0.2,0c2.3,0.4,4.5,1.2,6.3,2.4c0.7,0.4,1.4,1,2,1.5c0,0,0,0,0.1,0.1
					c0.1,0,0.1,0.1,0.1,0.1c0,0,0,0,0.1,0.1h0c0.1,0.1,0.2,0.2,0.2,0.3c0,0,0,0,0,0.1c0.1,0.1,0.2,0.3,0.3,0.4
					c0.1,0.2,0.3,0.3,0.4,0.5c0.1,0.2,0.2,0.4,0.3,0.5c0.2,0.2,0.3,0.5,0.4,0.8c0,0.1,0.1,0.2,0.1,0.3c0.2,0.5,0.4,1.2,0.6,1.8
					c0,0,0,0.1,0,0.1c0,0.2,0.1,0.3,0.1,0.5c0,0.1,0,0.1,0,0.2c0.1,0.7,0.3,1.5,0.4,2.4c0,0.1,0,0.2,0,0.2c0,0.3,0.1,0.7,0.1,1
					c0,0.2,0.1,0.4,0.1,0.6c0,0.1,0,0.3,0,0.5c0,0.1,0,0.2,0,0.3c0.1,1.4,0.3,2.9,0.3,4.4C94.9,520.1,94.9,520.1,94.9,520.2z"/>
			</g>
			<g>
				<linearGradient id="SVGID_4_" gradientUnits="userSpaceOnUse" x1="92.978" y1="478.9608" x2="54.4857" y2="561.9941">
					<stop  offset="0" style="stop-color:#65B3E3"/>
					<stop  offset="1" style="stop-color:#E9F6FC"/>
				</linearGradient>
				<path class="st9" d="M94.9,521.1c0,0.2,0,0.4,0,0.6c0,0.3,0,0.6,0,0.9c0,0,0,0.1,0,0.1c-7.1,11.9-11.2-4.8-20.9-5.1
					c-7.4-0.2-12.8,10.5-15.2-12.1c0,0,0-0.1,0-0.1c0.1-0.1,0.2-0.2,0.2-0.3c0.3-0.1,0.7-0.2,1-0.3c0.3-0.1,0.6-0.2,0.9-0.3
					c0.5-0.2,0.9-0.3,1.3-0.4c0.1,0,0.2,0,0.2-0.1c1.4-0.5,2.8-0.9,4.1-1.3c0,0,0.1,0,0.1,0c0,0,0.1,0,0.1,0
					c0.2,0.2,0.3,0.3,0.5,0.4c5.4,4.5,13.8,5.5,20.7,1.3c0.4-0.3,0.9-0.6,1.3-0.9c0,0,0,0,0,0c0.7,0.5,1.3,1,1.9,1.6h0
					c0,0,0.1,0,0.1,0.1c0.1,0,0.1,0.1,0.1,0.1c0,0,0,0,0.1,0.1c0.1,0.1,0.2,0.2,0.2,0.3c0,0,0,0,0,0.1c0.1,0.1,0.2,0.3,0.3,0.4
					c0.1,0.2,0.3,0.3,0.4,0.5c0.1,0.2,0.2,0.4,0.3,0.5c0.1,0.3,0.3,0.5,0.4,0.8c0,0.1,0.1,0.2,0.1,0.3c0.2,0.5,0.4,1,0.5,1.5
					c0.1,0.1,0.1,0.2,0.1,0.4c0,0,0,0.1,0,0.1c0,0.2,0.1,0.3,0.1,0.5c0,0.1,0,0.1,0,0.2c0,0.1,0.1,0.2,0.1,0.3
					c0,0.2,0.1,0.4,0.1,0.6c0,0,0,0,0,0c0,0.1,0,0.2,0,0.3c0.1,0.3,0.1,0.6,0.1,0.9c0,0.1,0,0.2,0,0.2c0,0.1,0,0.2,0,0.2
					c0,0.3,0.1,0.7,0.1,1c0,0.4,0.1,0.7,0.1,1.1c0,0.1,0,0.2,0,0.3c0,0.4,0.1,0.7,0.1,1.1c0,0.2,0,0.5,0.1,0.7c0,0.3,0,0.6,0.1,0.9
					C94.8,519.3,94.9,520.2,94.9,521.1z"/>
			</g>
		</g>
		<g>
			<g>
				<g>
					<path class="st10" d="M172.6,266.5c0,0.5,0,0.9,0,1.4c0,0.2,0,0.3,0,0.5c0,0.5,0,1.1,0,1.6c0,0.1,0,0.1,0,0.2
						c0,0.6,0,1.2-0.1,1.8c0,0.4,0,0.8-0.1,1.2c0,0.6-0.1,1.3-0.1,1.9c-0.2,4.5-0.6,8.8-0.9,12.4c0,0.4-0.1,0.8-0.1,1.2
						c0,0.3,0,0.5-0.1,0.8c0,0.4-0.1,0.7-0.1,1.1c-0.1,1.1-0.2,2.1-0.3,3c0,0,0,0,0,0c-1.7,18.4-4.1,40.2-4.3,66.6c0,0,0,0,0,0
						c0,4.4,0,8.9,0.1,13.6c0,0,0.9,7.3,1.3,16.1c0,0,0,0,0,0c0.3,5.1,0.3,10.8-0.1,15.8c-0.2,2-0.3,4-0.4,5.9c0,0.2,0,0.4-0.1,0.7
						c-1,13.7-1.8,24.5-2.5,33.4c0,0,0,0,0,0c-0.6,8.5-1.1,15.1-1.4,20.8v0c-0.4,7.9-0.6,13.7-0.6,19.6c0,0.1,0.1,0.2,0.1,0.3
						c0.2,0.6,0.2,1.1,0.3,1.6c0.1,1.6-0.2,3-1,4.2c-0.2,0.3-0.4,0.6-0.6,0.9c0,0,0,0,0,0c-0.1,0.1-0.2,0.3-0.3,0.4
						c-0.1,0.1-0.2,0.3-0.4,0.4c0,0.1-0.1,0.1-0.1,0.2c-0.1,0.1-0.2,0.2-0.3,0.2c-0.1,0.1-0.2,0.2-0.3,0.3c0,0-0.1,0-0.1,0.1
						c-0.2,0.1-0.3,0.2-0.5,0.4c-0.4,0.3-0.8,0.5-1.2,0.8c-0.2,0.1-0.4,0.2-0.6,0.3c-0.3,0.1-0.5,0.2-0.8,0.4
						c-0.4,0.2-0.7,0.3-1.1,0.5c-0.6,0.2-1.1,0.4-1.7,0.5c0,0-0.1,0-0.1,0c-0.4,0.1-0.8,0.2-1.1,0.3c-0.2,0-0.4,0.1-0.6,0.1
						c-1.3,0.2-2.7,0.3-3.9,0.2c-0.3,0-0.5,0-0.8-0.1c0,0-0.1,0-0.1,0c-0.3,0-0.5-0.1-0.8-0.1c-0.2,0-0.4-0.1-0.6-0.1
						c0,0-0.1,0-0.2,0c-0.1,0-0.2,0-0.3-0.1c-0.1,0-0.3-0.1-0.4-0.1c0,0,0,0,0,0c-0.8-0.2-1.4-0.5-2.1-0.8c-1.2-0.7-2.3-1.5-3.1-2.5
						c-0.4-0.4-0.7-0.8-1-1.2c-0.2-0.2-0.3-0.5-0.4-0.7c-0.1-0.2-0.3-0.5-0.4-0.7c-0.3-0.5-0.5-1-0.7-1.4c-0.1-0.2-0.2-0.5-0.3-0.7
						c-0.1-0.3-0.2-0.5-0.3-0.7c-0.2-0.5-0.3-1-0.5-1.5c-0.1-0.5-0.3-1-0.4-1.5c0-0.2-0.1-0.4-0.1-0.5c0,0,0-0.1,0-0.1
						c0-0.2-0.1-0.4-0.1-0.6c-0.1-0.4-0.1-0.8-0.1-1.1c0-0.1,0-0.2,0-0.3c0-0.1,0-0.2,0-0.3c0-0.1,0-0.2,0-0.2c0-0.1,0-0.2,0-0.2v0
						c-0.1-1.4-0.2-2.7-0.3-4.1c-0.1-1.9-0.3-3.7-0.4-5.5c-0.2-2.1-0.3-4.1-0.5-6c-0.1-1.4-0.2-2.7-0.3-4.1c0,0,0,0,0,0v0
						c-0.1-1.5-0.2-2.9-0.3-4.3c-0.1-0.9-0.1-1.8-0.2-2.7c-3.4-45.7-4.6-63-5-69.4v0c-0.2-3.5-0.2-3.8-0.2-3.8
						c-0.1-0.6-0.3-1.3-0.5-2.2c-0.3-1.5-0.7-3.3-1.1-5.3c0,0,0,0,0,0c-1.3-6.5-3-15.3-4.3-23c-1.2-7.3-1-24.4-2.5-35.2h0
						c0,0,0,0,0,0.1c-2.9,7.9-7.1,23.5-11.3,38.3c-0.1,0.3-0.1,0.5-0.2,0.7c-2.7,9.7-5.4,19-7.8,25.7c0.6,2.6,0.9,7.2,0.8,10
						c0,0.5,0,0.9-0.1,1.3c-0.1,8.8-0.9,17.3-2,25.8c-0.1,0.3-0.1,0.7-0.1,1.2c0,0.1,0,0.2,0,0.3c0,0.3-0.1,0.6-0.1,0.9
						c-0.4,3.3-0.9,6.7-1.3,10.1c-1.8,13.5-3.7,27.9-3.8,44.8c0,1.1,0,2.2,0,3.3c0,8.2,0.5,16.9,1.5,26.5c-0.1,0.1-0.2,0.3-0.5,0.6
						c-0.6,0.6-1.2,1.2-1.9,1.8c0,0,0,0,0,0c0,0,0,0,0,0c-3.7,3.2-8.5,5.9-13.2,6.3c0,0-0.1,0-0.1,0h-0.1c-1,0.1-2,0-3-0.1
						c-0.1-0.1-0.2-0.1-0.3-0.1c-5-0.9-10.5-4.5-13.4-8.7c0,0,0,0,0,0c-0.2-0.3-0.4-0.6-0.6-0.9c-0.1-0.1-0.1-0.2-0.2-0.4
						c0,0,0,0,0,0c-0.2-0.3-0.3-0.7-0.5-1c0-0.6,0.1-1.2,0.1-1.8c0,0,0-0.1,0-0.1c0,0,0-0.1,0-0.1c0.3-4.3,0.5-9.5,0.5-12.6v0
						c0-0.4,0-0.7,0-1c0.1-4.9,0.1-11.9,0-14.5c0-0.5-0.1-3.8-0.1-4.5c0-0.4,0-0.8,0-1.1c0-1-0.1-2-0.1-3.1c0-0.4,0-0.7,0-1.1
						c-0.1-1.1-0.1-2.2-0.2-3.3c0-0.4-0.1-0.8-0.1-1.2c0-0.2,0-0.4,0-0.6c0-0.1,0-0.2,0-0.3c-0.1-1.5-0.3-4.4-0.4-4.9
						c0-0.1-0.5-4.7-0.5-5.3c0,0,0,0,0-0.1c0,0,0-0.1,0-0.1c0,0,0-0.1,0-0.1c0,0,0,0,0,0c0-0.1,0-0.1,0-0.2c0-0.1,0-0.2,0-0.2
						c0-0.2,0-0.4-0.1-0.5c0-0.2,0-0.4-0.1-0.6c0-0.2,0-0.5-0.1-0.7c0-0.1,0-0.2,0-0.3c0-0.3-0.1-0.7-0.1-0.9c0-0.1,0-0.1,0-0.2
						c0-0.2,0-0.3,0-0.3c0-0.5-0.4-4.7-0.4-4.8c-0.2-2.3-0.3-4.6-0.4-6.8c0-1-0.1-2-0.1-3.1c-0.1-3.4-0.2-6.8-0.3-10.2
						c-0.1-4.7-0.1-9.9,0-16c0-2,0-4.5,0.1-7c0-0.4,0-0.8,0-1.2c0-0.4,0-0.8,0-1.2c0-0.3,0-0.6,0-0.9c0-0.5,0-1,0-1.5
						c0-0.3,0-0.5,0-0.8c0-0.5,0-1,0-1.5c0.4-9.1,0.2-4.6,0.2-11.4c0,0,0,0,0,0c0-0.1,0-0.1,0-0.2v-0.1c-0.1-14.8-0.2-26.1-0.3-35.2
						c0-4.7-0.1-8.9-0.1-12.5v-0.3c0-1.8,0-3.4,0-5v-2.4c0-0.4,0-0.7,0-1c0-1.3,0-2.6,0-3.8c0-0.8,0-1.7,0-2.4c0-0.4,0-0.7,0-1
						c0-0.5,0-0.9,0-1.3c0.1-2.2,0.1-4.4,0.2-6.6c0-0.2,0-0.5,0-0.7c0-0.2,0-0.5,0-0.7c0-0.5,0.1-1,0.1-1.5c0-1,0.1-2,0.2-3
						c0-0.1,0-0.2,0-0.3c0.1-1.4,0.2-2.7,0.3-4c0-0.3,0.1-0.7,0.1-1c1.7-20,4.9-34.2,8.5-47.3c0,0,0,0,0,0c0,0,0,0,0,0c0,0,0,0,0,0
						c0.6-2,1.1-4,1.7-6c0.3,0.4,0.6,0.8,0.9,1.1c0,0,0,0,0.1,0.1c1.9,2.1,4.1,3.7,6.4,4.9h0c1.1,0.6,2.3,1,3.5,1.4c0,0,0,0,0.1,0
						c1.1,0.3,2.3,0.6,3.5,0.8c6.6,1.1,14,0,21.6-2.1c0,0,0,0,0,0c15.3-4.2,31.6-12.4,44-14.6c6.4-1.1,11.7-0.6,15.4,2.9
						c0.7,0.6,1.3,1.4,1.8,2.3c0.1,0.2,0.3,0.4,0.4,0.7c0.1,0.2,0.3,0.5,0.4,0.7c0.1,0.2,0.2,0.5,0.4,0.7c0.1,0.3,0.2,0.5,0.3,0.8
						c0.3,0.6,0.5,1.2,0.7,1.9v0c0.2,0.5,0.3,0.9,0.5,1.4c0.3,0.9,0.5,1.8,0.7,2.8c0.1,0.6,0.3,1.3,0.4,2c0.3,1.7,0.5,3.5,0.7,5.3
						c0,0.4,0.1,0.7,0.1,1.1c0,0.4,0.1,0.7,0.1,1.1C172.5,259.1,172.6,262.8,172.6,266.5z"/>
					<path class="st11" d="M169.9,242.1c0,0-0.1,0-0.2,0c-1.6,0.1-12.6,0.8-26.3,3.5c-15.9,3.2-35.6,9.3-48.8,20.6c0,0,0,0-0.1,0
						c0,0,0,0,0,0c-1.4,1.2-2.8,2.5-4,3.8c-3.4,3.6-6.2,7.7-8,12.3c-4.3,10.5-2.8,20.6-1,27.1c0.8,2.9-0.5,5.9-3.1,7.5
						c-8.7,5.2-13.1,9.5-15.1,13.2c-2.2-1.7-3.4-1.7-4-1.4v-0.3c0-1.8,0-3.4,0-5c0-1.8,0-3.7,0-5.5c0-2.3,0-4.4,0.1-6.5
						c0.1-2.2,0.1-4.4,0.2-6.6c0-0.2,0-0.5,0-0.7c0-0.2,0-0.5,0-0.7c0-0.5,0.1-1,0.1-1.5c0.1-2.4,0.3-4.9,0.4-7.3
						c0-0.3,0.1-0.7,0.1-1c1.2-15.4,3.7-30.8,8.4-47.5c0.6-2,1.1-3.9,1.8-5.9c0.3,0.4,0.6,0.8,0.9,1.1c0,0,0,0,0.1,0.1
						c1.8,2,4.2,3.6,6.7,4.9c1,0.5,2.1,1,3.2,1.4c0,0,0,0,0.1,0c1.2,0.5,2.4,0.9,3.6,1.2c3.6,1,7,1.3,9.3,0.9
						c0.5,0,28.2-3.2,49.8-5.5c13.1-1.4,24-2.5,25.5-2.3C169.8,242.1,169.9,242.1,169.9,242.1z"/>
					<path class="st12" d="M172.6,266.5c0,0.5,0,0.9,0,1.4c0,0.2,0,0.3,0,0.5c0,0.5,0,1.1,0,1.6c0,0.1,0,0.1,0,0.2
						c0,0.6,0,1.2-0.1,1.8c0,0.4,0,0.8-0.1,1.2c0,0.6,0,1.3-0.1,1.9c-0.2,4.5-0.6,8.8-0.9,12.4c0,0.4-0.1,0.8-0.1,1.2
						c0,0.3,0,0.5-0.1,0.8c0,0.4-0.1,0.7-0.1,1.1c-0.1,1.1-0.2,2.1-0.3,3c0,0,0,0,0,0c-2.6,5.2,1.2-18.9-8.9-24.1
						c-4.8-2.5-9.4,0.7-19.2,3.6c-15.3,4.6-29.6,5.2-36,3.6c-6.4-1.6-11.8-3.9-16.3-6.6c-15.8-9.3-21.4-22.8-21.7-23.7c0,0,0,0,0,0
						c0,0,0,0,0,0h0c3.7,0,6.6,0,9.1,0h0c0.1,0,0.2,0,0.3,0h0c2.1,0,3.9,0,5.6,0c5.6,0,10.4,0.1,22.7,0.1c0,0,0,0,0,0
						c4.3,0,9.6,0.1,16.3,0.1l24.1-6.6l19-5.2c0.7,0.6,1.3,1.4,1.8,2.3c0.1,0.2,0.3,0.4,0.4,0.7c0.1,0.2,0.3,0.5,0.4,0.7
						c0.1,0.2,0.2,0.5,0.4,0.7c0.1,0.3,0.2,0.5,0.3,0.8c0.3,0.6,0.5,1.2,0.7,1.9v0c0.2,0.5,0.3,0.9,0.5,1.4c0.3,0.9,0.5,1.8,0.7,2.8
						c0.1,0.6,0.3,1.3,0.4,2c0.3,1.7,0.5,3.5,0.7,5.3c0,0.4,0.1,0.7,0.1,1.1c0,0.4,0.1,0.7,0.1,1.1
						C172.5,259.1,172.6,262.8,172.6,266.5z"/>
					<path class="st12" d="M120,316.4c0,0.3-6.2,21.2-11.3,38.4c-0.1,0.3-0.1,0.5-0.2,0.7c-3.6,11.9-6.5,21.8-6.5,21.9
						c-1.4,4.3-2.5,4.4-2.7,6.1c0,0,0.4,2.1,2.2,7.6c0,0,0,0.1,0,0.1c0.2,0.5,0.2,0.9,0,1.3c0,0,0,0.1-0.1,0c-0.9,0.5-2.2,1.1-4,1.7
						c-9.6,3-15-2.5-19.7,0.6c-3.7,2.5-5.8,10.8-2.1,12.6c3.9,1.9,8.3,1.6,8.3,1.6c2.8-0.2,7.4,0.3,16,3.3c-0.2,2.4-0.3,3.5-0.5,6
						c-0.1,0.3-0.1,0.7-0.1,1.2c0,0.1,0,0.2,0,0.3c0,0.3-0.1,0.6-0.1,0.9c-0.3,2.2-0.7,5.3-1.3,10c0,0,0,0.1,0,0.1c0,0,0,0,0,0
						c-5.3,5.4-13.9-0.9-19.9,4.2c-5.8,4.9-6.8,18.6,1,25.9c5.5,5.1,12.9,4.6,14.4,4.5c0.1,0.1,0.4,0.2,0.9,0.6
						c-0.1,3.3-0.2,6.5-0.2,9.7c0,1.1,0,2.2,0,3.4c0,0,0,0,0,0c-5.4-1.7-11.2,0-14.6,4.2c-3.7,4.5-3.9,11.2-1.2,14.8
						c0.8,1.1,1.7,2,2.7,2.8c0,0,0.1,0.1,0.1,0.1c2,1.6,4.4,2.8,6.9,3.5c1.1,0.3,2.1,0.5,3.2,0.7h0c0,0,0,0,0,0
						c1.4,0.2,2.9,0.3,4.3,0.4c-0.1,0.1-0.2,0.3-0.5,0.6c-0.4,0.5-1,1.2-1.8,2c0,0,0,0,0,0l0,0c-2.5,2.5-7,5.9-13.3,6.1
						c0,0-0.1,0-0.1,0h-0.1c-1,0-2,0-3-0.1c-0.1-0.1-0.2-0.1-0.3-0.1c-5.6-0.8-11-3.8-13.4-8.7c0,0,0,0,0,0c-0.2-0.3-0.3-0.7-0.4-1
						c-0.1-0.1-0.1-0.3-0.1-0.4c0,0,0,0,0,0c-0.5-1.5-0.6-2.4-0.6-2.7c0,0,0-0.1,0-0.1c0,0,0-0.1,0-0.1c0.2-4.7,0.4-8.8,0.5-12.6v0
						c0.4-12.9,0-21.2-0.5-28.7c0-0.4-0.1-0.8-0.1-1.2c0-0.2,0-0.4,0-0.6c0-0.1,0-0.2,0-0.3c0-0.4-0.1-0.8-0.1-1.3
						c-0.1-0.9-0.2-1.7-0.2-2.5c-0.1-1.3-0.2-2.5-0.4-3.8c-0.1-0.9-0.2-1.7-0.2-2.6c0,0,0-0.1,0-0.1c0,0,0-0.1,0-0.1c0,0,0,0,0,0
						c0-0.1,0-0.1,0-0.2c0-0.1,0-0.2,0-0.2c0-0.2,0-0.4-0.1-0.5c0-0.2,0-0.4-0.1-0.6c0-0.2,0-0.5-0.1-0.7c0-0.1,0-0.2,0-0.3
						c-0.9-10.6-1.7-24.2-1.3-49.4c0-0.4,0-0.8,0-1.2c0-0.4,0-0.8,0-1.2c0-0.3,0-0.6,0-0.9c0-0.5,0-1,0-1.5c0-0.5,0-1,0-1.5
						c0-0.8,0-1.5,0-2.3c0-0.2,0-0.4,0-0.6c0-0.3,0-0.5,0-0.8c0-0.9,0-1.9,0.1-2.9c0-0.6,0-1.2,0-1.8c0-1.2,0-2.5,0.1-3.8
						c0,0,0,0,0,0v-0.2c0.1-7.8,0.1-16.6-0.1-24.7c-0.2-8,0-7.4-0.1-9.5c0-0.3,0-0.6-0.1-0.9c0-0.1,0-0.1,0-0.2
						c-0.4-8.1-1.5-11.5,0-12.3c0.6-0.4,1.7-0.3,4,1.4c0,0,0,0,0,0c5.5,3.8,6.3,8.2,8.7,21.2c1.6,9,9.9,14.8,17.9,13
						c5.6-1.3,8.9-6,12.9-12.7c10.4-17.6,16.6-33.8,17.2-35.3C120,316.4,120,316.4,120,316.4L120,316.4z"/>
					<path class="st12" d="M143.1,405.3c-0.4,1.4,1.6,3.2,2.1,3.6c6.7,5.8,19.5,2.6,22.2,2.6c0.3,0,0.5,0.1,0.5,0.2
						c0,0.1-0.2,0.3-0.6,0.5c-3.4,1.6-21.1,5.4-24.4,15.1c-3,8.8,14,4.6,22.9,1.9c-1.8,3.2-4.7,7.2-9.5,9.3c-4,1.8-7,1.2-8,3.2
						c-1.4,2.8,1.4,8.8,6.5,9.9c4,0.8,8.5-1.8,10-6.3c0,0.1,0,0.1,0,0.2c0,0,0,0,0,0c1.4,8.4,0.1,17-1.4,20.8v0
						c-0.1,0.3-0.3,0.6-0.4,0.9c-3,5.5-8.1,6-11.8,8.9c-0.2,0.2-0.4,0.3-0.6,0.5c0,0-0.1,0-0.1,0.1c-0.9,0.8-1.8,1.9-2.4,3.2
						c-0.1,0.3-2.4,5.1-0.4,7.6c1.5,1.9,5.1,2.1,9.7,0.7c0.1,0,0.2,0,0.3-0.1c0.4-0.1,0.8-0.3,1.2-0.4c1.3-0.5,2.6-1.1,3.9-1.8h0
						c0,0.1,0.1,0.2,0.1,0.3c0.2,0.6,0.2,1.1,0.3,1.6c0.1,1.6-0.3,3-1,4.2c-0.2,0.3-0.4,0.6-0.6,0.9c0,0,0,0,0,0
						c-0.1,0.1-0.2,0.3-0.3,0.4c-0.1,0.1-0.2,0.3-0.4,0.4c0,0-0.1,0.1-0.2,0.1c-0.1,0.1-0.2,0.2-0.2,0.2c-0.1,0.1-0.2,0.2-0.3,0.3
						c0,0-0.1,0-0.1,0.1c-0.1,0.1-0.3,0.2-0.5,0.4c-0.4,0.3-0.8,0.5-1.2,0.8c-0.2,0.1-0.4,0.2-0.6,0.3c-0.3,0.1-0.5,0.2-0.8,0.4
						c-0.4,0.2-0.7,0.3-1.1,0.5c-0.6,0.2-1.1,0.4-1.7,0.5c0,0-0.1,0-0.1,0c-0.4,0.1-0.8,0.2-1.1,0.3c-0.2,0-0.4,0.1-0.6,0.1
						c-1.3,0.2-2.7,0.3-3.9,0.2c-0.3,0-0.5,0-0.8-0.1c0,0-0.1,0-0.1,0c-0.3,0-0.5-0.1-0.8-0.1c-0.2,0-0.4-0.1-0.6-0.1
						c0,0-0.1,0-0.2,0c-0.1,0-0.2,0-0.3-0.1c-0.1,0-0.3-0.1-0.4-0.1c0,0,0,0,0,0c-0.8-0.2-1.5-0.5-2.1-0.8c-1.2-0.7-2.3-1.6-3.1-2.6
						c-0.4-0.4-0.7-0.8-1-1.2c-0.2-0.2-0.3-0.5-0.4-0.7c-0.1-0.2-0.3-0.5-0.4-0.7c-0.3-0.5-0.5-1-0.7-1.4c-0.1-0.2-0.2-0.5-0.3-0.7
						c-0.1-0.3-0.2-0.5-0.3-0.7c-0.2-0.5-0.3-1-0.5-1.5c-0.1-0.5-0.3-1-0.4-1.5c0-0.2-0.1-0.4-0.1-0.5c0,0,0-0.1,0-0.1
						c0-0.2-0.1-0.4-0.1-0.6c-0.1-0.4-0.1-0.8-0.1-1.1c0-0.1,0-0.2,0-0.3c0-0.1,0-0.2,0-0.3c0-0.1,0-0.2,0-0.2c0-0.1,0-0.2,0-0.2v0
						c-0.1-1.4-0.2-2.7-0.3-4.1c-0.1-1.9-0.3-3.7-0.4-5.5c-0.2-2.1-0.3-4.1-0.5-6c-0.1-1.4-0.2-2.7-0.3-4.1c0,0,0,0,0,0v0
						c-0.1-1.5-0.2-2.9-0.3-4.3c-0.1-0.9-0.1-1.8-0.2-2.7c-3.2-43.9-4.3-61-5-69.4v0c-0.2-2.7-0.4-4.5-0.7-6
						c-0.3-1.8-0.6-3.2-1.1-5.3c0,0,0,0,0,0c-0.9-3.6-2.2-9.3-4.7-23c-3-17-2.2-35.2-2.2-35.2c11-8.7,19.3-20.2,24.1-33.4
						c1.1,31.1-16.6,33.2-10.8,59.3c0.4,2.1,1.1,5.2,2.6,8.7c5.9,13.9,24.5,33.5,30.5,9c0,0.1,0.1,0.2,0.1,0.3c0,0,0,0,0,0
						c1.1,2.9,2.4,7.2,3,12.5c0.6,5.7,1.2,10.6-1,15.9c-0.2,0.4-0.4,0.9-0.6,1.3c0,0,0,0,0,0c-2.6,5.5-7.8,10.6-14.2,12.6
						C148.6,404.1,143.7,403.3,143.1,405.3z"/>
				</g>
			</g>
		</g>
		<g>
			<g>
				<g>
					<linearGradient id="SVGID_5_" gradientUnits="userSpaceOnUse" x1="71.6004" y1="76.8037" x2="116.8452" y2="155.8872">
						<stop  offset="0" style="stop-color:#EF4865"/>
						<stop  offset="1" style="stop-color:#BF1F3E"/>
					</linearGradient>
					<path class="st13" d="M180.2,134c-0.6,3.6-1.3,7.3-2,10.8c-0.1,0.4-0.2,0.9-0.3,1.4c-2,9.8-4.2,18.6-5.5,24.3
						c-0.1,0.6-0.3,1.2-0.4,1.8c0,0.2-0.1,0.3-0.1,0.5c0,0,0,0.1,0,0.1c0,0.1,0,0.2-0.1,0.2c0,0.2-0.1,0.3-0.1,0.4
						c0,0,0,0.2-0.1,0.5c0,0.1,0,0.2,0,0.2c0,0.1,0,0.1-0.1,0.2c-0.5,2.2-1.6,7.9-2.1,13.3c0,0.2,0,0.4-0.1,0.7c0,0,0,0,0,0.1
						c0,0.1,0,0.2,0,0.4c0,0,0,0,0,0c0,0,0,0,0,0c0,0,0,0,0,0c0,0.1,0,0.3,0,0.5v0c-0.1,2-0.4,6.8,0,13.3c0,0.3,0,0.7,0,1
						c0,0.1,0,0.2,0,0.3c0,0.3,0,0.7,0.1,1.1c0.1,1.4,0.2,3,0.3,4.9c0,0.4,0.1,0.8,0.1,1.1c0,0.2,0,0.4,0.1,0.6
						c0.7,9.6,1.8,22.6,1.7,24.7c0,0,0,0.1,0,0.1c-0.1,0.6-0.3,1.1-0.4,1.7c-0.1,0.4-0.2,0.7-0.3,1.1c-0.1,0.3-0.2,0.7-0.4,1.1
						c-0.1,0.4-0.3,0.8-0.4,1.2c0,0,0,0.1,0,0.1v0c0,0.1-0.1,0.2-0.1,0.3c0,0,0,0,0,0c-0.3,0.8-0.7,1.5-1.1,2.3
						c-0.1,0.2-0.2,0.4-0.3,0.5c-0.5,0.9-1.1,1.9-1.7,2.8c-0.3,0.5-0.6,0.9-0.9,1.3c-0.3,0.4-0.7,0.9-1,1.3c-0.3,0.4-0.6,0.8-1,1.2
						c-1.8,2.1-3.8,4.1-6,5.9c-0.3,0.3-0.6,0.5-0.9,0.8c-0.5,0.4-1,0.8-1.5,1.2c-0.3,0.3-0.7,0.5-1,0.8c-0.5,0.4-1.1,0.8-1.6,1.1
						c-0.4,0.3-0.8,0.5-1.2,0.8c-0.1,0.1-0.3,0.2-0.4,0.2c-0.3,0.2-0.7,0.4-1,0.6c0,0,0,0-0.1,0c-0.3,0.2-0.5,0.3-0.8,0.5
						c-0.3,0.2-0.6,0.3-0.8,0.5c-0.3,0.2-0.6,0.3-0.9,0.5c-0.1,0.1-0.3,0.2-0.5,0.2c-0.4,0.2-0.8,0.4-1.3,0.7
						c-0.3,0.1-0.5,0.2-0.7,0.4c-0.3,0.2-0.7,0.3-1,0.5c-1.1,0.5-2.2,1-3.3,1.4c-0.2,0.1-0.4,0.2-0.7,0.3c-0.6,0.2-1.3,0.5-1.9,0.7
						c-0.4,0.1-0.7,0.3-1.1,0.4c-1.6,0.5-3.3,1-4.9,1.4c-0.5,0.1-1.1,0.3-1.6,0.4c-0.3,0.1-0.6,0.1-0.9,0.2c-0.2,0-0.4,0.1-0.6,0.1
						c-1.2,0.2-2.4,0.4-3.5,0.6c-1.1,0.1-2.2,0.2-3.3,0.3c-9.1,0.5-17.9-1.4-26.1-4.9c-0.4-0.2-0.9-0.4-1.3-0.6c0,0-0.1,0-0.1,0
						c-7.3-3.3-13.9-8-19.5-13.4c-0.3-0.3-0.7-0.6-1-0.9c-0.4-0.4-0.8-0.8-1.1-1.1c-0.1-0.1-0.2-0.3-0.4-0.4
						c-0.2-0.2-0.3-0.3-0.5-0.5c-1-1.1-1.8-2-2.4-2.6c-0.4-0.5-0.7-0.8-0.8-1c0,0,0,0,0,0c0,0,0,0,0,0c0,0,0,0,0,0c0,0,0-0.1,0-0.1
						c-0.1-0.5-0.2-1-0.3-1.6c-0.1-0.8-0.3-1.6-0.4-2.3c-1.6-11,0.4-15.3,2.3-21c0,0,0,0,0-0.1c1.1-3.3,2-7.1,2.1-13v0
						c0-0.3,0-0.6,0-1c0,0,0,0,0-0.1c0,0,0,0,0,0c0-0.1,0-0.2,0-0.3v-0.1c0-1.6-0.1-7-0.3-14.4c0-0.2,0-0.4,0-0.6
						c0-1.3-0.1-2.8-0.1-4.2c-0.1-3.6-0.2-7.5-0.3-11.5V176c0-0.1,0-0.2,0-0.3c-0.1-2.8-0.2-5.6-0.3-8.4c-0.1-2.1-0.1-4.2-0.2-6.2
						c0-0.2,0-0.4,0-0.6c-0.1-3.4-0.2-6.8-0.3-10.1c-0.5-14.9-0.8-27-0.8-27.1c-0.1-2.5,0.5-5,1.8-7.1c0,0,0,0,0,0
						c0.8-1.3,1.8-2.5,3-3.5c6.2-5.2,15.8-11.7,19.8-13.8c1.9-1.1,4.5-2.4,7.5-3.8c0.1,0,0.1,0,0.2-0.1h0c1-0.4,2-0.9,3-1.4
						c0,0,0.1,0,0.1-0.1c1.8-0.8,3.6-1.6,5.5-2.4c2.2-0.9,4.5-1.9,6.7-2.8h0c1.6-0.7,3.3-1.3,4.9-2c0.2-0.1,0.4-0.1,0.6-0.2h0
						c3.6-1.4,7-2.8,10-4c0.2-0.1,0.3-0.1,0.5-0.2c1.4-0.5,2.6-1,3.8-1.5c1.8-0.7,3.3-1.3,4.5-1.7c0.5-0.2,0.9-0.3,1.3-0.5
						c0.6-0.2,0.9-0.3,1.1-0.4c0,0,0,0,0.1,0c0.3-0.1,0.6-0.2,0.9-0.3c4.9-1.7,11.4-3.8,18.9-0.7c0,0,0,0,0,0h0
						c4.3,1.8,9,5.3,13.9,11.6c2.7,3.6,4,9.3,4.3,16c0,0,0,0,0,0C182.9,113.2,181.8,123.7,180.2,134z"/>
					<path class="st4" d="M178.2,144.7c-0.1,0.4-0.2,0.9-0.3,1.4c-1.3,7.1-4.8,21.8-6.1,26.6c0,0,0,0.1,0,0.1c0,0.1,0,0.2-0.1,0.2
						c0,0.2-0.1,0.3-0.1,0.4c0,0,0,0,0,0.1c0,0.2-0.1,0.3-0.1,0.5c0,0.1,0,0.2,0,0.2c-1.2,4.4-1.8,9-2.2,13.5c0,0.2,0,0.4-0.1,0.7
						c0,0,0,0,0,0.1c0,0.1,0,0.2,0,0.4c0,0,0,0,0,0c0,0,0,0,0,0c-0.1,1.7-0.4,7-0.1,13.8c0,0.3,0,0.7,0,1c0.1,2.3,0.3,4.8,0.5,7.6
						c0,0.2,0,0.4,0.1,0.6c0.9,9.7,2.3,20.8,1.7,24.7c0,0,0,0.1,0,0.1c-0.1,0.6-0.3,1.1-0.4,1.7c-0.1,0.4-0.2,0.7-0.3,1.1
						c-0.1,0.3-0.2,0.7-0.4,1.1c-0.1,0.4-0.3,0.8-0.4,1.2c0,0,0,0.1,0,0.1v0c0,0.1-0.1,0.2-0.1,0.3c0,0,0,0,0,0
						c-0.3,0.8-0.7,1.5-1.1,2.3c-0.1,0.2-0.2,0.4-0.3,0.5c-0.5,0.9-1.1,1.9-1.7,2.8c-0.3,0.5-0.6,0.9-0.9,1.3
						c-0.3,0.4-0.7,0.9-1,1.3c-0.3,0.4-0.6,0.8-1,1.2c-1.8,2.1-3.8,4.1-6,5.9c-0.3,0.3-0.6,0.5-0.9,0.8c-0.5,0.4-1,0.8-1.5,1.2
						c-0.3,0.3-0.7,0.5-1,0.8c-0.5,0.4-1.1,0.8-1.6,1.1c-0.4,0.3-0.8,0.5-1.2,0.8c-0.1,0.1-0.3,0.2-0.4,0.2c-0.3,0.2-0.7,0.4-1,0.6
						c0,0,0,0-0.1,0c-0.3,0.2-0.5,0.3-0.8,0.5c-0.3,0.2-0.6,0.3-0.8,0.5c-0.3,0.2-0.6,0.3-0.9,0.5c-0.1,0.1-0.3,0.2-0.5,0.2
						c-0.4,0.2-0.8,0.4-1.3,0.7c-0.3,0.1-0.5,0.2-0.7,0.4c-0.3,0.2-0.7,0.3-1,0.5c-1.1,0.5-2.2,1-3.3,1.4c-0.2,0.1-0.4,0.2-0.7,0.3
						c-0.6,0.2-1.3,0.5-1.9,0.7c-0.4,0.1-0.7,0.3-1.1,0.4c-1.6,0.5-3.3,1-4.9,1.4c-0.5,0.1-1.1,0.3-1.6,0.4
						c-0.3,0.1-0.6,0.1-0.9,0.2c-0.2,0-0.4,0.1-0.6,0.1c-1.2,0.2-2.4,0.4-3.5,0.6c-1.1,0.1-2.2,0.2-3.3,0.3
						c-9.8,0.6-18.6-1.6-26.1-4.9c-0.4-0.2-0.9-0.4-1.3-0.6c0.4,0,1.4,0.2,2.8,0.5c0,0,3.1,0.5,5.8,0.7c2.5,0.2,18-1.3,30.9-11.8
						c3.7-3,6.7-6.4,9.2-10.1c0.3-0.4,0.6-0.8,0.8-1.2h0c0.9-1.4,1.8-2.9,2.6-4.4c1.4-2.6,2.6-5.3,3.7-8.1
						c3.6-9.3,5.6-19.5,7.6-29.4C159,197.9,170.2,142.2,178.2,144.7z"/>
					<path class="st4" d="M142.9,102.7c-4.8,4-10.4,4-14.3,4c-10-0.1-19.9-5.2-26.4-11.6c0,0-0.1,0-0.1-0.1l0,0
						c0.3-0.1,1.5-0.6,3.3-1.4c0,0,0.1,0,0.1-0.1c1.5-0.6,3.4-1.4,5.6-2.3c2.1-0.9,4.4-1.8,6.9-2.9c1.6-0.7,3.3-1.3,4.9-2
						c0.2-0.1,0.4-0.2,0.6-0.3c3.4-1.4,6.8-2.8,9.8-4c0.2-0.1,0.3-0.1,0.5-0.2c1.3-0.5,2.6-1.1,3.8-1.5c1.8-0.7,3.3-1.3,4.5-1.7
						c0.5-0.2,1-0.3,1.4-0.5c0.5-0.2,0.8-0.3,1-0.3c0,0,0,0,0.1,0c0.3-0.1,0.6-0.2,0.9-0.3C151.1,85.4,150.7,96.4,142.9,102.7z"/>
					<linearGradient id="SVGID_6_" gradientUnits="userSpaceOnUse" x1="134.3784" y1="191.9072" x2="-56.7125" y2="222.159">
						<stop  offset="0" style="stop-color:#EF4865"/>
						<stop  offset="1" style="stop-color:#BF1F3E"/>
					</linearGradient>
					<path class="st14" d="M94.6,266.3c0,0-0.1,0-0.1-0.1c-13.2-6.2-22.1-15.7-24.9-18.9c-0.4-0.5-0.7-0.8-0.8-1c0,0,0,0,0,0
						c0,0,0,0,0,0c0,0,0,0,0,0c0,0,0-0.1,0-0.1c-0.1-0.5-0.2-1-0.3-1.6c-1-5.9-1.4-12.6,0.3-18.3c0.6-1.1,1.1-2.9,1.6-5
						c0,0,0,0,0-0.1c1.1-4.6,1.9-10.5,2.1-13v0c0.1-0.6,0.1-1,0-1.1c0,0,0,0,0,0c0,0,0,0,0,0c0-0.1,0-0.2,0-0.3v-0.1
						c0.2-3.2,0.2-8.4,0-14.4c0-0.3,0-0.7,0-1c0-1.4-0.1-2.8-0.2-4.2c-0.2-3.6-0.4-7.4-0.6-11.1V176c0-0.1,0-0.2,0-0.3
						c-0.2-3-0.4-6-0.6-8.7c-0.2-2.3-0.3-4.5-0.5-6.3c0-0.2,0-0.4-0.1-0.6c-0.3-4-0.6-6.8-0.8-7.6c0.3-0.5,0.7-1.2,1.2-2.2
						c3.1-5.8,10.2-19.3,13.3-18.6c2.9,4.8,6.3,11.9,6.3,20.5c0,10.6-5.4,12.2-6.4,24.8c-0.5,6.1,0,14.6,2.6,28
						c0.3,1.3,0.4,2.1,0.7,3.1c2.5,8.6,8,13.3,6,16.5c-2.1,3.4-9.4-0.1-12.6,2.8c-2.2,2.1-2.2,7.4,3.1,18.8c0.3,0.7,0.7,1.5,1,2.2
						c0.1,0.1,0.1,0.3,0.2,0.4c2.3,4.7,5.4,10.4,9.5,17.2C94.5,266.3,94.6,266.3,94.6,266.3z"/>
				</g>
			</g>
		</g>
	</g>
	<g>
		<g>
			<linearGradient id="SVGID_7_" gradientUnits="userSpaceOnUse" x1="128.8871" y1="70.4239" x2="108.2106" y2="133.5419">
				<stop  offset="0" style="stop-color:#EC7C88"/>
				<stop  offset="1" style="stop-color:#FBCECD"/>
			</linearGradient>
			<path class="st15" d="M144.4,89.7c-2.4,7.6-21.6,14.5-33.3,1.5c0,0,0,0-0.1-0.1c-0.8-0.9-1.6-1.9-2.4-3c0.2-0.9,0.3-1.7,0.2-2.6
				c-0.3-2.7-2.1-5-4.8-6.1c0.2,0,0.3-0.1,0.5-0.1c0.6-0.1,1.2-0.2,1.8-0.3c11.7-2.3,23.5-4.6,35.2-6.9l0.9-0.2
				c-0.8,3-0.8,5.2-0.5,6.8c0,0,0,0,0,0.1c0,0.2,0.1,0.5,0.2,0.7c0.2,0.6,0.4,1.1,0.6,1.5c0,0,0,0.1,0.1,0.1c0.6,1.1,1.5,2.1,1.9,4
				C144.7,85.1,145.2,87.3,144.4,89.7z"/>
			<path class="st6" d="M130.2,102c0,0-7.4,0.6-14.9-4.2c-1.8-1.1-3.4-2.6-3.4-2.6c-3.2-0.2-6.4-0.3-9.5-0.2h0c-0.1,0-0.2,0-0.2,0h0
				c2.1-3.2,4.2-6.5,6.3-9.7c0,0,0.2,0.1,0.5,0.2c1.3,0.5,4.6,1.9,8.9,2.8h0c0.1,0,0.1,0,0.2,0c3,0.6,6.4,1,9.8,0.7
				c8.3-0.7,9.8-0.9,15-8.1c0.6-0.9,1.3-1.8,2-2.9c0,1.7,0.1,3.3,0.1,4.9C147.3,93,139.9,101.7,130.2,102z"/>
		</g>
	</g>
	<g>
		<g>
			<path class="st10" d="M78.8,186.3c-0.2,0.5-0.5,0.9-0.8,1.3l0,0c-1.5,2.2-3.2,4-5.6,4.7c-0.1,0-0.2,0.1-0.3,0.1
				c-0.1,0-0.3,0.1-0.4,0.1c-0.8,0.2-1.6,0.2-2.6,0.2c-1-0.1-2.2-0.3-3.4-0.7c-2.5-0.8-5.4-2.4-8.9-4.9
				c-8.3-5.9-11.4-10.4-12.5-12.9c-0.1-0.3-0.2-0.6-0.3-0.8v0c-0.3-0.9-0.3-1.4-0.3-1.4s0,0,0,0c0-0.1,0.1-0.2,0.1-0.3
				c0.2-0.7,0.9-2.3,2.5-4.2c1.1-1.4,2.8-3.1,5-4.7c7.2-5,13.3-1.3,19.8,4.3c0.1,0.1,0.2,0.2,0.3,0.3c0.9,0.8,1.8,1.5,2.7,2.3
				c1.6,1.4,2.7,2.5,3.5,3.4c1.3,1.5,1.7,2.3,1.9,2.7c0.2,0.6,0.4,1.2,0.5,1.8C80.6,180.4,80.2,183.6,78.8,186.3z"/>
			<g>
				<path class="st0" d="M77.5,173c-0.3,2.1-0.9,4.4-1.9,6.9c0,0,0,0,0,0c-0.9,2.3-2,4.7-3.4,7.2c-0.1,0.1-0.2,0.3-0.2,0.4
					c-0.9,1.7-1.9,3.4-2.9,5.1c-8.6,14.7-21.9,33.2-31,54.8c-1.2,2.9-2.4,5.9-3.5,8.9c-2,5.7-3.7,11.6-4.8,17.6c0,0,0,0,0,0
					c-7.8-2-20.3-5.1-20.3-5.1c0.1-0.1,0.1-0.3,0.2-0.4c22.9-49.6,23.8-73,33.9-94.2c0.1-0.3,0.3-0.6,0.4-0.9v0l0.2-0.3l0-0.1
					c0.5-1,1-2,1.6-3.1c0,0,0,0,0,0c0.2-0.4,0.4-0.8,0.7-1.2c0,0-0.1-0.5-0.2-1.3c-0.1-1.2-0.1-3,0.9-4.8l17.3-4.9
					c0.2,0,0.4,0.1,0.6,0.2c2.2,0.6,4.1,1.3,5.6,2.2c0.2,0.1,0.4,0.2,0.6,0.3c1.9,1,3.3,2.2,4.3,3.6C77.4,166.5,78,169.5,77.5,173z"
					/>
				<linearGradient id="SVGID_8_" gradientUnits="userSpaceOnUse" x1="64.0771" y1="168.7692" x2="26.4717" y2="265.8583">
					<stop  offset="0" style="stop-color:#EC7C88"/>
					<stop  offset="1" style="stop-color:#FBCECD"/>
				</linearGradient>
				<path class="st16" d="M79.9,177.5c-0.2,0.6-0.3,1.1-0.6,1.7c-0.7,1.2-1.3,2.4-2,3.5c-1.8,3.2-3.5,6-5,8.6
					c-0.1,0.2-0.2,0.3-0.3,0.5c-0.1,0.3-0.3,0.5-0.4,0.7c-23.7,40-11.9,10.9-29.2,47.8c-1.1,2.2-2.8,4.7-4.4,7.2
					c-2.7,4.2-5.1,8-3.6,8.8c-1.2-0.6-6.9-3.9-15.4-9.3c6.3,1.9,9.5,0.3,10.6-0.4c1.2-0.7,2.6-2.1,4.4-3.8c0,0,1.8-1.7,3.3-3.3
					c4.5-4.8,13.5-23.5,14.5-25.4C57.2,203.5,63,197,65.7,192c2.5-4.5,2.5-7.8-2.4-11.8c-6.8-5.6-15-6.1-19.1-5.9
					c-0.3,0-0.5,0-0.8,0h-0.1l0.5-0.9v0l0.2-0.3l0-0.1l1.7-3.1l0,0l0.6-1.2c0,0-0.1-0.5-0.2-1.3c-0.1-1.2-0.1-3,0.9-4.8l17.3-4.9
					c0.2,0,0.4,0.1,0.6,0.2c1.9,0.6,4,1.7,5.7,2.7c0.2,0.1,0.4,0.3,0.6,0.4c0.3,0.2,0.6,0.4,0.9,0.6c1.3,0.8,2.4,1.6,3.4,2.3
					C81.1,168.3,81.6,171.8,79.9,177.5z"/>
			</g>
			<linearGradient id="SVGID_9_" gradientUnits="userSpaceOnUse" x1="105.8106" y1="82.5525" x2="60.7704" y2="181.1848">
				<stop  offset="0" style="stop-color:#EF4865"/>
				<stop  offset="1" style="stop-color:#BF1F3E"/>
			</linearGradient>
			<path class="st17" d="M90.1,166.4L84,177.1v0l-5.2,9.2l-0.8,1.3c0.1-0.3,0.7-2-0.7-4.9c-0.4-0.8-1-1.8-1.8-2.8c0,0,0,0,0,0
				c-0.9-1.3-2.2-2.6-4-4.2c0,0,0,0,0,0c-1.5-1.3-3.3-2.7-5.5-4.2c-4.8-3.3-8.9-4.4-12.2-4.4c-3.7,0-6.4,1.4-8.1,2.7l0,0
				c0,0,0,0,0,0c0,0,0,0,0,0c-1.3,1-2,1.9-2.1,2c0-0.1,0.1-0.2,0.1-0.3c6-18.3,15.8-39,28.1-55.4c0,0,0,0,0,0
				c0.2-0.2,0.3-0.5,0.5-0.7c2.6,0,8.1,0.4,12.6,4.2C89.6,123.6,101.5,147.1,90.1,166.4z"/>
		</g>
		<path class="st0" d="M29.3,292.8c0,0.3-0.3,1.9-1.8,2.8c-2.1,1.4-5.3,0.6-6.2-1.2c-0.4-0.8-0.3-1.5,0.1-3.7c0.2-1,0.5-2.7,0.9-5
			c-1.4-0.7-2.9-1-3.3-1c-1.9,0.1-4,3.1-2.9,6.3c0.4,0.6,4,5.8,4.1,6.4c0.1,0.4,0,1-0.3,1.9v0c-0.1,0.4-0.3,0.7-0.5,1
			c0,0.1-0.6,1-0.6,1c-0.1,0.2-0.6,0.8-0.7,1c0,0.8-0.5,1.1-0.5,2c0,1.2-0.3,2.2-1.5,3c-0.8,0.5-1.6,0.7-1.6,0.7
			c0,0-0.2,0.2-0.2,0.2c-0.2,0.2-1.7,3-2.5,3.3c-1.4,0.3-4.3-7-6.8-11.2c-0.1-0.2-0.6-1-1.3-2.2c-0.5-0.9-1.7-3.2-2.1-4.2
			c-0.2-0.5-0.4-1-0.6-1.7c-0.5-1.4-0.7-2.6-0.8-3.4c0-1.5-0.1-2.9-0.1-4.4c0-0.7,0-1.3-0.1-1.9c0.8-2.9,1.9-5.1,2.8-6.6
			c1.8-2.9,4.2-5.4,6.9-7.5c0.8-0.6,1.7-1.3,2.6-1.8c2.2,2.2,5.2,3.9,7.6,4.7c3.2,1.3,6.8,0.4,9.8-1.4c0.1,0.7,0.1,1.5,0.1,2.3
			c0,0.7,0,1.3,0,1.8c0,0,0,0,0,0C30.2,285.1,31.4,279.8,29.3,292.8z"/>
	</g>
	<g>
		<path class="st0" d="M144.9,69.4c-0.8,0.5-2.1,1.5-3.3,2.6c-2.2,2.1-4.4,5.1-4,8.3c0,0,0,0,0,0c0.1,0.7,0.3,1.4,0.6,2.1
			c0,0,0,0,0,0c0.2,0.4,0.3,0.8,0.3,1.2c-0.2,2.3-7.2,3.6-15.5,2.5c-0.1,0-0.1,0-0.2,0c-4.4-0.6-9.2-1.9-13.5-4.1
			c-0.6-0.3-2.3-1.2-4.5-2.9c-1.4-1-3-2.3-4.6-4c-12.4-12.5-17-34.7-7.5-55.2c1.3-2.8,2.9-5.6,4.8-8.3c1.2,1.5,2.5,3,3.7,4.5
			c10.6,12.8,21.1,25.5,31.7,38.3C136.7,59.5,140.8,64.5,144.9,69.4z"/>
		<linearGradient id="SVGID_10_" gradientUnits="userSpaceOnUse" x1="89.5511" y1="43.1619" x2="158.0768" y2="43.1619">
			<stop  offset="0" style="stop-color:#270E13"/>
			<stop  offset="1" style="stop-color:#4C1825"/>
		</linearGradient>
		<path class="st18" d="M158,40.2c-0.3,10.6-4.2,20.5-9.8,30v0c-1.3,3.1-2.9,5.8-4.9,7.9c0,0,0,0.1-0.1,0.1
			c-0.4,0.4-0.7,0.8-1.1,1.2c-1.3,1.2-2.6,2.2-4,3.1c-4.4,2.7-9.6,3.8-14.6,3.5c-0.1,0-0.2,0-0.2,0h0c-5.4-0.3-10.6-2.2-14.8-5.4
			c-0.7-0.5-1.4-1.1-2.1-1.7c-3.6-3.3-5.4-6.8-5.4-6.8c-1.2-2.4-1.8-4.5-2.1-6c-0.1-14.8-8.3-16.4-9.3-26.2c0-0.5-0.1-2.8,0-3.3
			c0.7-1.1,1.8-3,3.2-5.3c4-6.8,6.4-11.6,8.2-15.2c3-6.3,3.8-8.8,6.7-11.3c3.8-3.2,9.1-4.7,14.8-4.7c6.8,0,14.1,2.1,19.8,5.8
			c0,0,0.1,0,0.1,0.1c0.1,0,0.1,0.1,0.2,0.1c0.1,0.1,0.3,0.2,0.5,0.4c0.3,0.2,0.6,0.5,0.9,0.8c0.1,0.1,0.2,0.1,0.2,0.2
			c3,2.6,8.7,8.4,11.8,17.6c0,0.1,0,0.1,0.1,0.2c0.2,0.5,0.3,1,0.5,1.5c0.3,0.9,0.5,1.8,0.6,2.7c0.1,0.6,0.2,1.2,0.3,1.8
			c0,0.3,0.1,0.6,0.1,1v0c0,0.1,0,0.2,0,0.3c0.1,0.4,0.1,0.7,0.1,1.1c0.1,0.9,0.2,1.7,0.2,2.6c0,0.7,0.1,1.3,0.1,2
			c0,0.6,0,1.2,0,1.8C158,40.2,158,40.2,158,40.2z"/>
		<linearGradient id="SVGID_11_" gradientUnits="userSpaceOnUse" x1="89.6303" y1="30.5405" x2="158.0777" y2="30.5405">
			<stop  offset="0" style="stop-color:#8C203C"/>
			<stop  offset="1" style="stop-color:#7A263B"/>
		</linearGradient>
		<path class="st19" d="M157.7,44.2c-1.6,2-3.9,4.7-6.8,7.9c-2.7,3-3.7,5-6.3,5.7c-1.7,0.5-4.3,0.6-5.3-0.8
			c-1.3-1.8,1.2-4.4,0.3-5.3c-0.8-0.9-3.5,0.8-7.1,2.9c-5.8,3.5-13.9,8.4-18.9,5.8c-2-1-5.8-4.5-7.3-6.8
			c-6.8-10.1-3.9-7.1-16.7-16.8c1.5-2.8,3.3-7.2,3.3-12.5c0-1.8-0.2-3-0.4-4.1c-0.2-1.4-0.5-2.4-0.3-3.9C93.1,9,104.7,1.5,118,0.2
			c2.6-0.3,5.3-0.3,8,0c5.6,0.6,11.2,2.4,16.2,5.8c0.1,0,0.1,0.1,0.1,0.1c0.1,0,0.1,0.1,0.2,0.1c0.2,0.1,0.4,0.3,0.5,0.4
			c0.3,0.2,0.6,0.5,0.9,0.8c0.1,0.1,0.2,0.1,0.2,0.2c5.6,4.5,9.6,10.7,11.8,17.6c0,0.1,0,0.1,0.1,0.2c0.2,0.5,0.3,1,0.5,1.5
			c0.3,0.9,0.5,1.8,0.6,2.7c0.2,0.9,0.3,1.9,0.5,2.8v0c0,0.1,0,0.2,0,0.3c0.1,0.4,0.1,0.7,0.1,1.1c0.1,0.8,0.2,1.7,0.2,2.6
			C158.2,38.9,158.1,41.5,157.7,44.2z"/>
	</g>
</g>
<path class="st20" d="M255.4,75.8c0.2,0.5,0.3,1.2,0.3,1.4c0,1.4-1.4,3.4-1.4,3.4c-2,2.3-3.6,5-5.4,7.4c-1.9,2.5-2.2,3-2.4,3.5
	c0,0.1-0.1,0.2-0.1,0.3c0,1.6,0,3.6-0.1,5.8c0,0.3,0,0.6,0,1c0,0.3,0,0.6,0,0.9c0,0.2,0,0.4,0,0.6c0,0.8,0,1.6-0.1,2.5
	c0,0.5,0,0.9,0,1.4c0,0.2,0,0.5,0,0.7c0,0.9,0,1.8-0.1,2.7c0,0.2,0,0.4,0,0.6c0,0.9,0,1.9-0.1,2.9c0,0.9-0.1,1.9-0.1,2.8
	c-0.1,2-0.2,3.9-0.3,5.9c0,0.8-0.1,1.7-0.1,2.5c-0.3,5.4-0.8,10.1-1.4,12.9c-0.2,0.8-0.4,1.6-0.6,2.3c-0.1,0.2-0.1,0.5-0.2,0.7
	c-0.1,0.2-0.1,0.4-0.2,0.5c-0.1,0.3-0.2,0.5-0.3,0.8c-0.2,0.6-0.5,1.2-0.7,1.8c-0.1,0.3-0.3,0.5-0.4,0.8c-0.1,0.3-0.3,0.5-0.4,0.7
	c0,0,0,0,0,0c-0.2,0.2-0.3,0.5-0.5,0.7c-0.2,0.2-0.3,0.4-0.5,0.6c-0.2,0.2-0.3,0.4-0.5,0.6c0,0-0.1,0.1-0.1,0.1
	c-0.2,0.2-0.3,0.3-0.5,0.5c-0.2,0.2-0.4,0.4-0.7,0.6c-0.4,0.3-0.7,0.6-1.1,0.9c-0.4,0.3-0.9,0.6-1.4,0.9c-0.4,0.4-2.1,1.3-4.3,2.1
	c-0.4,0.2-0.9,0.3-1.4,0.5c-1,0.3-2,0.5-3.1,0.7c-0.3,0.1-0.7,0.1-1.1,0.2c-0.3,0-0.6,0.1-0.8,0.1c-0.2,0-0.4,0-0.7,0.1
	c-0.4,0-0.9,0.1-1.3,0.1c-0.2,0-0.3,0-0.5,0c-0.4,0-0.8,0-1.2,0c-1.7,0-3.9-0.5-6.4-1.3c-4-1.3-9.2-3.6-16.5-7.8
	c-0.4,0.5-0.8,1.1-1.2,1.5c0,0-11.2-6.1-17.7-9.7c-0.6,3.6-1.3,7.3-2,10.8c-0.1,0.4-0.2,0.9-0.3,1.4c-1.3,6.9-4.6,20.9-5.9,26.1
	c0,0.2-0.1,0.3-0.1,0.5c0,0,0,0.1,0,0.1c0,0.1,0,0.2-0.1,0.2c0,0.2-0.1,0.3-0.1,0.4c0,0,0,0,0,0.1c0,0.2-0.1,0.3-0.1,0.5
	c0,0.1,0,0.2,0,0.2c0,0.1,0,0.1-0.1,0.2c-0.5,2.2-1.6,7.9-2.1,13.3c0,0.2,0,0.4-0.1,0.7c0,0,0,0,0,0.1c0,0.1,0,0.2,0,0.4
	c0,0,0,0,0,0c0,0,0,0,0,0c0,0,0,0,0,0c0,0.1,0,0.3,0,0.5v0c-0.1,2.1-0.3,7.1,0,13.3c0,0.3,0,0.7,0,1c0,0.1,0,0.2,0,0.3
	c0,0.3,0,0.7,0.1,1.1c0.1,1.4,0.2,3,0.3,4.9c0,0.4,0.1,0.8,0.1,1.1c0,0.2,0,0.4,0.1,0.6c0.9,9.7,2.3,20.8,1.7,24.7c0,0,0,0.1,0,0.1
	c-0.1,0.6-0.3,1.1-0.4,1.7c-0.1,0.4-0.2,0.7-0.3,1.1c-0.1,0.3-0.2,0.7-0.4,1.1c-0.1,0.4-0.3,0.8-0.4,1.2c0,0,0,0.1,0,0.1v0
	c0.2,0.5,0.3,0.9,0.5,1.4c0.3,0.9,0.5,1.8,0.7,2.8c0.1,0.6,0.3,1.3,0.4,2c0.3,1.7,0.5,3.5,0.7,5.3c0,0.4,0.1,0.7,0.1,1.1
	c0,0.4,0.1,0.7,0.1,1.1c0.3,3.6,0.3,7.3,0.3,11c0,0.5,0,0.9,0,1.4c0,0.2,0,0.3,0,0.5c0,0.5,0,1.1,0,1.6c0,0.1,0,0.1,0,0.2
	c0,0.6,0,1.2-0.1,1.8c0,0.4,0,0.8-0.1,1.2c0,0.6-0.1,1.3-0.1,1.9c-0.2,4.5-0.6,8.8-0.9,12.4c0,0.4-0.1,0.8-0.1,1.2
	c0,0.3,0,0.5-0.1,0.8c0,0.4-0.1,0.7-0.1,1.1c-0.1,1.1-0.2,2.1-0.3,3c0,0,0,0,0,0c-1.7,18.4-4.1,40.2-4.3,66.6c0,0,0,0,0,0
	c1.1,2.9,2.4,7.2,3,12.5c0.6,5.7,1.2,10.6-1,15.9c-0.2,0.4-0.4,0.9-0.6,1.3c0,0,0,0,0,0c0.3,5.1,0.3,10.8-0.1,15.8
	c-0.2,2-0.3,4-0.4,5.9c0.3,0,0.5,0.1,0.5,0.2c0,0.1-0.2,0.3-0.6,0.5c-1,13.7-1.8,24.5-2.5,33.4c0,0,0,0,0,0c1.4,8.4,0.1,17-1.4,20.8
	v0c-0.4,7.9-0.6,13.7-0.6,19.6h0c0,0,0,0.1,0,0.1c0,0.1,0,0.1,0.1,0.2c0.2,0.6,0.2,1.1,0.3,1.6c0.1,1.4-0.2,2.7-0.7,3.8
	c-0.1,0.1-0.1,0.3-0.2,0.4c-0.2,0.3-0.4,0.6-0.6,0.9c0,0,0,0,0,0c-0.1,0.1-0.2,0.3-0.3,0.4c-0.1,0.1-0.2,0.3-0.4,0.4
	c0,0.1-0.1,0.1-0.1,0.2c0.2,1,0.3,2,0.3,3l-0.1,0c0,0.3,0,0.6,0,1.1c0,0.2,0,0.4,0,0.6c0,0.1,0,0.3,0,0.4c0,0.1,0,0.2,0,0.3
	c0,0.3,0,0.6,0,1c0,1.1-0.1,2.3-0.3,3.1c0,0,0,0,0,0c0,0,0,0,0,0.1c0,0.2-0.1,0.5-0.1,0.7c0,0.1,0,0.2-0.1,0.4c0,0.1,0,0.2,0,0.3
	c0,0.1,0,0.2-0.1,0.3c0,0.1,0,0.1-0.1,0.2c-0.1,0.6-0.3,1.1-0.5,1.5c0,0,0,0,0,0c0,0,0,0,0,0c0,0,0,0,0,0c-0.1,0.1-0.1,0.3-0.2,0.4
	c-2,4.4-7.1,6-7.7,6.2c-6.1,1.8-12.7-1.4-16.4-5.3c-4-4.2-1.9-6.4-7.3-13.5c-3-3.9-4.6-5.8-7.2-7.6c-2.4-1.6-4.9-2.6-6.9-5.5
	c-0.7-1-0.9-1.9-1.4-3.2c-0.9-2.7-3-9-0.7-15.6c0.6-1.6,1.1-3,2.4-4.1c0.1,0,0.1-0.1,0.1-0.1c1.3-1.1,3.2-1.8,6-1.8
	c1.9,0,3.3,0.6,4,0.9c3.8,1.6,7,3.2,9.7,4.8c-0.1-1.5-0.2-2.9-0.3-4.3c-0.1-0.9-0.1-1.8-0.2-2.7c-0.1-1.5-0.2-3-0.3-4.5
	c-3.1-41.5-4.3-58-4.6-64.5c0-0.1,0-0.3,0-0.4v0c-0.2-2.7-0.4-4.5-0.7-6c-0.3-1.5-0.7-3.3-1.1-5.3c0,0,0,0,0,0
	c-0.9-3.6-2.2-9.3-4.7-23c-3-17-2.2-35.2-2.2-35.2c0,0.3-6.2,21.2-11.3,38.4c-0.1,0.3-0.1,0.5-0.2,0.7c-2.7,9.7-5.4,19-7.8,25.7
	c0.6,2.6,0.9,7.2,0.8,10c0.2,0.5,0.2,0.9,0,1.3c0,0,0,0.1-0.1,0c-0.1,8.8-0.9,17.3-2,25.8c-0.1,0.3-0.1,0.7-0.1,1.2
	c0,0.1,0,0.2,0,0.3c0,0.3-0.1,0.6-0.1,0.9c-0.3,2.2-0.7,5.3-1.3,10c0,0,0,0.1,0,0.1c0,0,0,0,0,0c-1.8,13.5-3.7,27.9-3.8,44.8
	c0,1.1,0,2.2,0,3.4c0,0,0,0,0,0c0,8.2,0.5,16.9,1.5,26.5c-0.1,0.1-0.2,0.3-0.5,0.6c-0.4,0.5-1,1.2-1.8,2c0.2,0.5,0.4,1,0.5,1.6
	c0,0.1,0,0.1,0.1,0.2c0,0,0,0.1,0,0.1c0,0.2,0.1,0.3,0.1,0.5c0,0.1,0,0.1,0,0.2c0,0.1,0.1,0.2,0.1,0.3c0,0.2,0.1,0.4,0.1,0.6
	c0,0,0,0,0,0c0,0.1,0,0.2,0,0.3c0.1,0.3,0.1,0.6,0.1,0.9c0.1,0.7,0.2,1.4,0.2,2c0,0.1,0,0.3,0,0.5c0,0.1,0,0.2,0,0.3
	c0.1,1.4,0.3,2.9,0.3,4.4c0,0.1,0,0.1,0,0.2c0.4,11.1-2.2,15.2-8.3,17.8c-6.6,2.9-13.6,3.2-16.4,3.2c-0.7,0-1.1,0-1.2,0
	c-13.6-0.3-27.6-0.7-43.9-4.8c-2.9-0.7-7.5-2-8.8-5.5c-0.7-1.8-0.4-3.7,0.2-5.2v0c0.4-3.5,1.6-8.4,5.5-11.2
	c3.1-2.2,5.7-1.4,13.1-2.6c3-0.5,7.2-1.8,15.4-4.3c3.8-1.2,6.9-2.1,9.4-2.9c0.3-0.1,0.6-0.2,0.9-0.3c0.5-0.2,0.9-0.3,1.3-0.4
	c-0.2-0.3-0.3-0.7-0.5-1c0-0.6,0.1-1.2,0.1-1.8c0,0,0-0.1,0-0.1c0,0,0-0.1,0-0.1c0.2-4.7,0.4-8.8,0.5-12.6v0c0-0.4,0-0.7,0-1
	c0.1-4.9,0.1-11.9,0-14.5c0-0.5-0.1-3.8-0.1-4.5c0-0.4,0-0.8,0-1.1c0-1-0.1-2-0.1-3.1c0-0.4,0-0.7,0-1.1c-0.1-1.1-0.1-2.2-0.2-3.3
	c0-0.4-0.1-0.8-0.1-1.2c0-0.2,0-0.4,0-0.6c0-0.1,0-0.2,0-0.3c0-0.4-0.1-0.8-0.1-1.3c-0.1-0.9-0.2-1.7-0.2-2.5
	c-0.1-1.3-0.2-2.5-0.4-3.8c0-0.4-0.1-0.9-0.1-1.3c0-0.4-0.1-0.8-0.1-1.2c0,0,0,0,0-0.1c0,0,0,0,0-0.1c0,0,0-0.1,0-0.1
	c0,0,0-0.1,0-0.1c0,0,0,0,0,0c0-0.1,0-0.1,0-0.2c0-0.1,0-0.2,0-0.2c0-0.2,0-0.4-0.1-0.5c0-0.2,0-0.4-0.1-0.6c0-0.2,0-0.5-0.1-0.7
	c0-0.1,0-0.2,0-0.3l0-0.3c0-0.2-0.1-0.4-0.1-0.6c0-0.1,0-0.1,0-0.2c0-0.2,0-0.3,0-0.3c0-0.5-0.4-4.7-0.4-4.8
	c-0.2-2.3-0.3-4.6-0.4-6.8c0-1-0.1-2-0.1-3.1c-0.1-3.4-0.2-6.8-0.3-10.2c-0.1-4.7-0.1-9.9,0-16c0-2,0-4.5,0.1-7c0-0.4,0-0.8,0-1.2
	c0-0.4,0-0.8,0-1.2c0-0.3,0-0.6,0-0.9c0-0.5,0-1,0-1.5c0-0.5,0-1,0-1.5c0-0.8,0-1.5,0-2.3c0-0.2,0-0.4,0-0.6c0-0.3,0-0.5,0-0.8
	c0-0.9,0-1.9,0.1-2.9c0-0.6,0-1.2,0-1.8c0-1.2,0-2.5,0.1-3.8c0,0,0,0,0,0c0-0.1,0-0.1,0-0.2v-0.1c-0.1-14.8-0.2-26.1-0.3-35.2
	c0-0.1,0-0.1,0-0.2c-0.4-8.1-1.5-11.5,0-12.3v-0.3c0-1.8,0-3.4,0-5v-2.4c0-0.4,0-0.7,0-1c0-0.7,0-1.4,0-2.1c0-0.6,0-1.1,0-1.7
	c0-0.8,0-1.7,0-2.4c0-0.4,0-0.7,0-1c0-0.5,0-0.9,0-1.3c0.1-2.2,0.1-4.4,0.2-6.6c0-0.2,0-0.5,0-0.7c0-0.2,0-0.5,0-0.7
	c0-0.5,0.1-1,0.1-1.5c0-1,0.1-2,0.2-3c0-0.1,0-0.2,0-0.3c0.1-1.4,0.2-2.7,0.3-4c0-0.3,0.1-0.7,0.1-1c1.2-15.4,3.7-30.8,8.4-47.5
	c-0.1-0.5-0.2-1-0.3-1.6c-0.1-0.8-0.3-1.6-0.4-2.3c-1.6-11,0.4-15.3,2.3-21c0,0,0,0,0-0.1c1.1-4.6,1.9-10.5,2.1-13v0
	c0-0.3,0-0.6,0-1c0,0,0,0,0-0.1c0,0,0,0,0,0c0,0,0,0,0,0c0-0.1,0-0.2,0-0.3v-0.1c0-1.6-0.1-7-0.3-14.4c-0.1,0-0.3,0.1-0.4,0.1
	c-23.7,40-11.9,10.9-29.2,47.8c-1.1,2.2-2.8,4.7-4.4,7.2c-1.2,2.9-2.4,5.9-3.5,8.9c-2,5.7-3.7,11.6-4.8,17.6c0,0,0,0,0,0
	c0.4,11,1.6,5.8-0.5,18.7c0,0.3-0.3,1.9-1.8,2.8c-2.1,1.4-5.3,0.6-6.2-1.2c-0.4-0.8-0.3-1.5,0.1-3.7c0.2-1,0.5-2.7,0.9-5
	c-1.4-0.7-2.9-1-3.3-1c-1.9,0.1-4,3.1-2.9,6.3c0.4,0.6,4,5.8,4.1,6.4c0.1,0.4,0,1-0.3,1.9v0c-0.1,0.4-0.3,0.7-0.5,1
	c0,0.1-0.6,1-0.6,1c-0.1,0.2-0.6,0.8-0.7,1c0,0.8-0.5,1.1-0.5,2c0,1.2-0.3,2.2-1.5,3c-0.8,0.5-1.6,0.7-1.6,0.7c0,0-0.2,0.2-0.2,0.2
	c-0.2,0.2-1.7,3-2.5,3.3c-1.4,0.3-4.3-7-6.8-11.2c-0.1-0.2-0.6-1-1.3-2.2c-0.5-0.9-1.7-3.2-2.1-4.2c-0.2-0.5-0.4-1-0.6-1.7
	c-0.5-1.4-0.7-2.6-0.8-3.4c0-1.5-0.1-2.9-0.1-4.4c0-0.7,0-1.3-0.1-1.9c0.8-2.9,1.9-5.1,2.8-6.6c1.8-2.9,4.2-5.4,6.9-7.5
	c22.9-49.6,23.8-73,33.9-94.2h-0.1l0.5-0.9v0c-0.3-0.9-0.3-1.4-0.3-1.4s0,0,0,0c0-0.1,0.1-0.2,0.1-0.3c0,0,0-0.1,0-0.1
	c0,0,0-0.1,0.1-0.2c0.2-0.5,0.3-0.9,0.5-1.4c1-2.9,2-5.8,3.2-8.8c0.5-1.2,0.9-2.4,1.4-3.6s1-2.4,1.5-3.6s1.1-2.4,1.6-3.6
	c0.5-1.2,1.1-2.5,1.7-3.7c1.1-2.4,2.3-4.7,3.5-7c0.9-1.8,1.9-3.5,2.8-5.3c0.3-0.6,0.7-1.2,1-1.7c1.7-3,3.5-5.9,5.4-8.8
	c0.6-1,1.3-2,2-2.9c0.4-0.5,0.7-1.1,1.1-1.6c0.8-1.1,1.5-2.1,2.3-3.1c0,0,0,0,0,0c0.8-1.3,1.8-2.5,3-3.5
	c6.2-5.2,15.8-11.7,19.8-13.8c1.9-1.1,4.5-2.4,7.5-3.8c0,0-0.1,0-0.1-0.1h0c2.1-3.2,4.2-6.5,6.3-9.7c0,0,0.2,0.1,0.5,0.2
	c-0.3-2.7-2.1-5-4.8-6.1c0.2,0,0.3-0.1,0.5-0.1c-1.4-1-3-2.3-4.6-4c-12.4-12.5-17-34.7-7.5-55.2c-0.2-1.4-0.5-2.4-0.3-3.9
	C93.1,9,104.7,1.5,118,0.2h8c5.6,0.6,11.2,2.4,16.2,5.8c0,0,0.1,0,0.1,0.1c0.1,0,0.1,0.1,0.2,0.1c0.1,0.1,0.3,0.2,0.5,0.4
	c0.3,0.2,0.6,0.5,0.9,0.8c0.1,0.1,0.2,0.1,0.2,0.2c5.6,4.5,9.6,10.7,11.8,17.6c0,0.1,0,0.1,0.1,0.2c0.2,0.5,0.3,1,0.5,1.5
	c0.3,0.9,0.5,1.8,0.6,2.7c0.1,0.6,0.2,1.2,0.3,1.8c0,0.3,0.1,0.6,0.1,1v0c0,0.1,0,0.2,0,0.3c0.1,0.4,0.1,0.7,0.1,1.1
	c0.1,0.9,0.2,1.7,0.2,2.6c0,0.7,0.1,1.3,0.1,2c0,0.6,0,1.2,0,1.8c0,0,0,0.1,0,0.1c-0.3,10.6-4.2,20.5-9.8,30v0
	c-1.3,3.1-2.9,5.8-4.9,7.9c0.5-0.2,0.8-0.3,1-0.3c0,0,0,0,0.1,0c0.3-0.1,0.6-0.2,0.9-0.3c4.9-1.7,11.4-3.8,18.9-0.7c0,0,0,0,0,0h0
	c2.9,0.8,6.3,2.2,9.6,4.9c8.4,6.7,27.8,23,27.8,23s0.9,0.9,1.9,2.7c0.1,0,0.2,0.1,0.2,0.2h0v0c3.2,2.2,11.8,8.3,15,10.7
	c0.1,0.1,0.3,0.2,0.4,0.3c0.1,0.1,0.2,0.2,0.3,0.2c0.4,0.3,0.6,0.4,0.7,0.5c0.6,0,3.1-7.9,5.5-16.3c0,0,0,0,0,0
	c0.2-0.8,0.4-1.5,0.6-2.3c0,0,0,0,0,0c1.2-4.2,2.3-8.3,3.2-11.4c-1-14.3-4.7-21.7-0.6-31c0.2-0.4,1.5-3.5,1.8-3.8
	c3.3-3.9,7.9-3.7,5.6,1.8v0c-3,7.7-1.4,9-1.4,9c1.2,1,4.5-0.5,6.4-2.4c0.8-0.8,1.4-1.5,1.8-2.2c2-3,6-15.4,9.8-15.7
	c0.7,0,1.8,0.2,3.3,2.2c-0.7,2.2-1.3,4.4-2,6.6c0,0-3.6,8.6-3.4,10c0.4,0.1,0.8,0.1,1.2,0.2c4.4,3.2,0.4,2.8,1.6,5.9
	c0.2,0.5,0.6,0.6,0.9,1.1c0.3,0.5,0.8,1.4,0.8,1.7c0,0.8-0.4,1.7-0.2,2.3c0,0,0,0.1,0,0.1C255.2,75.4,255.3,75.4,255.4,75.8z"/>
</svg>
