<?xml version="1.0" encoding="utf-8"?>
<!-- Generator: Adobe Illustrator 21.0.2, SVG Export Plug-In . SVG Version: 6.00 Build 0)  -->
<svg version="1.1" id="Isolation_Mode" xmlns="http://www.w3.org/2000/svg" xmlns:xlink="http://www.w3.org/1999/xlink" x="0px"
	 y="0px" viewBox="0 0 301.4 566.2" style="enable-background:new 0 0 301.4 566.2;" xml:space="preserve">
<style type="text/css">
	.st0{fill:#026AB0;}
	.st1{fill:#FFFFFF;}
	.st2{fill:url(#SVGID_1_);}
	.st3{fill:#A32546;}
	.st4{fill:#631E30;}
	.st5{fill:#8C203C;}
	.st6{fill:#FFCFCD;}
	.st7{fill:url(#SVGID_2_);}
	.st8{fill:#002555;}
	.st9{fill:url(#SVGID_3_);}
	.st10{fill:url(#SVGID_4_);}
	.st11{fill:#BF1C3C;}
	.st12{fill:url(#SVGID_5_);}
	.st13{fill:#EDE6EE;}
	.st14{fill:url(#SVGID_6_);}
	.st15{fill:#00437A;}
	.st16{fill:url(#SVGID_7_);}
	.st17{fill:url(#SVGID_8_);}
	.st18{fill:url(#SVGID_9_);}
	.st19{fill:url(#SVGID_10_);}
	.st20{fill:url(#SVGID_11_);}
	.st21{fill:url(#SVGID_12_);}
	.st22{fill:url(#SVGID_13_);}
	.st23{fill:url(#SVGID_14_);}
	.st24{fill:url(#SVGID_15_);}
	.st25{fill:url(#SVGID_16_);}
	.st26{fill:url(#SVGID_17_);}
	.st27{fill:url(#SVGID_18_);}
	.st28{fill:url(#SVGID_19_);}
	.st29{filter:url(#Adobe_OpacityMaskFilter);}
	.st30{filter:url(#Adobe_OpacityMaskFilter_1_);}
	.st31{mask:url(#SVGID_20_);fill:url(#SVGID_21_);}
	.st32{fill:url(#SVGID_22_);}
	.st33{fill:url(#SVGID_23_);}
	.st34{fill:url(#SVGID_24_);}
	.st35{fill:url(#SVGID_25_);}
	.st36{fill:url(#SVGID_26_);}
	.st37{fill:url(#SVGID_27_);}
	.st38{fill:url(#SVGID_28_);}
	.st39{fill:url(#SVGID_29_);}
	.st40{fill:url(#SVGID_30_);}
	.st41{fill:url(#SVGID_31_);}
	.st42{fill:url(#SVGID_32_);}
	.st43{fill:url(#SVGID_33_);}
	.st44{fill:url(#SVGID_34_);}
	.st45{fill:url(#SVGID_35_);}
	.st46{fill:url(#SVGID_36_);}
	.st47{fill:url(#SVGID_37_);}
	.st48{fill:url(#SVGID_38_);}
	.st49{fill:url(#SVGID_39_);}
	.st50{fill:url(#SVGID_40_);}
	.st51{filter:url(#Adobe_OpacityMaskFilter_2_);}
	.st52{filter:url(#Adobe_OpacityMaskFilter_3_);}
	.st53{mask:url(#SVGID_41_);fill:url(#SVGID_42_);}
	.st54{fill:url(#SVGID_43_);}
	.st55{fill:url(#SVGID_44_);}
	.st56{fill:#C1E3F4;}
	.st57{fill:#FFED74;}
	.st58{fill:url(#SVGID_45_);}
	.st59{fill:url(#SVGID_46_);}
	.st60{fill:url(#SVGID_47_);}
	.st61{fill:url(#SVGID_48_);}
	.st62{fill:url(#SVGID_49_);}
	.st63{fill:#003D73;}
	.st64{fill:url(#SVGID_50_);}
	.st65{fill:url(#SVGID_51_);}
	.st66{fill:url(#SVGID_52_);}
	.st67{fill:url(#SVGID_53_);}
	.st68{fill:url(#SVGID_54_);}
	.st69{fill:url(#SVGID_55_);}
	.st70{fill:url(#SVGID_56_);}
	.st71{fill:url(#SVGID_57_);}
	.st72{fill:url(#SVGID_58_);}
	.st73{fill:url(#SVGID_59_);}
	.st74{fill:url(#SVGID_60_);}
	.st75{fill:url(#SVGID_61_);}
	.st76{fill:url(#SVGID_62_);}
	.st77{fill:url(#SVGID_63_);}
	.st78{fill:url(#SVGID_64_);}
	.st79{fill:url(#SVGID_65_);}
	.st80{fill:url(#SVGID_66_);}
	.st81{fill:#70BFE6;}
	.st82{fill:url(#SVGID_67_);}
	.st83{fill:url(#SVGID_68_);}
	.st84{fill:url(#SVGID_69_);}
	.st85{fill:url(#SVGID_70_);}
	.st86{fill:url(#SVGID_71_);}
	.st87{fill:url(#SVGID_72_);}
	.st88{fill:url(#SVGID_73_);}
	.st89{fill:url(#SVGID_74_);}
	.st90{fill:url(#SVGID_75_);}
	.st91{fill:url(#SVGID_76_);}
	.st92{fill:url(#SVGID_77_);}
	.st93{fill:#052440;}
	.st94{fill:url(#SVGID_78_);}
	.st95{fill:url(#SVGID_79_);}
</style>
<g>
	<g>
		<path class="st0" d="M262.1,511.6c-4.3-0.6-12.1-2.3-20.9-8.1c-7-4.5-12.7-3.7-19.8-4.2c-9.4-0.6-7.9-5.6-8.9-12.6
			c-0.3-2.9-0.2-6.8-0.1-7.1c0-0.4,0.1-1.3,0.1-1.6c0,0,0.1-1.3,0.1-1.3c0-0.6,0.4-2.3,0.4-2.8c13.1,2.7,38.5,2.1,41.9,5.5v0
			c6.3,5.3,27.1,16.5,31.3,18.5c0.6,0.9,2.3,3.3,2.5,4.4C292.1,512.8,271.7,513,262.1,511.6z"/>
		<path class="st1" d="M288.6,502.3c-2.6,6-17.7,6.3-26.5,5c-4.3-0.6-12-2.3-20.8-8.1c-12.3-8-23.5,0-28.5-9
			c-0.1-1.1-0.2-2.3-0.4-3.6c-0.3-2.9-0.2-6.8-0.1-7.1c0-0.4,0-0.5,0.1-1.6c-0.1-0.1,0.1-1.2,0.1-1.3c0,0,0,0,0,0
			c0-1.4,0.7-5,1.6-7.3c7,4.8,16.5,5.5,23.8-1.1c2.9-2.9,8.1-4.6,12.9-3.6c0.7,11.6,12.1,18.4,22.4,23.4c8,3.9,10.6,4.1,13.1,7.5
			C288.2,498,288.6,500.6,288.6,502.3z"/>
		<linearGradient id="SVGID_1_" gradientUnits="userSpaceOnUse" x1="240.6348" y1="461.2271" x2="245.4822" y2="494.3033">
			<stop  offset="0" style="stop-color:#51B6FA"/>
			<stop  offset="1" style="stop-color:#E9F5FB"/>
		</linearGradient>
		<path class="st2" d="M251,464.7c-4.8-1-10,0.7-12.9,3.6c-7.3,6.6-16.8,5.9-23.8,1.1c-0.4,1-0.7,2.2-0.9,2.8
			c5.8,8.3,15.8,9.2,24.8,6.6c3.5,4.8,24.9,21.9,35.2,9.4C263,483,251.6,476.2,251,464.7z"/>
	</g>
	<g>
		<path class="st3" d="M256.6,381.5c-5.1,24.7-3.3,44.2-5.4,84.9c-0.4-1-1.1-2.2-2.3-2.6c-2.6-0.8-4.8,3.3-9.5,6.5
			c-4.1,2.9-10.7,4.8-16.4,3.7c-0.8-0.1-2-0.5-3.4-1.1c-1.9-0.8-4.2-2.1-6.5-4.5c1.2-3.3,2.9-8.9,3.9-15.8c4.1-29.2-11-42,0.8-79.7
			c-1.3-0.7-2.5-1.4-5.4-3.1c0,0,0,0,0,0c-10.2-5.9-18.7-12.2-25-16.2c-13.6-8.6-18.7-12.8-25.1-11.4c-3,0.6-6.9,2.4-9,4.4
			c-6-4.2,3.7-24.8,3.7-24.8c2.3-6,4.7-12.1,7-18.1c8.9-8.1,17.7-16.2,26.5-24.3c0,0,0,0,0,0c33,26.2,46.6,35.3,59,52.1
			c5.3,7.1,10.7,15.7,11.2,26.5C260.7,358.3,261.2,358.1,256.6,381.5z"/>
		<g>
			<path class="st4" d="M231.8,456.8c-0.8,5.8-1.6,11.5-2.3,17.3c-3.4,0.5-6.7,0.2-9.9-1.2c0,0-0.1-0.1-0.1-0.2
				c-0.6-2.1,5.3-4.2,5.6-8.3c0.2-3.2-3.1-6.2-6.9-8.5l-1.4-1.3L231.8,456.8z"/>
			<path class="st4" d="M212.9,408.1c0,0,12.3,5.9,12.8,16.7c0.2,4,0.2,7.6,0.2,10.6c-0.1,4.8-3.5,8.8-8.3,9.7l0,0l2.9,6.5l13.8-1
				c-2.5-15.6,0.9-22.9-1.2-31.6c-0.9-3.5-0.8-2.9-0.8-2.9l-1.1-3.8L212.9,408.1z"/>
			<path class="st4" d="M216.3,377.3c0,0,7.4,0.3,8.9,10.6c1.5,10.3-12,10.5-12,10.5s0.6,12.9,13.9,7.3c13.3-5.6,9.1-25.9,9.1-25.9
				l-8.4-5.3L216.3,377.3z"/>
			<path class="st5" d="M251,328.2c-5.6,12.1-2.8,7-13.1,22.6c1,5.4,1,14.8-4.4,17.5c-3.6,1.8-10.6,2.2-14.6,2
				c-3.5-0.1-6.6-0.5-6.6-0.5c-10.2-5.9-18.7-12.2-25-16.2c-13.6-8.6-18.7-12.8-25.1-11.4c-3,0.6-6.9,2.4-9,4.4
				c-6-4.2,3.7-24.8,3.7-24.8c2.2-5.9,4.5-11.7,6.5-17.5c0.7-1,26-24.1,26.9-25c0,0,0,0,0,0c1.8,1.4,3.6,2.7,5.2,4.1
				c0.5,2.5,0.9,7.6-1.4,17.2c-3.6,15-9.4,22.1,6.1,35.1c6.3,5.2,10.8,8,14.4,10.1c5.5,3.2,12.5,1.5,16-3.8
				c6.2-9.2,10.5-9.5,11.2-14.6c0.6-3.6-2.9-8-2.9-8C239.4,319.5,250.8,328,251,328.2z"/>
			<path class="st4" d="M237.8,350.8c-1.2,16.2-0.9,12.5-1.4,18.4c-8.6,0.2-24.2,0.6-24.2,0.6c-10.2-5.9-18.7-12.2-25-16.2
				c-13.6-8.6-18.7-12.8-25.1-11.4c-3,0.6-6.9,2.4-9,4.4c-6-4.2,3.7-24.8,3.7-24.8c1.8-4.8-0.4-1.7,16.7-20.3
				c-2.1,8.7-2.6,15.9-2.7,20.9c-0.1,6.4,0.6,11.2,3.8,13.7c0.8,0.6,1.5,0.9,1.7,1c34.9,21,42.7,24.9,48.7,21.8
				c2.3-1.2,5.7-4.1,7.4-13C234.4,347.7,236.1,349.2,237.8,350.8z"/>
		</g>
	</g>
	<g>
		<path class="st3" d="M167.6,299.4c-4.8,23.3-7.2,23.6-24.5,77.4c-12.1,37.6-16.9,51.3-34.7,66.3c-10.9,6.7-28.4,18.8-39.8,30.3
			c-0.6,0.6-1.5,1.4-2.5,2.5c-14.7,15.3-25,35.5-31.4,35.4c-1.2,0-3.2-1-7.1-3c-0.3-0.2-0.6-0.3-0.9-0.5c-6.1-3.2-7.2-5.1-10.7-5.5
			c-4.4-0.5-7.9,0.6-9.6,1.3c22.7-33,39.5-57.1,45.6-66.4c5.3-8.2,11.8-15.1,20.6-20.5c0.5-0.9,1.4-2.8,1.8-4.1
			c2-6.2,11.8-53.4,24.3-117.9C121.7,296.4,144.6,297.9,167.6,299.4z"/>
		<path class="st5" d="M164.4,310c-10.7,16.3-20.2,21.2-27.1,22.6c-2.6,0.5-6.9,1-11.9,3.8c-16.7,9.3-22.9,36.4-27.4,54.1
			c-1.6,6.2-2.3,9.4-0.7,11.4c2,2.5,5.2,0.8,13.5,2.4c7.8,1.5,9.1,3.7,13.5,3.1c4.8-0.6,8.4-3.9,10.7-6.6
			c-6.6,18.5-11.6,29.6-26.6,42.2c-10.9,6.7-28.4,18.8-39.8,30.3c-0.6,0.6-1.5,1.4-2.5,2.5c-4.1,4.2-7.1,7.9-10.2,12
			c-6.6,4.5-17.3,11.9-29.2,19.9c-6.1-3.2-7.2-5.1-10.7-5.5c-2.4-0.3-4.5-0.1-6.2,0.2c0,0,0,0,0,0c-1.5,0.3-2.6,0.7-3.4,1
			c37.5-54.4,31.8-46,42.2-61.3c5.1-7.6,10.9-17.5,24-25.6c20-36,13.8-53.3,28.5-80.3c3.9-7.1,6-10.7,10.2-14.8
			C128.4,305.6,154.4,308.4,164.4,310z"/>
		<g>
			<path class="st4" d="M52.6,456.4l-12.9,13c0,0-21.4,26.6-29.9,33.2c0,0,0,0,0,0c-1.8,1.4-3.1,1.9-3.4,1
				c6.4-9.2,12.2-17.8,17.6-25.5c7.7-7.5,19.8-19.4,21.1-22.1c1.7-3.5,0.4-9,0.4-9c0.7-1.2,2.2-3.6,3-5
				C48.6,442.5,52.5,455.9,52.6,456.4z"/>
			<path class="st4" d="M68.9,419.5c-3.2,11.8,2.9,12.7-8.7,19c-2.5,1.4-3.3,1.2-3.7,1.1c-2.3-0.9-2.3-5.5-2.3-5.5l-3.1,6
				c0,0,3.1,10,4,12.1c0.9,2.1,16.8-9.5,16.8-9.5l12-13L75,421L68.9,419.5z"/>
			<path class="st4" d="M164.4,310c-12.9,10.4-23.8,13-31.6,13.4c-10.2,0.5-16.6-2.8-22.5,1.4c-5.4,3.8-4.3,9.7-7.1,21.8
				c-5.4,23.5-17.8,36.7-20.5,55.8c-1,7.5,0,11.5,0.3,12.5c1.9,6.5,6.4,10.9,5.2,12.1c-0.3,0.3-1.1,0.5-3.5-0.5
				c-4.1-3.3-8.1-6.6-12.2-9.8c0.6-1.4,1.3-2.7,1.8-4.1c2-6.2,11.8-53.4,24.3-117.9l60.1,8.6C160.6,305.6,162.5,307.8,164.4,310z"/>
		</g>
	</g>
	<g>
		<g>
			<path class="st6" d="M282.1,146.6c-0.7,4-10.9,15-10.7,15.7c-7.6-7-16.2-10.3-26.9-13.2h0c-1.1-0.4-10-3.7-10.2-3.8
				c-10.6,4.7-19.5,7.7-29.3,11.6c-4.7-11-9.3-22-14-33.1c17.5-2.7,40.8-7.6,39.9-7.4C233.9,115.8,247.2,122.8,282.1,146.6z"/>
			<linearGradient id="SVGID_2_" gradientUnits="userSpaceOnUse" x1="210.0815" y1="138.8056" x2="268.6726" y2="138.8056">
				<stop  offset="0" style="stop-color:#ED7D88"/>
				<stop  offset="1" style="stop-color:#FFCFCD"/>
			</linearGradient>
			<path class="st7" d="M267.6,159.1c-7-5.4-14.5-7.7-23.1-10h0c-1.8-0.6-10-3.7-10.2-3.8c-3.9,1.7-7.3,2.5-11.3,4.3
				c-4.7-12-1.9-5.7-12.8-28.6c0.4-0.1,0.6-0.3,0.8-0.5c0.4-0.1,9.2-1.8,9.5-1.9l0,0c6.1,4.8,10.6,10.9,13.3,18.1
				c5.2,2.7,9.3,5,12,6.6c5.5,3.1,7.1,3.9,9.9,4.2c4.2,0.5,5.9-1.5,10.4,2.6C269.6,153.4,268.9,156.7,267.6,159.1z"/>
		</g>
		<g>
			<path class="st8" d="M283.4,163.5c-5.2,4.8-18.8-3.6-24.5-7.7c-3.6-2.5-5.1-4-3.2-8.3c1.3-3.1,4.3-9.8,10.6-10.7
				c2.5-0.4,4.7,0.4,5.7,1l13.2,9.6c0,0,0,0.1,0.1,0.3C285.6,149.6,287.3,159.8,283.4,163.5z"/>
			<linearGradient id="SVGID_3_" gradientUnits="userSpaceOnUse" x1="271.5384" y1="146.7381" x2="274.3898" y2="167.2682">
				<stop  offset="0" style="stop-color:#005995"/>
				<stop  offset="1" style="stop-color:#068BE5"/>
			</linearGradient>
			<path class="st9" d="M283.9,163.6c-5.2,4.8-18.8-3.6-24.5-7.7c-1.4-1.7-1-3.8-0.1-5.9c1.3-3.1,4.2-9.8,10.6-10.7
				c2.5-0.4,4.7,0.4,5.7,1l6.7,4.9c2.4,1.8,4,4.5,4.1,7.6C286.6,156.6,286.3,161.3,283.9,163.6z"/>
		</g>
		<g>
			<linearGradient id="SVGID_4_" gradientUnits="userSpaceOnUse" x1="226.95" y1="108.3947" x2="172.7956" y2="160.2688">
				<stop  offset="0" style="stop-color:#FF4463"/>
				<stop  offset="1" style="stop-color:#BF1C3C"/>
			</linearGradient>
			<path class="st10" d="M229.7,148c-2.4,1-5.7,2.5-9.7,4.3c-10,4.6-12,6.1-13.7,8.3c-1.2,1.6-2.9,4.7-3.1,9.7
				c0,0-46.6-33.2-48.8-34.8c3.2-2.5,6.5-4.9,9.7-7.4c15.2-3.1,30.4-6.1,45.6-9.1C223.9,122.3,231.4,135.3,229.7,148z"/>
			<path class="st11" d="M229.7,148c-2.4,1-5.7,2.5-9.7,4.3c-10,4.6-12,6.1-13.7,8.3c-1.2,1.6-2.9,4.7-3.1,9.7
				c-2-1.5-4.1-2.9-6.1-4.3l-8.8-21l18.5,7.7L229.7,148z"/>
		</g>
	</g>
	<g>
		<g>
			<linearGradient id="SVGID_5_" gradientUnits="userSpaceOnUse" x1="226.4919" y1="246.9865" x2="-17.3468" y2="190.9317">
				<stop  offset="0" style="stop-color:#FF4463"/>
				<stop  offset="1" style="stop-color:#BF1C3C"/>
			</linearGradient>
			<path class="st12" d="M206.8,195.6l-13.5,51.1c-0.8,3.1-1.1,6.3-0.6,9.5c2.2,15.7-2.7,30.1-13.9,42c-3.9,4.1-8.7,7.8-12.9,11
				c-1.6,1.1-2.7,1.9-3.9,2.7c-1.1,0.7-12,6.3-26.8,6.3c-12.7,0-21,0-29.1-5.6c-1.8-1.2-7.6-5.6-10.6-13.2C91,288.4,96,279,99,267
				c5.4-21.4-2.2-23.9,0.8-47.1c0.9-7.5,4.7-34.6,25.4-57.3c7.2-7.9,22.1-24.4,42.9-23.8c6.6,0.2,13.5,2.1,20.4,6.1
				C210.1,157.6,208.9,188,206.8,195.6z"/>
			<path class="st11" d="M207.8,186.1c-0.1,3.1-0.2,6.5-1,9.5l-13.5,51.1c-0.8,3.1-1.1,6.3-0.6,9.5c2.2,15.7-2.7,30.1-13.9,42
				c-3.9,4.1-8.7,7.8-12.9,11c-4.2,0.3-9,0.4-13.1-0.2c-7.8-1-12.4-7.6-11.5-14.8c1.3-9.8,13.7-11.7,15.2-17.9
				c1.4-5.7-6.4-15.5-41.1-33.3c0,0-10.3-11.1-8.2-13.5c1.6-1.8,11.8,3.8,13.5,1.5c0.1-0.2,0.3-0.5,0.5-1.1c0.4-0.9,0.7-1.9,1.1-3.2
				c1.1-3.8,2.9-14.4,4.6-28.6c1.8-0.1,3.7,0.1,5.5,0c13.2,5.1,37.5,12.6,51.5,10.2c3.5-0.6,6.9-1.2,10.6-3.4
				C203.7,199.6,206.8,189.8,207.8,186.1z"/>
		</g>
		<path class="st11" d="M189.2,157.7c6.2,24.4,6.1,29.7,4,34.2c-1.4,3.1-3.2,4.3-3.9,4.7c-2.7,1.6-5.7,1.2-6.9,1
			c-31.6-2.6-43-19.8-43-19.8c-7.6-7.6-11-24,8-30.8C166.4,140.2,189.2,157.7,189.2,157.7z"/>
	</g>
	<g>
		<g>
			<path class="st13" d="M33.8,564.3c-4.3,4.3-17.4,0.4-22.3-3.1c-7.1-5-13-15.6-11.2-25c0.1-0.4,5.6-28.3,5.6-28.7
				c6.1-1.2,11-2.3,14.2-3.1c4.7-1.2,7.6-2,10.5-1.8c4.2,3.6,5.1,8.9,4,14.3c-0.2,2.6-0.3,5.4-0.3,8.3
				C33.6,544.4,38.9,559.2,33.8,564.3z"/>
		</g>
		<linearGradient id="SVGID_6_" gradientUnits="userSpaceOnUse" x1="22.4559" y1="492.7213" x2="24.1672" y2="585.1302">
			<stop  offset="0" style="stop-color:#51B6FA"/>
			<stop  offset="1" style="stop-color:#E9F5FB"/>
		</linearGradient>
		<path class="st14" d="M36.1,517.9C36.1,517.9,36.1,517.9,36.1,517.9c-3.3,8.4-1.7,15.7-0.7,28.8c0,0-4.8-3-11.4-5
			c-7.3-2.3-10.5-1.6-13.4-4.7c-1.9-2.1-2.6-4.8-3.8-10.3c-1.3-5.5-1.7-12.5-0.9-19.4c18.9-3.7,21.4-6.1,27.4-4.6
			c1.9,0.5,5.6,1.4,6.5,4C40.6,508.9,39,510.7,36.1,517.9z"/>
		<path class="st0" d="M0.3,536.1c-1.8,9.3,4,19.9,11.2,25.1c5.2,3.7,19,7.8,22.8,2.5c1.3-1.9,1.6-4.9,1.7-6.5
			c-2.9,8.5-18.9,2.8-23.7-0.6c-6.6-4.7-12.1-14-11.5-22.7C0.6,534.5,0.5,535.3,0.3,536.1z"/>
	</g>
	<g>
		<g>
			<path class="st15" d="M216.4,450.6c0.3,2.1,1.7,3.8,3.6,4.6c4.5,1.7,13.9,4.7,19.5,2.9c7.5-2.5,4.4-10.3,4.4-10.3
				c-8.9,1.4-17.9,0.4-26.3-2.6c0-0.3,0-0.6-0.1-0.8c-1.1,0.3-1.8,1.3-1.1,2.2C216.5,447.5,216.4,450.6,216.4,450.6z"/>
			<linearGradient id="SVGID_7_" gradientUnits="userSpaceOnUse" x1="235.5527" y1="452.7196" x2="218.16" y2="453.2899">
				<stop  offset="0" style="stop-color:#005995"/>
				<stop  offset="1" style="stop-color:#068BE5"/>
			</linearGradient>
			<path class="st16" d="M216.8,454.6c6,4.7,15.4,7.4,22.6,4.9c5.9-2,7.3-10.5,1.7-10c-11,1.1-21.7-1.7-24.8-3.9
				C215.8,448.3,215.8,451.2,216.8,454.6z"/>
		</g>
		<g>
			<path class="st15" d="M212,403.9c0.3,2.1,1.7,3.8,3.6,4.6c4.5,1.7,13.9,4.7,19.5,2.9c7.5-2.5,4.4-10.3,4.4-10.3
				c-8.9,1.4-17.9,0.4-26.3-2.6c0-0.3,0-0.6-0.1-0.8c-1.1,0.3-1.8,1.3-1.1,2.2c0,0.3,0,0.7,0,1.2C212.1,402.9,212,403.7,212,403.9z"
				/>
			<linearGradient id="SVGID_8_" gradientUnits="userSpaceOnUse" x1="234.0188" y1="405.9416" x2="216.6261" y2="406.5118">
				<stop  offset="0" style="stop-color:#005995"/>
				<stop  offset="1" style="stop-color:#068BE5"/>
			</linearGradient>
			<path class="st17" d="M212.4,407.9c6,4.7,15.4,7.4,22.6,4.9c5.9-2,7.3-10.5,1.7-10c-11,1.1-21.7-1.7-24.8-3.9
				C211.4,401.6,211.4,404.5,212.4,407.9z"/>
		</g>
		<g>
			<path class="st15" d="M219.2,375.9c0.5,0.5,0.7,0.8,1,1c3.9,3.4,13.3,1.7,19.6-2.6c6.6-4.5,1.4-11.1,1.4-11.1
				c-6.7,3.8-13.7,6.3-28.9,6.6C214.7,371.8,217.2,373.8,219.2,375.9z"/>
			<linearGradient id="SVGID_9_" gradientUnits="userSpaceOnUse" x1="232.9127" y1="372.2115" x2="215.5191" y2="372.7818">
				<stop  offset="0" style="stop-color:#005995"/>
				<stop  offset="1" style="stop-color:#068BE5"/>
			</linearGradient>
			<path class="st18" d="M216.2,374.2c0.1,0.4,0.3,0.9,0,1.5c-0.1,0.4-0.4,0.6-0.3,1c0.1,0.3,0.3,0.5,0.5,0.6c2.5,1,4.9,1.4,7.4,1.5
				c8.6,0.2,13.3,0.2,16.2-2.9c3.2-3.5,2.8-9.5,1.6-10.1c-0.9-0.4-1.9-0.3-2.8,0.1c-3.6,0.7-3.6,2.2-7,2.9c-6.4,1.6-13,2-19.5,1
				c0.3,1,0.8,1.4,1.6,2C215,372.5,215.9,373.2,216.2,374.2z"/>
		</g>
		<g>
			<linearGradient id="SVGID_10_" gradientUnits="userSpaceOnUse" x1="246.7227" y1="330.4304" x2="253.8527" y2="300.4843">
				<stop  offset="0" style="stop-color:#001440"/>
				<stop  offset="1" style="stop-color:#005995"/>
			</linearGradient>
			<path class="st19" d="M260.3,316c-7.4-3-15.5-1.5-21.2,3.4c3.3,3.3,6.4,7,9.4,10.9C252.5,325.6,256.4,320.8,260.3,316z"/>
			<g>
				<linearGradient id="SVGID_11_" gradientUnits="userSpaceOnUse" x1="264.7737" y1="391.6059" x2="232.6478" y2="399.3997">
					<stop  offset="0" style="stop-color:#001440"/>
					<stop  offset="1" style="stop-color:#005995"/>
				</linearGradient>
				<path class="st20" d="M262.5,357.3c0,1.9-6.1,108.5-7.6,109.6c-1,1-2.4,1.1-3.4,1.1c-0.2-1.5-1.5-3.5-3-3.5
					c-1.6-0.2-3.2,1.3-4.2,2.2c-3.3,3-2.7,5.7-4.8,7.8c-1.9,1.9-4.8,2.1-7.5,1.9c-1.6-0.1-2.9-1.6-2.8-3.2
					c0.7-44.8,1.3-76.5,1.4-76.5c0-2.1,0.4-23.9,0.4-30.8c-0.2-11.3,0.9-23.6,10.5-29.6c0.3-0.1,0.5-0.3,0.8-0.5
					c7.5-4.3,7.2-4.5,11-8.3c4.3-4.9,6.8-9.7,8.3-12.9C262.3,322,263,342.6,262.5,357.3z"/>
			</g>
			<g>
				<linearGradient id="SVGID_12_" gradientUnits="userSpaceOnUse" x1="264.9553" y1="459.482" x2="225.6059" y2="387.6266">
					<stop  offset="0" style="stop-color:#068BE5"/>
					<stop  offset="1" style="stop-color:#51B6FA"/>
				</linearGradient>
				<path class="st21" d="M241.4,336.4c-0.4,72.1-3.3,134.8-3.6,139.3c-0.1,0-0.2,0-0.2,0.1c-1.6,0.8-5.3,0.9-6.2,0.5
					c-0.9-0.3-1.6-1-1.9-1.8c-0.1-0.1-0.1-0.4-0.2-0.6c0-0.2,1.2-77.1,1.3-77.1c0-7.9,0.6-39.8,0.6-39.8
					C232.6,343.9,236.8,339.2,241.4,336.4z"/>
				<linearGradient id="SVGID_13_" gradientUnits="userSpaceOnUse" x1="201.3589" y1="338.4657" x2="215.0456" y2="358.4256">
					<stop  offset="0" style="stop-color:#005995"/>
					<stop  offset="1" style="stop-color:#068BE5"/>
				</linearGradient>
				<path class="st22" d="M252.1,329.8c0.5,43.6-0.9,68.2-3.6,134.7c-2.2,0.5-3.4,1.5-4.2,2.2c-3.3,3-2.7,5.7-4.8,7.8
					c-0.3,0.3-0.5,0.5-0.9,0.7c3.2-84.8,4.2-101.9,3.6-139.3c3.1-1.7,6.2-3.7,8.9-6.1L252.1,329.8z"/>
				<linearGradient id="SVGID_14_" gradientUnits="userSpaceOnUse" x1="291.3902" y1="221.1277" x2="270.86" y2="317.5052">
					<stop  offset="0" style="stop-color:#001440"/>
					<stop  offset="1" style="stop-color:#005995"/>
				</linearGradient>
				<path class="st23" d="M262.5,358.5c-0.1,3.5-6,105.2-7.6,108.4c-1,1-2.4,1.1-3.4,1.1c0-0.4-0.6-2.8-2.5-3.4
					c2.9-44.2,4.2-87.2,3.6-136.5c2.5-2.5,6.2-7.7,8.8-13.4C262.4,322.7,263,344.5,262.5,358.5z"/>
			</g>
			<linearGradient id="SVGID_15_" gradientUnits="userSpaceOnUse" x1="228.72" y1="357.3014" x2="259.8003" y2="298.2773">
				<stop  offset="0" style="stop-color:#068BE5"/>
				<stop  offset="1" style="stop-color:#51B6FA"/>
			</linearGradient>
			<path class="st24" d="M239.2,319.4c15.5-4.9,18.4-3.9,19-2.9c1.2,2.4-6.9,9.7-14.2,16.2c-6.5,5.8-7.9,6.2-9.8,9.7
				c-4.5,8.1-3.6,18.5-3.1,33.7c0-3,0.2-6.8,0.6-11.3c1.8-20.9,3.1-20.2,12.5-28.4c7.4-6.5,8.9-7.3,11.4-10.3
				c2.1-2.5,7.4-8.8,5.8-11.5c-1.1-1.9-6.1-2.8-24.1,2.9C237.8,318.3,238.6,318.8,239.2,319.4z"/>
		</g>
		<g>
			<linearGradient id="SVGID_16_" gradientUnits="userSpaceOnUse" x1="259.2243" y1="368.7063" x2="227.0925" y2="376.5016">
				<stop  offset="0" style="stop-color:#001440"/>
				<stop  offset="1" style="stop-color:#005995"/>
			</linearGradient>
			<path class="st25" d="M262.8,349.6c0,0-3.4,3.5-10.7,7.6c-7.3,4.1-21.4,5.6-21.4,5.6c-0.6,1.1,2.7,6,0.2,7.1
				c-0.1,8.5-0.2,10.2-0.3,16.6c3.1,1,0.6,1.9,0,1.5c0,0.8,0,0.7,0,1.5c0.5,0.5,1.6,0.8,4,1c10.1,1,21.7-2.6,26.5-5.2
				c1.8-30,1.5-23.5,1.7-32.4C263.3,351.7,263.5,350.7,262.8,349.6z"/>
			<linearGradient id="SVGID_17_" gradientUnits="userSpaceOnUse" x1="303.9767" y1="365.3924" x2="245.5185" y2="382.5022">
				<stop  offset="0" style="stop-color:#005995"/>
				<stop  offset="1" style="stop-color:#068BE5"/>
			</linearGradient>
			<path class="st26" d="M261.7,372.5c5.7,3.5,3.3,9.6-2.3,12c-8.8,3.8-17.8,5.1-24.9,4.4c-3-0.3-3.9-0.8-4.4-1.4
				c-0.2-0.2-0.3-0.4-0.5-0.8c-1.3-2.7-0.8-4.8,1.1-6.4c0,0.3,0,0.6,0,0.9c10.9,1.8,23.2-1.8,30.9-7.6
				C261.7,373.2,261.7,372.9,261.7,372.5z"/>
			<linearGradient id="SVGID_18_" gradientUnits="userSpaceOnUse" x1="301.2713" y1="356.156" x2="242.8142" y2="373.2654">
				<stop  offset="0" style="stop-color:#005995"/>
				<stop  offset="1" style="stop-color:#068BE5"/>
			</linearGradient>
			<path class="st27" d="M262.5,361.2c5.8,3.1,3.4,9.4-2.4,12.3c-8.9,4.5-18.2,6.6-25.3,6.5c-3.1,0-4-0.5-4.5-1.1
				c-0.2-0.2-0.3-0.4-0.5-0.8c-1.4-2.6-0.8-4.8,1.1-6.5c0,0.3,0,0.6,0,0.9c11.1,0.4,22.9-2.8,31.5-10.2
				C262.4,361.9,262.4,361.5,262.5,361.2z"/>
			<linearGradient id="SVGID_19_" gradientUnits="userSpaceOnUse" x1="298.5008" y1="346.4403" x2="239.9873" y2="363.5662">
				<stop  offset="0" style="stop-color:#005995"/>
				<stop  offset="1" style="stop-color:#068BE5"/>
			</linearGradient>
			<path class="st28" d="M262.8,349.6c10.5,4.6-4.9,19.9-28.2,21.3c-2.8,0.2-3.9,0-4.6-0.7c-0.2-0.2-0.3-0.4-0.5-0.7
				c-1.4-2.5-0.8-4.8,1.1-6.7c0,0.3,0,0.6,0,0.9c18.2-2.5,26.8-7.9,32-13C262.7,350.4,262.8,350,262.8,349.6z"/>
		</g>
		<defs>
			<filter id="Adobe_OpacityMaskFilter" filterUnits="userSpaceOnUse" x="229.4" y="421.3" width="29.4" height="55.2">
				<feFlood  style="flood-color:white;flood-opacity:1" result="back"/>
				<feBlend  in="SourceGraphic" in2="back" mode="normal"/>
			</filter>
		</defs>
		<mask maskUnits="userSpaceOnUse" x="229.4" y="421.3" width="29.4" height="55.2" id="SVGID_20_">
			<g class="st29">
				<defs>
					<filter id="Adobe_OpacityMaskFilter_1_" filterUnits="userSpaceOnUse" x="229.4" y="421.3" width="29.4" height="55.2">
						<feFlood  style="flood-color:white;flood-opacity:1" result="back"/>
						<feBlend  in="SourceGraphic" in2="back" mode="normal"/>
					</filter>
				</defs>
				<mask maskUnits="userSpaceOnUse" x="229.4" y="421.3" width="29.4" height="55.2" id="SVGID_20_">
				</mask>
				<linearGradient id="SVGID_21_" gradientUnits="userSpaceOnUse" x1="257.7612" y1="463.1831" x2="248.6362" y2="453.1076">
					<stop  offset="0" style="stop-color:#FAFAFA"/>
					<stop  offset="1" style="stop-color:#FFFFFF"/>
				</linearGradient>
				<path class="st31" d="M258.8,421.3c-3.2,47.2-3.5,45.2-3.5,45.2c-0.8,1.2-2.3,1.6-3.8,1.6c-0.2-1.5-1.5-3.5-3-3.5
					c-1.6,0.3-3,1-4.2,2.2c-3.3,3-2.7,5.7-4.8,7.8c-1.9,1.9-4.9,2.1-7.5,1.9c-1.1-0.1-2.1-0.9-2.6-1.9c3.8-3.8,9.3-12.5,11.6-17.1
					l0,0C247.4,445.9,253.4,433.5,258.8,421.3z"/>
			</g>
		</mask>
		<linearGradient id="SVGID_22_" gradientUnits="userSpaceOnUse" x1="257.7612" y1="463.1831" x2="248.6362" y2="453.1076">
			<stop  offset="0" style="stop-color:#C1E3F4"/>
			<stop  offset="1" style="stop-color:#E9F5FB"/>
		</linearGradient>
		<path class="st32" d="M258.8,421.3c-3.2,47.2-3.5,45.2-3.5,45.2c-0.8,1.2-2.3,1.6-3.8,1.6c-0.2-1.5-1.5-3.5-3-3.5
			c-1.6,0.3-3,1-4.2,2.2c-3.3,3-2.7,5.7-4.8,7.8c-1.9,1.9-4.9,2.1-7.5,1.9c-1.1-0.1-2.1-0.9-2.6-1.9c3.8-3.8,9.3-12.5,11.6-17.1l0,0
			C247.4,445.9,253.4,433.5,258.8,421.3z"/>
		<linearGradient id="SVGID_23_" gradientUnits="userSpaceOnUse" x1="269.2181" y1="439.65" x2="223.2153" y2="471.3957">
			<stop  offset="0" style="stop-color:#001440"/>
			<stop  offset="1" style="stop-color:#005995"/>
		</linearGradient>
		<path class="st33" d="M255.6,464.7c-0.2,1.6-0.3,1.8-0.3,1.8c-0.8,1.2-2.3,1.6-3.8,1.6c-0.2-1.5-1.5-3.5-3-3.5
			c-1.6,0.3-3,1-4.2,2.2c-3.3,3-2.7,5.7-4.8,7.8c-0.8,0.8-2,1.3-2,1.3c-1.8,0.8-5.3,0.9-6.2,0.5c-1.3-0.4-2.1-1.7-2.1-3.1
			c0.8-49,0-8.2,1.5,0c0.6,3,4.5,2.2,7.2,0.9c2.3-1.1,1.9-2.1,3-4.4c1.2-2.5,2.9-4.6,4.7-5.6c1.7-0.9,3.6-1.3,5,0c1,0.9,1,2.1,1,2.3
			c0.4,0,1.2,0,2.1-0.3C254.7,465.7,255.3,465,255.6,464.7z"/>
	</g>
	<g>
		<g>
			<linearGradient id="SVGID_24_" gradientUnits="userSpaceOnUse" x1="71.4719" y1="492.2795" x2="47.8199" y2="438.4777">
				<stop  offset="0" style="stop-color:#005995"/>
				<stop  offset="1" style="stop-color:#068BE5"/>
			</linearGradient>
			<path class="st34" d="M56,454.2c-1.5,3.4-7.5,4.8-7.5,4.8c-1-3-3.6-12.4-3.4-15.6c0.2-5.1,3.1-10.8,8.9-9.4c0.1,0,0.1,0,0.1,0
				c-0.4,0.7-0.7,1.3-1.2,2c1.5,10.3,2.4,10.9,3.2,15.5C56.4,452.4,56.4,453.3,56,454.2z"/>
			<linearGradient id="SVGID_25_" gradientUnits="userSpaceOnUse" x1="55.9935" y1="443.0022" x2="52.2115" y2="443.1262">
				<stop  offset="0" style="stop-color:#001440"/>
				<stop  offset="1" style="stop-color:#005995"/>
			</linearGradient>
			<path class="st35" d="M56.3,451.4l-1.2,0.7c0,0-3.7-13.9-3-16.1c0.4-1,1-2,2.1-2c-0.4,0.7-0.7,1.3-1.2,2
				C54.6,446.3,55.4,446.9,56.3,451.4z"/>
			<g>
				<linearGradient id="SVGID_26_" gradientUnits="userSpaceOnUse" x1="35.1601" y1="508.2512" x2="11.5123" y2="454.4588">
					<stop  offset="0" style="stop-color:#005995"/>
					<stop  offset="1" style="stop-color:#068BE5"/>
				</linearGradient>
				<path class="st36" d="M28.7,479.5l-7.8,9.4c-0.8-1.5-1.8-2.6-2.1-4.2c-0.9-4.1,3.6-8.8,7.7-10.1c-0.1,0.2-0.4,0.7-0.4,1
					C25.5,477.6,27.1,479.5,28.7,479.5z"/>
				<linearGradient id="SVGID_27_" gradientUnits="userSpaceOnUse" x1="27.3765" y1="477.6551" x2="24.7915" y2="477.7399">
					<stop  offset="0" style="stop-color:#001440"/>
					<stop  offset="1" style="stop-color:#005995"/>
				</linearGradient>
				<path class="st37" d="M28.2,479.4c-0.1,0.3-0.8,1.1-1,1.2c-1.4-1.1-2.8-3.4-2-5c0.3-0.7,1-1,1.2-1.1c-0.1,0.2-0.4,0.7-0.4,1
					C25.6,477.2,26.4,478.9,28.2,479.4z"/>
			</g>
			<g>
				<linearGradient id="SVGID_28_" gradientUnits="userSpaceOnUse" x1="100.6416" y1="479.4771" x2="76.975" y2="425.6421">
					<stop  offset="0" style="stop-color:#005995"/>
					<stop  offset="1" style="stop-color:#068BE5"/>
				</linearGradient>
				<path class="st38" d="M68.9,419.5c0.7,3.6,2.2,10.9,4.7,16.3c2.7,5.7,9.2-1.5,12.9-6.5c-5.1-6.4-8.7-13.8-10.8-21.7
					c-2.4,1.1-2.6,2.5-3,5.1c-0.2,1.1-0.3,2-0.4,2.8c-0.8,0.6-3.1,2.1-3.4,3C68.8,418.9,68.8,419.2,68.9,419.5z"/>
				<linearGradient id="SVGID_29_" gradientUnits="userSpaceOnUse" x1="80.5847" y1="416.6163" x2="78.5268" y2="416.6837">
					<stop  offset="0" style="stop-color:#001440"/>
					<stop  offset="1" style="stop-color:#005995"/>
				</linearGradient>
				<path class="st39" d="M75.7,407.6c5,11,7.4,15,8.5,16.2c1.4,1.5,1.2,2.2-0.8,1.8C79.9,420.3,77.2,414.3,75.7,407.6z"/>
			</g>
		</g>
		<g>
			<linearGradient id="SVGID_30_" gradientUnits="userSpaceOnUse" x1="92.9072" y1="493.6658" x2="47.0351" y2="417.4716">
				<stop  offset="0" style="stop-color:#001440"/>
				<stop  offset="1" style="stop-color:#005995"/>
			</linearGradient>
			<path class="st40" d="M151.2,432.7c0,0.1,0,0.2-0.1,0.2c-0.3,1-1.3,1.6-2.9,2.2c0,0-0.1,0-0.2,0.1c-7.3,3.1-2.7-0.4-47.5,32.8
				c-4.3,3-49.1,36.4-54.3,41c-4.6,4-10.4,9.4-12.8,7.9c-1.1-0.7-0.6-2.3-2.1-4c0,0,0,0,0-0.1c-1.5-1.9-4.3-2.4-6.7-2.6
				c-3.4-0.2-6.1,0.6-8.3,1.5c-2.4,0.9-5,2.4-7.2,1.2c-3.7-1.9-4.9-7.9,0-13.5c55.1-61.3,55.9-59.3,72.2-72.5
				c17.7-14.4,39.4-15.8,54.9-8.3c0,0,0,0,0.1,0h0C142.5,421.5,152.4,428.1,151.2,432.7z"/>
			<g>
				<linearGradient id="SVGID_31_" gradientUnits="userSpaceOnUse" x1="105.2372" y1="488.8716" x2="83.9085" y2="463.9013">
					<stop  offset="0" style="stop-color:#001440"/>
					<stop  offset="1" style="stop-color:#005995"/>
				</linearGradient>
				<path class="st41" d="M151.2,432.7c0,0.1,0,0.2-0.1,0.2c-0.4,0.3-2.6,2.1-3.1,2.3c-7,3-4.3,0.9-27,17.7
					c-5.1,3.8-67.2,49.3-74.7,56.1c-4.6,4-10.4,9.4-12.8,7.9c-1.1-0.7-0.6-2.3-2.1-4c32.3-24.6,94.3-71.6,101.3-77.2
					c4.8-3.9,11.7-6.7,18.2-5.7C150.9,430.9,151.1,431.8,151.2,432.7z"/>
				<linearGradient id="SVGID_32_" gradientUnits="userSpaceOnUse" x1="136.399" y1="510.4734" x2="30.193" y2="429.7777">
					<stop  offset="0" style="stop-color:#005995"/>
					<stop  offset="1" style="stop-color:#068BE5"/>
				</linearGradient>
				<path class="st42" d="M145.2,424.7c0.4,5.4-5.8,4.5-12.3,9.5c-33.9,26.2-68.2,52.1-102.6,77.8c-2.2-1.6-7.5-2.8-14-0.2
					c0.1-0.1,0.2-0.2,0.3-0.3c113.8-86.9,110.3-84.6,114.5-86.2C136.3,423.2,140.9,423.4,145.2,424.7z"/>
				<linearGradient id="SVGID_33_" gradientUnits="userSpaceOnUse" x1="51.326" y1="433.4824" x2="34.4189" y2="407.7315">
					<stop  offset="0" style="stop-color:#068BE5"/>
					<stop  offset="1" style="stop-color:#51B6FA"/>
				</linearGradient>
				<path class="st43" d="M136.3,418.6c1.1,1.5,2.3,3,3.4,4.5c-4.4-0.9-9,0-12.8,2.7C88.5,455.3,50.4,484.4,12.8,513
					c-1.3,0.4-2.5,0.5-3.7-0.1c-2-1.1-3.4-4-3.2-6.2v0c110.3-84.2,112.3-86,116.4-87.6C126.9,417.3,131.6,417.1,136.3,418.6z"/>
				<linearGradient id="SVGID_34_" gradientUnits="userSpaceOnUse" x1="82.8267" y1="490.7849" x2="42.5087" y2="410.6693">
					<stop  offset="0" style="stop-color:#068BE5"/>
					<stop  offset="1" style="stop-color:#51B6FA"/>
				</linearGradient>
				<path class="st44" d="M128.3,416.1c-11.1,1.2-0.9-1.3-122,87.9c0.5-1.7,1.5-3.2,2.7-4.6c9.3-10.3,17-18.9,23.5-25.9
					c46.2-35.3,64.9-49.6,73-55.6c3.4-2.5,7.4-3.9,11.6-3.8C121.7,414.3,125.5,415.2,128.3,416.1z"/>
				<linearGradient id="SVGID_35_" gradientUnits="userSpaceOnUse" x1="134.9174" y1="499.6477" x2="96.9415" y2="464.5331">
					<stop  offset="0" style="stop-color:#51B6FA"/>
					<stop  offset="1" style="stop-color:#70BFE6"/>
				</linearGradient>
				<path class="st45" d="M107.7,414.9C86,431.6,58.8,452.5,37,468.7c27.8-30.1,30.4-30.7,44.3-41.9c5.5-4.5,8.3-6.1,11.2-7.4
					C94.8,418.5,100.3,416.1,107.7,414.9z"/>
			</g>
			<linearGradient id="SVGID_36_" gradientUnits="userSpaceOnUse" x1="117.5244" y1="433.3174" x2="124.1137" y2="455.86">
				<stop  offset="0" style="stop-color:#068BE5"/>
				<stop  offset="1" style="stop-color:#51B6FA"/>
			</linearGradient>
			<path class="st46" d="M151.3,432.7c-0.3,1.2-1.4,1.9-3.2,2.6c-3-3.8-10-11.4-21.3-15.7c-15.6-5.9-31.5-0.7-45.1,7.2
				c-0.1,0.1-0.2,0.1-0.3,0.2c5.6-4.5,8.3-6.1,11.3-7.4c4.2-1.9,19.8-8.7,37.2-3.5C141.1,419.5,152.4,427.9,151.3,432.7z"/>
			<g>
				<linearGradient id="SVGID_37_" gradientUnits="userSpaceOnUse" x1="112.3042" y1="482.0278" x2="66.2652" y2="405.5564">
					<stop  offset="0" style="stop-color:#001440"/>
					<stop  offset="1" style="stop-color:#005995"/>
				</linearGradient>
				<path class="st47" d="M121,453c-3,2.2-26.4,19.4-30.3,22.3c-11.2-7.9-21.2-19.2-28.2-32.9c0.5-0.4,0.9-0.8,1.4-1.2
					c6.4-5.8,10.4-8.7,17.4-14.3c5.5-4.5,8.3-6.1,11.2-7.4C99.8,431.8,110.1,444,121,453z"/>
				<g>
					<linearGradient id="SVGID_38_" gradientUnits="userSpaceOnUse" x1="135.6257" y1="476.2267" x2="84.9038" y2="424.2043">
						<stop  offset="0" style="stop-color:#005995"/>
						<stop  offset="1" style="stop-color:#068BE5"/>
					</linearGradient>
					<path class="st48" d="M94.6,426c7.1,11.1,16.2,21,25.1,28.1c0,0.4,0.5,3.5-1.7,5.4c-1.9,1.6-4.7,1.9-7.1,0.9
						c-12.1-9.5-21.8-21.5-28.6-34.7c2.1-2.9,5.2-4.9,8.7-5.6C92.3,422,93.5,424,94.6,426z"/>
					<linearGradient id="SVGID_39_" gradientUnits="userSpaceOnUse" x1="127.0609" y1="484.5768" x2="76.34" y2="432.5555">
						<stop  offset="0" style="stop-color:#005995"/>
						<stop  offset="1" style="stop-color:#068BE5"/>
					</linearGradient>
					<path class="st49" d="M84.7,432.9c6.8,10.6,15.4,20.3,25.4,28.2c0,0.4,0.1,3.1-2.1,4.9c-1.9,1.6-4.2,2.7-6.7,1.6
						c-11-8.6-21.5-21-28.2-33.9c0.7-1,1.5-3.8,3.7-5.1c1.7-1,3.2-1.4,4.3-1.6C82.4,428.9,83.5,430.9,84.7,432.9z"/>
					<linearGradient id="SVGID_40_" gradientUnits="userSpaceOnUse" x1="118.6068" y1="492.8195" x2="67.8859" y2="440.7981">
						<stop  offset="0" style="stop-color:#005995"/>
						<stop  offset="1" style="stop-color:#068BE5"/>
					</linearGradient>
					<path class="st50" d="M74.4,439.2c7.1,11,15.9,20.8,26.1,28.9c0,0.4-0.1,3.1-2.2,5c-1.9,1.6-3.9,2.4-6.4,1.3
						c-14.2-11.1-22.2-21.7-28.1-33.1c0.7-1,1.5-3.8,3.7-5.1c1.7-1,3.2-1.4,4.3-1.6C73.1,436.5,73.3,437.2,74.4,439.2z"/>
				</g>
			</g>
		</g>
		<defs>
			<filter id="Adobe_OpacityMaskFilter_2_" filterUnits="userSpaceOnUse" x="9.1" y="454.1" width="110.7" height="63.1">
				<feFlood  style="flood-color:white;flood-opacity:1" result="back"/>
				<feBlend  in="SourceGraphic" in2="back" mode="normal"/>
			</filter>
		</defs>
		<mask maskUnits="userSpaceOnUse" x="9.1" y="454.1" width="110.7" height="63.1" id="SVGID_41_">
			<g class="st51">
				<defs>
					<filter id="Adobe_OpacityMaskFilter_3_" filterUnits="userSpaceOnUse" x="9.1" y="454.1" width="110.7" height="63.1">
						<feFlood  style="flood-color:white;flood-opacity:1" result="back"/>
						<feBlend  in="SourceGraphic" in2="back" mode="normal"/>
					</filter>
				</defs>
				<mask maskUnits="userSpaceOnUse" x="9.1" y="454.1" width="110.7" height="63.1" id="SVGID_41_">
				</mask>
				<linearGradient id="SVGID_42_" gradientUnits="userSpaceOnUse" x1="93.2769" y1="514.1095" x2="56.4793" y2="475.0682">
					<stop  offset="0" style="stop-color:#FAFAFA"/>
					<stop  offset="1" style="stop-color:#FFFFFF"/>
				</linearGradient>
				<path class="st53" d="M118.1,459.4c-1.9,1.6-4.6,2-7,0.9c-0.4,0.3-0.7,0.5-1,0.8c0,0.5,0.1,3.1-2,4.9c-1.9,1.6-4.2,2.7-6.7,1.6
					l0,0c-0.5,0.3-0.7,0.5-0.7,0.5c0,4.6-4.6,8-8.5,6.2c-4.6,3.7-35,25.8-45.7,34.8c-4.6,4-10.4,9.4-12.8,7.9
					c-1.1-0.7-0.6-2.3-2.1-4c0,0,0,0,0-0.1c-1.5-1.9-4.3-2.4-6.7-2.6c-3.4-0.2-6.1,0.6-8.3,1.5c-2.4,0.9-5,2.4-7.2,1.2
					c10.4-5.5,110.7-58.8,110.7-58.8C119.7,454.5,120.3,457.6,118.1,459.4z"/>
			</g>
		</mask>
		<linearGradient id="SVGID_43_" gradientUnits="userSpaceOnUse" x1="93.2769" y1="514.1095" x2="56.4793" y2="475.0682">
			<stop  offset="0" style="stop-color:#C1E3F4"/>
			<stop  offset="1" style="stop-color:#E9F5FB"/>
		</linearGradient>
		<path class="st54" d="M118.1,459.4c-1.9,1.6-4.6,2-7,0.9c-0.4,0.3-0.7,0.5-1,0.8c0,0.5,0.1,3.1-2,4.9c-1.9,1.6-4.2,2.7-6.7,1.6
			l0,0c-0.5,0.3-0.7,0.5-0.7,0.5c0,4.6-4.6,8-8.5,6.2c-4.6,3.7-35,25.8-45.7,34.8c-4.6,4-10.4,9.4-12.8,7.9c-1.1-0.7-0.6-2.3-2.1-4
			c0,0,0,0,0-0.1c-1.5-1.9-4.3-2.4-6.7-2.6c-3.4-0.2-6.1,0.6-8.3,1.5c-2.4,0.9-5,2.4-7.2,1.2c10.4-5.5,110.7-58.8,110.7-58.8
			C119.7,454.5,120.3,457.6,118.1,459.4z"/>
		<linearGradient id="SVGID_44_" gradientUnits="userSpaceOnUse" x1="5.8937" y1="505.8456" x2="46.1155" y2="505.8456">
			<stop  offset="0" style="stop-color:#001440"/>
			<stop  offset="1" style="stop-color:#005995"/>
		</linearGradient>
		<path class="st55" d="M15,511c1.1-0.3,2.2-0.8,3.5-1.3c6.4-2.6,11.8-1.4,14,0.2c0.8,0.5,1,1,1,1c1.5,1.7,1,3.3,2.1,4
			c2,1.2,6.4-2.2,10.4-5.7c-4.5,4-10.2,9.2-12.7,7.7c-1.1-0.7-0.6-2.3-2.1-4c0,0,0,0,0-0.1c-1.5-1.9-4.3-2.4-6.7-2.6
			c-3.4-0.2-6.1,0.6-8.3,1.5c-1.3,0.5-2.5,1-3.5,1.3c-5.1,1.6-8.1-3.9-6.4-9c1.1-3.2,4.8-7.1,7.2-9.5C4.5,502.7,8.2,513.2,15,511z"
			/>
	</g>
	<g>
		<path class="st1" d="M299.2,221.5c-0.5,0.4-3.3,1.6-4,1.6c-2,0.3-3.8-0.8-4.6-2.4c-20-39.2-12.2-22.9-33.8-70.1
			c-10.1-28.3-15.5-32-15.1-32.2c0.5,0,10.4,3.8,21.7,24.8c1.2,2.1,32.6,63,33.7,65.2c0,0,0,0.1,0,0.1l3.7,7.1
			C302,217.8,301.1,220.5,299.2,221.5z"/>
		<path class="st56" d="M301.1,219.2c-0.5,1.4-1.4,2-2.6,2.7c-0.6,0.2-2.6,1.1-3.2,1.1c-1.9,0.3-3.8-0.7-4.6-2.4l-6.1-11.9
			c0.2,0,11.6-2.4,11.8-2.4c0.2,0.1,0.8,1.9,0.9,2.1c0.8,1.6,1.6,3.2,2.4,4.7c-0.3,0.7-0.8,1.7-1.7,2.6c-1.7,1.7-3.6,2-3.6,3.1
			c0,0.7,0.8,1.3,0.9,1.4C296.5,221.4,298.9,221,301.1,219.2z"/>
		<path class="st56" d="M274.5,189.2c2.8,1.8,5.9,2.4,8.4-0.2c1.3-1.4,2.1-2.5,2.5-3.5l-2.8-5.3c-12.2,11-8.2-16.4-16.1-31.3
			c-0.1,5-3.7,5.9-5.1,2.8c-0.7-1.6-0.5-5.6,0.6-10.7c-6.8-7.5-13.6-15.1-20.4-22.6v0C241.8,118.5,252.7,142.1,274.5,189.2z"/>
		<path class="st57" d="M258.6,149.1c0,0-1.4,0.8-3.3,0.1c-1.5-0.6-2.2-2.1-2.4-2.5c-2.6-4.6-40.8-71.3-45.6-81
			c0,0-13.2-25.8-19.2-52.1c-0.9-4-2.4-11.3,0.6-13.2c3.6-2.3,22.8,47.7,43.8,87.2c11.5,21.7,22.5,39,30.6,50.9
			C261.9,141.9,258.6,149.1,258.6,149.1z"/>
		<linearGradient id="SVGID_45_" gradientUnits="userSpaceOnUse" x1="201.7217" y1="-9.4867" x2="284.9684" y2="264.0382">
			<stop  offset="0" style="stop-color:#FFC92D"/>
			<stop  offset="1" style="stop-color:#FF951A"/>
		</linearGradient>
		<path class="st58" d="M188.5,0.4c4.7-0.9,9.6-0.2,14,2c16.7,39.1,41.6,94.9,60.4,136.1c-0.3,0.8-0.6,1.7-0.8,2.5
			c-0.8,2.5-3.2,7.8-3.6,8C236,105.5,207.7,45.5,188.5,0.4z"/>
	</g>
	<g>
		<g>
			<g>
				<path class="st4" d="M167.3,261.3c0,0,7.4,4.2,14.1-14.9c6.7-19.1-2.7-25.9-2.7-25.9s-11.8,6.4-16.7,18.8
					C157.1,251.6,167.3,261.3,167.3,261.3z"/>
				<path class="st6" d="M267,224.3c-25.6,26.3-43.3,42.9-58.4,44.5c-6.1,0.6-10.7-0.2-16.1-2.1c0,0-26.6-8.7-27.9-10
					c-1.2-1.5-7.2-31.2,8.4-36.4c28,8.6,12.5,2.9,39.6,14.1c10.6-5.6,19.4-11.5,42.1-29.7c7.9,0.9,14.5,4.9,16.2,11.6
					C271.9,220.4,267.8,222.6,267,224.3z"/>
				<linearGradient id="SVGID_46_" gradientUnits="userSpaceOnUse" x1="208.5756" y1="240.3897" x2="267.0438" y2="240.3897">
					<stop  offset="0" style="stop-color:#ED7D88"/>
					<stop  offset="1" style="stop-color:#FFCFCD"/>
				</linearGradient>
				<path class="st59" d="M267,224.3c-25.6,26.3-43.3,42.9-58.4,44.5c10.4-2.9,29.7-22.7,29.7-22.7c7.8-9.1,11.9-17.8,11.8-22.7
					c0-2.9-0.9-5.4-0.9-5.4c-1-3-2.6-5-3.7-6.1C250.7,212.7,267.8,222.6,267,224.3z"/>
				<linearGradient id="SVGID_47_" gradientUnits="userSpaceOnUse" x1="153.606" y1="235.6504" x2="221.4695" y2="253.8994">
					<stop  offset="0" style="stop-color:#ED7D88"/>
					<stop  offset="1" style="stop-color:#FFCFCD"/>
				</linearGradient>
				<path class="st60" d="M164.6,256.7c1.3,1.4,27.9,10,27.9,10c-14.3-4.4-17.7-21.5-10-29.8c3.7-4.1,8.8-4.6,13.1-5.1
					c7.7-0.9,13.9,1.3,17,2.6c-17-8-25.5-9.9-39.6-14.1C157.4,225.5,163.4,255.2,164.6,256.7z"/>
				<linearGradient id="SVGID_48_" gradientUnits="userSpaceOnUse" x1="69.7664" y1="202.0051" x2="-0.568" y2="177.6731">
					<stop  offset="0" style="stop-color:#FF4463"/>
					<stop  offset="1" style="stop-color:#BF1C3C"/>
				</linearGradient>
				<path class="st61" d="M165.2,243.4c-0.9,7.6,1.2,15.1,2.1,17.8c-12.6-3.9-55.8-19.2-61-32.7c-2.2-5.7-2.1-11.8-0.3-16.8
					c3-9.3,12.4-14.3,21.9-14.1c12.8,0,18,10.2,50.7,22.8C171.4,224.2,166.7,229.9,165.2,243.4z"/>
				<linearGradient id="SVGID_49_" gradientUnits="userSpaceOnUse" x1="117.6381" y1="323.9356" x2="148.8135" y2="187.0682">
					<stop  offset="0" style="stop-color:#FF4463"/>
					<stop  offset="1" style="stop-color:#BF1C3C"/>
				</linearGradient>
				<path class="st62" d="M165.2,243.4c-0.9,7.6,1.2,15.1,2.1,17.8c-12.6-3.9-55.8-19.2-61-32.7c-2.2-5.7-2.1-11.8-0.3-16.8
					c2.4,3.1,7.3,7.7,16.3,15.1c25.5,20.5,24.5,8.9,56.3-6.3C171.4,224.2,166.7,229.9,165.2,243.4z"/>
			</g>
		</g>
		<g>
			<g>
				<path class="st63" d="M266.5,225.3c-1.7,1.6-3.4,3.3-5.1,4.9c0,1.5-1.2,2.8-2.8,2.6c-0.3-8.9-4.9-16.9-13-21
					c0.1-1.3,1.2-2.2,2.4-2.1C252.7,205.8,255.1,200.8,266.5,225.3L266.5,225.3z"/>
				<linearGradient id="SVGID_50_" gradientUnits="userSpaceOnUse" x1="265.8994" y1="204.3312" x2="252.1971" y2="225.2653">
					<stop  offset="0" style="stop-color:#005995"/>
					<stop  offset="1" style="stop-color:#068BE5"/>
				</linearGradient>
				<path class="st64" d="M266.5,225.3c-0.4,0.3-2.6,2.4-5.1,4.9c-1-9.2-6-16.4-13.4-20.4C252.7,205.8,255.1,200.8,266.5,225.3
					L266.5,225.3z"/>
			</g>
			<g>
				
					<linearGradient id="SVGID_51_" gradientUnits="userSpaceOnUse" x1="1487.6842" y1="-845.3151" x2="1506.0966" y2="-845.3151" gradientTransform="matrix(0.973 0.231 0.231 -0.973 -999.4285 -956.3511)">
					<stop  offset="0" style="stop-color:#ED7D88"/>
					<stop  offset="1" style="stop-color:#FFCFCD"/>
				</linearGradient>
				<path class="st65" d="M254.1,204.3c8,0.5,14.5,7,14.4,16.6l0,0c0.1,0.1,0.2,0.2,0.3,0.3C273.2,212.1,264.4,201,254.1,204.3z"/>
				<g>
					<g>
						<linearGradient id="SVGID_52_" gradientUnits="userSpaceOnUse" x1="256.0747" y1="197.1476" x2="297.981" y2="197.1476">
							<stop  offset="0" style="stop-color:#001440"/>
							<stop  offset="1" style="stop-color:#005995"/>
						</linearGradient>
						<path class="st66" d="M274,218.2c13.2-0.8,26.3-6.2,22.6-15.2c0.5-0.6,1-1.3,1.3-2.2c0,0,0.1-0.1,0.1-0.2
							c0.2-1.9-0.7-3.8-2.8-5.2c0.3-0.6,1.2-2.3,1-4.5c-0.4-3.6-3.5-5.6-3.9-5.8c-0.2-4.6-4.2-7.7-8.5-7.2c-0.9-1-2.2-1.6-3.4-1.8
							c6,9.4-5.2,14.2-10,4.5c-0.2-0.3-0.3-0.5-0.3-0.7c-4.7,3.1-4.2,8.8-7.9,14.6c-1.4,2.3-2.5,3.3-4.3,5c-0.5,0.5-1,0.9-1.3,1.7
							c0,0,0,0-0.1,0.1C255,206.1,259,207.4,274,218.2z"/>
					</g>
					<path class="st8" d="M274,218.2c13.2-0.8,26.3-6.2,22.6-15.2c0.4-0.5,0.7-0.9,0.9-1.4c0.1-0.2,0.2-0.4,0.3-0.6
						c-0.6,1.1-1.5,2.2-2.5,3.7c-0.8,1.3-2.5,3.4-5.1,4.4c-0.5,0.2-3.4,1.2-6.1,0.1c-2.7-1.2-2.6-3.5-5.4-7.2
						c-3.5-4.7-7.2-4.6-7.7-7.7c-0.3-1.8,0.7-3.6,1.9-5c6.5,2.3,12.3-3.4,9.1-9.4c0,0,0,0,0,0.1c0.3,1.7,0,3.4-1,4.6
						c-2.4,2.5-7.7,1.7-10.6-4c-0.2-0.3-0.3-0.5-0.3-0.7c-4.7,3.1-4.2,8.8-7.9,14.6c-0.5,0.8-1.9,2.8-2.6,3.4
						c-0.9,1.1-2.4,1.9-3,3.3c0,0,0,0-0.1,0.1C255,206.1,259,207.4,274,218.2z"/>
				</g>
				<g>
					<linearGradient id="SVGID_53_" gradientUnits="userSpaceOnUse" x1="266.0378" y1="207.5345" x2="262.3838" y2="188.88">
						<stop  offset="0" style="stop-color:#005995"/>
						<stop  offset="1" style="stop-color:#068BE5"/>
					</linearGradient>
					<path class="st67" d="M263.1,183.5c0-1.6,0.3-3.7,1.7-4.7c1.2-0.8,2.7-0.4,3.5-0.3c2.3,0.4,3.5,0,1.6,1.4
						c-1.9,1.5-1.7,4.9-1.7,6c0,2.3-0.7,6.6-4.2,15.6c-3.1,0.3-6.3,0.7-9.4,1C258.8,198,262.5,194.5,263.1,183.5z"/>
					<linearGradient id="SVGID_54_" gradientUnits="userSpaceOnUse" x1="269.799" y1="201.4159" x2="261.815" y2="178.0344">
						<stop  offset="0" style="stop-color:#005995"/>
						<stop  offset="1" style="stop-color:#068BE5"/>
					</linearGradient>
					<path class="st68" d="M269.9,180c-1.9,1.5-1.7,4.9-1.7,6c0,2.3-0.7,6.6-4.2,15.6c-3.1,0.4-3.9,0.3-1.2,0
						c3.5-8.9,4.2-13.3,4.2-15.6c0-1.1-0.2-4.5,1.7-6C270.6,178.5,271.8,178.5,269.9,180z"/>
					<g>
						<linearGradient id="SVGID_55_" gradientUnits="userSpaceOnUse" x1="279.6897" y1="216.557" x2="304.2118" y2="204.2959">
							<stop  offset="0" style="stop-color:#005995"/>
							<stop  offset="1" style="stop-color:#068BE5"/>
						</linearGradient>
						<path class="st69" d="M281.9,212.5c7.3-1.3,15.3-3.7,15.2-6.2c0-0.8-0.9-1.5-0.6-1.8c0.3-0.4,1.6,0,2.3,0.6
							c1.9,1.3,2.9,4.3,1.9,6.6c-2.2,4.9-16.7,5.7-25.5,8.8c-1.1-2.3-2.2-4.6-3.3-6.8C274.5,213.5,277.9,213.2,281.9,212.5z"/>
						<linearGradient id="SVGID_56_" gradientUnits="userSpaceOnUse" x1="272.6078" y1="202.3933" x2="297.13" y2="190.1322">
							<stop  offset="0" style="stop-color:#005995"/>
							<stop  offset="1" style="stop-color:#068BE5"/>
						</linearGradient>
						<path class="st70" d="M279.5,198.4c7.5-3.5,15.2-8.5,14.4-11c-0.2-0.8-1.4-1.3-1.1-1.8c0.2-0.5,1.7-0.4,2.7-0.1
							c2.4,0.8,4.3,3.8,3.9,6.5c-0.6,3.8-9.9,9.1-13.5,10.6c-3.2,1.2-7.9,2.7-13.8,3.4c-0.9-1.2-1.8-2.3-2.8-3.5
							C271.8,201.6,275.4,200.3,279.5,198.4z"/>
						<linearGradient id="SVGID_57_" gradientUnits="userSpaceOnUse" x1="276.5853" y1="210.3482" x2="301.1075" y2="198.0871">
							<stop  offset="0" style="stop-color:#005995"/>
							<stop  offset="1" style="stop-color:#068BE5"/>
						</linearGradient>
						<path class="st71" d="M282.1,205.3c7.1-2.2,14.7-5.8,14.3-8.1c-0.1-0.8-1-1.4-0.8-1.8c0.3-0.4,1.5-0.2,2.4,0.2
							c2,1,3.4,3.9,2.7,6.3c-1,3.4-10,7-13.4,7.8c-3,0.7-7.4,1.5-12.8,1.4c-0.7-1.2-1.4-2.3-2-3.5
							C274.8,207.2,278.2,206.5,282.1,205.3z"/>
						<linearGradient id="SVGID_58_" gradientUnits="userSpaceOnUse" x1="268.4507" y1="194.1678" x2="293.0075" y2="181.8894">
							<stop  offset="0" style="stop-color:#005995"/>
							<stop  offset="1" style="stop-color:#068BE5"/>
						</linearGradient>
						<path class="st72" d="M275.2,192.7c7.9-4.7,13.6-11.1,12.5-13.3c-0.4-0.8-1.6-1.1-1.4-1.6c0.1-0.5,1.6-0.7,2.6-0.6
							c2.4,0.4,4.8,3.1,5,5.7c0.3,4.2-5.2,7.6-10.7,11.1c-3.3,2.1-8.4,4.8-15.1,6.8C262.3,198.3,270,195.8,275.2,192.7z"/>
					</g>
					<linearGradient id="SVGID_59_" gradientUnits="userSpaceOnUse" x1="285.7006" y1="172.0337" x2="273.5346" y2="198.9319">
						<stop  offset="0" style="stop-color:#005995"/>
						<stop  offset="1" style="stop-color:#068BE5"/>
					</linearGradient>
					<path class="st73" d="M289.1,179.8c1.1,2.2-4.7,8.6-12.5,13.3c-5,3-9.3,4.4-9.1,6.3c0,0.6,0.6,1.1,1.2,1.5
						c-0.2,0-0.4,0.1-0.6,0.2c-0.9-0.4-1.9-1-2-1.9c-0.2-1.9,4.1-3.2,9.1-6.3c7.8-4.7,13.6-11,12.5-13.3c-0.4-0.8-1.6-1-1.5-1.6
						c0.1-0.5,1.8-1,3.5-0.3c-1,0-2,0.2-2.1,0.6C287.6,178.7,288.8,179,289.1,179.8z"/>
					<linearGradient id="SVGID_60_" gradientUnits="userSpaceOnUse" x1="289.8698" y1="190.3523" x2="283.1215" y2="207.7459">
						<stop  offset="0" style="stop-color:#005995"/>
						<stop  offset="1" style="stop-color:#068BE5"/>
					</linearGradient>
					<path class="st74" d="M283.5,205.6c-3.9,1.2-7.3,2-9.7,2.4c0.6,1,1.3,2.1,1.9,3.2h-1.3c-0.6-1.2-1.3-2.3-2-3.5
						c2.4-0.4,5.7-1.1,9.7-2.3c3.9-1.2,16.4-5.7,13.9-8.9c0.2-0.2,1.1-0.9,1.2-1c0.1,0,0.2,0,0.3,0.1c-0.3,0-0.5,0.1-0.5,0.2
						c-0.1,0.3,0.2,0.6,0.4,1C300,199.9,287.5,204.4,283.5,205.6z"/>
					<linearGradient id="SVGID_61_" gradientUnits="userSpaceOnUse" x1="289.7569" y1="200.0392" x2="277.3057" y2="228.4582">
						<stop  offset="0" style="stop-color:#005995"/>
						<stop  offset="1" style="stop-color:#068BE5"/>
					</linearGradient>
					<path class="st75" d="M273.5,213.9c0.5,1.2,1,2.4,1.5,3.6c-0.5,0-0.9-0.1-1.4-0.2c-0.5-1.2-1-2.5-1.6-3.7
						c2.5-0.1,5.9-0.3,9.9-1c7.2-1.2,14.9-3.6,15.2-6h0c0-0.3,0-0.6-0.3-1c0.2-0.1,0.7-0.4,1.1-0.7c-0.2,0.2,0.1,0.6,0.3,1
						C300.6,210.4,281.3,213.6,273.5,213.9z"/>
					<linearGradient id="SVGID_62_" gradientUnits="userSpaceOnUse" x1="289.3313" y1="181.4073" x2="278.7811" y2="202.5077">
						<stop  offset="0" style="stop-color:#005995"/>
						<stop  offset="1" style="stop-color:#068BE5"/>
					</linearGradient>
					<path class="st76" d="M295.3,187.7c0.8,2.6-7,7.6-14.5,11c-4.1,1.9-7.7,3.2-10.3,4c0.8,1,1.6,2.1,2.4,3.1c-0.3,0-0.7,0.1-1,0.1
						c-0.9-1.2-1.8-2.3-2.7-3.5c2.6-0.8,6.2-2.1,10.3-4c7.4-3.5,15.2-8.4,14.4-11c0,0,0,0,0-0.1c-0.2-0.5-0.6-0.8-0.9-1.1v0
						c0.2-0.3,0.4-0.6,0.5-0.9c0.4-0.1,1,0,1.5,0.1c0,0.1-0.7,0.4-0.7,0.5c-0.1,0.2,0,0.4,0.2,0.5c0,0,0,0,0,0
						C294.7,186.8,295.2,187.2,295.3,187.7z"/>
					<linearGradient id="SVGID_63_" gradientUnits="userSpaceOnUse" x1="279.8851" y1="207.7876" x2="249.0208" y2="219.6951">
						<stop  offset="0" style="stop-color:#001440"/>
						<stop  offset="1" style="stop-color:#005995"/>
					</linearGradient>
					<path class="st77" d="M277.6,210.7c0.6,1.3,1,2.6,1.2,4c0.4,2.8,0.3,5.1-2.5,6c-0.8,2.2-2.9,3.5-5.3,3.2
						c-1.1,3.2-4.8,4.4-6.8,3.2c-1.8-1-1.1-3.2-2.9-7.4c-0.5-1.2-1.1-2.3-1.6-3.1c0,0-0.8-1.3-1.5-2.4c-3.4-4.6-9.3-4.8-6.7-9.1
						c0.6-1,1.5-1.6,3.1-2.6c0.6-0.4,3.9-0.7,6.7-2c2.1-1,2.2-1.6,3.6-1.9c2.4-0.5,4.5,0.8,5.4,1.3
						C273.6,202,275.2,205.3,277.6,210.7z"/>
					<linearGradient id="SVGID_64_" gradientUnits="userSpaceOnUse" x1="265.2815" y1="234.0717" x2="261.26" y2="213.5412">
						<stop  offset="0" style="stop-color:#005995"/>
						<stop  offset="1" style="stop-color:#068BE5"/>
					</linearGradient>
					<path class="st78" d="M253.7,206.9c-0.2,1.8,2.4,2.6,4.7,5.1c3.1,3.3,5.1,9.3,5.8,11.9c0.3,0.9,0.5,2,1.4,2.6
						c1,0.6,2.2,0.4,3.2-1.1c2.5-3.9-6-20.3-10.9-21.5C255.6,203.2,253.9,205,253.7,206.9z"/>
					
						<linearGradient id="SVGID_65_" gradientUnits="userSpaceOnUse" x1="306.2883" y1="129.8412" x2="302.8407" y2="112.2408" gradientTransform="matrix(0.9997 2.500000e-02 -2.500000e-02 0.9997 -31.6609 90.9109)">
						<stop  offset="0" style="stop-color:#005995"/>
						<stop  offset="1" style="stop-color:#068BE5"/>
					</linearGradient>
					<path class="st79" d="M262.5,204.3c-0.1,1.3,0.7,2.2,1.3,3.1c1.8,2.4,5.3,9.2,6.6,13.8c1.1,1.5,2.6,1.5,3.8-0.7
						c0.7-1.3,0.7-3.1-2.8-10.6c-2.3-4.9-3.9-7.4-5.8-7.8C263.7,201.9,262.6,202.8,262.5,204.3z"/>
					
						<linearGradient id="SVGID_66_" gradientUnits="userSpaceOnUse" x1="340.506" y1="34.279" x2="337.7924" y2="20.4253" gradientTransform="matrix(0.9989 4.760000e-02 -4.760000e-02 0.9989 -62.4932 172.6772)">
						<stop  offset="0" style="stop-color:#005995"/>
						<stop  offset="1" style="stop-color:#068BE5"/>
					</linearGradient>
					<path class="st80" d="M269.5,204.1c-0.1,1,0.5,1.8,1,2.5c1.3,1.9,4,7.3,4.9,11c0.9,1.2,2,1.2,3-0.5c0.6-1,0.6-2.4-2-8.4
						c-1.7-3.9-2.9-5.9-4.4-6.2C270.5,202.1,269.6,202.9,269.5,204.1z"/>
				</g>
			</g>
		</g>
		<path class="st81" d="M293.9,183c-8,9.6-21.5,10.4-30.9,2.6c0.3-2.4-0.1-5.5,1.9-6.8c1.2-0.8,2.7-0.5,3.5-0.3
			c1.4,0.2,12.9-1.1,12-2.5c1.2,0.2,2.5,0.8,3.4,1.8c0.9-0.1,1.7,0,2.6,0.1c-0.4-0.4,1.5-1.3,3.5-0.5
			C291.8,178.4,293.7,180.7,293.9,183z"/>
	</g>
	<g>
		<g>
			<g>
				<g>
					<g>
						<linearGradient id="SVGID_67_" gradientUnits="userSpaceOnUse" x1="263.7213" y1="133.2489" x2="272.0852" y2="160.2417">
							<stop  offset="0" style="stop-color:#001440"/>
							<stop  offset="1" style="stop-color:#005995"/>
						</linearGradient>
						<path class="st82" d="M289,174c-4.5,4-7,5.4-7,5.4c-5.1,2.9-10.2,3.9-13.6-0.9c-1.8,0.2-2.7-0.2-2.7-0.2
							c-1.6-0.9-2.7-2.7-2.7-5.2c-4.5-0.4-7.1-4.2-6.8-7.9c-3.6-2.6-4-7.7-1.2-10.9c0-0.2,0-0.6,0.6-1.4c0.5-0.6,1.2-1.4,1.5-1.5
							c0.8,2,2.3,4.2,4.3,5.1c2,0.9,5.1,0.7,6.3-1c0.6-0.8,0.5-1.8,0.5-2.4c0-1.2-0.4-1.2-1.9-4.6c-1.1-2.6-1.2-2.5-2.1-4.3
							c4.8-1.1,9.5-1.5,14.1,0.2c6.6,2.5,9.2,7.8,11.7,13.7C294,168,294.5,168.8,289,174z"/>
					</g>
				</g>
			</g>
			<path class="st8" d="M289,174c-0.9,0.8-3.6,3.4-6.9,5.3c1-0.9,1.9-2,2.2-3.4c1.3-6-4.2-18.9-4.1-19.8c0-0.4,3.3-3.1,5.9-5.4
				c1.6,2.2,2.6,4.7,3.8,7.4C294,168,294.5,168.8,289,174z"/>
			<path class="st8" d="M271,152.2c-1.8,3.8-2.4,5.7-7,5.9c-1.3,0.1-3.5,0.2-5-1.4c-1.5-1.6-1.5-3.7-1.5-4.2
				c0.5,0.6,2.6,3.3,3.1,3.7c2.3,1.5,6.6,0.4,7.3-1.7c0.4-1.1-1.1-4.8-1.7-5.9c0.4,0,0.9,0,1.6,0C272.6,148.8,272.5,148.9,271,152.2
				z"/>
		</g>
		<g>
			<g>
				<linearGradient id="SVGID_68_" gradientUnits="userSpaceOnUse" x1="261.7102" y1="160.9835" x2="280.1394" y2="148.444">
					<stop  offset="0" style="stop-color:#005995"/>
					<stop  offset="1" style="stop-color:#068BE5"/>
				</linearGradient>
				<path class="st83" d="M253.7,158.9c4.2,1.4,7.7,1.8,10.1,2c6.1,0.4,7.6-0.8,11.7-5c1.6-1.7,5-6.3,4.6-8.6
					c-0.3-1.5-1.4-2.4-1.9-2.8c5.4,0.3,8.8,4,9,6.4c0.1,1.2-0.3,2.3-3,5.6c-6.2,7.4-10.5,9.1-11.6,9.6c-2.1,0.8-4.1,1.2-16.5-0.7
					c-7.6-1.2-5.8-3.6-2.3-10.8c0.7-1.4,1.5-2.5,3.1-2.9c-0.9,1.2-1.8,2.8-2.6,4.8C254.1,157.2,253.9,158.1,253.7,158.9z"/>
				<linearGradient id="SVGID_69_" gradientUnits="userSpaceOnUse" x1="278.8425" y1="138.8983" x2="261.787" y2="159.3368">
					<stop  offset="0" style="stop-color:#005995"/>
					<stop  offset="1" style="stop-color:#068BE5"/>
				</linearGradient>
				<path class="st84" d="M280.3,150.5c-2.1,4-6.7,9.7-10.9,11.1c-2.1,0.7-3.9,0.6-6,0.4c-2.6-0.3-7.3-0.6-9.6-1.6
					c-1.4-0.6-1.3-1.6-0.6-3c0.8-1.5,1.6-3.2,2.7-5.3c0.3-0.3,0.8-0.5,1.2-0.5c-1.3,1.8-2.1,3.4-2.6,4.8c-0.6,1.7-0.5,2.1-0.4,2.3
					c0.1,0.3,0.6,1.1,6.5,1.9c2.4,0.3,6.5,0.8,8.8,0c3.9-1.2,8.2-6.6,10-10.2c1.1-2.2,1.3-3.8-1.2-5.7c0.3,0,0.7,0,1.2,0.1
					c0,0,0,0,0,0C281.6,146.6,281.4,148.3,280.3,150.5z"/>
			</g>
			<g>
				<g>
					<linearGradient id="SVGID_70_" gradientUnits="userSpaceOnUse" x1="282.7809" y1="153.7403" x2="266.389" y2="169.9184">
						<stop  offset="0" style="stop-color:#005995"/>
						<stop  offset="1" style="stop-color:#068BE5"/>
					</linearGradient>
					<path class="st85" d="M279.9,163.4c2.2-1.8,5.2-4.7,8.1-9c-0.1-0.4-0.3-0.8-0.4-1.2c1.9,1.3,4.1,3.5,3.7,5.7
						c-0.1,0.8-0.9,1.9-3.7,4.9c-3.1,3.4-7.3,7.8-11.6,9.6c-2.1,0.8-4.1,1.2-16.5-0.7c-2.3-0.4-4.1-0.7-5-2.1
						c-1.1-1.8-0.7-4.4,1.6-5.3c0,0.4,0,0.9,0.1,1.3c4.4,1.2,8,1.5,10.5,1.5C272,168.2,274.8,167.6,279.9,163.4z"/>
					<linearGradient id="SVGID_71_" gradientUnits="userSpaceOnUse" x1="288.8751" y1="159.9047" x2="272.48" y2="176.086">
						<stop  offset="0" style="stop-color:#005995"/>
						<stop  offset="1" style="stop-color:#068BE5"/>
					</linearGradient>
					<path class="st86" d="M291.1,162.5c0.1-0.1,0.2-0.4,0.2-0.6c0-0.4-0.2-0.7-0.2-0.7c0.1,0,2.4,2,2.5,4.2
						c0.1,2.8-3.6,5.8-5.8,7.6c-9.4,8.1-9.5,7.1-19.3,6.3c-1.6-0.1-4.8-1-5.7-2.3c-1-1.4-0.1-3.4,0-3.7c0.2,0.2,0.3,0.5,0.5,0.7
						C275.2,178.5,282.7,172.7,291.1,162.5z"/>
					<linearGradient id="SVGID_72_" gradientUnits="userSpaceOnUse" x1="293.7297" y1="164.8235" x2="277.3341" y2="181.0052">
						<stop  offset="0" style="stop-color:#005995"/>
						<stop  offset="1" style="stop-color:#068BE5"/>
					</linearGradient>
					<path class="st87" d="M292.8,169.4c0.1-0.5,0.1-0.6,0.2-1.1c1.8,4.9,0.5,5.8-2.9,9.8c-4.3,5.1-7.1,6.3-8.1,6.7
						c-2.9,1.2-7.6,0.4-10.6-0.4c-1.4-0.4-2.2-0.7-2.7-1.4c-0.9-1.2-0.9-2.7,0.3-3.6c0.2,0.2,0.4,0.4,0.5,0.6
						c2.6,0.6,7.6,1.2,10.1,0.4C282,179.6,288.6,174.9,292.8,169.4z"/>
				</g>
				<g>
					<linearGradient id="SVGID_73_" gradientUnits="userSpaceOnUse" x1="267.3363" y1="169.2561" x2="285.7773" y2="156.7085">
						<stop  offset="0" style="stop-color:#005995"/>
						<stop  offset="1" style="stop-color:#068BE5"/>
					</linearGradient>
					<path class="st88" d="M280.3,163.9c0,0,3.9-2.7,8.4-8.7c0.6-0.8,0.3-1-0.4-1.5c-0.3-0.2-0.5-0.4-0.6-0.5c3.2,0.9,5.1,3.9,4.8,6
						c-0.1,0.9-0.9,2-3.9,5.2c-3.3,3.6-7.7,8.2-12.3,10.1c-2.2,0.9-4.3,1.2-17.4-0.8c-2.4-0.4-4.3-0.7-5.3-2.2
						c-1.2-1.9-0.7-4.6,1.7-5.6c0,0.5,0,1,0.1,1.4c4.6,1.3,8.5,1.6,11.2,1.6C273.3,169,274.6,167.9,280.3,163.9z"/>
					<linearGradient id="SVGID_74_" gradientUnits="userSpaceOnUse" x1="272.3748" y1="176.6637" x2="290.8139" y2="164.1175">
						<stop  offset="0" style="stop-color:#005995"/>
						<stop  offset="1" style="stop-color:#068BE5"/>
					</linearGradient>
					<path class="st89" d="M284,171.4c1.8-1.5,7-6.4,7.8-8.5c0.3-0.8,0-1.4-0.6-1.9v0c0.1-0.1,3.6,2.4,3.7,4.8
						c0.1,3-3.8,6.1-6.1,8.1c-10,8.6-10,7.5-20.4,6.6c-1.7-0.1-5.1-1-6-2.4c-1-1.5-0.1-3.6,0-3.9c0.2,0.3,0.3,0.5,0.5,0.8
						C271.3,178.3,277.3,176.7,284,171.4z"/>
					<linearGradient id="SVGID_75_" gradientUnits="userSpaceOnUse" x1="276.7307" y1="183.0671" x2="295.1706" y2="170.5203">
						<stop  offset="0" style="stop-color:#005995"/>
						<stop  offset="1" style="stop-color:#068BE5"/>
					</linearGradient>
					<path class="st90" d="M289,175.7c1.6-1.4,2.5-2.6,4.1-4.8c0.2-0.5,0.1-1,0.2-1.4c0.4,1.2,2.1,2.8,1.3,5.3
						c-0.3,1.1-1.4,2.3-3.5,4.8c-2.4,2.9-5.8,6.2-9.3,7.3c-3.8,1.2-10.4-0.7-10.4-0.7c-1.5-0.4-2.3-0.8-2.9-1.5
						c-0.9-1.3-1-2.9,0.3-3.9c0.2,0.2,0.4,0.5,0.6,0.7c2.7,0.6,8.1,1.3,10.7,0.5C282.2,181.2,287.3,177.2,289,175.7z"/>
				</g>
			</g>
		</g>
	</g>
	<g>
		<g>
			<linearGradient id="SVGID_76_" gradientUnits="userSpaceOnUse" x1="169.973" y1="193.9535" x2="183.8421" y2="248.4796">
				<stop  offset="0" style="stop-color:#ED7D88"/>
				<stop  offset="1" style="stop-color:#FFCFCD"/>
			</linearGradient>
			<path class="st91" d="M185.1,179c0.3,5.6-4.7,10-10.2,8.9c-5-1-8.1-1.6-11.2-3c-14.9-6.6-23.6-18.8-20.9-27.9
				c1.7-5.7,6.9-8.2,7.2-8.4C160.1,143.8,183.7,155.5,185.1,179z"/>
			<linearGradient id="SVGID_77_" gradientUnits="userSpaceOnUse" x1="170.9382" y1="234.3689" x2="171.2238" y2="183.2428">
				<stop  offset="0" style="stop-color:#ED7D88"/>
				<stop  offset="1" style="stop-color:#FFCFCD"/>
			</linearGradient>
			<path class="st92" d="M144.7,151.2c1.7,10.7,7.5,17.3,13.3,24c12.4,14,25.9,4.3,33.1-13.3c0,0,10.3-10.6,7.2-32.3
				C195.3,107.9,137.5,106.3,144.7,151.2z"/>
		</g>
		<g>
			<g>
				<path class="st93" d="M200,142.1c-1.9,6.1-6,18.1-8.9,23.8c-14,9.9-24.9,12.2-42.9-1.2c-2.2-5.5-4.3-13-5.6-20.9
					c-0.7,0.5-1.4,1-2.1,1.6c0.4,2.2,1.1,5.6,2.3,9.7c5.1,18.1,9.3,32.3,27.9,32.5c8.5,0.1,11.3-1.7,15.5-8.3
					c4.6-7.1,9.8-16.8,16.1-36.8C201.5,142.4,200.7,142.2,200,142.1z M189.5,168.8c-0.6,1.2-1.3,2.5-2.1,3.8
					c-2.3,2.1-5.7,4.9-8.7,6.2c-0.1-1.4-0.4-2.7-0.5-3.6C181.7,173.9,182.8,172.9,189.5,168.8z M175.3,176c0.4,1,0.7,2.2,1,3.6
					c-4,0.9-9.3,0.5-13.3-0.8c0.1-1.3,0.4-2.4,0.8-3.3C168,176.7,171.6,176.7,175.3,176z M161.4,174.6c-0.2,0.9-0.4,2.1-0.5,3.3
					c-3.5-1.4-6.5-3.5-9.2-5.8c-0.7-1.2-1.3-2.4-1.8-3.6C152,169.7,159.2,173.8,161.4,174.6z M153.9,177.1c1.5,1.1,4.8,2.7,7,3.6
					c0.1,0.9,0.1,1.7,0.3,2.4C158.3,182,155.7,179.6,153.9,177.1z M163.3,183.8c-0.2-0.6-0.4-1.4-0.5-2.3c2.8,0.8,7.8,1.8,13.6,0.3
					c0.1,1.1,0,2-0.1,2.9C172.7,185.2,166.8,184.7,163.3,183.8z M178.5,184c0.2-1.1,0.3-2.1,0.3-3c1.8-0.7,4.7-2.4,6-3.2
					C183.4,179.9,180.8,182.9,178.5,184z"/>
				<path class="st93" d="M201,132.5c0,0,4.4-3.1,3.4,5.6c-1,8.7-1.6,11.5-6.1,12.3C193.7,151,201,132.5,201,132.5z"/>
				<path class="st93" d="M143.4,147.4c0,0-3.3,4.3-4.9-4.3c-1.6-8.6-1.8-11.5,2.3-13.5C145,127.5,143.4,147.4,143.4,147.4z"/>
			</g>
			<g>
				<g>
					<g>
						<path class="st8" d="M141.6,131.6c-0.4,10.1,0.6,14.2,1.9,19.8c1.5,6.5,2.6,8.2,3,8.7c4.4,6.1,12.3,6.8,25.1,8
							c18.4,1.6,21.6-2.2,23.7-8.8c3.2-10.1,2-6.6,5-22.5C180.8,134.8,161.2,133.7,141.6,131.6z"/>
						<linearGradient id="SVGID_78_" gradientUnits="userSpaceOnUse" x1="141.5598" y1="147.7601" x2="199.646" y2="147.7601">
							<stop  offset="0" style="stop-color:#005995"/>
							<stop  offset="1" style="stop-color:#068BE5"/>
						</linearGradient>
						<path class="st94" d="M141.6,129.3c-0.4,10.1,0.6,14.2,1.9,19.8c1.5,6.5,2.6,8.2,3,8.7c4.4,6.1,12.3,6.8,25.1,8
							c20.6,1.8,21.6-3.5,23.7-8.8c2.3-5.8,4.3-17.6,4.3-17.6C180.3,136.1,161,132.7,141.6,129.3z"/>
						<path class="st8" d="M141.6,120c-0.4,10.1,0.6,14.2,1.9,19.8c1.5,6.5,2.6,8.2,3,8.7c4.4,6.1,12.3,6.8,25.1,8
							c14.4,1.3,18.1-1.1,19.9-2.4c7.5-5.5,8.2-15.1,8.2-15.1c0,0,0,0.1-0.1,0.4C180.3,136.1,161,123.4,141.6,120z"/>
					</g>
					<path class="st5" d="M200.6,135.9c-1.3,5.4-2,8.2-4.2,10.9c-7.5,9.2-20.1,7.5-24.6,7.5c-22.1-1.5-25.2-9-28.3-18.2
						c-1-3-2.5-7.1-2.6-12.4c-0.6-40.9,54.6-38.8,61.1-9.1C203.8,122.5,201.7,131.3,200.6,135.9z"/>
					<path class="st4" d="M171.8,154c0,0,0,0,0,0.2c-22.1-1.5-25.2-9-28.3-18.2c-1-3-2.5-7.1-2.6-12.4c-0.3-16.8,8.8-27.2,22.5-30.3
						l-2.5,23c-8.8,4.4-12.5,14.1-11.2,21.3C151.2,146.4,160.3,153.7,171.8,154z"/>
					<path class="st4" d="M200.6,135.9c-1.4,5.9-3.1,20.3-28.8,18.3c0,0,0-0.1,0-0.2c7.7-0.7,15-3.7,17.9-5.9
						c8.1-6.1,15.6-23.4-0.6-37.7c1.4-1.8,3.8-4.8,6.6-7.8c2.8,2.8,5.2,7,6.2,11.8C203.8,122.5,201.7,131.3,200.6,135.9z"/>
					<path class="st4" d="M196.6,103.7c-0.9,6.1-3.5,13.7-10.7,16.2c-12.9,4.4-25-1.3-28.3-6.7c-3-5-3.5-11.3-1.4-17.2
						C171.3,88.4,188.6,94.2,196.6,103.7z"/>
					<g>
						
							<ellipse transform="matrix(8.686734e-02 -0.9962 0.9962 8.686734e-02 55.8883 270.826)" class="st8" cx="175.7" cy="104.9" rx="4.9" ry="6.3"/>
						<linearGradient id="SVGID_79_" gradientUnits="userSpaceOnUse" x1="170.5799" y1="104.0542" x2="180.6768" y2="104.0542">
							<stop  offset="0" style="stop-color:#005995"/>
							<stop  offset="1" style="stop-color:#068BE5"/>
						</linearGradient>
						<path class="st95" d="M180.7,104.5c-0.2,2.2-2.6,3.7-5.4,3.5c-2.8-0.2-4.9-2.2-4.7-4.4c0.2-2.2,2.6-3.7,5.4-3.5
							C178.8,100.4,180.9,102.3,180.7,104.5z"/>
					</g>
				</g>
				<g>
					<ellipse class="st81" cx="172.9" cy="145.7" rx="9.1" ry="5.6"/>
					<ellipse class="st56" cx="172.9" cy="145.7" rx="7.4" ry="4.5"/>
				</g>
			</g>
		</g>
	</g>
</g>
</svg>
