<?xml version="1.0" encoding="utf-8"?>
<!-- Generator: Adobe Illustrator 21.0.2, SVG Export Plug-In . SVG Version: 6.00 Build 0)  -->
<svg version="1.1" id="OBJECTS" xmlns="http://www.w3.org/2000/svg" xmlns:xlink="http://www.w3.org/1999/xlink" x="0px" y="0px"
	 viewBox="0 0 143.3 374.6" style="enable-background:new 0 0 143.3 374.6;" xml:space="preserve">
<style type="text/css">
	.st0{fill:url(#SVGID_1_);}
	.st1{fill:url(#SVGID_2_);}
	.st2{fill:#6BF067;}
	.st3{fill:#218C3E;}
	.st4{fill:#FFFFFF;}
	.st5{fill:url(#SVGID_3_);}
	.st6{fill:#026AB0;}
	.st7{fill:#AAD9F0;}
	.st8{fill:#FFCFCD;}
	.st9{fill:#EF294F;}
	.st10{fill:url(#SVGID_4_);}
	.st11{fill:url(#SVGID_5_);}
	.st12{fill:#27A448;}
	.st13{fill:url(#SVGID_6_);}
	.st14{fill:#5CCF59;}
	.st15{fill:url(#SVGID_7_);}
	.st16{filter:url(#Adobe_OpacityMaskFilter);}
	.st17{filter:url(#Adobe_OpacityMaskFilter_1_);}
	.st18{mask:url(#SVGID_8_);fill:url(#SVGID_9_);}
	.st19{fill:url(#SVGID_10_);}
	.st20{filter:url(#Adobe_OpacityMaskFilter_2_);}
	.st21{filter:url(#Adobe_OpacityMaskFilter_3_);}
	.st22{mask:url(#SVGID_11_);fill:url(#SVGID_12_);}
	.st23{fill:url(#SVGID_13_);}
	.st24{fill:url(#SVGID_14_);}
	.st25{fill:url(#SVGID_15_);}
</style>
<g>
	<g>
		<g>
			<linearGradient id="SVGID_1_" gradientUnits="userSpaceOnUse" x1="38.3844" y1="170.235" x2="45.6712" y2="215.1422">
				<stop  offset="0" style="stop-color:#ED7D88"/>
				<stop  offset="1" style="stop-color:#FFCFCD"/>
			</linearGradient>
			<path class="st0" d="M54.1,268c-1.4,0.3-2.9-3.1-4.2-2.7c-0.8,0.3-1,1.8-1,2.2c-0.2,2.8,3.3,7.6,5.2,9.7
				c-0.4,2.4-2.5,1.5-4.5,0.1c-3.3-2.3-5.6-6.4-6.9-9.5c-0.7-2-0.5-4.2,0.5-6l3.4-6.2c1.1-1.9,1.2-4.3,0.4-6.3
				c-15.2-35.8-14.6-33.9-14.8-36.8c-2.5-26.8-2-18.3-2.3-38.2c8.9-0.9,0.9-0.1,19.4-1.9l1.2,6.6c0.8-0.3,1.6-0.6,2.4-0.9
				c5.1,41.2-22.5,35,2.4,71.8C56.5,265.4,55.1,267.8,54.1,268z"/>
			<linearGradient id="SVGID_2_" gradientUnits="userSpaceOnUse" x1="45.6078" y1="200.2809" x2="5.2773" y2="221.8018">
				<stop  offset="0" style="stop-color:#ED7D88"/>
				<stop  offset="1" style="stop-color:#FFCFCD"/>
			</linearGradient>
			<path class="st1" d="M43.5,221.9c0.9-9.8,0.4-17.7-0.3-23.2c-0.7-5.4-1.4-8.5-3.9-9.8c-3.5-1.8-8.3,1.1-9.3,1.8c0,0,0,0,0.1-0.1
				c2-2.6,4.5-4.8,7.6-6.7h0c1.2-0.7,13.9-5.2,15.2-5.7C55.6,199.3,50,208.4,43.5,221.9z"/>
		</g>
		<g>
			<path class="st2" d="M50.8,180.5c0,0-0.2,0.6-1.3,1.2c-2,1.1-5.2,1.3-7.5,1.3c-1.5,0-2.9,0.3-4.2,0.9h0c-4.2,1.9-7.2,6-7.6,6.7
				c0,0.1-0.1,0.1-0.1,0.1c-1.3-3-1.7-4-2.9-7c-2-5.2-4.3-8.9-5.7-13.3c-3.2-10.4-0.7-20.2,5.9-29.1l21,26.6
				C48.9,170.5,49.9,176,50.8,180.5z"/>
		</g>
		<path class="st3" d="M26.9,145c0,0-1.1,13.1,4.8,23.8c5.9,10.7,7,14.6,7,14.6l11.5-0.9c0,0-14-12.9-17.2-24.2
			C29.8,146.9,26.9,145,26.9,145z"/>
	</g>
	<g>
		<path class="st4" d="M109.3,348.3c-0.3,2-2.8,4-4.6,4.9c-7.2,4.1-10.9,3.3-25.5,3.3c-2.1-1.3-3.4-2.9-4.1-3.9
			c-0.8-2.9-2.8-8.3-0.2-13.8v0c4.1-9,16.2-12.2,16.9-12.4c0,0.9,0.2,2.1,0.6,3.4c0.2,0.7,0.5,1.5,0.8,2.2c4.8,9.1,11.9,5.4,14.4,10
			C108.6,343.5,109.3,346.8,109.3,348.3z"/>
		<linearGradient id="SVGID_3_" gradientUnits="userSpaceOnUse" x1="73.9411" y1="336.2071" x2="101.5148" y2="336.2071">
			<stop  offset="0" style="stop-color:#70BFE6"/>
			<stop  offset="1" style="stop-color:#FFFFFF"/>
		</linearGradient>
		<path class="st5" d="M101.5,338.8c-0.9,0.1-1.9,0-3-0.4c-4.5-1.2-4.7-1.7-4.7-1.8c-4.8,5.6-12.5,8-19.8,5.8
			c0.3-1.3,0.5-2.2,1.1-3.6v0l16.1-9.7l1.4,0.7c0.2,0.7,0.5,1.5,0.8,2.2C95.5,336,97.8,337.6,101.5,338.8z"/>
		<path class="st6" d="M109.3,348.3c-0.3,2-2.8,4-4.6,4.9c-7.1,4.1-10.6,3.3-25.5,3.3c-2.1-1.3-3.4-2.9-4.1-3.9
			c-0.2-0.7-0.4-1.4-0.6-2.1c1.8-0.5,7.5-1.5,11.3-1.3c4.3,0.3,4.6,4.6,10.5,4.3c5.9-0.3,10.7-3.1,11.9-4.7c0.4-0.6,0.7-1.2,0.8-1.8
			C109.3,347.6,109.4,348,109.3,348.3z"/>
		<path class="st7" d="M96.5,356.3c-2.7,0.4-1.2,0.3-17.2,0.3c-2.1-1.3-3.4-2.9-4.1-3.9c3.2-0.6,9.7-1.6,12.8-0.4
			c1.7,0.7,1.3,1.1,3.5,2.2C93.5,355.4,95.9,356,96.5,356.3C96.5,356.3,96.5,356.3,96.5,356.3z"/>
	</g>
	<g>
		<g>
			<path class="st8" d="M135.5,30.3c0,0-4.8,14.4-6.1,26.2c-0.9,8.4-5.9,17.5-8.6,22c-3,5-2.9,7.4-7.7,21.3c-6-4.6-12-9.2-17.9-13.8
				c2.2-2.2,5.1-6.6,6.3-11.2c1-3.9,4.4-10.5,14.4-26.2c9.6-15.1,7.6-22.1,7.5-22.7C127.8,27.5,131.8,28.9,135.5,30.3z"/>
			<path class="st9" d="M131.7,18.9c-5-0.7-8.4-5.4-7.7-10.4c1.1-7.3,10-10.3,15.2-5.4c0.1,0.1,0.7,0.7,0.8,0.8
				C145.4,10.2,140,20.1,131.7,18.9z"/>
			<linearGradient id="SVGID_4_" gradientUnits="userSpaceOnUse" x1="129.289" y1="77.4809" x2="132.9041" y2="11.506">
				<stop  offset="0" style="stop-color:#ED7D88"/>
				<stop  offset="1" style="stop-color:#FFCFCD"/>
			</linearGradient>
			<path class="st10" d="M143.2,17.7c-0.2,1.7-3.8,6.5-4.8,7.8c-1,1.4-2.3,3.5-3.5,6.3c-4.6-0.2-8.8-2.3-11.7-5.9c0,0,0,0,0,0
				c-2.8-9.3-0.7-12.6,0.7-17.4c0.9-3.1,0.9-3.7,1.7-4.7c1.7-2.5,4.9-3.5,5.3-3c0.3,0.3-0.6,1-1,2.8c-0.4,1.5-0.3,3.1,0,3.2
				c0.6,0.1,1.1-5.6,4.2-6.7c0.9-0.3,2.1-0.2,2.5,0.4c0.5,0.7-0.3,1.9-0.8,2.9c-0.7,1.6-1.3,4-0.7,7.6c0.8-1.2,2-1.8,2.9-1.6
				c0.8,0.2,1.8,1.3,1.8,2.6c0.6,0.2,1.6,0.6,2.4,1.5C143.5,15.2,143.3,17.1,143.2,17.7z"/>
			<linearGradient id="SVGID_5_" gradientUnits="userSpaceOnUse" x1="132.7344" y1="1.608" x2="110.8181" y2="85.4322">
				<stop  offset="0" style="stop-color:#ED7D88"/>
				<stop  offset="0.5154" style="stop-color:#FAB7B8"/>
				<stop  offset="1" style="stop-color:#F2929A"/>
			</linearGradient>
			<path class="st11" d="M143.2,17.7c-0.1,0.8-0.4,1.3-1.5,3.1c-2.7,4.3-3.8,5-6.2,9.5c-8.8,26.4-2.9,28.9-14.7,48.2
				c-2,3.3-2.1,3.9-6.9,18.9c-0.4-0.7-0.9-1.9-1.6-3.6c-2.4-5.8-9.6-8.6-15.8-9.9c0.7-0.1,16.4-1.9,15.9-1.8
				c5.1-5.2,7.7-10.1,9-13.7c1.7-4.5,1.8-7.4,5.2-17.8c1.2-3.5,1.3-3.6,1.6-5c1.5-6.6,0.1-12.5-1.3-16.5c2.1,1.2,6.8,3.3,7.2,0.8
				c0-0.1,0-0.1,0.1-0.2c0.6-3,3.2-5.5,5.5-9.7c2.4-4.3,2.5-6.5,2.5-6.5C143.5,15.2,143.3,17.1,143.2,17.7z"/>
		</g>
		<g>
			<path class="st2" d="M114.1,98c-2.8,6.5-5.7,11.4-7.8,14.7c-3.7,5.8-5.7,7.5-7.2,12.2c-2.2,7-0.3,11.1-1.9,12
				c-3.5,2-17.3-17.4-19.6-20.7l-10-4.8c9.1-12.7,19-15.6,29-27.4C105.6,82.7,113.3,89.4,114.1,98z"/>
			<path class="st3" d="M114.1,98c-2.8,6.5-5.7,11.4-7.8,14.7c-3.7,5.8-5.7,7.5-7.2,12.2c-2.2,7-0.3,11.1-1.9,12
				c-0.2,0.1-0.4,0.1-0.7,0.1c-7-4.6-12.3-11.6-11.8-20.2c1.4,1,3.3,2,5.2,1.5c2.2-0.6,2.5-2.9,4.5-6.4c3.9-6.7,7.6-6.8,10.4-13.6
				c0.9-2.1,1.2-3.2,1.1-4.7c-0.5-6.2-9-9.6-9.4-9.6c3-0.4,5.8,0,8.3,1.1C109.9,87.3,113.6,92.2,114.1,98z"/>
		</g>
	</g>
	<g>
		<path class="st12" d="M90.4,337.5c-6.1,3.9-12.6,3-13.2,2.9c-2.1-0.3-3.1-0.5-4-1.2c-3.3-2.8,0-9.3-0.8-14.6
			c-0.7-4.7-1.7-8.3-3.3-12.7c-6.3-17.1-9.5-20.7-11.6-38.7c-2.5-9.4-5.8-23.3-8.6-30c-2.6-6.1-8.2-17.1-6.5-31.2
			c0.8-1,7-8.3,17.4-8.4c11.6-0.1,18.1,8.9,18.7,9.7c7.9,84,3.6,42.2,8.9,71.9c2.5,14.7,3,28.5,6.6,44.4
			C94.8,333.3,93.6,335.4,90.4,337.5z"/>
		<path class="st3" d="M90.4,337.5c-6.1,3.9-12.6,3-13.2,2.9c-2.1-0.3-3.1-0.5-4-1.2c-3.3-2.8,0-9.3-0.8-14.6
			c-0.7-4.7-1.7-8.3-3.3-12.7c0.1-0.4,0.2-0.5,0.2-0.5l18.1-26.2c2.5,14.7,3,28.5,6.6,44.4C94.8,333.3,93.6,335.4,90.4,337.5z"/>
		<path class="st3" d="M42.4,211.9c-0.2-0.1,4.7,3.2,5,3.4c5.3,3.2,8.1,0.6,10.8,2.9c3.1,2.6,0.7,7,3.2,16c1,3.8,2.3,6.8,3.2,8.6
			c-3.7,16.8-1.8,27.1-2.4,33.6c-0.6,5.5-1.5,8.4-1.5,13.3c0,8.1,19.7-18.6,19.7-18.6l-0.7-43.4l-10.1-19.1L42.4,211.9z"/>
	</g>
	<g>
		<g>
			<path class="st7" d="M44.9,352.1c0,0-9.6,7.4-16.2,11.4c-1.5,0.9-5.9,4.3-12.4,7.8c-6,3.2-8.1,3.3-8.1,3.3
				c-3.7,0.6-6.8-1.4-7.9-3.9c-2.4-5.9,9.1-22,15.5-22.7c2.1-0.2,3-1.4,2.4-3.4c4.1-7.5,10.1-12,14.6-11.8
				C42.3,332.9,46.4,342.5,44.9,352.1z"/>
			<linearGradient id="SVGID_6_" gradientUnits="userSpaceOnUse" x1="28.9235" y1="331.6564" x2="32.1432" y2="375.7149">
				<stop  offset="0" style="stop-color:#70BFE6"/>
				<stop  offset="1" style="stop-color:#FFFFFF"/>
			</linearGradient>
			<path class="st13" d="M44.9,352.1c-11,8.5-25.8,17.6-28.5,19.1c2.1-5.8,5.7-10.4,10.8-13.6c2.7-1.7,6.3-2.8,9.4-5.5
				c5.1-4.5,6.6-11.6,6.9-13.1c0.9,2.6,2.1,5.4,2.1,9.4C45.5,349.5,45,351.1,44.9,352.1z"/>
		</g>
		<path class="st6" d="M44.1,341.3c-0.2,9.9-8,14.8-17.3,19.1c-4.7,2.2-6.2,7.2-10.5,10.8c-3.5,1.8-6,2.9-8.1,3.3
			c3.6-1.2,8.3-5.5,10.1-8.4c1.1-1.7,4.2-5.6,5-7.3c0.8-1.7,0.2-2.2,0.9-3.1c1.2-1.6,3.4-0.9,5.9-1.6c4.8-1.3,10.9-8,10.7-17.1
			c1,1.1,2,2.3,3,3.4C43.9,340.7,44,341,44.1,341.3z"/>
	</g>
	<g>
		<path class="st2" d="M106.8,222.4c0.1,11-1,20.1-2.1,26.8c-2.3,13.9-5.9,24.4-9.1,33.4c-2.2,6.4-3.3,9.6-4.5,11.7
			c-5.7,10.1-14.8,18.5-19.9,25.9c-1.5,2.4-2.3,3.9-5,7.9c-8.9,12.9-19.6,25.1-21.3,24c-0.5-0.3,0.5-1.4,0.4-4.6
			c-0.2-3.9-2-7.9-4.2-10.3c-0.1-0.1-0.2-0.2-0.2-0.3c-1.2-1.3-4.4-3.9-4.4-3.9c6.7-2.5,12.7-20.6,14.6-25.7
			c2.2-6.1,6.2-14.5,13.9-23.7c0-8.4,0.4-17.5,1.4-27.1c0.6-6.6,1.5-8.2,2.5-14.1c-3.9-9.4-4.5-17.7-2.8-26.6
			c0.6-2.8,1.3-5.1,3.5-7.2l24.1,1.8C100,214.2,104.5,219.3,106.8,222.4z"/>
		<path class="st14" d="M106.8,222.4c0.1,11-1,20.1-2.1,26.8c-2.3,13.9-5.9,24.4-9.1,33.4c-2.2,6.4-3.3,9.6-4.5,11.7
			c-5.7,10.1-14.8,18.5-19.9,25.9c-1.5,2.4-2.3,3.9-5,7.9c-8.9,12.9-19.6,25.1-21.3,24c-0.5-0.3,0.5-1.4,0.4-4.6
			c-0.2-3.9-2-7.9-4.2-10.3c-0.1-0.1-0.2-0.2-0.2-0.3c-1.5-1.6-4-3.5-4.3-3.8c5.5,2,11,4,16.5,6l12.2-20.3c0,0,19.9-20.3,18.8-26.4
			c-1.1-6.1-19-8.7-13.1-9.9c3.1-0.7,7.8,1.2,11.4,3.1c3,1.6,6.7,0,7.7-3.3c1.8-6,3.4-12.8,4.4-20.3c1.7-11.6,0.5-14.5,3.6-22
			c0.2-0.6,3.8-10,0.7-15.5c-1.8-3.3-5.7-4.3-13.3-6.1c-4.6-1.1-11.2-2.3-19.3-2.4c0.1-1.4,0.9-3.8,2.1-5.6c0.4-0.5,0.8-1.1,1.4-1.5
			l24.1,1.8C100,214.2,104.5,219.3,106.8,222.4z"/>
	</g>
	<g>
		<linearGradient id="SVGID_7_" gradientUnits="userSpaceOnUse" x1="25.9418" y1="166.8555" x2="109.0536" y2="166.8555">
			<stop  offset="0" style="stop-color:#00463D"/>
			<stop  offset="1" style="stop-color:#028878"/>
		</linearGradient>
		<path class="st15" d="M109,194.5c-0.2,11.4-1.2,21-2.2,27.9c-9-3.9-21.4-8-36.5-9.9c-0.4-0.1-0.7-0.1-1.1-0.1
			c-0.8-0.1-1.7-0.2-2.4-0.2c-9.2-0.9-17.5-0.8-24.4-0.2c0.2-8.1,2.4-16.3,6.3-23.6c-12.4-23.2-22.7-29.6-22.7-41
			c-0.1-3.2,1.2-6.3,3.5-8.5c11.4-11.2,24.3-20.4,38-27.5c6.9,0.4,13.7,2.5,18,5c6.4,3.7,10.7,10.8,13,17.8
			c7.3,18.1,9.5,32.8,10.1,42.4C109.2,184,109.1,191.5,109,194.5z"/>
		<defs>
			<filter id="Adobe_OpacityMaskFilter" filterUnits="userSpaceOnUse" x="66.8" y="120.8" width="42.3" height="101.6">
				<feFlood  style="flood-color:white;flood-opacity:1" result="back"/>
				<feBlend  in="SourceGraphic" in2="back" mode="normal"/>
			</filter>
		</defs>
		<mask maskUnits="userSpaceOnUse" x="66.8" y="120.8" width="42.3" height="101.6" id="SVGID_8_">
			<g class="st16">
				<defs>
					<filter id="Adobe_OpacityMaskFilter_1_" filterUnits="userSpaceOnUse" x="66.8" y="120.8" width="42.3" height="101.6">
						<feFlood  style="flood-color:white;flood-opacity:1" result="back"/>
						<feBlend  in="SourceGraphic" in2="back" mode="normal"/>
					</filter>
				</defs>
				<mask maskUnits="userSpaceOnUse" x="66.8" y="120.8" width="42.3" height="101.6" id="SVGID_8_">
				</mask>
				<linearGradient id="SVGID_9_" gradientUnits="userSpaceOnUse" x1="66.7829" y1="171.6003" x2="109.0536" y2="171.6003">
					<stop  offset="0" style="stop-color:#FAFAFA"/>
					<stop  offset="1" style="stop-color:#FFFFFF"/>
				</linearGradient>
				<path class="st18" d="M109,194.5c-0.2,11.4-1.2,21-2.2,27.9c-9.2-3.9-22-8.2-37.6-10.1c-0.8-0.1-1.7-0.2-2.4-0.2
					c0.1-0.1,0.2-0.1,0.3-0.1c6.9-1.9,29.7,8.3,32-4.6c2.4-12.9,2.1-35.9-0.3-56.6c-1.7-15-5.7-25.4-7.8-30
					c4.4,4.9,6.6,10.8,7.5,13.3c7.3,18.1,9.5,32.8,10.1,42.4C109.2,184,109.1,191.5,109,194.5z"/>
			</g>
		</mask>
		<linearGradient id="SVGID_10_" gradientUnits="userSpaceOnUse" x1="66.7829" y1="171.6003" x2="109.0536" y2="171.6003">
			<stop  offset="0" style="stop-color:#319483"/>
			<stop  offset="1" style="stop-color:#447B9B"/>
		</linearGradient>
		<path class="st19" d="M109,194.5c-0.2,11.4-1.2,21-2.2,27.9c-9.2-3.9-22-8.2-37.6-10.1c-0.8-0.1-1.7-0.2-2.4-0.2
			c0.1-0.1,0.2-0.1,0.3-0.1c6.9-1.9,29.7,8.3,32-4.6c2.4-12.9,2.1-35.9-0.3-56.6c-1.7-15-5.7-25.4-7.8-30c4.4,4.9,6.6,10.8,7.5,13.3
			c7.3,18.1,9.5,32.8,10.1,42.4C109.2,184,109.1,191.5,109,194.5z"/>
		<defs>
			<filter id="Adobe_OpacityMaskFilter_2_" filterUnits="userSpaceOnUse" x="26" y="116.8" width="53.9" height="95.6">
				<feFlood  style="flood-color:white;flood-opacity:1" result="back"/>
				<feBlend  in="SourceGraphic" in2="back" mode="normal"/>
			</filter>
		</defs>
		<mask maskUnits="userSpaceOnUse" x="26" y="116.8" width="53.9" height="95.6" id="SVGID_11_">
			<g class="st20">
				<defs>
					<filter id="Adobe_OpacityMaskFilter_3_" filterUnits="userSpaceOnUse" x="26" y="116.8" width="53.9" height="95.6">
						<feFlood  style="flood-color:white;flood-opacity:1" result="back"/>
						<feBlend  in="SourceGraphic" in2="back" mode="normal"/>
					</filter>
				</defs>
				<mask maskUnits="userSpaceOnUse" x="26" y="116.8" width="53.9" height="95.6" id="SVGID_11_">
				</mask>
				<linearGradient id="SVGID_12_" gradientUnits="userSpaceOnUse" x1="25.9513" y1="164.6492" x2="79.8515" y2="164.6492">
					<stop  offset="0" style="stop-color:#FAFAFA"/>
					<stop  offset="1" style="stop-color:#FFFFFF"/>
				</linearGradient>
				<path class="st22" d="M70.3,212.5c-0.4-0.1-21-1.1-27.9-0.6c0.2-8.1,2.4-16.3,6.3-23.6c-12.8-23.9-22.1-28.5-22.7-40.9
					c0-3.4,1-6.2,3.5-8.6c3-3,6.4-6,10.1-9.1c9.5-1.2,14.5-4.6,17.3-7.6c2.3-2.5,4.1-5.7,5.1-5.3c1,0.4,0.6,4.4-0.6,7.1
					c-3.4,8-15.7,9.7-19.7,10.2c-1.6,0.9-8.6,4.9-9.3,11.8c-0.8,9,7.5,10.1,12.9,25.8c1,3,2,6.7,5.5,8.8c3.1,1.9,6.4,1.3,9.4,1.1
					c4.6-0.3,11.2,0.2,19.7,3.7c-7.1-1.3-12.7-0.4-15.9,0.3c-5,1.2-10.4,2.5-13.6,7.5c0,0,0,0.1-0.1,0.1c-1.5,3.2-2.7,8.3-1,11.1
					c1.1,1.8,3.1,2,6.1,2.7C59.1,207.9,64.2,209.5,70.3,212.5z"/>
			</g>
		</mask>
		<linearGradient id="SVGID_13_" gradientUnits="userSpaceOnUse" x1="25.9513" y1="164.6492" x2="79.8515" y2="164.6492">
			<stop  offset="0" style="stop-color:#319483"/>
			<stop  offset="1" style="stop-color:#447B9B"/>
		</linearGradient>
		<path class="st23" d="M70.3,212.5c-0.4-0.1-21-1.1-27.9-0.6c0.2-8.1,2.4-16.3,6.3-23.6c-12.8-23.9-22.1-28.5-22.7-40.9
			c0-3.4,1-6.2,3.5-8.6c3-3,6.4-6,10.1-9.1c9.5-1.2,14.5-4.6,17.3-7.6c2.3-2.5,4.1-5.7,5.1-5.3c1,0.4,0.6,4.4-0.6,7.1
			c-3.4,8-15.7,9.7-19.7,10.2c-1.6,0.9-8.6,4.9-9.3,11.8c-0.8,9,7.5,10.1,12.9,25.8c1,3,2,6.7,5.5,8.8c3.1,1.9,6.4,1.3,9.4,1.1
			c4.6-0.3,11.2,0.2,19.7,3.7c-7.1-1.3-12.7-0.4-15.9,0.3c-5,1.2-10.4,2.5-13.6,7.5c0,0,0,0.1-0.1,0.1c-1.5,3.2-2.7,8.3-1,11.1
			c1.1,1.8,3.1,2,6.1,2.7C59.1,207.9,64.2,209.5,70.3,212.5z"/>
	</g>
	<g>
		<path class="st8" d="M34.7,121.7c1.8,0.2,6.6,1.4,6.6,5c0,0.3,0.1,0.5,0.2,0.7c1,1.7,9.6-1.6,14.3-7.9c0.4-0.5,1.9-2.5,2.9-5.6
			c3.7-10.6-0.8-24.9-14-32.5C41.3,94.8,38,108.2,34.7,121.7z"/>
		<linearGradient id="SVGID_14_" gradientUnits="userSpaceOnUse" x1="18.1923" y1="103.4178" x2="57.3489" y2="103.4178">
			<stop  offset="0" style="stop-color:#280008"/>
			<stop  offset="1" style="stop-color:#4D1725"/>
		</linearGradient>
		<path class="st24" d="M33.2,123L33.2,123c-6.5-4.4-11.8-9.7-14.1-17.3c-2.8-9.2,1.5-16.4,1.5-16.4c3.5-5.9,11.2-10.5,17.1-8.9
			c3.2,0.9,3.9,3,13.9,9.7c1.2,0.8,2.2,1.5,2.9,1.9c0.2,0.2,0.7,1.3,0.8,1.6c1.9,5.1-1.9,7.9,1.7,15.4c0.2,0.8,0.5,2,0.4,3.5
			c0,0-0.1,3.1-1.7,6.1C51.8,125.9,41.3,130.3,33.2,123z"/>
		<linearGradient id="SVGID_15_" gradientUnits="userSpaceOnUse" x1="18.1477" y1="97.4785" x2="54.4646" y2="97.4785">
			<stop  offset="0" style="stop-color:#8C203C"/>
			<stop  offset="1" style="stop-color:#7A253B"/>
		</linearGradient>
		<path class="st25" d="M54.5,92c-4.1,8-3.4,5.8-4.3,12.5c-0.2,1.5-1.3,4.2-2,5.2c-3,4-14.7,0.3-15.1,1.9c-0.2,0.7,1.7,1.4,1.5,2.6
			c-0.2,0.9-1.5,1.5-2.5,1.7c-1.4,0.2-2.4-0.5-4.5-1.4c-2.2-0.9-4-1.7-5.3-2.3c-4.5-7-5.4-15.9-1.5-22.9c6.6-11.6,24-12.5,27.6-7
			c0.8,1.2,0.6,2.1,1.6,4.2C51.1,89.2,53,90.9,54.5,92z"/>
		<path class="st2" d="M39.5,129.8l-6.4-4.2c6.9,0.3,11.6-1.4,14.5-2.9c3.5-1.8,7.1-5.7,14.3-13.4l0,0l0,0c0,2.5,0,5.1,0,7.6
			C57.2,124.8,48.8,129.7,39.5,129.8z"/>
	</g>
</g>
</svg>
