<?xml version="1.0" encoding="utf-8"?>
<!-- Generator: Adobe Illustrator 21.0.2, SVG Export Plug-In . SVG Version: 6.00 Build 0)  -->
<svg version="1.1" id="OBJECTS" xmlns="http://www.w3.org/2000/svg" xmlns:xlink="http://www.w3.org/1999/xlink" x="0px" y="0px"
	 viewBox="0 0 143.3 374.6" style="enable-background:new 0 0 143.3 374.6;" xml:space="preserve">
<style type="text/css">
	.st0{fill:url(#SVGID_1_);}
	.st1{fill:url(#SVGID_2_);}
	.st2{fill:#6BF067;}
	.st3{fill:#218C3E;}
	.st4{fill:#FFFFFF;}
	.st5{fill:url(#SVGID_3_);}
	.st6{fill:#026AB0;}
	.st7{fill:#AAD9F0;}
	.st8{fill:#FFCFCD;}
	.st9{fill:#EF294F;}
	.st10{fill:url(#SVGID_4_);}
	.st11{fill:url(#SVGID_5_);}
	.st12{fill:#27A448;}
	.st13{fill:url(#SVGID_6_);}
	.st14{fill:#5CCF59;}
	.st15{fill:url(#SVGID_7_);}
	.st16{filter:url(#Adobe_OpacityMaskFilter);}
	.st17{filter:url(#Adobe_OpacityMaskFilter_1_);}
	.st18{mask:url(#SVGID_8_);fill:url(#SVGID_9_);}
	.st19{fill:url(#SVGID_10_);}
	.st20{filter:url(#Adobe_OpacityMaskFilter_2_);}
	.st21{filter:url(#Adobe_OpacityMaskFilter_3_);}
	.st22{mask:url(#SVGID_11_);fill:url(#SVGID_12_);}
	.st23{fill:url(#SVGID_13_);}
	.st24{fill:url(#SVGID_14_);}
	.st25{fill:url(#SVGID_15_);}
	.st26{fill:#606060;}
</style>
<g>
	<g>
		<g>
			<linearGradient id="SVGID_1_" gradientUnits="userSpaceOnUse" x1="38.3837" y1="170.2338" x2="45.6706" y2="215.1415">
				<stop  offset="0" style="stop-color:#ED7D88"/>
				<stop  offset="1" style="stop-color:#FFCFCD"/>
			</linearGradient>
			<path class="st0" d="M55.4,265.2c-0.3,2.1-0.9,2.7-1.3,2.8c-1.4,0.3-2.9-3.1-4.2-2.7c-0.8,0.3-1,1.8-1,2.2
				c-0.2,2.8,3.3,7.6,5.2,9.7c-0.4,2.4-2.5,1.5-4.5,0.1c-3.3-2.3-5.6-6.4-6.9-9.5c-0.7-2-0.5-4.2,0.5-6l3.4-6.2
				c1.1-1.9,1.2-4.3,0.3-6.3c-15.2-35.9-14.6-33.9-14.8-36.8c-1.3-13.8-1.8-18.2-2-22v0c-0.2-3.5-0.2-6.5-0.3-16.2
				c2.7-0.3,3.9-0.4,4.7-0.5c1.2-0.1,1.6-0.2,5.3-0.5c0.6-0.1,1.2-0.1,2-0.2c1.8-0.2,4.3-0.4,7.5-0.7c0.4,2.1,0.8,4.4,1.3,6.5v0
				c0.4-0.1,0.7-0.3,1.1-0.4c0.4-0.1,0.7-0.3,1-0.4c0.2-0.1,0.3-0.1,0.4-0.1c0.2,1.5,0.3,2.8,0.4,4.2c0,0.6,0.1,1.2,0.1,1.8
				c0,0.8,0.1,1.5,0.1,2.3c0,0.2,0,0.3,0,0.5c0.1,3.9-0.2,7.3-0.7,10.3c-0.1,0.5-0.2,1-0.3,1.6c0,0.2-0.1,0.4-0.1,0.6
				c-0.1,0.5-0.2,0.9-0.3,1.3c-0.1,0.4-0.2,0.9-0.3,1.3c-0.3,1.2-0.7,2.3-1,3.5c-0.6,1.7-1.2,3.3-1.9,4.9c-0.1,0.3-0.2,0.5-0.3,0.8
				l0,0c0,0.1-0.1,0.3-0.1,0.4c0,0,0,0,0,0c-0.5,1.2-1,2.4-1.5,3.5c-3.4,8.5-4.5,16,8.3,35C55.9,258.2,55.8,262.7,55.4,265.2z"/>
			<linearGradient id="SVGID_2_" gradientUnits="userSpaceOnUse" x1="45.6061" y1="200.2797" x2="5.2754" y2="221.8008">
				<stop  offset="0" style="stop-color:#ED7D88"/>
				<stop  offset="1" style="stop-color:#FFCFCD"/>
			</linearGradient>
			<path class="st1" d="M53.6,186.9c0.1,3.8-0.2,7.2-0.7,10.3c-0.1,0.5-0.2,1-0.3,1.6c0,0.2-0.1,0.4-0.1,0.6
				c-0.1,0.5-0.2,0.9-0.3,1.3c-0.1,0.4-0.2,0.9-0.3,1.3c-0.3,1.2-0.7,2.3-1,3.5c-0.6,1.7-1.2,3.3-1.9,4.9c-0.1,0.3-0.2,0.5-0.3,0.8
				l0,0c-0.1,0.1-0.1,0.3-0.2,0.4c-0.5,1.2-1,2.3-1.6,3.5c-1.1,2.3-2.2,4.5-3.4,7c0.3-3.2,0.4-6.1,0.5-8.9c0-0.4,0-0.8,0-1.3v-0.1
				c0-0.5,0-1,0-1.5c0-3-0.2-5.7-0.4-8.1c-0.1-1.2-0.2-2.3-0.3-3.3c-0.7-5.5-1.4-8.5-3.9-9.8c-3.5-1.8-8.1,1-9.3,1.8c0,0,0,0,0,0
				c0,0,0,0,0-0.1v0c0,0,0,0,0-0.1c2-2.6,4.4-4.8,7.6-6.6h0c0.2-0.1,0.6-0.3,1.3-0.6l0,0c1.3-0.5,3.5-1.3,5.7-2.1
				c1.1-0.4,2.1-0.8,3.1-1.2c1-0.4,1.9-0.7,2.7-1c0.4-0.1,0.8-0.3,1.1-0.4c0.4-0.1,0.7-0.3,1-0.4c0.2-0.1,0.3-0.1,0.4-0.1
				c0.2,1.5,0.3,2.8,0.4,4.2c0,0.6,0.1,1.2,0.1,1.8c0,0.8,0.1,1.5,0.1,2.3C53.6,186.6,53.6,186.7,53.6,186.9z"/>
		</g>
		<g>
			<path class="st2" d="M50.8,180.5c0,0-0.2,0.6-1.3,1.2c0,0,0,0,0,0c-1,0.6-2.4,0.9-3.8,1.1c-0.1,0-0.1,0-0.2,0l-0.3,0l-1.5,0.1h0
				c-0.6,0-1.1,0-1.6,0c-0.9,0-1.8,0.1-2.6,0.3h0c-0.5,0.1-1.1,0.3-1.6,0.6h0c-4.1,1.8-7,5.8-7.6,6.6c0,0,0,0,0,0.1v0
				c0,0,0,0.1,0,0.1c-1.3-3-1.7-4-2.9-7.1c-2-5.2-4.3-8.9-5.7-13.3c-3.2-10.4-0.7-20.2,5.9-29.1l0.1,0.1l20.9,26.4
				c0.2,1.2,0.5,2.8,0.9,4.7c0.4,2.1,0.8,4.4,1.3,6.5v0C50.6,179.6,50.7,180.1,50.8,180.5z"/>
		</g>
		<path class="st3" d="M26.9,145c0,0-1.1,13.1,4.8,23.8c5.9,10.7,7,14.6,7,14.6l11.5-0.9c0,0-14-12.9-17.2-24.2
			C29.8,146.9,26.9,145,26.9,145z"/>
	</g>
	<g>
		<path class="st4" d="M109.3,348.3c0,0.3-0.1,0.5-0.2,0.8c-0.2,0.5-0.5,1-0.9,1.5c-0.2,0.2-0.4,0.5-0.6,0.7
			c-0.2,0.2-0.4,0.4-0.7,0.6c-0.2,0.2-0.5,0.4-0.7,0.5c-0.1,0.1-0.3,0.2-0.4,0.3c-0.2,0.2-0.5,0.3-0.7,0.4c-0.1,0.1-0.2,0.1-0.3,0.2
			c-1,0.6-1.9,1-2.8,1.4c-0.9,0.4-1.7,0.7-2.6,1c0,0,0,0,0,0c-0.2,0.1-0.4,0.1-0.7,0.2c-0.6,0.2-1.3,0.3-2,0.4c-0.1,0-0.2,0-0.3,0h0
			c-1.2,0.2-2.5,0.3-4,0.3c-0.1,0-0.1,0-0.2,0c-2.1,0.1-4.5,0-7.5,0c-0.8,0-1.7,0-2.6,0c-0.9,0-1.9,0-2.9,0
			c-2.1-1.3-3.4-2.9-4.1-3.9c-0.1-0.2-0.1-0.5-0.2-0.7c-0.8-2.8-2.2-7.3-0.4-12c0,0,0,0,0,0c0,0,0,0,0-0.1c0-0.1,0.1-0.3,0.2-0.4
			c0.1-0.2,0.2-0.4,0.3-0.5v0c4.1-9,16.2-12.2,16.9-12.4c0,0.9,0.2,2.1,0.6,3.4c0.2,0.7,0.5,1.5,0.8,2.2c0.2,0.4,0.4,0.8,0.6,1.1
			c0.1,0.2,0.2,0.3,0.3,0.5c0.1,0.2,0.3,0.4,0.5,0.6c0.1,0.2,0.2,0.3,0.4,0.5c0.1,0.1,0.3,0.3,0.4,0.4c0.1,0.1,0.3,0.3,0.4,0.4
			c0.1,0.1,0.3,0.3,0.4,0.4c0.1,0.1,0.3,0.3,0.4,0.4c0.1,0,0.1,0.1,0.2,0.1c0.1,0.1,0.3,0.2,0.5,0.3c1.1,0.8,2.2,1.3,3.3,1.6
			c0.2,0.1,0.3,0.1,0.5,0.2c0.1,0,0.1,0,0.2,0.1c2.7,0.8,5,1,6.3,3.3c0.6,1.2,1.2,3.4,1.4,5.1c0,0,0,0.1,0,0.1
			C109.3,347.7,109.3,348.1,109.3,348.3z"/>
		<linearGradient id="SVGID_3_" gradientUnits="userSpaceOnUse" x1="73.938" y1="336.2076" x2="101.518" y2="336.2076">
			<stop  offset="0" style="stop-color:#70BFE6"/>
			<stop  offset="1" style="stop-color:#FFFFFF"/>
		</linearGradient>
		<path class="st5" d="M101.5,338.8c-0.9,0.1-1.9,0-3-0.3c-4.5-1.2-4.7-1.7-4.7-1.8c-4.8,5.6-12.5,8-19.8,5.8c0.2-1,0.4-1.7,0.7-2.6
			c0,0,0,0,0-0.1c0-0.1,0.1-0.3,0.2-0.4c0.1-0.2,0.2-0.4,0.3-0.5v0l16.1-9.7l1.4,0.7c0.2,0.7,0.5,1.5,0.8,2.2
			c0.2,0.4,0.4,0.8,0.6,1.1c0.1,0.2,0.2,0.3,0.3,0.5c0.1,0.2,0.3,0.4,0.5,0.6c0.1,0.2,0.2,0.3,0.4,0.5c0.1,0.1,0.2,0.3,0.4,0.4
			c0.1,0.2,0.3,0.3,0.4,0.4c0.1,0.1,0.3,0.3,0.4,0.4c0.1,0.1,0.3,0.3,0.4,0.4c0.1,0,0.1,0.1,0.2,0.1c0.1,0.1,0.3,0.2,0.5,0.3
			c1,0.7,2.1,1.2,3.3,1.6c0.2,0.1,0.3,0.1,0.5,0.2C101.4,338.7,101.5,338.8,101.5,338.8z"/>
		<path class="st6" d="M109.3,348.3c0,0.3-0.1,0.5-0.2,0.8c-0.2,0.5-0.5,1-0.9,1.5c-0.2,0.2-0.4,0.5-0.6,0.7
			c-0.2,0.2-0.4,0.4-0.7,0.6c-0.2,0.2-0.5,0.4-0.7,0.5c-0.1,0.1-0.3,0.2-0.4,0.3c-0.2,0.2-0.5,0.3-0.7,0.4c-0.1,0.1-0.2,0.1-0.3,0.2
			c-1,0.6-1.9,1-2.8,1.4c-0.9,0.4-1.7,0.7-2.6,1c0,0,0,0,0,0c-0.2,0.1-0.4,0.1-0.7,0.2c-0.6,0.2-1.3,0.3-2,0.4c-0.1,0-0.2,0-0.3,0h0
			c-1.2,0.2-2.5,0.3-4,0.3c-0.1,0-0.1,0-0.2,0c-2.1,0.1-4.5,0-7.5,0c-0.8,0-1.7,0-2.6,0c-0.9,0-1.9,0-2.9,0
			c-2.1-1.3-3.4-2.9-4.1-3.9c-0.1-0.2-0.1-0.5-0.2-0.7c-0.1-0.5-0.2-0.9-0.4-1.4c1.8-0.5,7.4-1.5,11.3-1.3c4.3,0.3,4.6,4.6,10.5,4.3
			c5.9-0.3,10.7-3.1,11.9-4.7c0.4-0.6,0.7-1.2,0.8-1.8c0,0,0,0.1,0,0.1C109.3,347.7,109.3,348,109.3,348.3z"/>
		<path class="st7" d="M96.5,356.3c-1.5,0.2-1.7,0.3-4,0.3c-0.1,0-0.1,0-0.2,0c-2.1,0-5.7,0-13,0c-2.1-1.3-3.4-2.9-4.1-3.9
			c3.3-0.6,9.7-1.6,12.8-0.4c1.7,0.7,1.3,1.1,3.5,2.2C93.5,355.4,95.9,356,96.5,356.3L96.5,356.3C96.5,356.3,96.5,356.3,96.5,356.3z
			"/>
	</g>
	<g>
		<g>
			<path class="st8" d="M135.5,30.3c-0.1,0.3-0.2,0.7-0.3,1c0,0.1,0,0.1-0.1,0.2c0,0,0,0,0,0c-0.1,0.1-0.1,0.3-0.1,0.5
				c-0.8,2.7-2.5,8.2-3.8,14.3c0,0,0,0,0,0.1c-0.7,3.1-1.3,6.4-1.7,9.5v0c0,0.2-0.1,0.4-0.1,0.6c-0.3,2.5-0.9,5.1-1.7,7.6
				c0,0.1-0.1,0.2-0.1,0.3c-1.5,4.3-3.5,8.3-5.2,11.4c-0.1,0.2-0.2,0.4-0.3,0.6c-0.1,0.2-0.2,0.4-0.3,0.6c-0.1,0.2-0.2,0.4-0.4,0.6
				c-0.2,0.3-0.3,0.6-0.5,0.9c-0.1,0.2-0.2,0.3-0.3,0.5c-0.2,0.4-0.4,0.8-0.6,1.1c-0.2,0.3-0.4,0.7-0.5,1.1
				c-0.1,0.2-0.1,0.3-0.2,0.5c-0.6,1.3-1,2.6-1.5,4.2c-0.1,0.2-0.1,0.4-0.2,0.7c-0.1,0.2-0.1,0.3-0.2,0.5c0,0,0,0,0,0
				c-0.7,2.4-1.7,5.5-3.2,10.1v0c-0.3,0.8-0.6,1.7-0.9,2.7c-2.4-1.8-4.8-3.7-7.2-5.5c-3.6-2.8-7.2-5.5-10.7-8.3
				c0.5-0.5,1.1-1.2,1.7-1.9c0,0,0,0,0,0c0,0,0.1-0.1,0.1-0.1v0c1.8-2.4,3.6-5.7,4.5-9.1c1-3.9,4.4-10.5,14.4-26.2
				c9.6-15.1,7.6-22.1,7.5-22.7c4,1.4,7.5,2.7,10.8,3.9C134.6,29.9,135.1,30.1,135.5,30.3z"/>
			<path class="st9" d="M141.5,13c-1.4,3.8-5.2,6.6-9.9,5.9c-5-0.7-8.4-5.4-7.7-10.4c0.1-0.8,0.3-1.6,0.6-2.3c0,0,0,0,0,0
				c1.2-2.8,3.6-4.6,6.3-5.3c0.7-0.2,1.4-0.3,2.1-0.3c1.2,0,2.4,0.2,3.6,0.8c0.9,0.4,1.7,0.9,2.5,1.7c0.1,0.1,0.7,0.7,0.8,0.8
				C142.3,6.7,142.6,10.1,141.5,13z"/>
			<linearGradient id="SVGID_4_" gradientUnits="userSpaceOnUse" x1="129.2864" y1="77.4891" x2="132.9021" y2="11.5035">
				<stop  offset="0" style="stop-color:#ED7D88"/>
				<stop  offset="1" style="stop-color:#FFCFCD"/>
			</linearGradient>
			<path class="st10" d="M143.3,16.9c0,0.3,0,0.6,0,0.7c-0.1,0.6-0.6,1.7-1.3,2.8c-0.1,0.1-0.1,0.2-0.2,0.3
				c-0.2,0.3-0.4,0.6-0.6,0.9c-0.1,0.2-0.3,0.4-0.4,0.6c0,0,0,0,0,0c-0.1,0.2-0.3,0.4-0.4,0.6c-0.1,0.1-0.2,0.2-0.2,0.3
				c-0.1,0.2-0.2,0.3-0.3,0.5c-0.1,0.1-0.2,0.2-0.2,0.3c-0.1,0.2-0.2,0.3-0.4,0.5c-0.1,0.2-0.3,0.3-0.4,0.5
				c-0.2,0.3-0.4,0.6-0.7,0.9c-0.1,0.1-0.2,0.3-0.3,0.5c-0.1,0.1-0.2,0.2-0.2,0.3c-0.1,0.2-0.2,0.3-0.3,0.5
				c-0.7,1.1-1.4,2.5-2.1,4.2c0,0,0,0,0,0c0,0,0,0,0,0s0,0,0,0c-0.1,0.1-0.1,0.2-0.1,0.3c-2.9-0.1-5.7-1-8.1-2.6
				c-1.4-0.9-2.6-2-3.6-3.3c0,0,0,0,0,0c-2.8-9.3-0.7-12.6,0.7-17.4c0.3-1,0.5-1.7,0.6-2.3c0,0,0,0,0,0c0.3-1.2,0.5-1.8,1-2.4
				c1.3-1.9,3.5-3,4.6-3.1h0.4c0.1,0,0.2,0,0.3,0.1c0,0,0.1,0.1,0.1,0.1c0,0.4-0.7,1.1-1.1,2.7c-0.4,1.5-0.3,3.1,0,3.2
				c0.5,0.1,0.9-4.3,3.2-6.1c0.3-0.2,0.6-0.4,1-0.6c0.3-0.1,0.7-0.2,1.1-0.2c0.6,0,1.1,0.1,1.4,0.5c0,0.1,0.1,0.1,0.1,0.2
				c0.1,0.2,0.1,0.5,0,0.8c-0.1,0.6-0.6,1.3-0.9,2c-0.7,1.6-1.3,4-0.7,7.6c0.8-1.2,2-1.8,2.9-1.6c0.8,0.2,1.8,1.3,1.8,2.6
				c0.4,0.1,1.1,0.4,1.8,0.9c0.2,0.2,0.4,0.4,0.6,0.6C143.1,14.8,143.3,16.1,143.3,16.9z"/>
			<linearGradient id="SVGID_5_" gradientUnits="userSpaceOnUse" x1="132.737" y1="1.6098" x2="110.8214" y2="85.4314">
				<stop  offset="0" style="stop-color:#ED7D88"/>
				<stop  offset="0.5154" style="stop-color:#FAB7B8"/>
				<stop  offset="1" style="stop-color:#F2929A"/>
			</linearGradient>
			<path class="st11" d="M143.3,16.9c0,0.3,0,0.6,0,0.7c-0.1,0.7-0.4,1.3-1.3,2.8c-0.1,0.1-0.1,0.2-0.2,0.3
				c-0.2,0.3-0.4,0.6-0.6,0.9c-0.1,0.2-0.3,0.4-0.4,0.6c0,0,0,0,0,0c-0.2,0.2-0.3,0.4-0.4,0.6c-0.1,0.1-0.2,0.2-0.2,0.3
				c-0.1,0.2-0.2,0.3-0.3,0.5c-0.1,0.1-0.2,0.2-0.2,0.3c-0.1,0.2-0.2,0.3-0.4,0.5c-0.1,0.2-0.3,0.3-0.4,0.5
				c-0.2,0.3-0.4,0.6-0.7,0.9c-0.1,0.1-0.2,0.3-0.3,0.5c-0.1,0.1-0.2,0.2-0.2,0.3c-0.1,0.2-0.2,0.3-0.3,0.5c-0.5,0.8-1.1,1.8-1.8,3
				c-0.1,0.3-0.2,0.7-0.3,1c0,0.1,0,0.1-0.1,0.2c0,0,0,0,0,0.1c0,0,0,0,0,0c-0.1,0.1-0.1,0.3-0.1,0.4c-1.9,5.8-3,10.5-3.8,14.3
				c0,0,0,0,0,0.1c-0.8,3.7-1.2,6.7-1.7,9.5v0c-0.5,2.8-1,5.4-1.8,8.2c0,0.1-0.1,0.2-0.1,0.3c-1,3.1-2.4,6.5-4.8,10.8
				c-0.1,0.2-0.2,0.4-0.3,0.6c-0.1,0.2-0.2,0.4-0.3,0.6c-0.1,0.2-0.2,0.4-0.3,0.6c-0.1,0.2-0.2,0.4-0.4,0.6
				c-0.2,0.3-0.3,0.6-0.5,0.9c-0.1,0.2-0.2,0.3-0.3,0.5c-0.2,0.4-0.4,0.8-0.6,1.1c-0.2,0.3-0.4,0.7-0.5,1.1
				c-0.1,0.2-0.1,0.3-0.2,0.5c-0.4,1-0.9,2.3-1.5,4.2c-0.1,0.2-0.1,0.4-0.2,0.7c-0.1,0.2-0.1,0.3-0.2,0.5c0,0,0,0,0,0
				c-0.8,2.3-1.8,5.5-3.2,10c0,0.1-0.1,0.3-0.1,0.4c-0.4-0.7-0.9-1.9-1.6-3.6c-2.3-5.7-9.3-8.5-15.4-9.8c-0.1,0-0.1,0-0.2,0
				c0,0,0,0,0,0c-0.1,0-0.1,0-0.2,0c0.1,0,0.2,0,0.3,0c0,0,0.1,0,0.1,0c0,0,0,0,0.1,0c0.1,0,0.2,0,0.3,0c3.1-0.4,14.7-1.7,15.2-1.8
				c5.1-5.2,7.7-10.1,9-13.7c1.7-4.5,1.8-7.4,5.2-17.8c1.2-3.5,1.3-3.6,1.6-5c1.5-6.5,0.1-12.4-1.3-16.4c0,0,0-0.1,0-0.1
				c2.1,1.2,6.8,3.3,7.2,0.8c0-0.1,0-0.1,0.1-0.2v0c0.6-3,3.2-5.5,5.5-9.6c2.4-4.3,2.5-6.5,2.5-6.5
				C143.1,14.8,143.3,16.1,143.3,16.9z"/>
		</g>
		<g>
			<path class="st2" d="M114.1,98c-2.8,6.5-5.7,11.4-7.8,14.7c-3.7,5.8-5.8,7.5-7.2,12.2c-1,3.1-1.1,5.6-1.2,7.5
				c0,2.5,0.2,4-0.8,4.5c-3.5,2-17.3-17.4-19.6-20.7l-10-4.8c9.1-12.7,19-15.6,29-27.4c0,0,0,0,0,0c0.1,0,0.2,0,0.3,0
				c0,0,0.1,0,0.1,0c0,0,0,0,0.1,0c0.1,0,0.2,0,0.3,0c0.8-0.1,1.5-0.1,2.2,0c0.3,0,0.5,0,0.7,0h0c0.3,0,0.5,0.1,0.7,0.1
				c0.2,0,0.4,0.1,0.6,0.1c0,0,0.1,0,0.1,0c0.2,0,0.5,0.1,0.7,0.1c0.5,0.1,0.9,0.3,1.4,0.4c0.2,0.1,0.3,0.1,0.5,0.2
				c0.2,0.1,0.3,0.1,0.5,0.2c0.3,0.1,0.6,0.3,0.9,0.4c0,0,0,0,0,0c0.3,0.2,0.6,0.3,0.9,0.5c0.3,0.2,0.5,0.3,0.8,0.5
				c0.1,0.1,0.2,0.1,0.3,0.2c0.2,0.2,0.4,0.3,0.7,0.5c0,0,0,0,0.1,0c0.5,0.4,1,0.9,1.5,1.4c0.2,0.3,0.5,0.5,0.7,0.8
				c0.2,0.3,0.4,0.5,0.6,0.8c0.6,0.8,1.2,1.7,1.6,2.7c0.1,0.3,0.3,0.6,0.4,1c0.1,0.3,0.2,0.7,0.3,1c0.1,0.3,0.2,0.7,0.3,1
				c0,0,0,0,0,0c0.1,0.3,0.1,0.6,0.2,0.9c0,0.1,0,0.2,0,0.3c0,0,0,0,0,0.1v0C114,97.4,114.1,97.7,114.1,98z"/>
			<path class="st3" d="M114.1,98c-2.8,6.5-5.7,11.4-7.8,14.7c-3.7,5.8-5.8,7.5-7.2,12.2c-1,3.1-1.1,5.6-1.2,7.5
				c0,2.5,0.2,4-0.8,4.5c-0.2,0.1-0.4,0.1-0.7,0.1c-7-4.6-12.3-11.6-11.8-20.2c1,0.7,2.4,1.5,3.8,1.6c0.5,0,0.9,0,1.3-0.1
				c2.2-0.6,2.5-2.9,4.5-6.4c3.9-6.7,7.6-6.8,10.4-13.5c0.7-1.8,1.1-2.8,1.1-4c0-0.2,0-0.5,0-0.7c-0.4-5.5-7.3-8.9-9-9.5
				c-0.1,0-0.1,0-0.2-0.1c0,0,0,0,0,0c-0.1,0-0.1,0-0.2,0c0.1,0,0.2,0,0.3,0c0,0,0.1,0,0.1,0h0.1v0c0.1,0,0.2,0,0.3,0
				c0.8-0.1,1.5-0.1,2.2,0c0.3,0,0.5,0,0.7,0h0c0.3,0,0.5,0.1,0.7,0.1c0.2,0,0.4,0.1,0.6,0.1c0,0,0.1,0,0.1,0c0.2,0,0.5,0.1,0.7,0.1
				c0.5,0.1,0.9,0.2,1.4,0.4c0.2,0.1,0.3,0.1,0.5,0.2c0.2,0.1,0.3,0.1,0.5,0.2c0.3,0.1,0.6,0.3,0.9,0.4c0,0,0,0,0,0
				c0.3,0.2,0.6,0.3,0.9,0.5c0.3,0.2,0.5,0.3,0.8,0.5c0.1,0.1,0.2,0.1,0.3,0.2c0.2,0.2,0.4,0.3,0.7,0.5c0,0,0,0,0.1,0
				c0.5,0.4,1,0.9,1.5,1.4c0.2,0.3,0.5,0.5,0.7,0.8c0.2,0.3,0.4,0.5,0.6,0.8c0.6,0.8,1.1,1.7,1.6,2.7c0.1,0.3,0.3,0.6,0.4,1
				c0.1,0.3,0.2,0.7,0.3,1c0.1,0.3,0.2,0.7,0.3,1c0,0,0,0,0,0c0.1,0.3,0.1,0.6,0.2,0.9c0,0.1,0,0.2,0,0.3c0,0,0,0,0,0.1v0
				C114,97.4,114.1,97.7,114.1,98z"/>
		</g>
	</g>
	<g>
		<path class="st12" d="M94.2,331.5c0,0.2,0,0.3,0,0.5c0,0.2,0,0.4-0.1,0.6c0,0.1,0,0.2-0.1,0.3c0,0.1,0,0.2-0.1,0.3c0,0,0,0,0,0
			c0,0.2-0.1,0.4-0.2,0.6c-0.1,0.2-0.2,0.4-0.3,0.6c-0.1,0.2-0.2,0.3-0.3,0.5c0,0.1-0.1,0.1-0.1,0.2c-0.1,0.1-0.2,0.2-0.2,0.3
			c-0.2,0.2-0.3,0.4-0.5,0.5c-0.1,0.1-0.2,0.2-0.3,0.3c-0.5,0.4-1,0.8-1.7,1.3c-6.1,3.9-12.6,3-13.2,2.9c-0.2,0-0.3,0-0.5-0.1
			c-0.2,0-0.4-0.1-0.6-0.1c-0.2,0-0.5-0.1-0.6-0.1c-0.1,0-0.2,0-0.3-0.1c-0.2,0-0.3-0.1-0.5-0.1c0,0,0,0,0,0c-0.1,0-0.3-0.1-0.4-0.1
			c-0.1,0-0.3-0.1-0.4-0.2c-0.3-0.1-0.5-0.3-0.7-0.5c-3.3-2.8,0-9.3-0.8-14.6c-0.2-1.3-0.4-2.5-0.6-3.6c-0.1-0.4-0.2-0.8-0.3-1.1
			c-0.2-1-0.5-2-0.8-3c-0.1-0.5-0.3-1-0.5-1.5c-0.1-0.4-0.2-0.7-0.4-1.1c-0.1-0.1-0.1-0.3-0.2-0.4c-0.2-0.6-0.5-1.3-0.7-2
			c-3.5-9.4-6-14.7-7.9-20.6c-0.2-0.6-0.4-1.2-0.6-1.8v0c0,0,0,0,0,0v0c-1.3-4.3-2.3-9.2-3-16.2c-0.6-2.4-1.3-5.1-2-7.9
			c-2.1-8.1-4.4-17.1-6.6-22.1c-2.6-6.1-8.2-17.1-6.5-31.2c0,0,0,0,0,0c0.2-0.3,0.8-0.9,1.6-1.7c1.4-1.4,3.8-3.3,6.9-4.7
			c2.5-1.1,5.5-1.9,8.9-2c6.6,0,11.5,2.9,14.7,5.5c2.4,2,3.7,3.8,4,4.2c0,0.2,0,0.3,0,0.5c0.1,1.1,0.2,2.1,0.3,3.2
			c7.4,79.1,3.3,38.9,8.6,68.2c0,0.1,0,0.2,0,0.2c0.3,1.8,0.6,3.5,0.8,5.3c0.1,0.8,0.2,1.6,0.3,2.4c0.1,0.5,0.1,1.1,0.2,1.6
			c0.1,1,0.3,2,0.4,3.1c0.6,4.9,1.2,9.7,1.8,14.7c0.2,1.6,0.4,3.2,0.7,4.8c0.1,0.4,0.1,0.8,0.2,1.2c0.1,0.8,0.3,1.6,0.4,2.5
			c0.2,1,0.3,1.9,0.5,2.9c0.2,1,0.4,1.9,0.6,2.9c0.2,1,0.4,2,0.6,3C94.2,330.2,94.2,330.9,94.2,331.5z"/>
		<path class="st3" d="M94.2,331.5c0,0.2,0,0.3,0,0.5c0,0.2,0,0.4-0.1,0.6c0,0.1,0,0.2-0.1,0.3c0,0.1,0,0.2-0.1,0.3c0,0,0,0,0,0
			c0,0.2-0.1,0.4-0.2,0.6c-0.1,0.2-0.2,0.4-0.3,0.6c-0.1,0.2-0.2,0.3-0.3,0.5c0,0.1-0.1,0.1-0.1,0.2c-0.1,0.1-0.2,0.2-0.2,0.3
			c-0.2,0.2-0.3,0.4-0.5,0.5c-0.1,0.1-0.2,0.2-0.3,0.3c-0.5,0.4-1,0.8-1.7,1.3c-6.1,3.9-12.6,3-13.2,2.9c-0.2,0-0.3,0-0.5-0.1
			c-0.2,0-0.4-0.1-0.6-0.1c-0.2,0-0.5-0.1-0.6-0.1c-0.1,0-0.2,0-0.3-0.1c-0.2,0-0.3-0.1-0.5-0.1c0,0,0,0,0,0c-0.1,0-0.3-0.1-0.4-0.1
			c-0.1,0-0.3-0.1-0.4-0.2c-0.3-0.1-0.5-0.3-0.7-0.5c-3.3-2.8,0-9.3-0.8-14.6c-0.2-1.3-0.4-2.5-0.6-3.6c-0.1-0.4-0.2-0.8-0.3-1.1
			c-0.2-1-0.5-2-0.8-3c-0.1-0.5-0.3-1-0.5-1.5c-0.1-0.4-0.2-0.7-0.4-1.1c-0.1-0.1-0.1-0.3-0.2-0.4c-0.2-0.6-0.5-1.3-0.7-2
			c0.1-0.3,0.2-0.5,0.2-0.5l14.1-20.4l3.8-5.4l0.3-0.4c0,0.1,0,0.2,0,0.2c0.3,1.8,0.6,3.5,0.8,5.3c0.1,0.8,0.2,1.6,0.3,2.4
			c0.1,0.5,0.1,1.1,0.2,1.6c0.1,1,0.3,2,0.4,3.1c0.6,4.9,1.2,9.7,1.8,14.7c0.2,1.6,0.4,3.2,0.7,4.8c0.1,0.4,0.1,0.8,0.2,1.2
			c0.1,0.8,0.3,1.6,0.4,2.5c0.2,1,0.3,1.9,0.5,2.9s0.4,1.9,0.6,2.9c0.2,1,0.4,2,0.6,3C94.2,330.2,94.2,330.9,94.2,331.5z"/>
		<path class="st3" d="M80.2,271.1c0,0-4.3,5.8-8.9,11.2c-0.4,0.4-0.7,0.9-1.1,1.3c-3.9,4.4-7.7,8.2-9.1,7.6
			c-0.4-0.2-0.6-0.6-0.6-1.5v-0.4c0-4.6,1-7.6,1.5-12.9c0.7-6.5-1.2-16.8,2.4-33.6c-0.9-1.8-2.1-4.8-3.2-8.6c-2.4-9,0-13.4-3.2-16
			c-2.8-2.3-5.5,0.3-10.8-2.9c0,0-0.1-0.1-0.3-0.2c0,0-0.1-0.1-0.1-0.1c-0.6-0.4-1.9-1.3-2.9-1.9c-0.8-0.6-1.5-1-1.6-1.1
			c0,0,0,0,0,0l1.6-0.2l4.6-0.6l0,0l20.8-2.5l2.1,4l1.9,3.6l6.1,11.5L80.2,271.1z"/>
	</g>
	<g>
		<g>
			<path class="st7" d="M45.2,349.5C45.2,349.5,45.2,349.6,45.2,349.5c0,0.9-0.2,1.7-0.3,2.6c0,0,0,0-0.1,0
				c-0.2,0.2-0.5,0.4-0.7,0.6c-0.2,0.1-0.4,0.3-0.7,0.5c-0.6,0.5-1.3,0.9-1.9,1.4c-0.2,0.2-0.4,0.3-0.7,0.5c-0.5,0.4-1,0.7-1.5,1.1
				c-3.2,2.3-7.2,5.1-10.4,7.1c-0.1,0-0.1,0.1-0.2,0.1c-0.3,0.2-0.7,0.4-1.1,0.7c0,0,0,0-0.1,0c-2.1,1.4-6,4.2-11.2,7l0,0
				c-0.3,0.1-0.5,0.3-0.8,0.4c-0.3,0.1-0.5,0.3-0.8,0.4c-0.5,0.3-1,0.5-1.4,0.7c0,0,0,0,0,0c-0.4,0.2-0.8,0.3-1.1,0.5
				c-0.2,0.1-0.4,0.2-0.7,0.3c-0.2,0.1-0.4,0.2-0.6,0.3c-0.3,0.1-0.6,0.2-0.9,0.3c-0.1,0-0.2,0-0.3,0.1c-1.1,0.3-1.6,0.4-1.6,0.4
				c-0.5,0.1-0.9,0.1-1.3,0.1c-3.1,0-5.7-1.8-6.6-4C0.1,370,0,369.4,0,368.7c0-6.9,10.1-20.2,15.8-20.8c2.1-0.2,2.9-1.4,2.4-3.4
				c4.1-7.5,10.1-12,14.6-11.8c1.5,0,2.8,0.3,4.1,0.8c0,0,0,0,0.1,0c2.9,1.1,5.1,3.3,6.5,6.1c0.1,0.2,0.2,0.5,0.3,0.7
				c0.2,0.4,0.3,0.7,0.4,1.1v0c0.5,1.5,0.9,3,1,4.7c0,0,0,0,0,0C45.2,347.2,45.2,348.4,45.2,349.5z"/>
			<linearGradient id="SVGID_6_" gradientUnits="userSpaceOnUse" x1="28.9246" y1="331.653" x2="32.1444" y2="375.7124">
				<stop  offset="0" style="stop-color:#70BFE6"/>
				<stop  offset="1" style="stop-color:#FFFFFF"/>
			</linearGradient>
			<path class="st13" d="M45.5,348.4c0,1.1-0.5,2.7-0.7,3.6h0c0,0,0,0-0.1,0c-0.2,0.2-0.5,0.4-0.7,0.6c-0.2,0.1-0.4,0.3-0.7,0.5
				c-0.6,0.5-1.3,0.9-1.9,1.4c-0.2,0.2-0.4,0.3-0.7,0.5c-4,2.9-8.1,5.7-11.9,8.2c-0.1,0-0.1,0.1-0.2,0.1c-0.4,0.3-0.8,0.5-1.1,0.7
				c0,0,0,0-0.1,0c-5.4,3.5-9.8,6.2-11.2,7c2.1-5.8,5.6-10.4,10.8-13.6c2.7-1.7,6.3-2.8,9.4-5.5c4.2-3.7,5.9-9.3,6.6-11.8v0
				c0-0.2,0.1-0.3,0.1-0.5c0-0.1,0-0.2,0.1-0.3c0-0.2,0.1-0.4,0.1-0.5C44.3,341.6,45.6,344.4,45.5,348.4z"/>
		</g>
		<path class="st6" d="M44.1,341.3L44.1,341.3c0,0.3,0,0.6,0,0.8v0c-0.6,9.3-8.2,14-17.2,18.2c-4.7,2.2-6.1,7.2-10.4,10.8l0,0
			c-0.3,0.1-0.5,0.3-0.8,0.4c-0.3,0.1-0.5,0.3-0.8,0.4c-0.5,0.3-1,0.5-1.4,0.7c0,0,0,0,0,0c-0.4,0.2-0.8,0.3-1.1,0.5
			c-0.2,0.1-0.4,0.2-0.7,0.3c-0.2,0.1-0.4,0.2-0.6,0.3c-0.3,0.1-0.6,0.2-0.9,0.3c-0.1,0-0.2,0-0.3,0.1c-0.5,0.2-1,0.3-1.5,0.3
			c3.6-1.2,8.3-5.5,10.1-8.4c1.1-1.7,4.2-5.6,5-7.3c0.8-1.7,0.2-2.2,0.9-3.2c1.2-1.6,3.4-0.9,5.9-1.6c4.8-1.3,10.9-8,10.7-17
			c0.1,0.1,0.2,0.2,0.2,0.3c0.2,0.2,0.3,0.4,0.5,0.6c0.6,0.7,1.1,1.3,1.7,2c0.1,0.2,0.3,0.3,0.4,0.4c0,0,0.1,0.1,0.1,0.1
			C43.9,340.7,44,341,44.1,341.3z"/>
	</g>
	<g>
		<path class="st2" d="M106.8,222.4c0.1,11-1,20.1-2.1,26.8c-2.3,13.9-5.9,24.4-9.1,33.4c-2.2,6.4-3.3,9.6-4.5,11.7
			c-0.6,1.1-1.3,2.2-2,3.3c-5.5,8.5-13,15.7-17.6,22.2c-0.1,0.1-0.2,0.3-0.3,0.4c-1.5,2.4-2.3,3.9-5,7.9c-8.9,12.9-19.6,25-21.3,24
			h0c-0.4-0.2,0.1-0.9,0.3-2.5c0,0,0,0,0,0c0.1-0.5,0.1-1.2,0.1-2c0-0.5-0.1-1-0.1-1.4c0,0,0,0,0,0c-0.2-1.3-0.6-2.6-1-3.9v0
			c-0.3-0.7-0.6-1.3-0.9-1.9v0c-0.5-0.9-1-1.7-1.6-2.4c-0.2-0.2-0.3-0.4-0.5-0.6c-0.1-0.1-0.2-0.2-0.2-0.3c-0.1-0.1-0.2-0.2-0.3-0.3
			c-0.4-0.4-0.8-0.8-1.3-1.2c-0.3-0.2-0.5-0.4-0.7-0.6c-0.1-0.1-0.2-0.2-0.4-0.3c-0.5-0.5-1-0.9-1.3-1.1c-0.2-0.1-0.3-0.2-0.3-0.3
			c0,0-0.1,0-0.1,0c6.7-2.5,12.7-20.6,14.6-25.7c1.8-4.8,4.6-11,9.5-18c0,0,0,0,0,0v0c1.3-1.9,2.8-3.8,4.4-5.7
			c0-8.4,0.4-17.5,1.4-27.1c0.6-6.6,1.5-8.2,2.5-14.1c-3.9-9.4-4.5-17.7-2.8-26.6c0.2-1,0.4-2,0.8-2.9c0.1-0.3,0.2-0.6,0.3-0.9
			c0.3-0.7,0.6-1.3,1-1.9c0,0,0,0,0,0c0.4-0.6,0.8-1.1,1.4-1.6l5,0.4l19.1,1.5C100,214.2,104.5,219.3,106.8,222.4z"/>
		<path class="st14" d="M106.8,222.4c0.1,11-1,20.1-2.1,26.8c-2.3,13.9-5.9,24.4-9.1,33.4c-2.2,6.4-3.3,9.6-4.5,11.7
			c-0.6,1.1-1.3,2.2-2,3.3c-5.5,8.5-13,15.7-17.6,22.2c-0.1,0.1-0.2,0.3-0.3,0.4c-1.5,2.4-2.3,3.9-5,7.9c-8.9,12.9-19.6,25-21.3,24
			h0c-0.4-0.2,0.1-0.9,0.3-2.5c0,0,0,0,0,0c0.1-0.5,0.1-1.2,0.1-2c0-0.5-0.1-1-0.1-1.4c0,0,0,0,0,0c-0.2-1.3-0.6-2.6-1-3.9v0
			c-0.3-0.7-0.6-1.3-0.9-1.9v0c-0.5-0.9-1-1.7-1.6-2.4c-0.2-0.2-0.3-0.4-0.5-0.6c-0.1-0.1-0.2-0.2-0.2-0.3c-0.1-0.1-0.2-0.2-0.3-0.3
			c-0.4-0.4-0.8-0.8-1.3-1.2c-0.3-0.2-0.5-0.4-0.7-0.6c-0.1-0.1-0.2-0.2-0.4-0.3c-0.6-0.5-1.1-0.9-1.4-1.1c-0.2-0.1-0.3-0.2-0.3-0.3
			c0,0,0,0,0,0c5.5,2,11,4,16.5,6l12.2-20.3c0,0,2-2,4.6-4.9c5.8-6.4,14.9-17.3,14.1-21.5c-0.1-0.5-0.3-1-0.6-1.4
			c-2.4-3.7-10.8-5.9-13.1-7.3c-0.9-0.5-0.9-0.9,0.6-1.2c0.2,0,0.3-0.1,0.5-0.1c3.1-0.4,7.5,1.4,10.9,3.1c1.6,0.8,3.4,0.8,4.8,0
			c0.1,0,0.2-0.1,0.3-0.2c1.2-0.7,2.1-1.8,2.5-3.2c1.8-6,3.4-12.8,4.4-20.3c1.7-11.6,0.5-14.5,3.6-22c0.2-0.6,3.8-9.9,0.7-15.5
			c-1.9-3.3-5.7-4.3-13.3-6.1c-1.8-0.5-4-0.9-6.5-1.3c-1.6-0.3-3.4-0.5-5.3-0.7c-2.3-0.2-4.8-0.4-7.5-0.4c0.1-0.8,0.3-1.8,0.8-2.9
			c0.1-0.3,0.2-0.6,0.4-0.9c0.3-0.7,0.6-1.3,1-1.9c0,0,0,0,0,0c0.4-0.6,0.8-1.1,1.4-1.6l5,0.4l19.1,1.5
			C100,214.2,104.5,219.3,106.8,222.4z"/>
	</g>
	<g>
		<linearGradient id="SVGID_7_" gradientUnits="userSpaceOnUse" x1="25.9384" y1="166.8565" x2="109.0519" y2="166.8565">
			<stop  offset="0" style="stop-color:#00463D"/>
			<stop  offset="1" style="stop-color:#028878"/>
		</linearGradient>
		<path class="st15" d="M109,194.5c-0.2,11.4-1.2,21-2.2,27.9c-7.3-3.1-16.9-6.5-28.4-8.6c-2.2-0.4-4.5-0.8-6.9-1.1
			c-0.4-0.1-0.8-0.1-1.3-0.2c-0.3,0-0.7-0.1-1-0.1c-0.7-0.1-1.5-0.2-2.2-0.2c0,0,0,0,0,0c-0.1,0-0.2,0-0.3,0
			c-6.7-0.7-12.8-0.8-18.3-0.6c0,0,0,0,0,0s0,0,0,0c-1.5,0.1-3,0.2-4.5,0.3c-0.5,0-1.1,0.1-1.6,0.1c0.1-3.3,0.5-6.6,1.2-9.8
			c1-4.8,2.8-9.4,5.1-13.7c-1-1.9-2-3.8-3-5.5c0,0,0,0,0,0c-0.3-0.5-0.6-1.1-1-1.6c-1.7-2.9-3.4-5.4-4.9-7.8
			c-5.8-8.7-10.4-14-12.5-19.6c0,0,0,0,0,0v0c-0.8-2.1-1.2-4.2-1.2-6.6c-0.1-2.1,0.5-4.2,1.5-5.9c0.5-0.9,1.2-1.8,2-2.6
			c3.2-3.2,6.6-6.2,10.1-9c0.8-0.7,1.7-1.3,2.5-2c0.4-0.3,0.9-0.7,1.3-1c4.1-3.2,8.3-6.1,12.7-8.8c0.4-0.2,0.7-0.5,1.1-0.7
			c1.6-1,3.2-1.9,4.8-2.8c1.9-1.1,3.7-2.1,5.6-3c6.9,0.4,13.8,2.5,18,5c1,0.6,2,1.3,3,2c4.3,3.5,7.5,8.7,9.5,14
			c0.2,0.6,0.4,1.2,0.6,1.8c7.3,18.1,9.5,32.8,10.1,42.4C109.2,184,109,191.5,109,194.5z"/>
		<defs>
			<filter id="Adobe_OpacityMaskFilter" filterUnits="userSpaceOnUse" x="66.8" y="120.8" width="42.3" height="101.6">
				<feFlood  style="flood-color:white;flood-opacity:1" result="back"/>
				<feBlend  in="SourceGraphic" in2="back" mode="normal"/>
			</filter>
		</defs>
		<mask maskUnits="userSpaceOnUse" x="66.8" y="120.8" width="42.3" height="101.6" id="SVGID_8_">
			<g class="st16">
				<defs>
					<filter id="Adobe_OpacityMaskFilter_1_" filterUnits="userSpaceOnUse" x="66.8" y="120.8" width="42.3" height="101.6">
						<feFlood  style="flood-color:white;flood-opacity:1" result="back"/>
						<feBlend  in="SourceGraphic" in2="back" mode="normal"/>
					</filter>
				</defs>
				<mask maskUnits="userSpaceOnUse" x="66.8" y="120.8" width="42.3" height="101.6" id="SVGID_8_">
				</mask>
				<linearGradient id="SVGID_9_" gradientUnits="userSpaceOnUse" x1="66.7829" y1="171.6003" x2="109.0536" y2="171.6003">
					<stop  offset="0" style="stop-color:#FAFAFA"/>
					<stop  offset="1" style="stop-color:#FFFFFF"/>
				</linearGradient>
				<path class="st18" d="M109,194.5c-0.2,11.4-1.2,21-2.2,27.9c-9.2-3.9-22-8.2-37.6-10.1c-0.8-0.1-1.7-0.2-2.4-0.2
					c0.1-0.1,0.2-0.1,0.3-0.1c6.9-1.9,29.7,8.3,32-4.6c2.4-12.9,2.1-35.9-0.3-56.6c-1.7-15-5.7-25.4-7.8-30
					c4.4,4.9,6.6,10.8,7.5,13.3c7.3,18.1,9.5,32.8,10.1,42.4C109.2,184,109.1,191.5,109,194.5z"/>
			</g>
		</mask>
		<linearGradient id="SVGID_10_" gradientUnits="userSpaceOnUse" x1="66.7829" y1="171.6003" x2="109.0536" y2="171.6003">
			<stop  offset="0" style="stop-color:#319483"/>
			<stop  offset="1" style="stop-color:#447B9B"/>
		</linearGradient>
		<path class="st19" d="M109,194.5c-0.2,11.4-1.2,21-2.2,27.9c-9.2-3.9-22-8.2-37.6-10.1c-0.8-0.1-1.7-0.2-2.4-0.2
			c0.1-0.1,0.2-0.1,0.3-0.1c6.9-1.9,29.7,8.3,32-4.6c2.4-12.9,2.1-35.9-0.3-56.6c-1.7-15-5.7-25.4-7.8-30c4.4,4.9,6.6,10.8,7.5,13.3
			c7.3,18.1,9.5,32.8,10.1,42.4C109.2,184,109.1,191.5,109,194.5z"/>
		<defs>
			<filter id="Adobe_OpacityMaskFilter_2_" filterUnits="userSpaceOnUse" x="26" y="116.8" width="53.9" height="95.6">
				<feFlood  style="flood-color:white;flood-opacity:1" result="back"/>
				<feBlend  in="SourceGraphic" in2="back" mode="normal"/>
			</filter>
		</defs>
		<mask maskUnits="userSpaceOnUse" x="26" y="116.8" width="53.9" height="95.6" id="SVGID_11_">
			<g class="st20">
				<defs>
					<filter id="Adobe_OpacityMaskFilter_3_" filterUnits="userSpaceOnUse" x="26" y="116.8" width="53.9" height="95.6">
						<feFlood  style="flood-color:white;flood-opacity:1" result="back"/>
						<feBlend  in="SourceGraphic" in2="back" mode="normal"/>
					</filter>
				</defs>
				<mask maskUnits="userSpaceOnUse" x="26" y="116.8" width="53.9" height="95.6" id="SVGID_11_">
				</mask>
				<linearGradient id="SVGID_12_" gradientUnits="userSpaceOnUse" x1="25.9513" y1="164.6492" x2="79.8515" y2="164.6492">
					<stop  offset="0" style="stop-color:#FAFAFA"/>
					<stop  offset="1" style="stop-color:#FFFFFF"/>
				</linearGradient>
				<path class="st22" d="M70.3,212.5c-0.4-0.1-21-1.1-27.9-0.6c0.2-8.1,2.4-16.3,6.3-23.6c-12.8-23.9-22.1-28.5-22.7-40.9
					c0-3.4,1-6.2,3.5-8.6c3-3,6.4-6,10.1-9.1c9.5-1.2,14.5-4.6,17.3-7.6c2.3-2.5,4.1-5.7,5.1-5.3c1,0.4,0.6,4.4-0.6,7.1
					c-3.4,8-15.7,9.7-19.7,10.2c-1.6,0.9-8.6,4.9-9.3,11.8c-0.8,9,7.5,10.1,12.9,25.8c1,3,2,6.7,5.5,8.8c3.1,1.9,6.4,1.3,9.4,1.1
					c4.6-0.3,11.2,0.2,19.7,3.7c-7.1-1.3-12.7-0.4-15.9,0.3c-5,1.2-10.4,2.5-13.6,7.5c0,0,0,0.1-0.1,0.1c-1.5,3.2-2.7,8.3-1,11.1
					c1.1,1.8,3.1,2,6.1,2.7C59.1,207.9,64.2,209.5,70.3,212.5z"/>
			</g>
		</mask>
		<linearGradient id="SVGID_13_" gradientUnits="userSpaceOnUse" x1="25.9513" y1="164.6492" x2="79.8515" y2="164.6492">
			<stop  offset="0" style="stop-color:#319483"/>
			<stop  offset="1" style="stop-color:#447B9B"/>
		</linearGradient>
		<path class="st23" d="M70.3,212.5c-0.4-0.1-21-1.1-27.9-0.6c0.2-8.1,2.4-16.3,6.3-23.6c-12.8-23.9-22.1-28.5-22.7-40.9
			c0-3.4,1-6.2,3.5-8.6c3-3,6.4-6,10.1-9.1c9.5-1.2,14.5-4.6,17.3-7.6c2.3-2.5,4.1-5.7,5.1-5.3c1,0.4,0.6,4.4-0.6,7.1
			c-3.4,8-15.7,9.7-19.7,10.2c-1.6,0.9-8.6,4.9-9.3,11.8c-0.8,9,7.5,10.1,12.9,25.8c1,3,2,6.7,5.5,8.8c3.1,1.9,6.4,1.3,9.4,1.1
			c4.6-0.3,11.2,0.2,19.7,3.7c-7.1-1.3-12.7-0.4-15.9,0.3c-5,1.2-10.4,2.5-13.6,7.5c0,0,0,0.1-0.1,0.1c-1.5,3.2-2.7,8.3-1,11.1
			c1.1,1.8,3.1,2,6.1,2.7C59.1,207.9,64.2,209.5,70.3,212.5z"/>
	</g>
	<g>
		<path class="st8" d="M59.1,112.2c-0.1,0.5-0.3,1.1-0.5,1.6c-0.5,1.3-1,2.5-1.5,3.4c-0.7,1.2-1.2,2-1.4,2.3
			c-4.2,5.6-11.4,8.8-13.7,8.3c-0.3-0.1-0.5-0.2-0.6-0.4c-0.1-0.2-0.2-0.4-0.2-0.7c0-0.6-0.2-1.2-0.4-1.7c-1.2-2.3-4.7-3.1-6.1-3.3
			c0.8-3.5,1.7-6.9,2.6-10.4c2.2-9,4.4-17.9,6.6-26.9c0.3-1.1,0.5-2.1,0.8-3.2c1.6,0.9,3.1,1.9,4.4,3c0,0,0,0,0,0
			C58.2,91.8,61.5,103.2,59.1,112.2z"/>
		<linearGradient id="SVGID_14_" gradientUnits="userSpaceOnUse" x1="18.19" y1="103.4176" x2="57.3505" y2="103.4176">
			<stop  offset="0" style="stop-color:#280008"/>
			<stop  offset="1" style="stop-color:#4D1725"/>
		</linearGradient>
		<path class="st24" d="M57.3,112.5c0,0,0,0.7-0.2,1.8c-0.2,1-0.5,2.3-1.1,3.6c-0.1,0.2-0.2,0.5-0.3,0.7c-2.3,4.5-7.1,7.9-12.4,8.2
			c-0.7,0-1.4,0-2.1,0c-1.4-0.1-2.9-0.5-4.3-1.2c-1.3-0.6-2.5-1.4-3.7-2.5h0c-4.5-3-8.3-6.5-11.1-10.8c0,0,0,0,0,0
			c-0.2-0.3-0.3-0.5-0.5-0.8c-0.1-0.3-0.3-0.5-0.4-0.8c-0.1-0.3-0.3-0.5-0.4-0.8c-0.1-0.2-0.2-0.4-0.3-0.7c-0.2-0.3-0.3-0.6-0.4-0.9
			c-0.2-0.4-0.3-0.8-0.5-1.2c-0.1-0.4-0.3-0.7-0.4-1.1c0-0.1,0-0.1-0.1-0.2c0,0,0-0.1,0-0.1c-0.3-0.8-0.4-1.6-0.6-2.4
			c0-0.3-0.1-0.6-0.1-0.8c0-0.1,0-0.3,0-0.4c0-0.2-0.1-0.5-0.1-0.7c-0.4-4.5,0.7-8.3,1.5-10.3c0.1-0.2,0.2-0.4,0.2-0.6
			c0-0.1,0.1-0.2,0.1-0.2c0-0.1,0.1-0.2,0.1-0.2c0.1-0.1,0.1-0.2,0.2-0.3c0.1-0.2,0.2-0.3,0.2-0.4c3.5-5.9,11.2-10.5,17.1-8.9
			c2,0.5,3.1,1.6,6.1,4.1c1.7,1.4,4.1,3.2,7.8,5.7c1.2,0.8,2.2,1.5,2.9,1.9c0.2,0.2,0.7,1.3,0.8,1.6c1.9,5.1-1.9,7.9,1.7,15.4
			C57.1,109.8,57.4,111,57.3,112.5z"/>
		<linearGradient id="SVGID_15_" gradientUnits="userSpaceOnUse" x1="18.1582" y1="97.4786" x2="54.468" y2="97.4786">
			<stop  offset="0" style="stop-color:#8C203C"/>
			<stop  offset="1" style="stop-color:#7A253B"/>
		</linearGradient>
		<path class="st25" d="M54.5,92c-4.1,8-3.4,5.8-4.3,12.5c-0.2,1.5-1.3,4.2-2,5.2c-1.9,2.5-7.1,2-10.9,1.7c-2.3-0.2-4.1-0.4-4.3,0.3
			c-0.2,0.7,1.7,1.4,1.5,2.6c-0.2,0.9-1.5,1.5-2.5,1.7c-1.4,0.2-2.4-0.5-4.5-1.4c-2.2-0.9-4-1.7-5.3-2.3c0,0,0,0,0,0
			c-0.2-0.3-0.3-0.5-0.5-0.8c-0.1-0.3-0.3-0.5-0.4-0.8c-0.1-0.3-0.3-0.5-0.4-0.8c-0.1-0.2-0.2-0.4-0.3-0.7c-0.2-0.3-0.3-0.6-0.4-0.9
			c-0.2-0.4-0.3-0.8-0.5-1.2c-0.1-0.4-0.3-0.7-0.4-1.1c0-0.1,0-0.1-0.1-0.2c-0.3-0.8-0.5-1.7-0.6-2.5c0-0.3-0.1-0.6-0.1-0.8
			c0-0.1,0-0.3,0-0.4c0-0.2-0.1-0.5-0.1-0.7c-0.4-3.5,0.1-7.1,1.5-10.3c0.1-0.2,0.2-0.4,0.2-0.6c0-0.1,0.1-0.2,0.1-0.2
			c0-0.1,0.1-0.2,0.1-0.2c0.1-0.1,0.1-0.2,0.2-0.3c0.1-0.2,0.2-0.3,0.2-0.4c6.6-11.6,24-12.5,27.6-7c0.5,0.7,0.6,1.3,0.8,2
			c0,0,0,0,0,0c0.2,0.6,0.4,1.3,0.8,2.2C51.1,89.2,53,90.9,54.5,92z"/>
		<path class="st2" d="M61.9,109.2v7.6c-4.6,8-13.1,12.9-22.4,12.9l-6.4-4.2c1.4,0.1,2.7,0,3.9,0c1.4-0.1,2.7-0.3,3.9-0.5
			c2.9-0.6,5.1-1.5,6.7-2.4c2.7-1.4,5.3-3.9,9.6-8.3c0.6-0.7,1.3-1.3,2-2.1C60,111.3,60.9,110.3,61.9,109.2z"/>
	</g>
</g>
<path class="st26" d="M143.3,16.9c0,0.3,0,0.6,0,0.7c-0.1,0.7-0.4,1.3-1.3,2.8c-0.1,0.1-0.1,0.2-0.2,0.3c-0.2,0.3-0.4,0.6-0.6,0.9
	c-0.1,0.2-0.3,0.4-0.4,0.6c0,0,0,0,0,0c-0.1,0.2-0.3,0.4-0.4,0.6c-0.1,0.1-0.2,0.2-0.2,0.3c-0.1,0.2-0.2,0.3-0.3,0.5
	c-0.1,0.1-0.2,0.2-0.2,0.3c-0.1,0.2-0.2,0.3-0.4,0.5c-0.1,0.2-0.3,0.3-0.4,0.5c-0.2,0.3-0.4,0.6-0.7,0.9c-0.1,0.1-0.2,0.3-0.3,0.5
	c-0.1,0.1-0.2,0.2-0.2,0.3c-0.1,0.2-0.2,0.3-0.3,0.5c-0.7,1.1-1.4,2.5-2.1,4.2c0,0,0,0,0,0c-0.1,0.1-0.1,0.3-0.1,0.5
	c-0.8,2.7-2.5,8.2-3.8,14.3c0,0,0,0,0,0.1c-0.8,3.7-1.2,6.7-1.7,9.5v0c0,0.2-0.1,0.4-0.1,0.6c-0.3,2.5-0.9,5.1-1.7,7.6
	c0,0.1-0.1,0.2-0.1,0.3c-1,3.1-2.4,6.5-4.8,10.8c-0.1,0.2-0.2,0.4-0.3,0.6c-0.1,0.2-0.2,0.4-0.3,0.6c-0.1,0.2-0.2,0.4-0.3,0.6
	c-0.1,0.2-0.2,0.4-0.4,0.6c-0.2,0.3-0.3,0.6-0.5,0.9c-0.1,0.2-0.2,0.3-0.3,0.5c-0.2,0.4-0.4,0.8-0.6,1.1c-0.2,0.3-0.4,0.7-0.5,1.1
	c-0.1,0.2-0.1,0.3-0.2,0.5c-0.4,1-0.9,2.3-1.5,4.2c-0.1,0.2-0.1,0.4-0.2,0.7c-0.1,0.2-0.1,0.3-0.2,0.5c0,0,0,0,0,0
	c-0.7,2.4-1.7,5.5-3.2,10.1v0c0,0.3,0.1,0.6,0.1,0.9c-2.8,6.5-5.7,11.4-7.8,14.7c-3.7,5.8-5.8,7.5-7.2,12.2c-1,3.1-1.1,5.6-1.2,7.5
	c0.2,0.6,0.4,1.2,0.6,1.8c7.3,18.1,9.5,32.8,10.1,42.4c0.5,7.5,0.4,15,0.4,18c-0.2,11.4-1.2,21-2.2,27.9c0.1,11-1,20.1-2.1,26.8
	c-2.3,13.9-5.9,24.4-9.1,33.4c-2.2,6.4-3.3,9.6-4.5,11.7c-0.6,1.1-1.3,2.2-2,3.3c0.6,4.9,1.2,9.7,1.8,14.7c0.2,1.6,0.4,3.2,0.7,4.8
	c0.1,0.4,0.1,0.8,0.2,1.2c0.1,0.8,0.3,1.6,0.4,2.5c0.2,1,0.3,1.9,0.5,2.9s0.4,1.9,0.6,2.9c0.2,1,0.4,2,0.6,3
	c0.2,0.8,0.2,1.5,0.2,2.1c0,0.2,0,0.3,0,0.5c0,0.2,0,0.4-0.1,0.6c0,0.1,0,0.2-0.1,0.3c0,0.1,0,0.2-0.1,0.3c0.1,0.2,0.2,0.3,0.3,0.5
	c0.1,0.2,0.3,0.4,0.5,0.6c0.1,0.2,0.2,0.3,0.4,0.5c0.1,0.1,0.3,0.3,0.4,0.4c0.1,0.1,0.3,0.3,0.4,0.4c0.1,0.1,0.1,0.1,0.2,0.2
	c0.1,0.1,0.1,0.1,0.2,0.2c0.1,0.1,0.3,0.3,0.4,0.4c0.1,0,0.1,0.1,0.2,0.1c0.1,0.1,0.3,0.2,0.5,0.3c0.2,0.2,0.5,0.3,0.8,0.5
	c0.2,0.1,0.4,0.2,0.6,0.3c0.2,0.1,0.3,0.2,0.5,0.2c0.2,0.1,0.4,0.2,0.6,0.3c0.1,0,0.1,0,0.2,0.1c0.2,0.1,0.5,0.2,0.7,0.3
	c0.2,0.1,0.3,0.1,0.5,0.2c0.1,0,0.1,0,0.2,0.1c2.7,0.8,5,1,6.3,3.3c0.6,1.2,1.2,3.4,1.4,5.1c0,0,0,0.1,0,0.1c0.1,0.4,0.1,0.7,0.1,1
	c0,0.3-0.1,0.5-0.2,0.8c-0.2,0.5-0.5,1-0.9,1.5c-0.2,0.2-0.4,0.5-0.6,0.7c-0.2,0.2-0.4,0.4-0.7,0.6c-0.2,0.2-0.5,0.4-0.7,0.5
	c-0.1,0.1-0.3,0.2-0.4,0.3c-0.2,0.2-0.5,0.3-0.7,0.4c-0.1,0.1-0.2,0.1-0.3,0.2c-1,0.6-1.9,1-2.8,1.4c-0.9,0.4-1.7,0.7-2.6,1
	c0,0,0,0,0,0c-0.2,0.1-0.4,0.1-0.7,0.2c-0.6,0.2-1.3,0.3-2,0.4c-0.1,0-0.2,0-0.3,0c0,0,0.1,0,0.1,0c-1.5,0.2-1.7,0.3-4,0.3
	c-0.1,0-0.1,0-0.2,0c-2.1,0.1-4.5,0-7.5,0c-0.8,0-1.7,0-2.6,0c-0.9,0-1.9,0-2.9,0c-2.1-1.3-3.4-2.9-4.1-3.9
	c-0.1-0.2-0.1-0.5-0.2-0.7c-0.8-2.8-2.2-7.3-0.4-12c-0.1,0-0.3-0.1-0.4-0.1c-0.1,0-0.3-0.1-0.4-0.2c-0.3-0.1-0.5-0.3-0.7-0.5
	c-3.3-2.8,0-9.3-0.8-14.6c-0.2-1.3-0.4-2.5-0.6-3.6c-0.1-0.4-0.2-0.8-0.3-1.1c-0.1,0.1-0.2,0.3-0.3,0.4c-1.5,2.4-2.3,3.9-5,7.9
	c-8.9,12.9-19.6,25-21.3,24h0c0,0,0,0-0.1,0c-0.2,0.2-0.5,0.4-0.7,0.6c-0.2,0.1-0.4,0.3-0.7,0.5c-0.6,0.5-1.3,0.9-1.9,1.4
	c-0.2,0.2-0.4,0.3-0.7,0.5c-0.5,0.4-1,0.7-1.5,1.1c-3.2,2.3-7.2,5.1-10.4,7.1c-0.1,0-0.1,0.1-0.2,0.1c-0.4,0.3-0.8,0.5-1.1,0.7
	c0,0,0,0-0.1,0c-2.1,1.4-6,4.2-11.2,7l0,0c-0.3,0.1-0.5,0.3-0.8,0.4c-0.3,0.1-0.5,0.3-0.8,0.4c-0.5,0.3-1,0.5-1.4,0.7c0,0,0,0,0,0
	c-0.4,0.2-0.8,0.3-1.1,0.5c-0.2,0.1-0.4,0.2-0.7,0.3c-0.2,0.1-0.4,0.2-0.6,0.3c-0.3,0.1-0.6,0.2-0.9,0.3c-0.1,0-0.2,0-0.3,0.1
	c-1.1,0.3-1.6,0.4-1.6,0.4c-0.5,0.1-0.9,0.1-1.3,0.1H0v-5.9c0-6.9,10.1-20.2,15.8-20.8c2.1-0.2,2.9-1.4,2.4-3.4
	c4.1-7.5,10.1-12,14.6-11.8c1.5,0,2.8,0.3,4.1,0.8c-0.2-0.1-0.3-0.2-0.3-0.3c0,0,0,0,0,0c0,0-0.1,0-0.1,0
	c6.7-2.5,12.7-20.6,14.6-25.7c1.8-4.8,4.6-11,9.5-18v-0.1c-1.3-4.3-2.3-9.2-3-16.2c-0.6-2.4-1.3-5.1-2-7.9c-0.3,2.1-0.9,2.7-1.3,2.8
	c-1.4,0.3-2.9-3.1-4.2-2.7c-0.8,0.3-1,1.8-1,2.2c-0.2,2.8,3.3,7.6,5.2,9.7c-0.4,2.4-2.5,1.5-4.5,0.1c-3.3-2.3-5.6-6.4-6.9-9.5
	c-0.7-2-0.5-4.2,0.5-6l3.4-6.2c1.1-1.9,1.2-4.3,0.3-6.3c-15.2-35.9-14.6-33.9-14.8-36.8c-1.3-13.8-1.8-18.2-2-22c0,0,0,0,0,0
	c-1.3-3-1.7-4-2.9-7.1c-2-5.2-4.3-8.9-5.7-13.3c-3.2-10.4-0.7-20.2,5.9-29.1l0.1,0.1c0.5-0.9,1.2-1.8,2-2.6c3.2-3.2,6.6-6.2,10.1-9
	l-6.4-4.2c1.4,0.1,2.7,0,3.9,0c-1.3-0.6-2.5-1.4-3.7-2.5h0c-4.5-3-8.3-6.5-11.1-10.8c0,0,0,0,0,0c-0.2-0.3-0.3-0.5-0.5-0.8
	c-0.1-0.3-0.3-0.5-0.4-0.8c-0.1-0.3-0.3-0.5-0.4-0.8c-0.1-0.2-0.2-0.4-0.3-0.7c-0.2-0.3-0.3-0.6-0.4-0.9c-0.2-0.4-0.3-0.8-0.5-1.2
	c-0.1-0.4-0.3-0.7-0.4-1.1c0-0.1,0-0.1-0.1-0.2c0,0,0-0.1,0-0.1c-0.3-0.8-0.4-1.6-0.6-2.4c0-0.3-0.1-0.6-0.1-0.8c0-0.1,0-0.3,0-0.4
	c0-0.2-0.1-0.5-0.1-0.7c-0.4-3.4,0.1-6.8,1.4-9.9c0-0.1,0.1-0.3,0.2-0.4c0.1-0.2,0.2-0.4,0.2-0.6c0-0.1,0.1-0.2,0.1-0.2
	c0-0.1,0.1-0.2,0.1-0.2c0.1-0.1,0.1-0.2,0.2-0.3c0.1-0.2,0.2-0.3,0.2-0.4c6.6-11.6,24-12.5,27.6-7c0.5,0.7,0.6,1.3,0.8,2
	c0,0,0,0,0,0c9.2,7.5,12.5,18.8,10.1,27.9c0.9-0.9,1.8-1.9,2.8-3v5.1c1.9-1.1,3.7-2.1,5.6-3c9.1-12.7,19-15.6,29-27.4c0,0,0,0,0,0
	c0.1,0,0.2,0,0.3,0c0,0,0.1,0,0.1,0c0,0,0,0,0.1,0c1.8-2.4,3.6-5.7,4.5-9.1c1-3.9,4.4-10.5,14.4-26.2c9.6-15.1,7.6-22.1,7.5-22.7
	c0,0,0,0,0,0c-2.8-9.3-0.7-12.6,0.7-17.4c0.1-0.8,0.3-1.6,0.6-2.3c0,0,0,0,0,0c0.3-1.2,0.5-1.8,1-2.4c1.3-1.9,3.5-3,4.6-3.1h0.4
	c0.1,0,0.2,0,0.3,0.1c0,0,0.1,0.1,0.1,0.1c0.7-0.2,1.4-0.3,2.1-0.3c0.3-0.2,0.6-0.4,1-0.6c0.3-0.1,0.7-0.2,1.1-0.2
	c0.6,0,1.1,0.1,1.4,0.5c0,0.1,0.1,0.1,0.1,0.2c0.1,0.2,0.1,0.5,0,0.8c0.9,0.4,1.7,0.9,2.5,1.7c0.1,0.1,0.7,0.7,0.8,0.8
	c2.4,2.8,2.7,6.2,1.6,9.1c0.2,0.2,0.4,0.4,0.6,0.6C143.1,14.8,143.3,16.1,143.3,16.9z"/>
</svg>
