<?xml version="1.0" encoding="utf-8"?>
<!-- Generator: Adobe Illustrator 21.0.2, SVG Export Plug-In . SVG Version: 6.00 Build 0)  -->
<svg version="1.1" id="Isolation_Mode" xmlns="http://www.w3.org/2000/svg" xmlns:xlink="http://www.w3.org/1999/xlink" x="0px"
	 y="0px" viewBox="0 0 378.5 419.6" style="enable-background:new 0 0 378.5 419.6;" xml:space="preserve">
<style type="text/css">
	.st0{fill:#026AB0;}
	.st1{fill:#FFFFFF;}
	.st2{fill:url(#SVGID_1_);}
	.st3{fill:#5CCF59;}
	.st4{fill:#27A448;}
	.st5{fill:#6BF067;}
	.st6{fill:#EDE6EE;}
	.st7{fill:url(#SVGID_2_);}
	.st8{fill:url(#SVGID_3_);}
	.st9{fill:url(#SVGID_4_);}
	.st10{fill:url(#SVGID_5_);}
	.st11{fill:url(#SVGID_6_);}
	.st12{fill:url(#SVGID_7_);}
	.st13{fill:url(#SVGID_8_);}
	.st14{fill:url(#SVGID_9_);}
	.st15{fill:url(#SVGID_10_);}
	.st16{fill:url(#SVGID_11_);}
	.st17{fill:url(#SVGID_12_);}
	.st18{fill:url(#SVGID_13_);}
	.st19{fill:url(#SVGID_14_);}
	.st20{fill:url(#SVGID_15_);}
	.st21{fill:url(#SVGID_16_);}
	.st22{fill:url(#SVGID_17_);}
	.st23{fill:url(#SVGID_18_);}
	.st24{fill:url(#SVGID_19_);}
	.st25{filter:url(#Adobe_OpacityMaskFilter);}
	.st26{filter:url(#Adobe_OpacityMaskFilter_1_);}
	.st27{mask:url(#SVGID_20_);fill:url(#SVGID_21_);}
	.st28{fill:url(#SVGID_22_);}
	.st29{fill:url(#SVGID_23_);}
	.st30{fill:#00302C;}
	.st31{fill:url(#SVGID_24_);}
	.st32{fill:url(#SVGID_25_);}
	.st33{fill:url(#SVGID_26_);}
	.st34{fill:url(#SVGID_27_);}
	.st35{fill:url(#SVGID_28_);}
	.st36{fill:url(#SVGID_29_);}
	.st37{fill:url(#SVGID_30_);}
	.st38{fill:url(#SVGID_31_);}
	.st39{fill:url(#SVGID_32_);}
	.st40{fill:url(#SVGID_33_);}
	.st41{fill:url(#SVGID_34_);}
	.st42{fill:url(#SVGID_35_);}
	.st43{fill:url(#SVGID_36_);}
	.st44{filter:url(#Adobe_OpacityMaskFilter_2_);}
	.st45{filter:url(#Adobe_OpacityMaskFilter_3_);}
	.st46{mask:url(#SVGID_37_);fill:url(#SVGID_38_);}
	.st47{fill:url(#SVGID_39_);}
	.st48{fill:url(#SVGID_40_);}
	.st49{fill:#218C3E;}
	.st50{fill:#A32546;}
	.st51{fill:#AAD9F0;}
	.st52{fill:url(#SVGID_41_);}
	.st53{fill:#BF1C3C;}
	.st54{fill:url(#SVGID_42_);}
	.st55{filter:url(#Adobe_OpacityMaskFilter_4_);}
	.st56{filter:url(#Adobe_OpacityMaskFilter_5_);}
	.st57{mask:url(#SVGID_43_);fill:url(#SVGID_44_);}
	.st58{fill:url(#SVGID_45_);}
	.st59{fill:url(#SVGID_46_);}
	.st60{fill:url(#SVGID_47_);}
	.st61{fill:#FFCFCD;}
	.st62{fill:url(#SVGID_48_);}
	.st63{fill:#052440;}
</style>
<g>
	<g>
		<path class="st0" d="M93.6,377.5c4.3-0.7,12-2.6,20.7-8.6c6.8-4.7,12.7-4,19.7-4.7c9.4-0.8,7.8-5.8,8.6-12.8
			c0.3-2.9,0-6.8-0.1-7.1c0-0.4-0.1-1.3-0.1-1.5c0,0-0.2-1.3-0.2-1.3c0-0.6-0.4-2.3-0.4-2.8c-13,3-38.4,3-41.7,6.5l0,0
			c-6.2,5.5-26.7,17.2-30.8,19.2c-0.6,0.9-2.2,3.4-2.4,4.5C63.6,379.4,84.1,379.2,93.6,377.5z"/>
		<path class="st1" d="M66.9,369c2.7,6,17.9,5.8,26.6,4.3c4.3-0.7,12-2.6,20.6-8.6c12.1-8.2,23.5-0.5,28.3-9.7
			c0.1-1.1,0.1-2.3,0.3-3.7c0.3-2.9,0-6.8-0.1-7.1c0-0.4,0-0.5-0.1-1.5c0-0.1-0.1-1.2-0.2-1.3c0,0,0,0,0,0c0-1.4-0.9-5-1.8-7.2
			c-6.9,4.9-16.3,5.9-23.8-0.6c-3-2.8-8.2-4.4-13-3.3c-0.4,11.6-11.7,18.7-21.9,24c-8,4.1-10.5,4.3-12.9,7.8
			C67.2,364.6,66.9,367.2,66.9,369z"/>
		
			<linearGradient id="SVGID_1_" gradientUnits="userSpaceOnUse" x1="-3138.0547" y1="371.9803" x2="-3133.2073" y2="405.0562" gradientTransform="matrix(-0.9997 2.370000e-02 2.370000e-02 0.9997 -3032.0581 29.2131)">
			<stop  offset="0" style="stop-color:#51B6FA"/>
			<stop  offset="1" style="stop-color:#E9F5FB"/>
		</linearGradient>
		<path class="st2" d="M103.6,330.4c4.8-1.1,10,0.5,13,3.3c7.4,6.4,16.9,5.5,23.8,0.6c0.4,1,0.8,2.1,0.9,2.8
			c-4.6,6.9-11.4,8.7-19.5,8c-2.2-0.2-3.9-0.6-5.1-0.9c-3.4,4.9-24.4,22.5-35,10.2C92,349,103.2,341.9,103.6,330.4z"/>
	</g>
	<g>
		<path class="st3" d="M194.3,185.4c0,0-16.2,23.6-29.6,32.5c-6.2,4-14.6,10.6-24.6,16.7c0,0,0,0,0,0c0,0-4.1,2.5-5.3,3.1
			c14.5,42.9-7.8,57.5,6.9,95.4c-8.7,9.2-20.7,7.3-28.8,0.6c-3.2-2.6-5.1-5.1-7.1-4.4c-1.2,0.4-1.9,1.6-2.2,2.6
			c-2.9-38.7-2-61.3-7.4-84.7c-5.2-23.3-4.7-23.1-4.6-23.4c0.3-12.3,6.9-21.9,13.9-31.3c0.9-1.2,5.6-7.1,6.7-7.8
			c3-3.2,6-5.8,8.9-8.4c20.9-18.3,34.3-28.9,38.9-32.7c0,0,0,0,0,0c9,7.9,18,15.8,27.1,23.7C189.4,173.4,191.8,179.4,194.3,185.4z"
			/>
		<path class="st3" d="M141.6,333.2c-8.3,8.8-20.2,7.7-28.8,0.6c-13-34.7-10-26.7-14.9-39.5c3.2-20.5,1-6.5,10.8-69.5l30.5,10.3
			c-0.6,0.4-3.2,2-4.6,2.7C149.2,280.7,126.9,295.3,141.6,333.2z"/>
		<g>
			<path class="st4" d="M122.6,322c0.9,5.8,1.8,11.5,2.7,17.3c3.4,0.4,6.7,0,9.8-1.5c0,0,0.1-0.1,0.1-0.2c0.5-2.1-5.4-4.1-5.8-8.1
				c-0.3-3.2,3-6.2,6.7-8.7l1.4-1.3L122.6,322z"/>
			<path class="st4" d="M140.3,272.9c0,0-12.1,6.2-12.4,17c-0.1,4,0,7.6,0.1,10.6c0.2,4.8,3.7,8.7,8.5,9.5l-2.7,6.6l-13.8-0.6
				c2.2-15.7-1.4-22.8,0.5-31.6c0.8-3.5,0.7-2.9,0.7-2.9l1.1-3.8L140.3,272.9z"/>
			<path class="st4" d="M136.2,242.2c0,0-7.4,0.5-8.7,10.8c-1.3,10.3,12.3,10.3,12.3,10.3s-0.3,13-13.7,7.6
				c-13.4-5.3-9.7-25.6-9.7-25.6l8.2-5.5L136.2,242.2z"/>
			<path class="st4" d="M100.4,193.9c5.9,12,2.9,7,13.7,22.3c-0.8,5.4-0.6,14.8,4.8,17.4c0.9,0.4,1.9,0.7,3,1
				c5.3,1.2,12.7,0.8,18.1,0l0,0c10-6.1,18.3-12.6,24.6-16.7c13.4-8.9,29.6-32.5,29.6-32.5c-2.4-5.8-4.8-11.6-7-17.3
				c-0.7-1-26.6-23.5-27.5-24.3c0,0,0,0,0,0c-1.7,1.5-3.5,2.8-5.1,4.2c-0.4,2.5-0.7,7.6,1.8,17.2c3.9,14.9,9.9,21.9-5.3,35.2
				c-6.1,5.3-10.6,8.2-14.1,10.4c-5.4,3.3-12.4,1.8-16.1-3.5c-0.3-0.4-0.6-0.8-0.8-1.1c-5.4-7.4-9.9-8.2-10.8-13.2
				c-0.7-3.6,2.7-8.1,2.7-8.1C111.8,185,100.6,193.8,100.4,193.9z"/>
		</g>
	</g>
	<g>
		<path class="st5" d="M193.3,169.5c-4.8,9.7-6.5,14.6-5.3,17.9c0.8,2.3,9.8,17.3,11,19.4c27.3,45.1,31.7,71.2,48.5,87.9
			c6.1,6,12.8,10.5,12.8,10.5c6.6,3.1,12.3,6.3,17.1,9c14,8,26,15.3,39.9,30c1.7,1.8,3.5,3.7,5.5,5.8c12.2,13.1,14.6,15.5,18.1,15.1
			c1.2-0.2,3-1.4,6.8-3.8c0.3-0.2,0.6-0.4,0.9-0.6c5.7-3.8,6.7-5.8,10-6.6c4.3-1,8-0.2,9.7,0.3c-26.1-30.4-45.4-52.6-52.4-61.2
			c-6.2-7.5-13.4-13.7-22.6-18.2c-0.6-0.9-1.6-2.6-2.2-3.9c-2.6-6-17.4-51.8-36.8-114.6C192.8,167,213.7,165.5,193.3,169.5z"/>
		<path class="st3" d="M186,168.6c15.2,23.6,26.2,29.2,33.7,29.7c4.9,0.3,7.9,0,12.3,2.5c9.9,5.7,5.6,15.9,15.7,29.7
			c6.3,8.6,11.8,9.9,17.4,21.2c3.2,6.5,3.1,9.5,1.9,11.3c-1.8,2.7-5.1,1.4-13.2,3.8c-7.6,2.3-8.6,4.6-13.1,4.5
			c-4.9-0.1-8.8-3-11.3-5.4c7.5,15.6,12.3,22.7,18.2,28.6c6.1,6,12.8,10.5,12.8,10.5c6.6,3.1,12.3,6.3,17.1,9c14,8,26,15.3,39.9,30
			c7,3.8,18.5,10,31.2,16.6c5.7-3.8,6.7-5.8,10-6.6c3.5-0.8,6.2-0.4,6.2-0.4c1.5,0.1,2.7,0.4,3.5,0.7
			c-28.1-32.7-36.8-42.7-45.5-52.9c-9.7-11.7-16-19.9-29.6-26.5c-23.7-33.7-19.4-51.5-36.9-76.8c-3-4.3-6.3-8.8-11.8-13.6
			C224.4,167.3,198.2,167.6,186,168.6z"/>
		<g>
			<path class="st4" d="M317.1,312.4l14.2,11.5c0,0,24.1,24.1,33.3,29.8c0,0,0,0,0,0c2,1.2,3.3,1.6,3.5,0.7
				c-7.3-8.5-14.1-16.4-20.2-23.4c-8.5-6.6-21.8-17.2-23.4-19.8c-2-3.3-1.3-8.9-1.3-8.9c-0.9-1.2-2.5-3.3-3.5-4.6
				C319.6,298.2,317.2,311.9,317.1,312.4z"/>
			<path class="st4" d="M297.1,277.4c0.7,1.7,1.5,4.3,2,7.6c0.3,2.6,0.1,3,0.6,4.3c1.4,3.3,4.8,4.7,8.1,6.1c2.7,1.1,3.4,0.9,3.8,0.7
				c2.2-1.1,1.7-5.8,1.7-5.8l3.7,5.6c0,0-2,10.3-2.7,12.5c-0.7,2.2-17.7-7.7-17.7-7.7l-13.3-11.7l7.9-9.5L297.1,277.4z"/>
			<path class="st4" d="M186,168.6c15.7,16.9,28.2,20.4,37.2,20.1c9.2-0.3,15.8-4.8,22.6-1c5.8,3.2,5.3,9.2,9.4,21
				c7.9,22.8,21.6,34.6,26.3,53.3c1.8,7.4,1.2,11.4,1,12.5c-1.2,6.7-5.2,11.5-3.9,12.6c0.3,0.3,1.1,0.4,3.4-0.9
				c3.7-3.7,7.4-7.4,11.1-11.1c-0.7-1.3-1.6-2.5-2.2-3.9c-2.7-5.9-17.4-51.8-36.8-114.6l-58.8,14.9
				C192.2,170.6,189.1,169.6,186,168.6z"/>
		</g>
	</g>
	<g>
		<g>
			<path class="st6" d="M347.4,418.3c4.8,3.8,17.4-1.5,21.8-5.5c6.5-5.8,11.3-16.9,8.5-26.1c-0.1-0.4-8.6-27.5-8.6-28
				c-6.2-0.5-11.2-1.1-14.5-1.6c-4.8-0.7-7.7-1.2-10.7-0.7c-3.8,4-4.1,9.4-2.5,14.7C346.3,398.3,341.5,413.5,347.4,418.3z"/>
		</g>
		
			<linearGradient id="SVGID_2_" gradientUnits="userSpaceOnUse" x1="-3415.0911" y1="547.6186" x2="-3413.3796" y2="640.0259" gradientTransform="matrix(-0.9943 0.1068 0.1068 0.9943 -3103.0444 166.1834)">
			<stop  offset="0" style="stop-color:#51B6FA"/>
			<stop  offset="1" style="stop-color:#E9F5FB"/>
		</linearGradient>
		<path class="st7" d="M340.1,372.4C340.1,372.5,340.1,372.5,340.1,372.4c4.1,8,3.4,15.5,3.8,28.6c0,0,4.5-3.5,10.8-6.2
			c7-3,10.3-2.7,12.8-6.1c1.7-2.3,2-5.1,2.7-10.6c0.7-5.6,0.3-12.7-1.1-19.4c-19.2-1.6-21.9-3.7-27.7-1.6c-1.8,0.7-5.4,2-6.1,4.7
			C334.7,364,336.5,365.6,340.1,372.4z"/>
		<path class="st0" d="M377.7,386.7c2.8,9-1.8,20.2-8.5,26.1c-4.7,4.2-18.1,9.8-22.4,4.9c-1.5-1.7-2.2-4.7-2.4-6.3
			c3.8,8.1,19.1,0.8,23.5-3.2c6.1-5.4,10.5-15.3,9-23.8C377.2,385.2,377.4,385.9,377.7,386.7z"/>
	</g>
	<g>
		<g>
			
				<linearGradient id="SVGID_3_" gradientUnits="userSpaceOnUse" x1="-3366.0625" y1="547.204" x2="-3389.7317" y2="493.3633" gradientTransform="matrix(-0.9943 0.1068 0.1068 0.9943 -3103.0444 166.1834)">
				<stop  offset="0" style="stop-color:#00463D"/>
				<stop  offset="1" style="stop-color:#028878"/>
			</linearGradient>
			<path class="st8" d="M313.6,311.2c1.8,3.2,8,4,8,4c0.6-3,2.3-12.7,1.7-15.8c-0.2-1-1.5-7.5-6-8.6c-1.5-0.4-2.9-0.1-3.9,0.3
				c-0.1,0-0.1,0-0.1,0c0.4,0.6,0.9,1.2,1.4,1.8c-0.4,10.4-1.2,11.2-1.6,15.7C313,309.5,313.1,310.3,313.6,311.2z"/>
			
				<linearGradient id="SVGID_4_" gradientUnits="userSpaceOnUse" x1="-3381.5525" y1="497.9011" x2="-3385.3342" y2="498.0251" gradientTransform="matrix(-0.9943 0.1068 0.1068 0.9943 -3103.0444 166.1834)">
				<stop  offset="0" style="stop-color:#000000"/>
				<stop  offset="1" style="stop-color:#00463D"/>
			</linearGradient>
			<path class="st9" d="M313,308.5l1.2,0.5c0,0,2.2-14.3,1.3-16.4c-0.5-1-1.2-1.8-2.3-1.7c0.4,0.6,0.9,1.2,1.4,1.8
				C314.2,303.2,313.4,303.9,313,308.5z"/>
			<g>
				
					<linearGradient id="SVGID_5_" gradientUnits="userSpaceOnUse" x1="-3402.3865" y1="563.1473" x2="-3426.0334" y2="509.3573" gradientTransform="matrix(-0.9943 0.1068 0.1068 0.9943 -3103.0444 166.1834)">
					<stop  offset="0" style="stop-color:#00463D"/>
					<stop  offset="1" style="stop-color:#028878"/>
				</linearGradient>
				<path class="st10" d="M343.4,333.5l8.8,8.5c0.7-1.6,1.5-2.8,1.7-4.4c0.4-4.2-4.5-8.3-8.7-9.2c0.1,0.2,0.5,0.7,0.5,1
					C346.5,331.2,345.1,333.3,343.4,333.5z"/>
				
					<linearGradient id="SVGID_6_" gradientUnits="userSpaceOnUse" x1="-3410.1667" y1="532.5526" x2="-3412.7422" y2="532.637" gradientTransform="matrix(-0.9943 0.1068 0.1068 0.9943 -3103.0444 166.1834)">
					<stop  offset="0" style="stop-color:#000000"/>
					<stop  offset="1" style="stop-color:#00463D"/>
				</linearGradient>
				<path class="st11" d="M343.9,333.4c0.2,0.3,0.9,1,1.1,1.1c1-1,1.6-2.3,1.8-3.3c0.2-1.4-0.2-2.3-1.6-2.8c0.1,0.2,0.5,0.7,0.5,1
					C346.3,330.8,345.6,332.7,343.9,333.4z"/>
			</g>
			<g>
				
					<linearGradient id="SVGID_7_" gradientUnits="userSpaceOnUse" x1="-3336.9082" y1="534.3881" x2="-3360.5774" y2="480.5472" gradientTransform="matrix(-0.9943 0.1068 0.1068 0.9943 -3103.0444 166.1834)">
					<stop  offset="0" style="stop-color:#00463D"/>
					<stop  offset="1" style="stop-color:#028878"/>
				</linearGradient>
				<path class="st12" d="M297.1,278.1c-0.2,3.2-1.6,17.3-4.4,18.9c-3.5,1.9-10.7-5.8-12-7.2c4.4-6.9,7.2-14.6,8.4-22.7
					c2.5,0.8,2.9,2.2,3.6,4.8c0.3,1.1,0.5,2,0.7,2.7c0.9,0.5,3.4,1.8,3.7,2.7C297.1,277.5,297.1,277.8,297.1,278.1z"/>
				
					<linearGradient id="SVGID_8_" gradientUnits="userSpaceOnUse" x1="-3356.9609" y1="471.5162" x2="-3359.0188" y2="471.5837" gradientTransform="matrix(-0.9943 0.1068 0.1068 0.9943 -3103.0444 166.1834)">
					<stop  offset="0" style="stop-color:#000000"/>
					<stop  offset="1" style="stop-color:#00463D"/>
				</linearGradient>
				<path class="st13" d="M289,267c-3.8,11.4-5.7,15.7-6.7,17c-1.2,1.7-1,2.3,1,1.7C286.2,280.1,288.3,273.8,289,267z"/>
			</g>
		</g>
		<g>
			
				<linearGradient id="SVGID_9_" gradientUnits="userSpaceOnUse" x1="-3344.637" y1="548.5602" x2="-3390.5056" y2="472.3719" gradientTransform="matrix(-0.9943 0.1068 0.1068 0.9943 -3103.0444 166.1834)">
				<stop  offset="0" style="stop-color:#000000"/>
				<stop  offset="1" style="stop-color:#00463D"/>
			</linearGradient>
			<path class="st14" d="M216.6,300c0,0.1,0.1,0.2,0.1,0.2c0.4,1,1.5,1.5,3.1,1.9c0,0,4,1.1,6.9,2.2c1.9,0.7,92.7,53.5,102.3,60.4
				c5,3.5,11.3,8.2,13.6,6.5c1-0.8,0.3-2.3,1.7-4.2c0,0,0,0,0-0.1c1.3-2.1,4.1-2.8,6.4-3.3c3.4-0.6,6.1-0.1,8.4,0.6
				c1.4,0.4,2.6,0.8,3.7,0.9c3.9,0.8,5.8-1.9,6.4-5.8c-0.3-3.1-1.3-5.5-4.1-8.1c-61.3-55-61.9-53-79.5-64.4
				c-19.1-12.4-40.8-11.5-55.5-2.4c0,0,0,0-0.1,0.1l0,0c-6.6,4-12,9.1-13.2,12.9C216.4,298.3,216.3,299.2,216.6,300z"/>
			<g>
				
					<linearGradient id="SVGID_10_" gradientUnits="userSpaceOnUse" x1="-3332.3074" y1="543.7739" x2="-3353.6401" y2="518.7989" gradientTransform="matrix(-0.9943 0.1068 0.1068 0.9943 -3103.0444 166.1834)">
					<stop  offset="0" style="stop-color:#000000"/>
					<stop  offset="1" style="stop-color:#00463D"/>
				</linearGradient>
				<path class="st15" d="M216.6,300c0,0.1,0.1,0.2,0.1,0.2c5.7,3.6,2.5,1.2,10,4.2c2.8,1.1,94,54.4,102.3,60.4
					c5,3.5,11.3,8.2,13.6,6.5c1-0.8,0.3-2.3,1.7-4.2c-121.2-73.3-111.5-68.1-117.9-69.7c-3.2-0.9-6.4-0.9-9.8,0
					C216.7,298.2,216.6,299.1,216.6,300z"/>
				
					<linearGradient id="SVGID_11_" gradientUnits="userSpaceOnUse" x1="-3301.2007" y1="565.3324" x2="-3407.3342" y2="484.6917" gradientTransform="matrix(-0.9943 0.1068 0.1068 0.9943 -3103.0444 166.1834)">
					<stop  offset="0" style="stop-color:#00463D"/>
					<stop  offset="1" style="stop-color:#028878"/>
				</linearGradient>
				<path class="st16" d="M221.8,291.4c0.1,2.3,1.6,3.8,3.8,4.4c11.9,3.4-0.4-0.9,119.7,70.1c2-1.8,7.2-3.6,13.9-1.7
					c-0.1-0.1-0.2-0.2-0.3-0.3c-122.5-74.2-118.7-72.4-123-73.5C230.4,289,225.9,289.7,221.8,291.4z"/>
				
					<linearGradient id="SVGID_12_" gradientUnits="userSpaceOnUse" x1="-3386.2166" y1="488.3875" x2="-3403.1201" y2="462.6422" gradientTransform="matrix(-0.9943 0.1068 0.1068 0.9943 -3103.0444 166.1834)">
					<stop  offset="0" style="stop-color:#028878"/>
					<stop  offset="1" style="stop-color:#159A8B"/>
				</linearGradient>
				<path class="st17" d="M230,284.4c-1,1.6-1.9,3.2-2.9,4.8c4.2-1.3,8.9-1,13,1.4c41.3,25.2,82.2,50.1,122.7,74.5
					c1.4,0.3,2.5,0.2,3.7-0.5c1.9-1.3,3-4.4,2.5-6.5l0,0c-118.6-71.9-120.8-73.5-125.1-74.7C239.2,282.1,234.4,282.5,230,284.4z"/>
				
					<linearGradient id="SVGID_13_" gradientUnits="userSpaceOnUse" x1="-3354.7219" y1="545.6794" x2="-3395.0352" y2="465.5735" gradientTransform="matrix(-0.9943 0.1068 0.1068 0.9943 -3103.0444 166.1834)">
					<stop  offset="0" style="stop-color:#028878"/>
					<stop  offset="1" style="stop-color:#159A8B"/>
				</linearGradient>
				<path class="st18" d="M237.6,281c11.2,0,0.8-1.4,130.7,74.4c-0.7-1.6-1.8-3-3.2-4.3c-10.3-9.3-18.9-16.9-26.1-23.3
					c-49.7-30.1-69.8-42.4-78.5-47.5c-3.6-2.1-7.8-3.1-11.9-2.5C244.1,278.6,240.4,279.8,237.6,281z"/>
				<linearGradient id="SVGID_14_" gradientUnits="userSpaceOnUse" x1="365.6335" y1="366.658" x2="262.9827" y2="269.3297">
					<stop  offset="0" style="stop-color:#028878"/>
					<stop  offset="1" style="stop-color:#159A8B"/>
				</linearGradient>
				<path class="st19" d="M258,277.6c23,14.1,52.1,31.9,76.1,46c-31-27.1-33.8-27.4-48.5-36.9c-6-3.9-8.9-5.2-12-6.1
					C271.2,279.9,265.4,278,258,277.6z"/>
			</g>
			
				<linearGradient id="SVGID_15_" gradientUnits="userSpaceOnUse" x1="-3320.0222" y1="488.2184" x2="-3313.4326" y2="510.7613" gradientTransform="matrix(-0.9943 0.1068 0.1068 0.9943 -3103.0444 166.1834)">
				<stop  offset="0" style="stop-color:#028878"/>
				<stop  offset="1" style="stop-color:#159A8B"/>
			</linearGradient>
			<path class="st20" d="M216.6,300c0.4,1.2,1.6,1.7,3.5,2.2c2.6-4.1,8.7-12.4,19.5-17.9c14.9-7.6,31.2-4.1,45.6,2.4
				c0.1,0.1,0.2,0.1,0.3,0.1c-6-3.9-8.9-5.1-12-6.1c-4.3-1.4-20.6-6.5-37.3,0.5C225.3,285.8,214.9,295.4,216.6,300z"/>
			<g>
				
					<linearGradient id="SVGID_16_" gradientUnits="userSpaceOnUse" x1="-3325.2429" y1="536.9262" x2="-3371.2803" y2="460.4573" gradientTransform="matrix(-0.9943 0.1068 0.1068 0.9943 -3103.0444 166.1834)">
					<stop  offset="0" style="stop-color:#000000"/>
					<stop  offset="1" style="stop-color:#00463D"/>
				</linearGradient>
				<path class="st21" d="M248.8,317c3.2,1.9,28.3,16.5,32.5,19c10.2-8.9,19-21.3,24.5-35.7c-0.5-0.4-1-0.7-1.5-1.1
					c-7-5.1-11.3-7.5-18.8-12.4c-6-3.9-8.9-5.2-12-6.1C267.3,294.5,258.1,307.5,248.8,317z"/>
				<g>
					
						<linearGradient id="SVGID_17_" gradientUnits="userSpaceOnUse" x1="-3301.9214" y1="531.1259" x2="-3352.6423" y2="479.1046" gradientTransform="matrix(-0.9943 0.1068 0.1068 0.9943 -3103.0444 166.1834)">
						<stop  offset="0" style="stop-color:#00463D"/>
						<stop  offset="1" style="stop-color:#028878"/>
					</linearGradient>
					<path class="st22" d="M272.2,287.3c-5.9,11.8-13.9,22.7-22,30.6c0,0.4-0.1,3.6,2.2,5.2c2.1,1.4,4.8,1.4,7.1,0.1
						c11-10.7,19.4-23.7,24.7-37.5c-2.4-2.7-5.7-4.3-9.2-4.6C274.1,283.1,273.1,285.2,272.2,287.3z"/>
					
						<linearGradient id="SVGID_18_" gradientUnits="userSpaceOnUse" x1="-3310.4863" y1="539.4757" x2="-3361.2061" y2="487.4554" gradientTransform="matrix(-0.9943 0.1068 0.1068 0.9943 -3103.0444 166.1834)">
						<stop  offset="0" style="stop-color:#00463D"/>
						<stop  offset="1" style="stop-color:#028878"/>
					</linearGradient>
					<path class="st23" d="M260.6,323.8c0,0.4,0.2,3.1,2.6,4.7c2.1,1.4,4.5,2.2,6.8,0.9c10-9.8,19.2-23.2,24.4-36.7
						c-0.8-0.9-1.9-3.6-4.2-4.7c-1.8-0.8-3.4-1-4.5-1.1C279.7,300.1,272.8,311.9,260.6,323.8z"/>
					
						<linearGradient id="SVGID_19_" gradientUnits="userSpaceOnUse" x1="-3318.9355" y1="547.7228" x2="-3369.6602" y2="495.6978" gradientTransform="matrix(-0.9943 0.1068 0.1068 0.9943 -3103.0444 166.1834)">
						<stop  offset="0" style="stop-color:#00463D"/>
						<stop  offset="1" style="stop-color:#028878"/>
					</linearGradient>
					<path class="st24" d="M293.7,298.3c-5.8,11.7-13.6,22.3-22.9,31.5c0.5,4.4,5.4,7.5,9.2,5.3c12.9-12.6,19.8-24,24.4-35.9
						c-0.8-0.9-1.9-3.6-4.2-4.7c-1.8-0.8-3.4-1-4.5-1.1C294.7,295.5,294.6,296.2,293.7,298.3z"/>
				</g>
			</g>
		</g>
		<defs>
			<filter id="Adobe_OpacityMaskFilter" filterUnits="userSpaceOnUse" x="250.2" y="317.9" width="116.3" height="53.7">
				<feFlood  style="flood-color:white;flood-opacity:1" result="back"/>
				<feBlend  in="SourceGraphic" in2="back" mode="normal"/>
			</filter>
		</defs>
		<mask maskUnits="userSpaceOnUse" x="250.2" y="317.9" width="116.3" height="53.7" id="SVGID_20_">
			<g class="st25">
				<defs>
					<filter id="Adobe_OpacityMaskFilter_1_" filterUnits="userSpaceOnUse" x="250.2" y="317.9" width="116.3" height="53.7">
						<feFlood  style="flood-color:white;flood-opacity:1" result="back"/>
						<feBlend  in="SourceGraphic" in2="back" mode="normal"/>
					</filter>
				</defs>
				<mask maskUnits="userSpaceOnUse" x="250.2" y="317.9" width="116.3" height="53.7" id="SVGID_20_">
				</mask>
				
					<linearGradient id="SVGID_21_" gradientUnits="userSpaceOnUse" x1="-3344.2686" y1="569.0096" x2="-3381.0684" y2="529.9659" gradientTransform="matrix(-0.9943 0.1068 0.1068 0.9943 -3103.0444 166.1834)">
					<stop  offset="0" style="stop-color:#FAFAFA"/>
					<stop  offset="1" style="stop-color:#FFFFFF"/>
				</linearGradient>
				<path class="st27" d="M252.4,323.1c2.1,1.4,4.8,1.5,7.1,0.1c0.4,0.2,0.8,0.5,1.1,0.7c0.1,0.5,0.2,3.1,2.6,4.7
					c2,1.4,4.5,2.2,6.8,0.9l0,0c0.5,0.3,0.8,0.5,0.8,0.5c0.5,4.5,5.4,7.5,9.1,5.3c4.6,2.9,37.7,22,49.2,29.7
					c5,3.5,11.3,8.2,13.6,6.5c1-0.8,0.3-2.3,1.7-4.2c0,0,0,0,0-0.1c1.3-2.1,4.1-2.8,6.4-3.3c3.4-0.6,6.1-0.1,8.4,0.6
					c2.5,0.6,5.2,1.8,7.3,0.4c-11.4-4.6-116.3-46.7-116.3-46.7C250.3,318.3,250.1,321.5,252.4,323.1z"/>
			</g>
		</mask>
		
			<linearGradient id="SVGID_22_" gradientUnits="userSpaceOnUse" x1="-3344.2686" y1="569.0096" x2="-3381.0684" y2="529.9659" gradientTransform="matrix(-0.9943 0.1068 0.1068 0.9943 -3103.0444 166.1834)">
			<stop  offset="0" style="stop-color:#319483"/>
			<stop  offset="1" style="stop-color:#447B9B"/>
		</linearGradient>
		<path class="st28" d="M252.4,323.1c2.1,1.4,4.8,1.5,7.1,0.1c0.4,0.2,0.8,0.5,1.1,0.7c0.1,0.5,0.2,3.1,2.6,4.7
			c2,1.4,4.5,2.2,6.8,0.9l0,0c0.5,0.3,0.8,0.5,0.8,0.5c0.5,4.5,5.4,7.5,9.1,5.3c4.6,2.9,37.7,22,49.2,29.7c5,3.5,11.3,8.2,13.6,6.5
			c1-0.8,0.3-2.3,1.7-4.2c0,0,0,0,0-0.1c1.3-2.1,4.1-2.8,6.4-3.3c3.4-0.6,6.1-0.1,8.4,0.6c2.5,0.6,5.2,1.8,7.3,0.4
			c-11.4-4.6-116.3-46.7-116.3-46.7C250.3,318.3,250.1,321.5,252.4,323.1z"/>
		
			<linearGradient id="SVGID_23_" gradientUnits="userSpaceOnUse" x1="-3431.6528" y1="560.7424" x2="-3391.4316" y2="560.7424" gradientTransform="matrix(-0.9943 0.1068 0.1068 0.9943 -3103.0444 166.1834)">
			<stop  offset="0" style="stop-color:#000000"/>
			<stop  offset="1" style="stop-color:#00463D"/>
		</linearGradient>
		<path class="st29" d="M360.4,363.4c-1.1-0.2-2.3-0.6-3.7-0.9c-6.7-1.9-11.9-0.1-13.9,1.7c-0.7,0.6-0.9,1.1-0.9,1.1
			c-1.3,1.9-0.6,3.4-1.7,4.2c-1.9,1.5-6.6-1.6-11-4.6c4.9,3.4,11.2,8.1,13.4,6.3c1-0.8,0.3-2.3,1.7-4.2c0,0,0,0,0-0.1
			c1.3-2.1,4.1-2.8,6.4-3.3c3.4-0.6,6.1-0.1,8.4,0.6c1.4,0.4,2.6,0.8,3.7,0.9c5.3,1,7.6-4.8,5.4-9.7c-1.4-3.1-5.5-6.6-8.2-8.7
			C370,354,367.4,364.7,360.4,363.4z"/>
	</g>
	<g>
		<g>
			<path class="st30" d="M137.8,315.5c-0.2,2.1-1.6,3.9-3.5,4.6c-4.4,1.8-13.8,5.1-19.4,3.3c-7.6-2.4-4.6-10.2-4.6-10.2
				c8.9,1.2,17.9,0,26.2-3.3c0-0.3,0-0.6,0-0.8c1.1,0.2,1.8,1.3,1.1,2.2c0,0.3,0,0.7,0.1,1.2C137.8,314.5,137.9,315.3,137.8,315.5z"
				/>
			
				<linearGradient id="SVGID_24_" gradientUnits="userSpaceOnUse" x1="-3143.1379" y1="363.4736" x2="-3160.5308" y2="364.0438" gradientTransform="matrix(-0.9997 2.370000e-02 2.370000e-02 0.9997 -3032.0581 29.2131)">
				<stop  offset="0" style="stop-color:#00463D"/>
				<stop  offset="1" style="stop-color:#028878"/>
			</linearGradient>
			<path class="st31" d="M137.6,319.5c-5.9,4.8-15.2,7.7-22.5,5.5c-5.9-1.8-7.6-10.4-1.9-9.9c11,0.8,21.6-2.3,24.7-4.5
				c0.2,1.2,0.3,2.2,0.4,2.9C138.3,315.5,138,317.7,137.6,319.5z"/>
		</g>
		<g>
			<path class="st30" d="M141.1,268.8c-0.2,2.1-1.6,3.9-3.5,4.6c-4.4,1.8-13.8,5.1-19.4,3.3c-7.6-2.4-4.6-10.2-4.6-10.2
				c8.9,1.2,17.9,0,26.2-3.3c0-0.3,0-0.6,0-0.8c1.1,0.2,1.8,1.3,1.1,2.2C141,265.7,141.1,268.8,141.1,268.8z"/>
			
				<linearGradient id="SVGID_25_" gradientUnits="userSpaceOnUse" x1="-3144.6741" y1="316.6949" x2="-3162.0669" y2="317.2652" gradientTransform="matrix(-0.9997 2.370000e-02 2.370000e-02 0.9997 -3032.0581 29.2131)">
				<stop  offset="0" style="stop-color:#00463D"/>
				<stop  offset="1" style="stop-color:#028878"/>
			</linearGradient>
			<path class="st32" d="M140.9,272.8c-5.9,4.8-15.2,7.7-22.5,5.5c-5.9-1.8-7.6-10.4-1.9-9.9c11,0.8,21.6-2.3,24.7-4.5
				c0.2,1.2,0.3,2.2,0.4,2.9C141.6,268.7,141.4,270.9,140.9,272.8z"/>
		</g>
		<g>
			<path class="st30" d="M133.3,240.9c-0.5,0.6-0.7,0.8-1,1.1c-3.8,3.4-13.2,2-19.6-2.1c-6.7-4.4-1.7-11.1-1.7-11.1
				c6.8,3.7,13.8,5.9,29.1,5.9C137.7,236.7,135.2,238.7,133.3,240.9z"/>
			
				<linearGradient id="SVGID_26_" gradientUnits="userSpaceOnUse" x1="-3145.7822" y1="282.9635" x2="-3163.1763" y2="283.5338" gradientTransform="matrix(-0.9997 2.370000e-02 2.370000e-02 0.9997 -3032.0581 29.2131)">
				<stop  offset="0" style="stop-color:#00463D"/>
				<stop  offset="1" style="stop-color:#028878"/>
			</linearGradient>
			<path class="st33" d="M136.3,239.1c-0.1,0.4-0.2,0.9,0,1.5c0.2,0.4,0.4,0.6,0.3,1c0,0.3-0.3,0.5-0.5,0.6
				c-2.5,1.1-4.8,1.5-7.4,1.6c-8.6,0.4-13.3,0.5-16.3-2.6c-3.3-3.5-3-9.4-1.8-10.1c0.9-0.4,1.9-0.3,2.8,0c1.3,0.2,2.2,0.6,2.9,1
				c0.9,0.5,1.4,0.9,2.5,1.3c3.8,1.4,12.9,2.4,21.2,1c-0.3,1-0.8,1.4-1.6,2C137.4,237.4,136.5,238.1,136.3,239.1z"/>
		</g>
		<g>
			
				<linearGradient id="SVGID_27_" gradientUnits="userSpaceOnUse" x1="-3131.9746" y1="241.1807" x2="-3124.8442" y2="211.2336" gradientTransform="matrix(-0.9997 2.370000e-02 2.370000e-02 0.9997 -3032.0581 29.2131)">
				<stop  offset="0" style="stop-color:#000000"/>
				<stop  offset="1" style="stop-color:#00463D"/>
			</linearGradient>
			<path class="st34" d="M90.7,182c7.3-3.2,15.4-1.8,21.2,2.9c-3.2,3.4-6.2,7.1-9.1,11.1C98.8,191.4,94.8,186.7,90.7,182z"/>
			<g>
				
					<linearGradient id="SVGID_28_" gradientUnits="userSpaceOnUse" x1="-3113.9214" y1="302.358" x2="-3146.0447" y2="310.1512" gradientTransform="matrix(-0.9997 2.370000e-02 2.370000e-02 0.9997 -3032.0581 29.2131)">
					<stop  offset="0" style="stop-color:#000000"/>
					<stop  offset="1" style="stop-color:#00463D"/>
				</linearGradient>
				<path class="st35" d="M89.5,224.5c0.1,1.9,8.6,107.1,10.2,108.2c1,0.9,2.4,1.1,3.4,1.1c0.2-1.5,1.4-3.5,2.9-3.6
					c1.6-0.2,3.3,1.2,4.2,2.1c3.4,2.9,2.8,5.6,5,7.6c1.9,1.8,4.9,2,7.6,1.7c1.6-0.2,2.8-1.6,2.8-3.3c-1.8-44.7-3.1-76.4-3.2-76.4
					c0-1.7-1-24.7-1.1-30.8c-0.1-7.1-0.4-9-0.4-9c-2.9-21.5-11.7-18.7-20.5-26.7c-0.6-0.4-1.1-1-1.7-1.6c-2.6-2.5-6.4-7.6-9.1-13.2
					C88.2,194.2,89.4,220,89.5,224.5z"/>
			</g>
			<g>
				
					<linearGradient id="SVGID_29_" gradientUnits="userSpaceOnUse" x1="-3113.7366" y1="370.2369" x2="-3153.0879" y2="298.3781" gradientTransform="matrix(-0.9997 2.370000e-02 2.370000e-02 0.9997 -3032.0581 29.2131)">
					<stop  offset="0" style="stop-color:#028878"/>
					<stop  offset="1" style="stop-color:#159A8B"/>
				</linearGradient>
				<path class="st36" d="M110.2,201.9c2.1,72.1,6.5,134.6,6.9,139.2c0.1,0,0.2,0,0.2,0.1c1.5,0.7,5.2,0.8,6.3,0.4
					c0.9-0.3,1.5-1,1.8-1.8c0.3-0.4,0.3-0.9,0.2-1.3c0-0.1-3.1-76.4-3.2-76.4c-0.2-7.9-1.6-39.8-1.6-39.8
					C119.1,209.2,114.8,204.7,110.2,201.9z"/>
				
					<linearGradient id="SVGID_30_" gradientUnits="userSpaceOnUse" x1="-3177.3367" y1="249.214" x2="-3163.6492" y2="269.175" gradientTransform="matrix(-0.9997 2.370000e-02 2.370000e-02 0.9997 -3032.0581 29.2131)">
					<stop  offset="0" style="stop-color:#00463D"/>
					<stop  offset="1" style="stop-color:#028878"/>
				</linearGradient>
				<path class="st37" d="M99.3,195.6c0.5,43.6,2.5,68.1,6.7,134.6c2.2,0.4,3.4,1.4,4.2,2.1c3.4,2.9,2.8,5.6,5,7.6
					c0.3,0.3,0.6,0.5,0.9,0.7c-5.2-84.7-6.6-101.7-6.9-139.2c-3.2-1.6-6.3-3.5-9-5.9L99.3,195.6z"/>
				
					<linearGradient id="SVGID_31_" gradientUnits="userSpaceOnUse" x1="-3087.3022" y1="131.877" x2="-3107.8328" y2="228.2557" gradientTransform="matrix(-0.9997 2.370000e-02 2.370000e-02 0.9997 -3032.0581 29.2131)">
					<stop  offset="0" style="stop-color:#000000"/>
					<stop  offset="1" style="stop-color:#00463D"/>
				</linearGradient>
				<path class="st38" d="M89.5,224.5c0.2,3.5,8.5,105,10.2,108.2c1,0.9,2.4,1.1,3.4,1.1c0-0.4,0.6-2.8,2.4-3.5
					c-4-44.1-6.3-87.1-6.8-136.4c-2.6-2.5-6.4-7.6-9.1-13.2C88.8,188.7,88.8,210.5,89.5,224.5z"/>
			</g>
			
				<linearGradient id="SVGID_32_" gradientUnits="userSpaceOnUse" x1="-3149.9988" y1="268.0514" x2="-3118.9124" y2="209.0156" gradientTransform="matrix(-0.9997 2.370000e-02 2.370000e-02 0.9997 -3032.0581 29.2131)">
				<stop  offset="0" style="stop-color:#028878"/>
				<stop  offset="1" style="stop-color:#159A8B"/>
			</linearGradient>
			<path class="st39" d="M112,184.9c-15.6-4.5-18.5-3.5-19-2.4c-1.2,2.4,7.2,9.5,14.6,15.9c6.6,5.6,8.1,6,10.1,9.5
				c4.3,7.3,3.9,16.5,3.9,24.4c0,16.7,0.1,7.4-0.9-2c-2.3-20.8-3.6-20.1-13.2-28.1c-7.6-6.3-9.1-7.1-11.6-10
				c-2.2-2.4-7.6-8.6-6.1-11.4c1-1.9,6-2.9,24.2,2.3C113.3,183.7,112.5,184.3,112,184.9z"/>
		</g>
		<g>
			
				<linearGradient id="SVGID_33_" gradientUnits="userSpaceOnUse" x1="-3119.4761" y1="279.4602" x2="-3151.6013" y2="287.2539" gradientTransform="matrix(-0.9997 2.370000e-02 2.370000e-02 0.9997 -3032.0581 29.2131)">
				<stop  offset="0" style="stop-color:#000000"/>
				<stop  offset="1" style="stop-color:#00463D"/>
			</linearGradient>
			<path class="st40" d="M88.7,216.8c0.1-0.6,0.3-1,0.4-1.2c0,0,3.4,3.4,10.9,7.3c7.4,3.9,21.5,5.1,21.5,5.1c0.6,1.1-2.5,6.1,0,7.1
				c0.3,8.5,0.4,10.2,0.7,16.5c-3.1,1-0.5,1.9,0,1.5c0,0.8,0.1,0.7,0.1,1.5c-1.6,1.4-8,1.4-10.1,1.4c-7.9-0.3-16.2-2.6-20.5-4.8
				c-2.5-29.9-2-23.5-2.4-32.4C88.9,218.2,88.6,217.5,88.7,216.8z"/>
			
				<linearGradient id="SVGID_34_" gradientUnits="userSpaceOnUse" x1="-3074.7161" y1="276.1439" x2="-3133.1755" y2="293.254" gradientTransform="matrix(-0.9997 2.370000e-02 2.370000e-02 0.9997 -3032.0581 29.2131)">
				<stop  offset="0" style="stop-color:#00463D"/>
				<stop  offset="1" style="stop-color:#028878"/>
			</linearGradient>
			<path class="st41" d="M90.7,238.5c-5.6,3.6-3.1,9.7,2.6,12c8.9,3.6,17.9,4.6,25,3.8c3-0.3,3.9-0.9,4.4-1.5
				c0.2-0.2,0.3-0.4,0.4-0.8c1.3-2.7,0.7-4.9-1.2-6.4c0,0.3,0,0.6,0,0.9c-10.9,2.1-23.2-1.2-31.1-6.9
				C90.7,239.2,90.7,238.9,90.7,238.5z"/>
			
				<linearGradient id="SVGID_35_" gradientUnits="userSpaceOnUse" x1="-3077.4224" y1="266.9066" x2="-3135.8806" y2="284.0164" gradientTransform="matrix(-0.9997 2.370000e-02 2.370000e-02 0.9997 -3032.0581 29.2131)">
				<stop  offset="0" style="stop-color:#00463D"/>
				<stop  offset="1" style="stop-color:#028878"/>
			</linearGradient>
			<path class="st42" d="M89.7,227.2c-5.7,3.2-3.1,9.5,2.7,12.2c9,4.3,18.3,6.1,25.5,5.9c3.1-0.1,3.9-0.6,4.5-1.2
				c0.2-0.2,0.3-0.4,0.5-0.8c1.3-2.6,0.7-4.8-1.2-6.5c0,0.3,0,0.6,0,0.9c-11.3,0.6-23-2.3-31.8-9.5C89.7,228,89.7,227.6,89.7,227.2z
				"/>
			
				<linearGradient id="SVGID_36_" gradientUnits="userSpaceOnUse" x1="-3080.2634" y1="257.2165" x2="-3138.7183" y2="274.3253" gradientTransform="matrix(-0.9997 2.370000e-02 2.370000e-02 0.9997 -3032.0581 29.2131)">
				<stop  offset="0" style="stop-color:#00463D"/>
				<stop  offset="1" style="stop-color:#028878"/>
			</linearGradient>
			<path class="st43" d="M89.1,215.7c-0.3,0.1-3.3,1.5-3.3,4.6c0,5.4,12.7,15.4,31.9,16.1c2.8,0.1,3.9-0.1,4.5-0.8
				c0.2-0.2,0.3-0.4,0.5-0.7c1.3-2.5,0.7-4.8-1.3-6.7c0,0.3,0,0.6,0,0.9c-18.3-2.1-27-7.3-32.3-12.2
				C89.2,216.4,89.1,216.1,89.1,215.7z"/>
		</g>
		<defs>
			<filter id="Adobe_OpacityMaskFilter_2_" filterUnits="userSpaceOnUse" x="94.8" y="287.2" width="30.6" height="54.6">
				<feFlood  style="flood-color:white;flood-opacity:1" result="back"/>
				<feBlend  in="SourceGraphic" in2="back" mode="normal"/>
			</filter>
		</defs>
		<mask maskUnits="userSpaceOnUse" x="94.8" y="287.2" width="30.6" height="54.6" id="SVGID_37_">
			<g class="st44">
				<defs>
					<filter id="Adobe_OpacityMaskFilter_3_" filterUnits="userSpaceOnUse" x="94.8" y="287.2" width="30.6" height="54.6">
						<feFlood  style="flood-color:white;flood-opacity:1" result="back"/>
						<feBlend  in="SourceGraphic" in2="back" mode="normal"/>
					</filter>
				</defs>
				<mask maskUnits="userSpaceOnUse" x="94.8" y="287.2" width="30.6" height="54.6" id="SVGID_37_">
				</mask>
				
					<linearGradient id="SVGID_38_" gradientUnits="userSpaceOnUse" x1="-3120.9292" y1="373.9365" x2="-3130.0549" y2="363.8603" gradientTransform="matrix(-0.9997 2.370000e-02 2.370000e-02 0.9997 -3032.0581 29.2131)">
					<stop  offset="0" style="stop-color:#FAFAFA"/>
					<stop  offset="1" style="stop-color:#FFFFFF"/>
				</linearGradient>
				<path class="st46" d="M94.8,287.2c4.3,47.1,4.5,45.1,4.5,45.1c0.9,1.2,2.3,1.5,3.8,1.5c0.1-1.5,1.4-3.5,2.9-3.6
					c1.6,0.3,3,0.9,4.2,2.1c3.4,2.9,2.8,5.6,5,7.6c1.9,1.8,4.9,2,7.6,1.7c1.1-0.1,2.1-0.9,2.5-2c-3.9-3.7-9.6-12.2-12-16.8l0,0
					C106.7,311.5,100.5,299.3,94.8,287.2z"/>
			</g>
		</mask>
		
			<linearGradient id="SVGID_39_" gradientUnits="userSpaceOnUse" x1="-3120.9292" y1="373.9365" x2="-3130.0549" y2="363.8603" gradientTransform="matrix(-0.9997 2.370000e-02 2.370000e-02 0.9997 -3032.0581 29.2131)">
			<stop  offset="0" style="stop-color:#319483"/>
			<stop  offset="1" style="stop-color:#447B9B"/>
		</linearGradient>
		<path class="st47" d="M94.8,287.2c4.3,47.1,4.5,45.1,4.5,45.1c0.9,1.2,2.3,1.5,3.8,1.5c0.1-1.5,1.4-3.5,2.9-3.6
			c1.6,0.3,3,0.9,4.2,2.1c3.4,2.9,2.8,5.6,5,7.6c1.9,1.8,4.9,2,7.6,1.7c1.1-0.1,2.1-0.9,2.5-2c-3.9-3.7-9.6-12.2-12-16.8l0,0
			C106.7,311.5,100.5,299.3,94.8,287.2z"/>
		
			<linearGradient id="SVGID_40_" gradientUnits="userSpaceOnUse" x1="-3109.4712" y1="350.4024" x2="-3155.4751" y2="382.149" gradientTransform="matrix(-0.9997 2.370000e-02 2.370000e-02 0.9997 -3032.0581 29.2131)">
			<stop  offset="0" style="stop-color:#000000"/>
			<stop  offset="1" style="stop-color:#00463D"/>
		</linearGradient>
		<path class="st48" d="M99,330.5c0.2,1.6,0.3,1.8,0.3,1.8c0.9,1.2,2.3,1.5,3.8,1.5c0.1-1.5,1.4-3.5,2.9-3.6c1.6,0.3,3,0.9,4.2,2.1
			c3.4,2.9,2.8,5.6,5,7.6c0.9,0.8,2,1.2,2,1.2c1.8,0.8,5.4,0.7,6.3,0.4c1.3-0.4,2.1-1.8,2.1-3.1c-2-48.9-0.2-8.2-1.5,0
			c-0.5,3-4.4,2.3-7.2,1c-2.3-1-2-2-3.1-4.3c-3.8-7.8-10.9-7.6-10.8-3C101.8,332.4,100.2,331.9,99,330.5z"/>
	</g>
	<g>
		<g>
			<g>
				<g>
					<path class="st5" d="M145.2,118.1c0.5,35-33.4,33.6-74.1,44.1c-0.4,0.1-0.7,0.1-1,0.2c-3.3,0.6-5.9,0.9-8.6,2.2v0
						c-0.7,0.3-1.5,0.8-2.2,1.3c-5-5.7-3.1-15.1,0.8-21.5c9.6-3.1,17.1-5.7,22.1-7.6c18.8-6.9,20.3-8.3,30.2-11
						c-0.5-8.5-0.6-17.2-0.2-25.2C117.5,87.7,147.9,83.5,145.2,118.1z"/>
					<path class="st49" d="M147.8,96.3c-0.4,3.5-0.7,7-0.7,10.5c-0.3,52.9-18.3,40.8-76.1,55.2c-3.5,1-6.1,0.8-9.6,2.5
						c-0.5-1.5-0.8-3.3-0.8-3.3c1.7-5.5,1.8-12.5,3.5-18.1c20,4.7-2.7,17,39.5,3.1c5.6-1.8,18.4-4.4,24.7-10
						c5.4-4.8-1.9-4.8-6.4-6.1c-2.5-0.6-5.9-1.9-9.7-4.4c-1-17.6-2.3-32.9-2.2-44.3c0.2-19.4,1.1-26.3,6-32.9
						c5.6-7.6,16.6-15.2,24.8-12c4.7,1.8,7.7,6.8,8.2,7.7c2.6,4.6,2.4,9.1,2.8,11C152.4,57.6,149.3,84.4,147.8,96.3z"/>
				</g>
			</g>
		</g>
		<g>
			<g>
				<path class="st50" d="M25.8,138c-1.6,0.3-3.5,0.8-5.8,1.6c-1.8,0.6-4.2,1.7-7.2,3.5c-1.2,0.7-12.6,7.8-12.2,12.7
					c0,0.3,0.1,1.6,0.2,3.4c0.1,0.7,0.1,1.6,0,3c-0.3,4.4-1.3,5.1-0.7,7c0.7,2.2,2.1,1.9,6,5.9c2.9,3,2.6,3.7,4.5,4.7
					c1.4,0.7,2,0.6,6.2,1.6c3.4,0.8,3.4,1,4.5,1.2c0,0,3.7,0.6,15.4-6.2l4.6-9.8C36.2,157,31,147.5,25.8,138z"/>
				<g>
					<path class="st51" d="M21.4,182.5c0,0-3.7-0.5,1.6-5.3c5.3-4.8,9.2-7.2,9.2-7.2l-7.2,11.7L21.4,182.5z"/>
					<path class="st51" d="M10.7,179.6c0,0-4.3-2.2-0.1-6c4.3-3.8,14-7.2,14-7.2l-10,10.2L10.7,179.6z"/>
					<path class="st51" d="M0.1,167.9c0,0-1.1-2.2,4.3-4.4c5.3-2.2,19.8-4.4,19.8-4.4l-11.5,6.2L0.1,167.9z"/>
					<path class="st51" d="M0.7,155.7c0,0-1.6-4.3,11.9-5.9c13.5-1.6,13.7-0.7,13.7-0.7s-4.1-3.2-3.6-7.1c0.1-0.6,0.4-2.7,2-3.7
						c0.4-0.2,0.8-0.4,1.1-0.4c2.6-0.4,8,6.3,6.6,10.3c-0.5,1.4-2,3.1-17,5.5C9.3,154.8,4.2,155.4,0.7,155.7z"/>
				</g>
				<g>
					<g>
						<g>
							<linearGradient id="SVGID_41_" gradientUnits="userSpaceOnUse" x1="52.9669" y1="145.9097" x2="10.1958" y2="176.7049">
								<stop  offset="0" style="stop-color:#FF4463"/>
								<stop  offset="1" style="stop-color:#BF1C3C"/>
							</linearGradient>
							<path class="st52" d="M68.8,162.4c-0.6,0.7-2.1,2.1-2.1,2.1s-7.8,3.8-10.4,4.1c-0.1,0-0.2,0.1-0.2,0.1s-5.9,4.2-10.8,5.1
								c-4.8,0.9-6.3,1.3-6.3,1.3s-5.1,5.9-11.2,7.5c-1,0.2-2,0.4-3,0.4c-7.3-0.2-3.3-3.5-3.3-3.5L32,170
								c-1.2,0.7-11.2,6.4-15.3,8.9c-4.3,2.5-7.5,0.8-7.3-2.2c0.2-3.1,15.4-10.2,15.4-10.2c-6.6,1.6-11.4,3-14.9,4.2
								c-1.8,0.6-4.8,1.7-7.4,0.3c-1-0.5-2.5-1.6-2.4-2.9c0.1-1.3,1.9-2.2,2.9-2.6c5.2-2.2,18.5-5.7,20.8-6.1c-4,0.3-7.4,0.5-10,0.6
								c-8.2,0.3-11.1-0.1-12.5-2.1c-0.3-0.4-0.8-1.1-0.5-2c0.5-2.6,6.7-3.4,11.9-4c2.1-0.3,1.3-0.1,7.1-0.7c4.5-0.5,9.4-1,9.4-1
								c-3.9-2.6-6.2-6.2-5.5-9.1c0.1-0.3,0.6-2.4,2.1-2.9c1.4-0.5,2.9,0.5,5.6,2.5c0.6,0.4,1.6,0.9,2.6,1.4
								c5.2,2.4,14.6,4.8,15.5,5c0.4,0.1,0.7,0,0.7,0c1,0,1.9-0.1,2.7-0.2c3-0.5,4.9-1.5,9-1c2.6-2.3,5-1.2,6.8,1.1
								c1.3,1.7,2.3,4.1,2.6,6.4v0.1C72.1,157.9,69.4,161.5,68.8,162.4z"/>
							<path class="st53" d="M24.6,150.5L24.6,150.5c1,0.2,2.1,0.5,3.3,1.1c3,1.6,3.1,3.4,5.8,5.9c3.9,3.7,7.3,3.1,8,5.8
								c0.6,2.2-1,4.1-0.4,4.5c0.9,0.6,3.7-4.3,8.6-4.9c4.1-0.5,6.3,1.8,6.2,5.6v0c1-0.1,2.1-0.4,3.3-0.8c1.1-0.4,2.1-0.9,3-1.5
								c9.5-6.4,2.6-24.2-10.8-19.1c4.1,5.8,4.3,8.9,3.3,10.6c-2.1,3.6-11.1,4.8-17.3-0.5c0,0-1.4-0.8-3-2.2
								c-0.2-0.2-0.4-0.4-0.4-0.4c-0.4-0.4-0.6-0.6-1.6-1.6c-1.4-1.4-2.6-2.6-3.5-3.3c-0.3,0-0.5,0-0.8,0.1L24.6,150.5z"/>
						</g>
					</g>
				</g>
				<path class="st50" d="M74.9,165.6c-0.3,1.6-1.7,2.6-3.3,2.7L56,168.7c0,0,0.1,0,0.2-0.1c0.3-0.1,1-0.4,1.4-0.6
					c0,0,0.9-0.5,1.6-1.5c1.1-1.5,1.5-4.7,1.5-4.7c0.1-0.6,0.1-1.2,0.2-1.7c0.2-3.2-0.2-5.3-2.3-8.6c-0.1-0.2-0.3-0.5-0.5-0.7
					c-1.8-2.6-3.3-4.5-6.4-3.5c0.4-0.2,0.9-0.5,1.3-0.8c3.8-2.3,7.6-4.6,11.4-6.9c1.4-0.8,3.2-0.6,4.3,0.6c1.3,1.5,2.4,3.1,3.3,4.8
					c1.1,2,2,4.1,2.6,6.3C75.8,155.9,75.9,160.8,74.9,165.6z"/>
			</g>
			<path class="st51" d="M74.9,165.6c-0.3,1.6-1.7,2.6-3.3,2.7L56,168.7c0,0-5.9,4.2-10.8,5.1c-4.8,0.9-6.3,1.3-6.3,1.3
				c6.3-2.1,9.5-4.3,11.4-5.9c0.8-0.7,2.1-2,4.3-3.7c1.4-1.1,2.1-1.5,3.6-2.7c1-0.9,2-1.8,2.7-2.6c0.4-0.4,0.7-0.8,1-1.1l9.4-5.8
				l3.1-1.9C75.8,155.9,75.9,160.8,74.9,165.6z"/>
		</g>
	</g>
	<g>
		<g>
			<linearGradient id="SVGID_42_" gradientUnits="userSpaceOnUse" x1="180.8305" y1="55.4698" x2="188.8144" y2="164.9644">
				<stop  offset="0" style="stop-color:#00463D"/>
				<stop  offset="1" style="stop-color:#028878"/>
			</linearGradient>
			<path class="st54" d="M244.6,174.8c-6.7,6-14.7,6.8-20.5,7.2c-38.2,3-63.3-36.4-64.2-38.2c-0.8-1.6-1.2-3.1-1.2-3.1
				c-0.5-1.9-0.2-2.8-2.2-7.7c-3-7.4-14.7-25.7-20.1-31.8c-0.4-0.5-2.8-2.7-3.3-3.2c-3.9-3.6-7.3-7.8-10-13.6
				c-8.4-13.7-10.4-28.8-3.8-37c6.2-7.8,19.3-7.6,34.4-8.2c5.2-0.2,10.2,0.2,15.6,1c26.1,3.7,49.7,18.7,63.9,44.7
				c1.8,4.6,6,17.5,8.9,27.4v0c2.2,6.6,0.6,4.4,9.7,29.5C256.5,154.5,253.3,167,244.6,174.8z"/>
		</g>
		<defs>
			<filter id="Adobe_OpacityMaskFilter_4_" filterUnits="userSpaceOnUse" x="137.6" y="43.4" width="116.3" height="138.8">
				<feFlood  style="flood-color:white;flood-opacity:1" result="back"/>
				<feBlend  in="SourceGraphic" in2="back" mode="normal"/>
			</filter>
		</defs>
		<mask maskUnits="userSpaceOnUse" x="137.6" y="43.4" width="116.3" height="138.8" id="SVGID_43_">
			<g class="st55">
				<defs>
					<filter id="Adobe_OpacityMaskFilter_5_" filterUnits="userSpaceOnUse" x="137.6" y="43.4" width="116.3" height="138.8">
						<feFlood  style="flood-color:white;flood-opacity:1" result="back"/>
						<feBlend  in="SourceGraphic" in2="back" mode="normal"/>
					</filter>
				</defs>
				<mask maskUnits="userSpaceOnUse" x="137.6" y="43.4" width="116.3" height="138.8" id="SVGID_43_">
				</mask>
				<linearGradient id="SVGID_44_" gradientUnits="userSpaceOnUse" x1="194.4925" y1="134.3227" x2="123.7507" y2="253.5571">
					<stop  offset="0" style="stop-color:#FAFAFA"/>
					<stop  offset="1" style="stop-color:#FFFFFF"/>
				</linearGradient>
				<path class="st57" d="M244.6,174.8c-6.7,6-14.7,6.8-20.5,7.2c-38.2,3-63.3-36.4-64.2-38.2c-0.8-1.6-1.2-3.1-1.2-3.1
					c-0.5-1.9-0.2-2.8-2.2-7.7c-2.7-6.7-12.9-22.9-18.8-30.2c7.9,8.9,23.6,26.6,34.8,37.7c0.6,0.6,1.8,1.7,3.4,1.6
					c6.9-0.4,11.2-25.4,13.7-48.1c-0.2-4.5-1.1-11.1-5.1-17.4c-5.2-8.3-11.7-9.7-12.6-15.4c-0.6-3.8,1-9.5,11.4-17.7
					c10.1,3.2,18.4,7.8,23,11.2c22.9,15.4,26.6,28.6,30.4,40.2c2.8,8.3,4.5,14.3,5.4,17.5v0c3.2,9.5,0.1,3.1,9.7,29.5
					C256.5,154.5,253.3,167,244.6,174.8z"/>
			</g>
		</mask>
		<linearGradient id="SVGID_45_" gradientUnits="userSpaceOnUse" x1="194.4925" y1="134.3227" x2="123.7507" y2="253.5571">
			<stop  offset="0" style="stop-color:#319483"/>
			<stop  offset="1" style="stop-color:#447B9B"/>
		</linearGradient>
		<path class="st58" d="M244.6,174.8c-6.7,6-14.7,6.8-20.5,7.2c-38.2,3-63.3-36.4-64.2-38.2c-0.8-1.6-1.2-3.1-1.2-3.1
			c-0.5-1.9-0.2-2.8-2.2-7.7c-2.7-6.7-12.9-22.9-18.8-30.2c7.9,8.9,23.6,26.6,34.8,37.7c0.6,0.6,1.8,1.7,3.4,1.6
			c6.9-0.4,11.2-25.4,13.7-48.1c-0.2-4.5-1.1-11.1-5.1-17.4c-5.2-8.3-11.7-9.7-12.6-15.4c-0.6-3.8,1-9.5,11.4-17.7
			c10.1,3.2,18.4,7.8,23,11.2c22.9,15.4,26.6,28.6,30.4,40.2c2.8,8.3,4.5,14.3,5.4,17.5v0c3.2,9.5,0.1,3.1,9.7,29.5
			C256.5,154.5,253.3,167,244.6,174.8z"/>
	</g>
	<g>
		<g>
			<g>
				<g>
					<g>
						<path class="st5" d="M203.4,166.9c-2.4,2.8-6,5.7-28.5,11.3c-21.2,5.3-44.3,8.8-49.3,9.1c-4.6,0.3-8.9,1.5-12.3,3.3
							c0,0-0.6,0.3-0.7,0.3c-6.9-7.1-4.1-17.6,4.6-22.4c1-0.4,2-0.7,3-1.1c0,0,0.1,0,0.2-0.1c0,0,21.2-7.7,61.3-21.4
							c-0.5-11.9-0.5-25.1,0.4-36.9c1.2-18.5,1.8-27.7,5.2-31.5c7.5-8.4,23.7-10.9,32-4c11.7,9.5,10,21.1-0.4,52.9
							C216.9,132.4,207.5,162.1,203.4,166.9z"/>
					</g>
				</g>
			</g>
			<path class="st49" d="M203.4,166.9c-2.4,2.8-6,5.7-28.5,11.3c-21.2,5.3-44.3,8.8-49.3,9.1c-0.6,0-1.2,0.1-1.9,0.2
				c-0.1-0.7-3.6-19.8-3.7-20.5l0.3,0.4l1.9,2.3c5.9,7.2,15.6,10.2,24.6,7.6l43.4-12.8c2.6-0.8,4.6-2.8,5.4-5.4
				c1.6-5.7,5-18.1,11.1-42.3c7.7-30.9,1.6-43.4-1.6-47.1c5.2-0.3,10.3,0.9,14,3.9c11.7,9.5,10,21.1-0.4,52.9
				C216.9,132.4,207.5,162.1,203.4,166.9z"/>
		</g>
		<g>
			<path class="st50" d="M89.9,214.5c-4.7,1.5-9.1,1.9-13.8,1.7c-1.4-0.1-14.7-0.9-16.7-5.5c-0.9-2-1.8-4.1-2.8-5.7
				c-2.3-3.7-3.5-3.9-3.9-5.9c-0.4-2.2,1-2.6,2.5-8c1.1-4,0.6-4.5,1.7-6.2c0.9-1.3,1.5-1.5,4.7-4.3c2.6-2.3,2.5-2.5,3.4-3.2
				c0,0,3-2.3,16.5-1.8l8.6,6.5C90,192.9,89.9,203.7,89.9,214.5z"/>
			<g>
				<path class="st51" d="M65,177.3c0,0-3,2.2,3.9,4c6.9,1.8,11.5,2,11.5,2l-11.9-6.9L65,177.3z"/>
				<path class="st51" d="M56.9,184.9c0,0-2.8,4,2.8,5.3s15.8-0.2,15.8-0.2C59.5,184.9,63.2,185.9,56.9,184.9z"/>
				<path class="st51" d="M53,200.2c0,0,0.1,2.5,5.9,1.9c5.7-0.6,19.5-5.5,19.5-5.5l-13.1,0L53,200.2z"/>
				<path class="st51" d="M59.4,210.7c0,0,0.6,4.6,13.3-0.4c12.7-5,12.4-5.9,12.4-5.9s-2.1,4.7,0.2,7.9c1.6,2.2,3.4,2.6,4.6,2.2
					c2.5-0.9,4.1-9.4,1-12.2c-1.1-1-3.2-1.8-17.5,3.2C67.4,207.4,62.6,209.3,59.4,210.7z"/>
			</g>
			<g>
				<g>
					<g>
						
							<linearGradient id="SVGID_46_" gradientUnits="userSpaceOnUse" x1="106.1621" y1="-463.0681" x2="170.4225" y2="-494.0215" gradientTransform="matrix(0.9203 0.3912 -0.3912 0.9203 -222.6724 579.9456)">
							<stop  offset="0" style="stop-color:#FF4463"/>
							<stop  offset="1" style="stop-color:#BF1C3C"/>
						</linearGradient>
						<path class="st59" d="M118.1,190.8c-4.6,3.2-6.4,2-10.9,4.4c-1,0.2-11.7,10.7-13.6,14.5c-1.4,2.9-2.3,4.5-3.8,4.8
							c-1.6,0.3-3-1.3-3.2-1.6c-2-2.2-1.7-6.4,0.5-10.6c-14.5,5.9-29,13.2-28.2,6.3c0.3-2.4,2.7-4.1,10.1-7.7
							c2.4-1.2,5.6-2.7,9.4-4.3c-0.7,0.4-15.5,3.9-21.5,4.5c-4.3,0.4-5.1-1.8-3.1-4.7c1.6-2.5,4.8-3,6.6-3.3
							c3.6-0.6,8.5-1.6,15.1-3.3c0,0-16.7,0.8-18.3-1.7c-1.6-2.6,0.5-5.7,5.4-5.4c4.7,0.2,16.2,0.6,17.6,0.6l-13.7-3.5
							c0,0-5.1-1,1.3-4.6c6.4-3.5,16.1,0.3,16.1,0.3c4.6-0.9,8.1-3.7,18.1-2.4c0,0,0.1,0,0.2,0c2.4-0.9,11.1-1.3,11.1-1.3
							s2.1,0.5,2.9,0.9c0.9,0.5,5.1,2.4,6.6,6.9C124.6,184.9,123.9,192.2,118.1,190.8z"/>
						<path class="st53" d="M82.9,204c0.7-0.5,1.6-1.4,2.3-2.5c1.9-2.8,1.1-4.5,2.3-8c1.7-5.1,5-6.1,4.3-8.9
							c-0.5-2.2-2.8-3.1-2.5-3.8c0.5-1,5.3,2,9.9,0.2c3.8-1.5,4.8-4.6,2.8-7.9c17-6.5,22.6,18.9,6.1,20.9c0.9-7-0.4-9.8-2.1-10.9
							c-3.6-2.2-12.1,1-15.1,8.5c-1.2,1.9-1.7,3.9-2.3,6.1c-0.6,1.9-1.1,3.5-1.5,4.5l0,0C87.1,202.4,87.2,202.3,82.9,204z"/>
					</g>
				</g>
			</g>
			<path class="st50" d="M122.9,194.8c-4-0.2-14.7-0.8-14.8-0.8c3.4-0.6,3.9-3.4,4.2-7c0.4-4.5-0.6-6.6-3-10.1
				c-2.5-3.7-4.4-4.2-7.1-3.8c-0.1,0-0.2,0-0.2,0l13.9-7c1.4-0.7,3.1-0.4,4.2,0.8c6.1,7.2,8.3,16.5,6.3,25.2
				C126.1,193.8,124.5,194.9,122.9,194.8z"/>
			<path class="st51" d="M122.9,194.8c-4.5-0.3-8.8-0.5-13.3-0.7c-0.7,0.2-1.6,0.6-2.5,1c0,0-0.3,0.1-0.6,0.3
				c-0.7,0.6-7.8,7.2-11.3,11.8c2-6.5,7.1-11.4,17.1-20.2c13.2-0.5,10.2-0.4,14.8-0.6c0,1.9-0.2,3.8-0.7,5.8
				C126.1,193.8,124.5,194.9,122.9,194.8z"/>
		</g>
	</g>
	<g>
		<path class="st6" d="M176.4,52.6c0,0-5.9,26.6-17.1,33.1c-3.6,2.1-5.8,3.7-7,5c-1.4,1.5-3.7,1.7-5.2,0.4c-5-4.3-13-13-14.3-25.3
			C130.8,47.4,175,43.6,176.4,52.6z"/>
		<g>
			
				<linearGradient id="SVGID_47_" gradientUnits="userSpaceOnUse" x1="186.6811" y1="-171.1473" x2="167.9536" y2="-111.5313" gradientTransform="matrix(0.9914 0.1308 -0.1308 0.9914 -46.5204 196.6825)">
				<stop  offset="0" style="stop-color:#ED7D88"/>
				<stop  offset="1" style="stop-color:#FFCFCD"/>
			</linearGradient>
			<path class="st60" d="M168.9,45c3,0.3,5.2,2.7,5.3,5.7c0.3,9.8-3.9,18.5-10.9,24.5c-4.7,4-12.9,6.2-15.9,3.3
				c-2.4-2.3-10-3.7-10.6-4.5c-0.1-0.1,0-0.2,0-0.3C135.1,60.9,152,43.3,168.9,45z"/>
			<g>
				<path class="st61" d="M177.3,39c-1.4,6.2-4,11-4,11c-1.4,4.2-4.1,10.5-9.6,16.5c-4,4.4-10.3,9.6-16.6,12.5c0,0-0.1,0-0.1,0.1
					c-5.2,2.4-10.5,3.3-14.8,1.1c-4.4-2.2-6.4-6.9-9.7-14.5c-2.8-6.6-4-12.4-4.5-16.3c8.6-29.5,29.1-46.3,37.3-44.5
					c3.1,0.6,4.7,5.2,14,10.7C178.9,21.1,179,31.2,177.3,39z"/>
				
					<linearGradient id="SVGID_48_" gradientUnits="userSpaceOnUse" x1="173.144" y1="-182.5257" x2="168.2116" y2="-134.1265" gradientTransform="matrix(0.9914 0.1308 -0.1308 0.9914 -46.5204 196.6825)">
					<stop  offset="0" style="stop-color:#ED7D88"/>
					<stop  offset="0.4335" style="stop-color:#F6A8AC"/>
					<stop  offset="0.7935" style="stop-color:#FDC4C4"/>
					<stop  offset="1" style="stop-color:#FFCFCD"/>
				</linearGradient>
				<path class="st62" d="M177.3,39c-1.4,6.2-4,11-4,11c-1.4,4.2-4.1,10.5-9.6,16.5c-4,4.4-10.3,9.6-16.6,12.5
					c8.7-5.2,8.4-16.1,5.1-21.4c-2.3-3.7-5.2-3.5-15.8-4.3c-8.5-0.6-15.6-4.1-18-5.4c0.1-0.5,0.3-0.9,0.5-1.4
					c6.7-4.1,35-21.1,41.1-20.9C165.3,25.7,172.9,31.9,177.3,39z"/>
				<g>
					<g>
						<path class="st63" d="M149,47.4c3.6-0.6,7.2,0.3,7.5,3.9c0.5,5.4-1.2,11,2.9,13.4c4.3,2.5,12.5-2.3,16.3-8.5
							c0.6-1,1.8-3.2,2.7-7.8c0.9-4.7,3.3-18.4-2.6-23c-8.8-6.9-33.9,7.9-33.9,7.9C144.3,38,146.7,42.7,149,47.4z"/>
						<g>
							<g>
								<path class="st63" d="M114.9,43.7c-1.3,0.7-10.9,5.9-10,9.5c0.4,1.6,4.5,2.4,12.5,4c26.2,5,26.3-2.9,34.9-6.4
									c2.8-1.2,4.8-1.5,4.9-2.6c0.1-1.3-2.5-2.6-3.4-3C146.7,41.6,124.8,42.9,114.9,43.7z"/>
							</g>
						</g>
						<path class="st4" d="M180.7,29.4c0.5,3.7,1.2,10.2-1.4,17.7c-0.9,2.5-2.4,6.8-6.3,10.6c-2.1,2.1-5,5.2-8.8,4.8
							c-0.7-0.1-2.3-0.2-3.6-1.4c-3.2-3,0.1-8-3.2-13c-4-5.9-8.9-2.9-13.6-1.7c-2.9,0.7-5.9,0.7-11.9,0.7c-4.5,0-10.8-0.5-18.5-2.5
							c-10.9-31.2,25.3-57.5,54.1-37.9C176.7,13.1,179.5,19.9,180.7,29.4z"/>
						<path class="st3" d="M165.2,31.2C159.7,42,142,42.7,134.2,43c-2.2,0.1-5.1,0.1-8.3-0.2c-8.3-0.7-13.7-9.1-10.9-16.9
							c3.4-9.5,9.9-16.9,18.3-20C153.6-1.7,174.1,14,165.2,31.2z"/>
					</g>
				</g>
			</g>
			<path class="st63" d="M181.1,35.3c0,0-16.4,7.5-19.4,9.6c-2.1,1.3-2,4-0.7,4.6c0.7,0.3,1.5,0.1,2.2-0.5c-0.3,1.4-0.4,1.8-0.6,3.6
				c-11.1,6.1-26.1,16.3-44.7,6c-0.5-2.1-1-4.4-1.4-6.9c-1,0.4-1.9,0.8-2.9,1.1c0.7,3.7,2,9,4.5,15.1c3.4,8.3,5,12.5,9,15.1
				c7.8,5.2,18.4,1.6,23.1,0c3.4-1.2,9.2-4.1,14-9.8c1.9-2.3,13.6-24.2,16.6-33.4c0.2-0.2,0.9-0.8,1-1.8
				C182.1,36.6,181.2,35.5,181.1,35.3z M162.3,55.5c-0.1,1.9-0.2,4.1-0.2,7.2c-6,4.1-13,8.5-21,10.1c0-2.1,0.4-4.6,1.1-8.1
				C148.4,63.3,152.1,61.2,162.3,55.5z M164.9,54.1c2.8-1.6,5.6-3.2,8-4.6c-1,2.5-2.2,5.4-3.5,8.2c-1.6,1-3.3,2.2-5.1,3.5
				C164.4,58.4,164.6,56.1,164.9,54.1z M139.8,65.2c-0.5,2.5-1.1,5.1-1.1,8.1c-2.9,0.4-5.9,0.3-9.1-0.3c-0.1-2.2,0.2-4.5,0.9-7.5
				C133.3,65.8,136,65.8,139.8,65.2z M126.9,65c-0.6,2.6-0.6,5-0.4,7.2c-1.8-0.5-3.6-1.3-5.4-2.2c-0.9-2.2-1.4-4-1.4-4
				c-0.4-1.3-0.8-2.7-1.1-4.2C120.7,63.5,124,64.5,126.9,65z M122.6,73.5c1.3,0.7,2.9,1.3,4.4,1.7c0.6,2.3,1.4,4.3,2.2,6.1
				C126.8,79.8,125,78.4,122.6,73.5z M132,82.4c-1-2.5-1.6-4.7-2-6.7c3,0.4,5.4,0.6,9,0.2c0.3,2.7,0.9,4.3,1.8,6.9
				C137.6,83.4,134.9,83.4,132,82.4z M143,82.1c-0.9-2.6-1.5-4.6-1.7-6.6c7.9-1.4,13.6-5.5,20.9-10.6c0,2.1-0.2,3.7-0.3,6.6
				C157,77.4,150.6,79.9,143,82.1z M163.9,69.3c0.1-2.2,0.2-4.1,0.3-5.8c1.2-0.8,2.5-1.7,3.8-2.5C166.4,64.3,165,67.3,163.9,69.3z
				 M174.1,46.2c-1.9,1.1-5.2,2.9-8.7,4.8c0.2-1.2,0.5-2.4,0.9-3.7l8.9-4.6C175,43.6,174.7,44.7,174.1,46.2z"/>
		</g>
	</g>
</g>
</svg>
